<?xml version="1.0" encoding="UTF-8"?> <svg xmlns="http://www.w3.org/2000/svg" id="Layer_1" viewBox="0 0 534.67 400.78"><defs><style>.cls-1{fill:#ebebeb;}.cls-2{fill:#383838;}.cls-3{fill:#48a6bc;}</style></defs><path class="cls-1" d="m268.15,131.63c0-7-.02-13.99-.04-21-.05-16.98-.1-34.55.05-52.06l-5-.04c-.15,17.54-.1,35.12-.05,52.12.02,6.99.03,13.98.04,20.96l-8.5-8.5-3.54,3.54,14.55,14.55,14.55-14.55-3.54-3.54-8.52,8.52Z"></path><path class="cls-1" d="m320.18,108.79l-2.12,11.98c-2.95-3.81-5.75-7.81-8.33-11.95-9.36-15.01-16.34-32.14-20.73-50.92l-4.87,1.14c4.52,19.32,11.71,36.96,21.36,52.43,2.59,4.15,5.39,8.17,8.34,12.01l-11.7-2.07-.87,4.92,20.26,3.58,3.58-20.26-4.92-.87Z"></path><path class="cls-1" d="m242.1,57.92c-5.5,24.44-15.27,45.58-29.05,62.9l-2.13-12.04-4.92.87,3.58,20.26,20.26-3.58-.87-4.92-11.63,2.06c14.05-17.83,24.02-39.49,29.63-64.45l-4.88-1.1Z"></path><path class="cls-2" d="m114.87,189.94c-1.82,0-3.29,1.47-3.29,3.29s1.47,3.29,3.29,3.29,3.29-1.47,3.29-3.29-1.47-3.29-3.29-3.29Z"></path><rect class="cls-2" x="112.04" y="197.62" width="5.67" height="17.26"></rect><rect class="cls-2" x="118.89" y="190.87" width="5.67" height="24"></rect><rect class="cls-2" x="125.73" y="190.87" width="5.67" height="24"></rect><path class="cls-2" d="m192.46,199.4v-1.78h-5.67v17.26h5.67v-8.23c0-2.12,1.11-3.26,3.12-3.26h.67v-5.94c-1.71.07-2.95.6-3.79,1.95Z"></path><path class="cls-2" d="m179.94,198.93c-.8-.87-2.65-1.59-4.06-1.59-4.28,0-7.36,2.82-8.11,7.02-.82-4.03-4.33-7.13-8.61-7.13s-7.86,3.13-8.64,7.24c-.75-4.26-4.11-7.09-8.27-7.09-1.54,0-2.82.34-3.93,1.11v-7.62h-5.67v24h5.57v-1.58c1.34,1.24,2.79,1.81,4.57,1.81,3.83,0,7.06-3,7.75-7.14.81,4.05,4.3,7.12,8.62,7.12s7.71-3.01,8.58-6.95c.72,4.31,4.14,7,8.21,7,1.41,0,2.95-.47,3.99-1.24v.97h5.67v-7.55c0-.31,0-.61,0-.91,0-.29,0-.6,0-.91v-7.86h-5.67v1.29Zm-38.29,10.69c-1.82,0-3.29-1.47-3.29-3.29s1.47-3.29,3.29-3.29,3.29,1.47,3.29,3.29-1.47,3.29-3.29,3.29Zm17.51-.26c-1.82,0-3.29-1.47-3.29-3.29s1.47-3.29,3.29-3.29,3.29,1.47,3.29,3.29-1.47,3.29-3.29,3.29Zm17.05.1c-1.82,0-3.29-1.47-3.29-3.29s1.47-3.29,3.29-3.29,3.29,1.47,3.29,3.29-1.47,3.29-3.29,3.29Z"></path><path class="cls-2" d="m208.84,198.49c-1.11-.77-2.38-1.11-3.93-1.11-4.73,0-8.43,3.66-8.43,8.93,0,4.97,3.56,8.8,7.89,8.8,1.78,0,3.22-.57,4.57-1.81v1.58h5.57v-24h-5.67v7.62Zm-3.34,11.09c-1.82,0-3.29-1.47-3.29-3.29s1.47-3.29,3.29-3.29,3.29,1.47,3.29,3.29-1.47,3.29-3.29,3.29Z"></path><path class="cls-2" d="m102.98,197.38c-1.54,0-2.82.34-3.93,1.11v-7.62h-5.67v24h5.57v-1.58c1.34,1.24,2.79,1.81,4.57,1.81,4.33,0,7.89-3.83,7.89-8.8,0-5.27-3.69-8.93-8.43-8.93Zm-.6,12.23c-1.82,0-3.29-1.47-3.29-3.29s1.47-3.29,3.29-3.29,3.29,1.47,3.29,3.29-1.47,3.29-3.29,3.29Z"></path><path class="cls-2" d="m237.43,166.94H69.31c-2.77,0-5.01,2.24-5.01,5.01v61.64c0,2.77,2.24,5.01,5.01,5.01h168.12c2.77,0,5.01-2.24,5.01-5.01v-61.64c0-2.77-2.24-5.01-5.01-5.01Zm0,66.66H69.31s0-61.66,0-61.66h168.12s0,61.66,0,61.66Z"></path><polygon class="cls-2" points="317.26 352 315.28 335.35 305.78 335.35 308.89 360.28 323.57 360.28 333.04 335.35 322.75 335.35 317.26 352"></polygon><path class="cls-2" d="m387.51,335.29c-5.56,0-11.98,1.14-11.98,6.5v11.31c0,6.18,6.14,7.18,11.98,7.18s12.01-.99,12.01-7.18v-2.59h-9.28v2.27c0,2.63-.57,3.26-2.2,3.26s-2.23-.63-2.23-3.26v-3.7h13.71s0-7.3,0-7.3c0-5.34-6.48-6.5-12.01-6.5Zm2.73,10.37h-4.43v-3.24c0-2.26.69-2.88,2.23-2.88s2.2.63,2.2,2.88v3.24Z"></path><path class="cls-2" d="m372.6,341.46c0-5.34-5-6.17-9.15-6.17h-14.08v24.99h14.08c4.33,0,9.15-1,9.15-7.18,0-4.51-2.2-5.27-5.16-5.9,2.98-.6,5.16-1.43,5.16-5.74Zm-11.06,14.58h-1.86v-6.98h1.86c1.7,0,2.33.87,2.33,3.57s-.71,3.41-2.33,3.41Zm0-10.27h-1.86v-6.24h1.86c1.59,0,2.33.79,2.33,3.04,0,2.53-.74,3.2-2.33,3.2Z"></path><rect class="cls-2" x="334.77" y="335.32" width="10.34" height="24.94"></rect><path class="cls-2" d="m468.98,200.28h-168.12c-2.77,0-5.01,2.24-5.01,5.01v61.64c0,2.77,2.24,5.01,5.01,5.01h168.12c2.77,0,5.01-2.24,5.01-5.01v-61.64c0-2.77-2.24-5.01-5.01-5.01Zm0,66.66h-168.12s0-61.66,0-61.66h168.12s0,61.66,0,61.66Z"></path><path class="cls-2" d="m174.79,302.11c-3.67,0-6.61,3.56-6.61,6.85,0,3.68,2.29,5.63,5.5,5.63s5.34-1.72,5.34-3.84c0-.98-.76-1.62-1.62-1.62-.62,0-1.22.24-1.65.7-.07.08-.1.19-.09.29,0,.17.07.25.17.39.08.11.12.24.12.38,0,.31-.41.99-1.62.99s-1.85-.84-2.01-2.1l7.34-3.38c-.46-2.76-1.8-4.3-4.88-4.3Zm1.04,3.72l-3.19,1.43c.38-1.94,1.39-2.81,2.1-2.81.62,0,1.06.31,1.09,1.38h0Z"></path><path class="cls-2" d="m131.62,304.96l-2.31-1.64c-1.34-.94-1.74-1.38-1.72-2.44.02-1.12,1.18-2.01,2.92-2.01s2.84.63,2.82,1.64c0,.42-.07.9-.29,1.67h2.32c.31-1.82.72-3.61,1.23-5.38h0s0,0,0,0l-.33-.27c-.52.13-1.34.24-1.83.22-1.47-.08-2.74-.49-4.37-.49-3.9,0-6.77,2.27-6.83,5.48-.08,1.52.48,3.02,1.54,4.11.5.49,1.05.92,1.64,1.3.61.41,1.22.81,1.84,1.2,1.41.92,2.17,1.54,2.15,3.02-.03,1.55-1.09,2.51-3.07,2.51-3.02,0-4.41-1.38-5.04-4.37l-2.42.58c.42,1.96.78,3.93,1.07,5.91l.36.2c.41-.23.88-.35,1.35-.36.63,0,1.21.19,1.81.33.71.17,1.57.33,2.61.33,4.43,0,7.9-2.07,7.97-6.15.04-2.46-1.26-3.89-3.41-5.41Z"></path><polygon class="cls-2" points="88.5 296.7 88.49 296.71 88.5 296.71 88.5 296.7"></polygon><path class="cls-2" d="m80.19,312.35c-1.14,0-1.14-.24-1.04-.84l2.41-14.73-.19-.2-5.99,2.44-.31,1.69h1.6c.19,0,.27.08.24.27l-1.72,10.63c-.11.69-.85.75-1.52.75l-.36,1.89h1.02c.81.03,1.45.71,1.42,1.52,0,.96-.8,1.93-3.09,1.93-6.02,0-10.71-4.49-12.63-10.48,2.52-.86,4.88-2.86,4.88-5.96,0-3.77-3.47-5.26-8.25-5.26-2.37.02-4.73.25-7.06.68-2.07.41-5.31,1.44-5.31,4.03v.02h0c0,.91.74,1.65,1.65,1.64.7,0,1.45-.32,1.79-.72.07-.09.12-.16.12-.29,0-.18-.11-.3-.19-.43-.07-.11-.1-.23-.1-.39,0-.37.56-.84,1.06-1.04.62-.24,1.26-.42,1.91-.54l-2.29,13.84c-.09.55-.44.83-.87.96-.23.08-.47.13-.71.15-.26.03-.53.03-.94.05l-.36,2.22c1.52-.09,3.14-.17,4.68-.17,1.69,0,3.39.07,4.93.17l.43-2.22-1.06-.07c-1.55-.1-1.56-.38-1.42-1.25l.72-4.54h1.67c2.13,7.22,8.35,12.02,17.76,12.02,5.08,0,7.02-1.57,7.02-3.54,0-1.03-1.06-1.81-2.15-2.31h1.99l.29-1.89Zm-25.37-6.55c-.2,0-.58.02-.8,0l1.21-7.5c.36-.04,1.4-.05,1.81-.05,1.75,0,3.07,1.22,3.07,3.16h0c0,2.52-2.41,4.39-5.28,4.39Z"></path><path class="cls-2" d="m86.13,311.17l2.37-14.46-.17-.17-6.01,2.5-.29,1.67h1.53c.25,0,.29.05.24.38l-1.65,10.22c-.13.82-.41,1.04-1.57,1.04l-.29,1.88h6.57l.29-1.88c-1.08,0-1.19-.11-1.02-1.18Z"></path><path class="cls-2" d="m120.41,304.69c.1,0,.2.02.29.05.12.04.22.11.29.21.11.16.19.31.4.31.66,0,1.34-.94,1.34-1.71h0c0-.97-.72-1.54-1.62-1.54-1.01,0-1.98.7-2.65,1.88-.94-1.42-2.62-1.88-3.98-1.88-2.98,0-5.92,1.99-5.92,5.24-.04,1.1.37,2.16,1.14,2.94-1,.41-1.85,1-2.15,2.15-.6-.04-1.04-.22-.94-.84l.82-5.14c.02-.17.07-.62.07-.8,0-1.64-.94-3.42-2.85-3.42-1.09,0-2.32.58-3.52,1.62l.24-1.45-.17-.17-5.99,2.48-.31,1.67h1.55c.24,0,.29.03.24.36l-.8,4.98c-.09.56-.12.72-1.2.72l-.31,1.89h6.25l.29-1.89c-1.04,0-1.14-.23-1.06-.72l.63-3.99c.13-.86,1.1-1.93,2.05-1.93.51,0,.91.42.82,1.02l-.72,4.82c-.1.7-.21.77-1.3.8l-.31,1.89h5.46c-1.5.73-2.17,1.63-2.17,2.78,0,2.33,2.64,3.12,5.38,3.12,4.61,0,9.56-1.97,9.56-5.22,0-1.83-1.42-2.8-3.4-2.8-1.16,0-2.27.19-3.52.19-.6,0-1-.11-1-.6,0-.18.08-.35.2-.48.71.23,1.45.34,2.19.31,1.99,0,3.83-1.03,4.9-2.7.4-.65.62-1.39.63-2.15l-.02-.48c0-.7.5-1.5,1.2-1.5Zm-8.79,11.04c.7,0,1.38-.09,2.05-.09.59,0,.84.19.84.46,0,.74-1.57,1.83-4.56,1.83-1.13,0-2.15-.64-2.15-1.42,0-.61.28-1.03.75-1.4.96.45,2.01.66,3.07.62Zm1.86-6.45c-.65,0-.85-.4-.85-1.35,0-1.36.53-3.64,1.76-3.64.54,0,.8.59.8,1.25,0,1.26-.63,3.75-1.71,3.75Z"></path><path class="cls-2" d="m93.01,311.24l1.47-8.93h0l-.17-.17-6.01,2.51-.29,1.65h1.54c.29,0,.28.03.24.31l-.75,4.88c-.09.6-.42.87-1.53.87l-.29,1.89h6.73l.29-1.89c-1.44,0-1.42-.11-1.26-1.11Z"></path><path class="cls-2" d="m166.89,311.41l.77-4.71c.09-.56.12-.88.12-1.28,0-1.69-1.12-3.26-2.8-3.26-1.34,0-2.53.67-3.6,1.62l.27-1.47-.17-.17-5.84,2.51-.29,1.65h1.43c.27,0,.32.05.27.38l-.78,4.78c-.11.72-.31.9-1.5.9l-.33,1.89h6.54l.29-1.89c-1.11,0-1.2-.24-1.11-.78l.58-3.76c.17-1.12,1.14-2.1,2.07-2.1.46,0,.94.27.82,1.06l-.7,4.64c-.13.85-.27.94-1.26.94l-.31,1.89h6.45l.36-1.89h0c-1.28,0-1.42-.15-1.28-.94Z"></path><path class="cls-2" d="m140.41,311.45c-.51,0-.7-.17-.53-1.16l.9-5.48h1.32c.46,0,.91.1,1.33.27l1.11-2.36h0s0,0,0,0l-3.46.03.56-3.5-.27-.27-3.99,1.62-.34,2.19-1.44-.02-.36,2.07,1.52-.03-.87,5.41c-.05.37-.12.91-.12,1.3,0,1.87.91,3.04,2.97,3.04,1.94,0,3.46-1.34,4.66-2.61l-.87-1.71c-1.01.92-1.57,1.2-2.12,1.2Z"></path><rect class="cls-2" x="81.57" y="296.77" width="0" height="0"></rect><path class="cls-2" d="m91.51,301.6c1.71,0,3.36-1.33,3.36-2.85h0c0-1.11-.85-1.79-1.86-1.79-1.53,0-3.38,1.22-3.38,3.04,0,1.22,1.01,1.59,1.88,1.59Z"></path><path class="cls-2" d="m155.16,307.35c0-3.37-2.19-5.28-5.22-5.28-3.89,0-6.71,3.31-6.71,7.05s2.01,5.5,5.17,5.5c4.15,0,6.75-3.64,6.75-7.26h0Zm-6.57,4.9c-.78,0-1.23-.58-1.23-1.91,0-3.46,1.24-5.89,2.39-5.89.79,0,1.22.6,1.22,1.93h0c0,3.06-1.18,5.87-2.39,5.87Z"></path><path class="cls-2" d="m68.21,314.62c4.15,0,6.76-3.64,6.76-7.26h0c0-3.38-2.18-5.29-5.22-5.29-3.89,0-6.71,3.31-6.71,7.05s2.02,5.5,5.17,5.5Zm1.35-10.17c.79,0,1.23.6,1.23,1.93h0c0,3.06-1.17,5.87-2.39,5.87-.78,0-1.23-.59-1.23-1.91,0-3.46,1.24-5.89,2.39-5.89Z"></path><path class="cls-2" d="m196.03,271.36H27.92c-2.77,0-5.01,2.24-5.01,5.01v61.64c0,2.77,2.24,5.01,5.01,5.01h168.12c2.77,0,5.01-2.24,5.01-5.01v-61.64c0-2.77-2.24-5.01-5.01-5.01Zm0,66.66H27.91s0-61.66,0-61.66h168.12s0,61.66,0,61.66Z"></path><path class="cls-2" d="m336.34,226.49h-8.53v1.59c1.59,0,2.08.69,2.08,2.28v11.5c0,1.59-.59,2.28-2.08,2.28v1.49h10.41v-1.59c-2.48,0-3.37-.5-3.37-2.28v-3.77h1.39c5.06,0,7.83-2.38,7.83-5.75,0-3.67-3.07-5.75-7.73-5.75Zm-.69,10.11h-.79v-8.63h.69c2.48,0,3.77,1.59,3.77,4.26s-1.29,4.36-3.67,4.36Z"></path><path class="cls-2" d="m350.82,241.96v-9.72h-1.29l-5.25,1.59v1.69h.5c.79-.1,1.39.4,1.39,1.19v5.35c0,1.49-.5,2.08-1.88,2.08h-.1v1.49h8.53v-1.59c-1.39,0-1.88-.59-1.88-2.08Z"></path><circle class="cls-2" cx="348.54" cy="229.27" r="2.58"></circle><path class="cls-2" d="m360.43,243.35c-.89,0-1.78-.5-1.78-2.08v-6.44h3.27v-1.69h-3.27v-4.16h-.99c-.79,2.48-3.37,4.16-5.45,4.76v1.09h1.78v6.74c0,2.78,1.29,4.46,4.06,4.46,1.88,0,3.77-.99,4.56-2.28l-.5-.89c-.4.3-1.09.5-1.69.5Z"></path><path class="cls-2" d="m373.22,240.18c-.59,1.29-1.49,1.98-3.17,1.98-2.18,0-4.26-1.49-4.26-4.46,0-1.98.99-3.47,2.68-3.47,1.39,0,2.68,1.09,2.97,3.87h1.09l1.69-4.56c-1.49-.79-3.07-1.29-4.86-1.29-4.06,0-6.74,2.88-6.84,7.44,0,3.87,2.48,6.35,5.95,6.35,3.77,0,5.16-2.38,5.75-5.45l-.99-.4Z"></path><path class="cls-2" d="m388.49,241.96v-5.45c0-2.88-1.69-4.26-4.16-4.26-1.88,0-3.27.89-3.97,2.78v-8.82h-.99l-5.65,1.39v1.78h.59c.79,0,1.39.4,1.39,1.19v11.5c0,1.49-.5,2.08-1.88,2.08h-.2v1.49h7.83v-1.59c-1.09,0-1.19-.69-1.19-1.98v-5.75c.2-.89.89-1.49,1.78-1.49,1.09,0,1.69.59,1.69,1.78v5.45c0,1.29,0,1.98-1.19,1.98v1.59h7.83v-1.59c-1.39,0-1.88-.59-1.88-2.08Z"></path><path class="cls-2" d="m397.81,241.96v-7.14h2.68v-1.69h-2.78c-.2-.79-.5-1.78-.5-2.97,0-1.39.69-2.48,1.98-2.48,1.59,0,2.48,1.69,2.38,4.36l.99.2,1.98-4.96c-1.39-.59-2.97-1.09-4.46-1.09-4.66,0-6.94,3.47-6.94,6.05,0,1.09-.5,1.49-1.98,1.49v1.09h1.88v7.24c0,1.49-.5,2.08-1.88,2.08v1.49h8.53v-1.59c-1.39,0-1.88-.59-1.88-2.08Z"></path><path class="cls-2" d="m407.23,232.15c-3.67,0-6.84,2.48-6.84,6.94s3.17,6.94,6.84,6.94,6.84-2.48,6.84-6.94-3.17-6.94-6.84-6.94Zm0,12.59c-1.19,0-1.59-1.29-1.59-5.65s.4-5.55,1.59-5.65c1.19,0,1.59,1.29,1.59,5.65s-.4,5.65-1.59,5.65Z"></path><path class="cls-2" d="m425.67,236.81v-4.56c-.3-.1-.4-.1-.79-.1-2.08,0-3.87,1.69-4.26,5.65h-.1c0-.59.1-2.18.1-3.27v-2.08h-1.39l-4.96,1.49v1.69h.59c.79,0,1.39.5,1.39,1.29v5.16c0,1.49-.5,2.08-1.88,2.08v1.49h8.53v-1.59c-1.39,0-1.88-.59-1.88-2.08v-2.28c0-3.07,2.97-3.17,4.66-2.88Z"></path><path class="cls-2" d="m439.45,241.37l-3.07-4.16c1.59-.79,2.97-1.49,4.46-3.27v-1.39h-6.94v1.59c1.09,0,1.78.5,1.78,1.39,0,.69-.2,1.19-1.29,1.69l-2.28,1.09h-.2v-12.1h-.99l-5.75,1.39v1.78h.59c.79,0,1.39.4,1.39,1.19v11.5c0,1.49-.5,2.08-1.88,2.08v1.39h7.83v-1.59c-1.09,0-1.19-.5-1.19-1.59v-3.27h.2l4.06,6.54h5.85v-1.59c-.99,0-1.59-1.39-2.58-2.68Z"></path><path class="cls-2" d="m436.71,311.96h-168.12c-2.77,0-5.01,2.24-5.01,5.01v61.65c0,2.77,2.24,5.01,5.01,5.01h168.12c2.77,0,5.01-2.24,5.01-5.01v-61.65c0-2.77-2.24-5.01-5.01-5.01Zm0,66.66h-168.12s0-61.66,0-61.66h168.12s0,61.66,0,61.66Z"></path><path class="cls-3" d="m219.3,320.89h-13.26v17.12c0,5.52-4.49,10.01-10.01,10.01H46.18v39.52c0,2.77,2.24,5.01,5.01,5.01h168.12c2.77,0,5.01-2.24,5.01-5.01v-61.64c0-2.77-2.24-5.01-5.01-5.01Z"></path><path class="cls-3" d="m59.31,171.95c0-5.52,4.49-10.01,10.01-10.01h117.75v-13.72c0-2.77-2.24-5.01-5.01-5.01H13.94c-2.77,0-5.01,2.24-5.01,5.01v61.65c0,2.77,2.24,5.01,5.01,5.01h45.37v-42.92Z"></path><path class="cls-3" d="m258.59,316.96c0-5.52,4.49-10.01,10.01-10.01h150.82v-30.01h-118.55c-5.52,0-10.01-4.49-10.01-10.01v-6.11h-44.57c-2.77,0-5.01,2.24-5.01,5.01v61.64c0,2.77,2.24,5.01,5.01,5.01h12.3v-15.52Z"></path><path class="cls-3" d="m517.17,166.7h-168.12c-2.77,0-5.01,2.24-5.01,5.01v23.58h124.93c5.52,0,10.01,4.49,10.01,10.01v33.07h38.19c2.77,0,5.01-2.24,5.01-5.01v-61.64c0-2.77-2.24-5.01-5.01-5.01Z"></path><path class="cls-2" d="m21.46,16.8h14.79v4.56h-9.45v3.72h7.44v4.56h-7.44v8.16h-5.34v-21Z"></path><path class="cls-2" d="m36.22,30.24c0-4.47,3.39-7.8,8.1-7.8s8.1,3.33,8.1,7.8-3.39,7.8-8.1,7.8-8.1-3.33-8.1-7.8Zm11.25,0c0-2.16-1.26-3.6-3.15-3.6s-3.15,1.44-3.15,3.6,1.26,3.6,3.15,3.6,3.15-1.44,3.15-3.6Z"></path><path class="cls-2" d="m64.45,43.92v-7.02c-.75.78-2.01,1.14-3.57,1.14-4.2,0-7.26-2.97-7.26-7.8s2.76-7.8,6.81-7.8c1.86,0,3.15.57,4.02,1.53v-1.29h4.95v21.24h-4.95Zm.27-13.68c0-2.16-1.26-3.6-3.15-3.6s-3.12,1.44-3.12,3.6,1.26,3.6,3.12,3.6,3.15-1.44,3.15-3.6Z"></path><path class="cls-2" d="m87.07,37.8h-4.95v-1.74c-.87,1.17-2.46,1.98-4.44,1.98-3.39,0-5.61-2.49-5.61-5.85v-9.51h4.95v8.34c0,1.5,1.05,2.64,2.55,2.64s2.55-1.14,2.55-2.64v-8.34h4.95v15.12Z"></path><path class="cls-2" d="m99.46,32.55h4.77c-.63,3.36-3.6,5.49-7.32,5.49-5.43,0-7.89-4.23-7.89-7.8s2.16-7.8,7.59-7.8c5.73,0,7.62,4.32,7.62,7.5,0,.69-.03,1.11-.06,1.47h-10.41c.3,1.68,1.35,2.64,3.15,2.64,1.35,0,2.28-.48,2.55-1.5Zm-5.7-4.08h5.58c-.09-1.29-1.02-2.52-2.73-2.52-1.59,0-2.52.69-2.85,2.52Z"></path><path class="cls-2" d="m112.18,22.68h4.95v1.74c.87-1.17,2.46-1.98,4.44-1.98,3.39,0,5.61,2.49,5.61,5.85v9.51h-4.95v-8.34c0-1.5-1.05-2.64-2.55-2.64s-2.55,1.14-2.55,2.64v8.34h-4.95v-15.12Z"></path><path class="cls-2" d="m129.13,30.24c0-4.47,3.39-7.8,8.1-7.8s8.1,3.33,8.1,7.8-3.39,7.8-8.1,7.8-8.1-3.33-8.1-7.8Zm11.25,0c0-2.16-1.26-3.6-3.15-3.6s-3.15,1.44-3.15,3.6,1.26,3.6,3.15,3.6,3.15-1.44,3.15-3.6Z"></path><path class="cls-2" d="m146.23,32.61h4.17c.15,1.08,1.08,1.8,2.34,1.8,1.05,0,1.77-.42,1.77-1.08,0-2.46-7.83.09-7.83-6.18,0-2.73,2.4-4.71,5.43-4.71,3.78,0,6.33,2.01,6.45,5.07h-4.2c-.15-1.02-1.02-1.74-2.04-1.74-.93,0-1.56.39-1.56,1.17,0,2.67,8.01-.6,8.01,6.18,0,2.97-2.37,4.92-6.03,4.92s-6.36-2.13-6.51-5.43Z"></path><path class="cls-2" d="m166.99,22.68h4.95v1.29c.87-.96,2.16-1.53,4.02-1.53,4.05,0,6.81,2.97,6.81,7.8s-3.06,7.8-7.26,7.8c-1.56,0-2.82-.36-3.57-1.14v7.02h-4.95v-21.24Zm10.95,7.56c0-2.16-1.26-3.6-3.12-3.6s-3.15,1.44-3.15,3.6,1.26,3.6,3.15,3.6,3.12-1.44,3.12-3.6Z"></path><path class="cls-2" d="m192.27,26.76c-1.65,0-2.61,1.26-2.61,3.39v7.65h-4.95v-15.12h4.95v2.28c.87-1.8,1.98-2.28,3.66-2.28h1.59v4.08h-2.64Z"></path><path class="cls-2" d="m201.73,15.96v4.86h-5.16v-4.86h5.16Zm-5.07,6.72h4.95v15.12h-4.95v-15.12Z"></path><path class="cls-2" d="m204.3,22.68h4.95v1.74c.87-1.17,2.46-1.98,4.44-1.98,3.39,0,5.61,2.49,5.61,5.85v9.51h-4.95v-8.34c0-1.5-1.05-2.64-2.55-2.64s-2.55,1.14-2.55,2.64v8.34h-4.95v-15.12Z"></path><path class="cls-2" d="m221.25,30.24c0-4.56,3.33-7.8,7.98-7.8,4.23,0,7.41,2.58,7.62,6.15h-4.98c-.24-1.14-1.26-1.95-2.46-1.95-1.83,0-3.03,1.41-3.03,3.6s1.23,3.6,3.09,3.6c1.23,0,2.25-.84,2.46-1.98h5.07c-.39,3.45-3.81,6.18-7.77,6.18-4.65,0-7.98-3.24-7.98-7.8Z"></path><path class="cls-2" d="m243.87,15.96v4.86h-5.16v-4.86h5.16Zm-5.07,6.72h4.95v15.12h-4.95v-15.12Z"></path><path class="cls-2" d="m246.72,22.68h4.95v1.29c.87-.96,2.16-1.53,4.02-1.53,4.05,0,6.81,2.97,6.81,7.8s-3.06,7.8-7.26,7.8c-1.56,0-2.82-.36-3.57-1.14v7.02h-4.95v-21.24Zm10.95,7.56c0-2.16-1.26-3.6-3.12-3.6s-3.15,1.44-3.15,3.6,1.26,3.6,3.15,3.6,3.12-1.44,3.12-3.6Z"></path><path class="cls-2" d="m277.59,28.08v9.72h-4.92v-1.86c-.39,1.26-1.92,2.1-3.87,2.1-2.82,0-4.83-2.01-4.83-4.53,0-2.97,2.16-4.77,5.34-4.77h2.16c.78,0,1.2-.54,1.2-1.26,0-.9-.75-1.53-2.1-1.53-1.65,0-2.25,1.02-2.28,2.1h-4.32c.12-3.06,2.43-5.61,6.9-5.61,3.78,0,6.72,2.22,6.72,5.64Zm-4.92,3.66h-2.52c-.87,0-1.5.63-1.5,1.53,0,.78.66,1.32,1.53,1.32,1.59,0,2.49-1.32,2.49-2.73v-.12Z"></path><path class="cls-2" d="m285.21,15.96v4.86h-5.16v-4.86h5.16Zm-5.07,6.72h4.95v15.12h-4.95v-15.12Z"></path><path class="cls-2" d="m286.89,32.61h4.17c.15,1.08,1.08,1.8,2.34,1.8,1.05,0,1.77-.42,1.77-1.08,0-2.46-7.83.09-7.83-6.18,0-2.73,2.4-4.71,5.43-4.71,3.78,0,6.33,2.01,6.45,5.07h-4.2c-.15-1.02-1.02-1.74-2.04-1.74-.93,0-1.56.39-1.56,1.17,0,2.67,8.01-.6,8.01,6.18,0,2.97-2.37,4.92-6.03,4.92s-6.36-2.13-6.51-5.43Z"></path><path class="cls-2" d="m306.48,32.61h4.17c.15,1.08,1.08,1.8,2.34,1.8,1.05,0,1.77-.42,1.77-1.08,0-2.46-7.83.09-7.83-6.18,0-2.73,2.4-4.71,5.43-4.71,3.78,0,6.33,2.01,6.45,5.07h-4.2c-.15-1.02-1.02-1.74-2.04-1.74-.93,0-1.56.39-1.56,1.17,0,2.67,8.01-.6,8.01,6.18,0,2.97-2.37,4.92-6.03,4.92s-6.36-2.13-6.51-5.43Z"></path><path class="cls-2" d="m326.04,15.96v4.86h-5.16v-4.86h5.16Zm-5.07,6.72h4.95v15.12h-4.95v-15.12Z"></path><path class="cls-2" d="m335.61,18.39v4.29h3.81v4.08h-3.81v4.98c0,1.38.69,1.98,1.98,1.98h1.83v4.08h-2.58c-3.72,0-6.18-2.07-6.18-5.82v-5.22h-2.79v-4.08h2.79v-4.29h4.95Z"></path><path class="cls-2" d="m351,32.55h4.77c-.63,3.36-3.6,5.49-7.32,5.49-5.43,0-7.89-4.23-7.89-7.8s2.16-7.8,7.59-7.8c5.73,0,7.62,4.32,7.62,7.5,0,.69-.03,1.11-.06,1.47h-10.41c.3,1.68,1.35,2.64,3.15,2.64,1.35,0,2.28-.48,2.55-1.5Zm-5.7-4.08h5.58c-.09-1.29-1.02-2.52-2.73-2.52-1.59,0-2.52.69-2.85,2.52Z"></path><path class="cls-2" d="m356.67,32.61h4.17c.15,1.08,1.08,1.8,2.34,1.8,1.05,0,1.77-.42,1.77-1.08,0-2.46-7.83.09-7.83-6.18,0-2.73,2.4-4.71,5.43-4.71,3.78,0,6.33,2.01,6.45,5.07h-4.2c-.15-1.02-1.02-1.74-2.04-1.74-.93,0-1.56.39-1.56,1.17,0,2.67,8.01-.6,8.01,6.18,0,2.97-2.37,4.92-6.03,4.92s-6.36-2.13-6.51-5.43Z"></path><path class="cls-2" d="m376.41,30.24c0-4.83,2.73-7.8,6.99-7.8,1.77,0,3.03.57,3.84,1.44v-7.92h4.95v21.84h-4.95v-1.29c-.81.99-2.19,1.53-3.75,1.53-4.35,0-7.08-2.97-7.08-7.8Zm11.1,0c0-2.16-1.26-3.6-3.15-3.6s-3.12,1.44-3.12,3.6,1.26,3.6,3.12,3.6,3.15-1.44,3.15-3.6Z"></path><path class="cls-2" d="m404.85,32.55h4.77c-.63,3.36-3.6,5.49-7.32,5.49-5.43,0-7.89-4.23-7.89-7.8s2.16-7.8,7.59-7.8c5.73,0,7.62,4.32,7.62,7.5,0,.69-.03,1.11-.06,1.47h-10.41c.3,1.68,1.35,2.64,3.15,2.64,1.35,0,2.28-.48,2.55-1.5Zm-5.7-4.08h5.58c-.09-1.29-1.02-2.52-2.73-2.52-1.59,0-2.52.69-2.85,2.52Z"></path><path class="cls-2" d="m417.57,22.68h4.95v1.8c.9-1.2,2.25-2.04,4.17-2.04,2.31,0,3.66.9,4.47,2.55.81-1.32,2.64-2.55,5.13-2.55,3.3,0,5.49,2.52,5.49,5.31v10.05h-4.95v-8.46c0-1.68-.93-2.76-2.34-2.76s-2.34,1.08-2.34,2.76v8.46h-4.95v-8.46c0-1.68-.93-2.76-2.34-2.76s-2.34,1.08-2.34,2.76v8.46h-4.95v-15.12Z"></path><path class="cls-2" d="m459.33,37.8h-4.95v-1.74c-.87,1.17-2.46,1.98-4.44,1.98-3.39,0-5.61-2.49-5.61-5.85v-9.51h4.95v8.34c0,1.5,1.05,2.64,2.55,2.64s2.55-1.14,2.55-2.64v-8.34h4.95v15.12Zm-7.53-21.24h5.16l-2.97,4.44h-4.05l1.86-4.44Z"></path><path class="cls-2" d="m461.13,32.61h4.17c.15,1.08,1.08,1.8,2.34,1.8,1.05,0,1.77-.42,1.77-1.08,0-2.46-7.83.09-7.83-6.18,0-2.73,2.4-4.71,5.43-4.71,3.78,0,6.33,2.01,6.45,5.07h-4.2c-.15-1.02-1.02-1.74-2.04-1.74-.93,0-1.56.39-1.56,1.17,0,2.67,8.01-.6,8.01,6.18,0,2.97-2.37,4.92-6.03,4.92s-6.36-2.13-6.51-5.43Z"></path><path class="cls-2" d="m480.69,15.96v4.86h-5.16v-4.86h5.16Zm-5.07,6.72h4.95v15.12h-4.95v-15.12Z"></path><path class="cls-2" d="m482.52,30.24c0-4.56,3.33-7.8,7.98-7.8,4.23,0,7.41,2.58,7.62,6.15h-4.98c-.24-1.14-1.26-1.95-2.46-1.95-1.83,0-3.03,1.41-3.03,3.6s1.23,3.6,3.09,3.6c1.23,0,2.25-.84,2.46-1.98h5.07c-.39,3.45-3.81,6.18-7.77,6.18-4.65,0-7.98-3.24-7.98-7.8Z"></path><path class="cls-2" d="m513.21,28.08v9.72h-4.92v-1.86c-.39,1.26-1.92,2.1-3.87,2.1-2.82,0-4.83-2.01-4.83-4.53,0-2.97,2.16-4.77,5.34-4.77h2.16c.78,0,1.2-.54,1.2-1.26,0-.9-.75-1.53-2.1-1.53-1.65,0-2.25,1.02-2.28,2.1h-4.32c.12-3.06,2.43-5.61,6.9-5.61,3.78,0,6.72,2.22,6.72,5.64Zm-4.92,3.66h-2.52c-.87,0-1.5.63-1.5,1.53,0,.78.66,1.32,1.53,1.32,1.59,0,2.49-1.32,2.49-2.73v-.12Z"></path></svg> 