<?xml version="1.0" encoding="UTF-8"?> <svg xmlns="http://www.w3.org/2000/svg" xmlns:xlink="http://www.w3.org/1999/xlink" version="1.1" id="Layer_1" x="0px" y="0px" viewBox="0 0 534.7 400.8" style="enable-background:new 0 0 534.7 400.8;" xml:space="preserve"> <style type="text/css"> .st0{fill:#383838;} .st1{fill:#EBEBEB;} .st2{fill:#48A6BC;} .st3{fill:none;stroke:#EBEBEB;stroke-width:5;stroke-miterlimit:10;} </style> <image style="overflow:visible;" width="2000" height="1293" transform="matrix(0.24 0 0 0.24 -600.3505 35.9902)"> </image> <g> <g> <path class="st0" d="M-149.1-73.6h-343.8c-2.8,0-5-2.2-5-5v-43.3c0-2.8,2.2-5,5-5h343.8c2.8,0,5,2.2,5,5v43.3 C-144.1-75.8-146.3-73.6-149.1-73.6z"></path> </g> <text transform="matrix(1 0 0 1 -467.5146 -91.6279)"><tspan x="0" y="0" style="fill:#40BCD0; font-family:'Roobert-Heavy'; font-size:23.8722px; letter-spacing:-1;">T</tspan><tspan x="12.4" y="0" style="fill:#40BCD0; font-family:'Roobert-Heavy'; font-size:23.8722px;">A</tspan><tspan x="28.9" y="0" style="fill:#40BCD0; font-family:'Roobert-Heavy'; font-size:23.8722px;">R</tspan><tspan x="45.1" y="0" style="fill:#40BCD0; font-family:'Roobert-Heavy'; font-size:23.8722px;">G</tspan><tspan x="62.5" y="0" style="fill:#40BCD0; font-family:'Roobert-Heavy'; font-size:23.8722px;">E</tspan><tspan x="77.7" y="0" style="fill:#40BCD0; font-family:'Roobert-Heavy'; font-size:23.8722px;">T</tspan><tspan x="91.8" y="0" style="fill:#40BCD0; font-family:'Roobert-Heavy'; font-size:23.8722px;"> </tspan><tspan x="97.5" y="0" style="fill:#40BCD0; font-family:'Roobert-Heavy'; font-size:23.8722px;">T</tspan><tspan x="111.2" y="0" style="fill:#40BCD0; font-family:'Roobert-Heavy'; font-size:23.8722px;">O</tspan><tspan x="129.5" y="0" style="fill:#40BCD0; font-family:'Roobert-Heavy'; font-size:23.8722px;">P M</tspan><tspan x="170.3" y="0" style="fill:#40BCD0; font-family:'Roobert-Heavy'; font-size:23.8722px;">U</tspan><tspan x="186.5" y="0" style="fill:#40BCD0; font-family:'Roobert-Heavy'; font-size:23.8722px;">SIC S</tspan><tspan x="243.9" y="0" style="fill:#40BCD0; font-family:'Roobert-Heavy'; font-size:23.8722px;">I</tspan><tspan x="251.5" y="0" style="fill:#40BCD0; font-family:'Roobert-Heavy'; font-size:23.8722px;">T</tspan><tspan x="265.1" y="0" style="fill:#40BCD0; font-family:'Roobert-Heavy'; font-size:23.8722px;">ES</tspan></text> </g> <g> <g> <path class="st1" d="M268.2,127.6c0-7,0-14,0-21c0-17-0.1-34.5,0-52.1l-5,0c-0.1,17.5-0.1,35.1,0,52.1c0,7,0,14,0,21l-8.5-8.5 l-3.5,3.5l14.5,14.5l14.5-14.5l-3.5-3.5L268.2,127.6z"></path> <path class="st1" d="M320.2,104.8l-2.1,12c-2.9-3.8-5.7-7.8-8.3-11.9c-9.4-15-16.3-32.1-20.7-50.9l-4.9,1.1 c4.5,19.3,11.7,37,21.4,52.4c2.6,4.1,5.4,8.2,8.3,12l-11.7-2.1l-0.9,4.9l20.3,3.6l3.6-20.3L320.2,104.8z"></path> <path class="st1" d="M242.1,53.9c-5.5,24.4-15.3,45.6-29,62.9l-2.1-12l-4.9,0.9l3.6,20.3l20.3-3.6l-0.9-4.9l-11.6,2.1 c14.1-17.8,24-39.5,29.6-64.5L242.1,53.9z"></path> </g> <g> <polygon class="st0" points="119.2,35.2 124.6,35.2 124.6,18.4 130.8,18.4 130.8,13.8 113.1,13.8 113.1,18.4 119.2,18.4 "></polygon> <path class="st0" d="M128.8,25.3h4.4c0-1.1,0.6-2.1,2.3-2.1c1.4,0,2.1,0.6,2.1,1.6c0,0.7-0.4,1.3-1.2,1.3h-2.2 c-3.2,0-5.4,1.8-5.4,4.9c0,2.6,2,4.6,4.9,4.6c2,0,3.5-0.9,3.9-2.1v1.9h5v-9.9c0-3.5-3-5.8-6.9-5.8 C131.3,19.5,128.9,22.1,128.8,25.3z M137.7,29.1c0,1.4-0.9,2.8-2.5,2.8c-0.9,0-1.6-0.6-1.6-1.3c0-0.9,0.6-1.6,1.5-1.6h2.6V29.1z"></path> <path class="st0" d="M150.3,27.4c0-2.2,1-3.5,2.7-3.5h2.7v-4.2h-1.6c-1.7,0-2.8,0.5-3.7,2.3v-2.3h-5v15.4h5V27.4z"></path> <path class="st0" d="M163.1,35.4c1.6,0,3-0.6,3.9-1.6v1.7c0,1.2-0.7,2-1.7,2h-7.1v3.9h8c3.5,0,5.8-2,5.8-5.2V19.8h-5V21 c-0.8-0.9-2.1-1.5-3.9-1.5c-4.3,0-7.1,3-7.1,8C155.9,32.4,158.7,35.4,163.1,35.4z M164,23.8c2,0,3.2,1.4,3.2,3.7 c0,2.2-1.3,3.7-3.2,3.7c-1.9,0-3.2-1.4-3.2-3.7C160.8,25.3,162.1,23.8,164,23.8z"></path> <path class="st0" d="M181.7,35.4c3.8,0,6.8-2.2,7.5-5.6h-4.9c-0.3,1-1.2,1.5-2.6,1.5c-1.8,0-2.9-1-3.2-2.7h10.6 c0-0.4,0.1-0.8,0.1-1.5c0-3.2-1.9-7.6-7.8-7.6c-5.5,0-7.7,4.3-7.7,8C173.7,31.1,176.2,35.4,181.7,35.4z M181.4,23.1 c1.7,0,2.7,1.3,2.8,2.6h-5.7C178.8,23.8,179.8,23.1,181.4,23.1z"></path> <path class="st0" d="M192.9,29.3c0,3.8,2.5,5.9,6.3,5.9h2.6V31h-1.9c-1.3,0-2-0.6-2-2v-5.1h3.9v-4.2h-3.9v-4.4h-5v4.4H190v4.2h2.8 V29.3z"></path> <polygon class="st0" points="212.6,35.2 218,35.2 218,18.4 224.1,18.4 224.1,13.8 206.4,13.8 206.4,18.4 212.6,18.4 "></polygon> <path class="st0" d="M220.3,27.5c0,4.6,3.5,8,8.3,8s8.3-3.4,8.3-8c0-4.6-3.5-8-8.3-8S220.3,22.9,220.3,27.5z M228.6,23.8 c1.9,0,3.2,1.5,3.2,3.7c0,2.2-1.3,3.7-3.2,3.7s-3.2-1.5-3.2-3.7C225.4,25.3,226.7,23.8,228.6,23.8z"></path> <path class="st0" d="M248.3,19.5c-1.9,0-3.2,0.6-4.1,1.6v-1.3h-5v21.7h5v-7.2c0.8,0.8,2,1.2,3.6,1.2c4.3,0,7.4-3,7.4-8 C255.2,22.6,252.4,19.5,248.3,19.5z M247.1,31.2c-1.9,0-3.2-1.5-3.2-3.7c0-2.2,1.3-3.7,3.2-3.7c1.9,0,3.2,1.5,3.2,3.7 C250.3,29.7,249,31.2,247.1,31.2z"></path> <polygon class="st0" points="268.8,23.9 273.7,35.2 277.6,35.2 282.4,23.9 282.4,35.2 287.4,35.2 287.4,13.8 281.5,13.8 275.6,27.5 269.7,13.8 263.8,13.8 263.8,35.2 268.8,35.2 "></polygon> <path class="st0" d="M295.8,35.4c2,0,3.6-0.8,4.5-2v1.8h5V19.8h-5v8.5c0,1.5-1.1,2.7-2.6,2.7c-1.5,0-2.6-1.2-2.6-2.7v-8.5h-5v9.7 C290.1,32.9,292.3,35.4,295.8,35.4z"></path> <path class="st0" d="M313.2,31.7c-1.3,0-2.2-0.7-2.4-1.8h-4.3c0.2,3.4,2.8,5.5,6.6,5.5c3.7,0,6.1-2,6.1-5c0-6.9-8.2-3.6-8.2-6.3 c0-0.8,0.6-1.2,1.6-1.2c1,0,1.9,0.7,2.1,1.8h4.3c-0.1-3.1-2.7-5.2-6.6-5.2c-3.1,0-5.5,2-5.5,4.8c0,6.4,8,3.8,8,6.3 C315,31.3,314.3,31.7,313.2,31.7z"></path> <rect x="321.3" y="12.9" class="st0" width="5.3" height="5"></rect> <rect x="321.4" y="19.8" class="st0" width="5" height="15.4"></rect> <path class="st0" d="M335.9,35.4c4,0,7.5-2.8,7.9-6.3h-5.2c-0.2,1.2-1.3,2-2.5,2c-1.9,0-3.2-1.4-3.2-3.7c0-2.2,1.2-3.7,3.1-3.7 c1.2,0,2.3,0.8,2.5,2h5.1c-0.2-3.6-3.5-6.3-7.8-6.3c-4.7,0-8.1,3.3-8.1,8C327.8,32.1,331.2,35.4,335.9,35.4z"></path> <path class="st0" d="M359.4,30.8c-1.8,0-3.1-1.2-3.2-3H351c0.2,4.6,3.5,7.6,8.4,7.6s8.1-2.6,8.1-6.7c0-8.7-10.7-5-10.7-9 c0-0.9,0.9-1.6,2.2-1.6c1.7,0,2.7,0.9,2.8,2.3h5.1c-0.1-4.2-3.2-6.9-8-6.9c-4.4,0-7.5,2.6-7.5,6.2c0,8.7,10.5,5.4,10.5,9.1 C362.1,30,361,30.8,359.4,30.8z"></path> <rect x="369.4" y="12.9" class="st0" width="5.3" height="5"></rect> <rect x="369.5" y="19.8" class="st0" width="5" height="15.4"></rect> <path class="st0" d="M378.8,29.3c0,3.8,2.5,5.9,6.3,5.9h2.6V31h-1.9c-1.3,0-2-0.6-2-2v-5.1h3.9v-4.2h-3.9v-4.4h-5v4.4h-2.8v4.2 h2.8V29.3z"></path> <path class="st0" d="M396.9,35.4c3.8,0,6.8-2.2,7.5-5.6h-4.9c-0.3,1-1.2,1.5-2.6,1.5c-1.8,0-2.9-1-3.2-2.7h10.6 c0-0.4,0.1-0.8,0.1-1.5c0-3.2-1.9-7.6-7.8-7.6c-5.5,0-7.7,4.3-7.7,8C388.9,31.1,391.4,35.4,396.9,35.4z M396.6,23.1 c1.7,0,2.7,1.3,2.8,2.6h-5.7C394,23.8,395,23.1,396.6,23.1z"></path> <path class="st0" d="M411.3,31.7c-1.3,0-2.2-0.7-2.4-1.8h-4.3c0.2,3.4,2.8,5.5,6.6,5.5c3.7,0,6.1-2,6.1-5c0-6.9-8.2-3.6-8.2-6.3 c0-0.8,0.6-1.2,1.6-1.2c1,0,1.9,0.7,2.1,1.8h4.3c-0.1-3.1-2.7-5.2-6.6-5.2c-3.1,0-5.5,2-5.5,4.8c0,6.4,8,3.8,8,6.3 C413.1,31.3,412.4,31.7,411.3,31.7z"></path> <path class="st0" d="M114.9,185.9c-1.8,0-3.3,1.5-3.3,3.3c0,1.8,1.5,3.3,3.3,3.3c1.8,0,3.3-1.5,3.3-3.3 C118.2,187.4,116.7,185.9,114.9,185.9z"></path> <rect x="112" y="193.6" class="st0" width="5.7" height="17.3"></rect> <rect x="118.9" y="186.9" class="st0" width="5.7" height="24"></rect> <rect x="125.7" y="186.9" class="st0" width="5.7" height="24"></rect> <path class="st0" d="M192.5,195.4v-1.8h-5.7v17.3h5.7v-8.2c0-2.1,1.1-3.3,3.1-3.3h0.7v-5.9C194.5,193.5,193.3,194.1,192.5,195.4z"></path> <path class="st0" d="M179.9,194.9c-0.8-0.9-2.7-1.6-4.1-1.6c-4.3,0-7.4,2.8-8.1,7c-0.8-4-4.3-7.1-8.6-7.1c-4.3,0-7.9,3.1-8.6,7.2 c-0.8-4.3-4.1-7.1-8.3-7.1c-1.5,0-2.8,0.3-3.9,1.1v-7.6h-5.7v24h5.6v-1.6c1.3,1.2,2.8,1.8,4.6,1.8c3.8,0,7.1-3,7.7-7.1 c0.8,4,4.3,7.1,8.6,7.1c4.3,0,7.7-3,8.6-7c0.7,4.3,4.1,7,8.2,7c1.4,0,3-0.5,4-1.2v1h5.7v-7.6c0-0.3,0-0.6,0-0.9c0-0.3,0-0.6,0-0.9 v-7.9h-5.7V194.9z M141.6,205.6c-1.8,0-3.3-1.5-3.3-3.3c0-1.8,1.5-3.3,3.3-3.3c1.8,0,3.3,1.5,3.3,3.3 C144.9,204.1,143.5,205.6,141.6,205.6z M159.2,205.4c-1.8,0-3.3-1.5-3.3-3.3c0-1.8,1.5-3.3,3.3-3.3c1.8,0,3.3,1.5,3.3,3.3 C162.4,203.9,161,205.4,159.2,205.4z M176.2,205.5c-1.8,0-3.3-1.5-3.3-3.3c0-1.8,1.5-3.3,3.3-3.3c1.8,0,3.3,1.5,3.3,3.3 C179.5,204,178,205.5,176.2,205.5z"></path> <path class="st0" d="M208.8,194.5c-1.1-0.8-2.4-1.1-3.9-1.1c-4.7,0-8.4,3.7-8.4,8.9c0,5,3.6,8.8,7.9,8.8c1.8,0,3.2-0.6,4.6-1.8 v1.6h5.6v-24h-5.7V194.5z M205.5,205.6c-1.8,0-3.3-1.5-3.3-3.3c0-1.8,1.5-3.3,3.3-3.3c1.8,0,3.3,1.5,3.3,3.3 C208.8,204.1,207.3,205.6,205.5,205.6z"></path> <path class="st0" d="M103,193.4c-1.5,0-2.8,0.3-3.9,1.1v-7.6h-5.7v24H99v-1.6c1.3,1.2,2.8,1.8,4.6,1.8c4.3,0,7.9-3.8,7.9-8.8 C111.4,197,107.7,193.4,103,193.4z M102.4,205.6c-1.8,0-3.3-1.5-3.3-3.3c0-1.8,1.5-3.3,3.3-3.3c1.8,0,3.3,1.5,3.3,3.3 C105.7,204.1,104.2,205.6,102.4,205.6z"></path> <path class="st0" d="M237.4,162.9H69.3c-2.8,0-5,2.2-5,5v61.6c0,2.8,2.2,5,5,5h168.1c2.8,0,5-2.2,5-5v-61.6 C242.4,165.2,240.2,162.9,237.4,162.9z M237.4,229.6l-168.1,0l0-61.7h168.1l0,0L237.4,229.6z"></path> <polygon class="st0" points="317.3,348 315.3,331.3 305.8,331.3 308.9,356.3 323.6,356.3 333,331.3 322.7,331.3 "></polygon> <path class="st0" d="M387.5,331.3c-5.6,0-12,1.1-12,6.5v11.3c0,6.2,6.1,7.2,12,7.2c5.8,0,12-1,12-7.2v-2.6h-9.3v2.3 c0,2.6-0.6,3.3-2.2,3.3c-1.7,0-2.2-0.6-2.2-3.3v-3.7l13.7,0v-7.3C399.5,332.4,393,331.3,387.5,331.3z M390.2,341.7h-4.4v-3.2 c0-2.3,0.7-2.9,2.2-2.9s2.2,0.6,2.2,2.9V341.7z"></path> <polygon class="st0" points="372.6,349.1 372.6,349.1 372.6,349.1 "></polygon> <path class="st0" d="M372.6,337.5c0-5.3-5-6.2-9.2-6.2h-14.1v25h14.1c4.3,0,9.2-1,9.2-7.2c0-4.5-2.2-5.3-5.2-5.9 C370.4,342.6,372.6,341.8,372.6,337.5z M361.5,352h-1.9v-7h1.9c1.7,0,2.3,0.9,2.3,3.6C363.9,351.3,363.2,352,361.5,352z M361.5,341.8h-1.9v-6.2h1.9c1.6,0,2.3,0.8,2.3,3C363.9,341.1,363.1,341.8,361.5,341.8z"></path> <rect x="334.8" y="331.3" class="st0" width="10.3" height="24.9"></rect> <path class="st0" d="M469,196.3H300.9c-2.8,0-5,2.2-5,5v61.6c0,2.8,2.2,5,5,5H469c2.8,0,5-2.2,5-5v-61.6 C474,198.5,471.7,196.3,469,196.3z M469,262.9l-168.1,0l0-61.7H469l0,0L469,262.9z"></path> <path class="st0" d="M174.8,298.1c-3.7,0-6.6,3.6-6.6,6.9c0,3.7,2.3,5.6,5.5,5.6c3.3,0,5.3-1.7,5.3-3.8c0-1-0.8-1.6-1.6-1.6 c-0.6,0-1.2,0.2-1.6,0.7c-0.1,0.1-0.1,0.2-0.1,0.3c0,0.2,0.1,0.3,0.2,0.4c0.1,0.1,0.1,0.2,0.1,0.4c0,0.3-0.4,1-1.6,1 c-1.2,0-1.9-0.8-2-2.1l7.3-3.4C179.2,299.7,177.9,298.1,174.8,298.1z M175.8,301.8l-3.2,1.4c0.4-1.9,1.4-2.8,2.1-2.8 C175.4,300.5,175.8,300.8,175.8,301.8L175.8,301.8z"></path> <path class="st0" d="M131.6,301l-2.3-1.6c-1.3-0.9-1.7-1.4-1.7-2.4c0-1.1,1.2-2,2.9-2c1.7,0,2.8,0.6,2.8,1.6 c0,0.4-0.1,0.9-0.3,1.7h2.3c0.3-1.8,0.7-3.6,1.2-5.4v0h0l-0.3-0.3c-0.5,0.1-1.3,0.2-1.8,0.2c-1.5-0.1-2.7-0.5-4.4-0.5 c-3.9,0-6.8,2.3-6.8,5.5c-0.1,1.5,0.5,3,1.5,4.1c0.5,0.5,1.1,0.9,1.6,1.3c0.6,0.4,1.2,0.8,1.8,1.2c1.4,0.9,2.2,1.5,2.1,3 c0,1.5-1.1,2.5-3.1,2.5c-3,0-4.4-1.4-5-4.4l-2.4,0.6c0.4,2,0.8,3.9,1.1,5.9l0.4,0.2c0.4-0.2,0.9-0.4,1.4-0.4 c0.6,0,1.2,0.2,1.8,0.3c0.7,0.2,1.6,0.3,2.6,0.3c4.4,0,7.9-2.1,8-6.2C135.1,303.9,133.8,302.5,131.6,301z"></path> <polygon class="st0" points="88.5,292.7 88.5,292.7 88.5,292.7 "></polygon> <path class="st0" d="M80.2,308.3c-1.1,0-1.1-0.2-1-0.8l2.4-14.7l-0.2-0.2l-6,2.4l-0.3,1.7h1.6c0.2,0,0.3,0.1,0.2,0.3l-1.7,10.6 c-0.1,0.7-0.8,0.7-1.5,0.7l-0.4,1.9h0.9l0.1,0c0.8,0,1.4,0.7,1.4,1.5c0,1-0.8,1.9-3.1,1.9c-6,0-10.7-4.5-12.6-10.5 c2.5-0.9,4.9-2.9,4.9-6c0-3.8-3.5-5.3-8.3-5.3c-2.4,0-4.7,0.2-7.1,0.7c-2.1,0.4-5.3,1.4-5.3,4v0c0,0,0,0,0,0 c0,0.9,0.7,1.6,1.6,1.6c0.7,0,1.5-0.3,1.8-0.7c0.1-0.1,0.1-0.2,0.1-0.3c0-0.2-0.1-0.3-0.2-0.4c-0.1-0.1-0.1-0.2-0.1-0.4 c0-0.4,0.6-0.8,1.1-1c0.6-0.2,1.3-0.4,1.9-0.5l-2.3,13.8c-0.1,0.6-0.4,0.8-0.9,1c-0.2,0.1-0.5,0.1-0.7,0.1c-0.3,0-0.5,0-0.9,0 l-0.4,2.2c1.5-0.1,3.1-0.2,4.7-0.2c1.7,0,3.4,0.1,4.9,0.2l0.4-2.2l-1.1-0.1c-1.5-0.1-1.6-0.4-1.4-1.3l0.7-4.5h1.7 c2.1,7.2,8.3,12,17.8,12c5.1,0,7-1.6,7-3.5c0-1-1.1-1.8-2.2-2.3h2L80.2,308.3z M54.8,301.8c-0.2,0-0.6,0-0.8,0l1.2-7.5 c0.4,0,1.4-0.1,1.8-0.1c1.7,0,3.1,1.2,3.1,3.2v0C60.1,299.9,57.7,301.8,54.8,301.8z"></path> <path class="st0" d="M86.1,307.2l2.4-14.5l-0.2-0.2l-6,2.5l-0.3,1.7h1.5c0.3,0,0.3,0,0.2,0.4l-1.6,10.2c-0.1,0.8-0.4,1-1.6,1 l-0.3,1.9h6.6l0.3-1.9C86.1,308.3,86,308.2,86.1,307.2z"></path> <path class="st0" d="M120.4,300.7c0.1,0,0.2,0,0.3,0.1c0.1,0,0.2,0.1,0.3,0.2c0.1,0.2,0.2,0.3,0.4,0.3c0.7,0,1.3-0.9,1.3-1.7l0,0 c0-1-0.7-1.5-1.6-1.5c-1,0-2,0.7-2.7,1.9c-0.9-1.4-2.6-1.9-4-1.9c-3,0-5.9,2-5.9,5.2c0,1.1,0.4,2.2,1.1,2.9c-1,0.4-1.9,1-2.2,2.1 c-0.6,0-1-0.2-0.9-0.8l0.8-5.1c0-0.2,0.1-0.6,0.1-0.8c0-1.6-0.9-3.4-2.8-3.4c-1.1,0-2.3,0.6-3.5,1.6l0.2-1.5l-0.2-0.2l-6,2.5 l-0.3,1.7h1.6c0.2,0,0.3,0,0.2,0.4l-0.8,5c-0.1,0.6-0.1,0.7-1.2,0.7l-0.3,1.9h6.3l0.3-1.9c-1,0-1.1-0.2-1.1-0.7l0.6-4 c0.1-0.9,1.1-1.9,2.1-1.9c0.5,0,0.9,0.4,0.8,1l-0.7,4.8c-0.1,0.7-0.2,0.8-1.3,0.8l-0.3,1.9h5.5c-1.5,0.7-2.2,1.6-2.2,2.8 c0,2.3,2.6,3.1,5.4,3.1c4.6,0,9.6-2,9.6-5.2c0-1.8-1.4-2.8-3.4-2.8c-1.2,0-2.3,0.2-3.5,0.2c-0.6,0-1-0.1-1-0.6 c0-0.2,0.1-0.3,0.2-0.5c0.7,0.2,1.4,0.3,2.2,0.3c2,0,3.8-1,4.9-2.7c0.4-0.6,0.6-1.4,0.6-2.2l0-0.5 C119.2,301.5,119.7,300.7,120.4,300.7z M111.6,311.7c0.7,0,1.4-0.1,2.1-0.1c0.6,0,0.8,0.2,0.8,0.5c0,0.7-1.6,1.8-4.6,1.8 c-1.1,0-2.2-0.6-2.2-1.4c0-0.6,0.3-1,0.7-1.4C109.5,311.6,110.6,311.8,111.6,311.7z M113.5,305.3c-0.6,0-0.8-0.4-0.8-1.4 c0-1.4,0.5-3.6,1.8-3.6c0.5,0,0.8,0.6,0.8,1.3C115.2,302.8,114.6,305.3,113.5,305.3z"></path> <path class="st0" d="M93,307.2l1.5-8.9h0l-0.2-0.2l-6,2.5l-0.3,1.6h1.5c0.3,0,0.3,0,0.2,0.3l-0.7,4.9c-0.1,0.6-0.4,0.9-1.5,0.9 l-0.3,1.9H94l0.3-1.9C92.8,308.3,92.8,308.2,93,307.2z"></path> <path class="st0" d="M166.9,307.4l0.8-4.7c0.1-0.6,0.1-0.9,0.1-1.3c0-1.7-1.1-3.3-2.8-3.3c-1.3,0-2.5,0.7-3.6,1.6l0.3-1.5 l-0.2-0.2l-5.8,2.5l-0.3,1.6h1.4c0.3,0,0.3,0,0.3,0.4l-0.8,4.8c-0.1,0.7-0.3,0.9-1.5,0.9l-0.3,1.9h6.5l0.3-1.9 c-1.1,0-1.2-0.2-1.1-0.8l0.6-3.8c0.2-1.1,1.1-2.1,2.1-2.1c0.5,0,0.9,0.3,0.8,1.1l-0.7,4.6c-0.1,0.8-0.3,0.9-1.3,0.9l-0.3,1.9h6.4 l0.4-1.9l0,0C166.9,308.3,166.8,308.2,166.9,307.4z"></path> <path class="st0" d="M140.4,307.5c-0.5,0-0.7-0.2-0.5-1.2l0.9-5.5h1.3c0.5,0,0.9,0.1,1.3,0.3l1.1-2.4l0,0v0l-3.5,0l0.6-3.5 l-0.3-0.3l-4,1.6l-0.3,2.2l-1.4,0l-0.4,2.1l1.5,0l-0.9,5.4c-0.1,0.4-0.1,0.9-0.1,1.3c0,1.9,0.9,3,3,3c1.9,0,3.5-1.3,4.7-2.6 l-0.9-1.7C141.5,307.2,141,307.5,140.4,307.5z"></path> <rect x="81.6" y="292.8" class="st0" width="0" height="0"></rect> <path class="st0" d="M91.5,297.6c1.7,0,3.4-1.3,3.4-2.8v0c0-1.1-0.8-1.8-1.9-1.8c-1.5,0-3.4,1.2-3.4,3 C89.6,297.2,90.6,297.6,91.5,297.6z"></path> <path class="st0" d="M155.2,303.3c0-3.4-2.2-5.3-5.2-5.3c-3.9,0-6.7,3.3-6.7,7c0,3.7,2,5.5,5.2,5.5 C152.5,310.6,155.2,307,155.2,303.3L155.2,303.3z M148.6,308.2c-0.8,0-1.2-0.6-1.2-1.9c0-3.5,1.2-5.9,2.4-5.9 c0.8,0,1.2,0.6,1.2,1.9h0C151,305.4,149.8,308.2,148.6,308.2z"></path> <path class="st0" d="M68.2,310.6c4.2,0,6.8-3.6,6.8-7.3l0,0c0-3.4-2.2-5.3-5.2-5.3c-3.9,0-6.7,3.3-6.7,7 C63,308.8,65.1,310.6,68.2,310.6z M69.6,300.5c0.8,0,1.2,0.6,1.2,1.9v0c0,3.1-1.2,5.9-2.4,5.9c-0.8,0-1.2-0.6-1.2-1.9 C67.2,302.9,68.4,300.5,69.6,300.5z"></path> <path class="st0" d="M196,267.4H27.9c-2.8,0-5,2.2-5,5V334c0,2.8,2.2,5,5,5H196c2.8,0,5-2.2,5-5v-61.6 C201,269.6,198.8,267.4,196,267.4z M196,334l-168.1,0l0-61.7H196l0,0L196,334z"></path> <path class="st0" d="M336.3,222.5h-8.5v1.6c1.6,0,2.1,0.7,2.1,2.3v11.5c0,1.6-0.6,2.3-2.1,2.3v1.5h10.4V240 c-2.5,0-3.4-0.5-3.4-2.3V234h1.4c5.1,0,7.8-2.4,7.8-5.8C344.1,224.6,341,222.5,336.3,222.5z M335.6,232.6h-0.8V224h0.7 c2.5,0,3.8,1.6,3.8,4.3C339.3,230.8,338,232.6,335.6,232.6z"></path> <path class="st0" d="M350.8,238v-9.7h-1.3l-5.3,1.6v1.7h0.5c0.8-0.1,1.4,0.4,1.4,1.2v5.4c0,1.5-0.5,2.1-1.9,2.1h-0.1v1.5h8.5V240 C351.3,240,350.8,239.4,350.8,238z"></path> <circle class="st0" cx="348.5" cy="225.3" r="2.6"></circle> <path class="st0" d="M360.4,239.3c-0.9,0-1.8-0.5-1.8-2.1v-6.4h3.3v-1.7h-3.3V225h-1c-0.8,2.5-3.4,4.2-5.5,4.8v1.1h1.8v6.7 c0,2.8,1.3,4.5,4.1,4.5c1.9,0,3.8-1,4.6-2.3l-0.5-0.9C361.7,239.2,361,239.3,360.4,239.3z"></path> <path class="st0" d="M373.2,236.2c-0.6,1.3-1.5,2-3.2,2c-2.2,0-4.3-1.5-4.3-4.5c0-2,1-3.5,2.7-3.5c1.4,0,2.7,1.1,3,3.9h1.1 l1.7-4.6c-1.5-0.8-3.1-1.3-4.9-1.3c-4.1,0-6.7,2.9-6.8,7.4c0,3.9,2.5,6.3,5.9,6.3c3.8,0,5.2-2.4,5.8-5.5L373.2,236.2z"></path> <path class="st0" d="M388.5,238v-5.5c0-2.9-1.7-4.3-4.2-4.3c-1.9,0-3.3,0.9-4,2.8v-8.8h-1l-5.7,1.4v1.8h0.6c0.8,0,1.4,0.4,1.4,1.2 v11.5c0,1.5-0.5,2.1-1.9,2.1h-0.2v1.5h7.8V240c-1.1,0-1.2-0.7-1.2-2v-5.8c0.2-0.9,0.9-1.5,1.8-1.5c1.1,0,1.7,0.6,1.7,1.8v5.5 c0,1.3,0,2-1.2,2v1.6h7.8V240C389,240,388.5,239.4,388.5,238z"></path> <path class="st0" d="M397.8,238v-7.1h2.7v-1.7h-2.8c-0.2-0.8-0.5-1.8-0.5-3c0-1.4,0.7-2.5,2-2.5c1.6,0,2.5,1.7,2.4,4.4l1,0.2l2-5 c-1.4-0.6-3-1.1-4.5-1.1c-4.7,0-6.9,3.5-6.9,6c0,1.1-0.5,1.5-2,1.5v1.1h1.9v7.2c0,1.5-0.5,2.1-1.9,2.1v1.5h8.5V240 C398.3,240,397.8,239.4,397.8,238z"></path> <path class="st0" d="M407.2,228.1c-3.7,0-6.8,2.5-6.8,6.9s3.2,6.9,6.8,6.9c3.7,0,6.8-2.5,6.8-6.9S410.9,228.1,407.2,228.1z M407.2,240.7c-1.2,0-1.6-1.3-1.6-5.7c0-4.3,0.4-5.6,1.6-5.7c1.2,0,1.6,1.3,1.6,5.7C408.8,239.4,408.4,240.7,407.2,240.7z"></path> <path class="st0" d="M425.7,232.8v-4.6c-0.3-0.1-0.4-0.1-0.8-0.1c-2.1,0-3.9,1.7-4.3,5.7h-0.1c0-0.6,0.1-2.2,0.1-3.3v-2.1h-1.4 l-5,1.5v1.7h0.6c0.8,0,1.4,0.5,1.4,1.3v5.2c0,1.5-0.5,2.1-1.9,2.1v1.5h8.5V240c-1.4,0-1.9-0.6-1.9-2.1v-2.3 C421,232.6,424,232.5,425.7,232.8z"></path> <path class="st0" d="M439.4,237.4l-3.1-4.2c1.6-0.8,3-1.5,4.5-3.3v-1.4h-6.9v1.6c1.1,0,1.8,0.5,1.8,1.4c0,0.7-0.2,1.2-1.3,1.7 l-2.3,1.1h-0.2v-12.1h-1l-5.8,1.4v1.8h0.6c0.8,0,1.4,0.4,1.4,1.2v11.5c0,1.5-0.5,2.1-1.9,2.1v1.4h7.8v-1.6c-1.1,0-1.2-0.5-1.2-1.6 v-3.3h0.2l4.1,6.5h5.8V240C441,240,440.4,238.7,439.4,237.4z"></path> <path class="st0" d="M436.7,308H268.6c-2.8,0-5,2.2-5,5v61.6c0,2.8,2.2,5,5,5h168.1c2.8,0,5-2.2,5-5V313 C441.7,310.2,439.5,308,436.7,308z M436.7,374.6l-168.1,0l0-61.7h168.1l0,0L436.7,374.6z"></path> </g> <g> <path class="st2" d="M219.3,316.9H206V334c0,5.5-4.5,10-10,10H46.2v39.5c0,2.8,2.2,5,5,5h168.1c2.8,0,5-2.2,5-5v-61.6 C224.3,319.1,222.1,316.9,219.3,316.9z"></path> <path class="st2" d="M59.3,167.9c0-5.5,4.5-10,10-10h117.7v-13.7c0-2.8-2.2-5-5-5H13.9c-2.8,0-5,2.2-5,5v61.6c0,2.8,2.2,5,5,5 h45.4V167.9z"></path> <path class="st2" d="M258.6,313c0-5.5,4.5-10,10-10h150.8v-30H300.9c-5.5,0-10-4.5-10-10v-6.1h-44.6c-2.8,0-5,2.2-5,5v61.6 c0,2.8,2.2,5,5,5h12.3V313z"></path> <path class="st2" d="M517.2,162.7H349.1c-2.8,0-5,2.2-5,5v23.6H469c5.5,0,10,4.5,10,10v33.1h38.2c2.8,0,5-2.2,5-5v-61.6 C522.2,164.9,519.9,162.7,517.2,162.7z"></path> </g> </g> <text transform="matrix(1 0 0 1 947.8077 37.4846)"><tspan x="0" y="0" class="st0" style="font-family:'Roobert-Heavy'; font-size:39.0052px;">Ta</tspan><tspan x="43.4" y="0" class="st0" style="font-family:'Roobert-Heavy'; font-size:39.0052px; letter-spacing:-1;">r</tspan><tspan x="57.6" y="0" class="st0" style="font-family:'Roobert-Heavy'; font-size:39.0052px;">g</tspan><tspan x="80.6" y="0" class="st0" style="font-family:'Roobert-Heavy'; font-size:39.0052px;">et</tspan><tspan x="118.7" y="0" class="st0" style="font-family:'Roobert-Heavy'; font-size:39.0052px; letter-spacing:-3;"> </tspan><tspan x="123.4" y="0" class="st0" style="font-family:'Roobert-Heavy'; font-size:39.0052px; letter-spacing:-5;">T</tspan><tspan x="140.5" y="0" class="st0" style="font-family:'Roobert-Heavy'; font-size:39.0052px;">op </tspan><tspan x="194.4" y="0" class="st0" style="font-family:'Roobert-Heavy'; font-size:39.0052px;">Mu</tspan><tspan x="250.7" y="0" class="st0" style="font-family:'Roobert-Heavy'; font-size:39.0052px;">s</tspan><tspan x="268.4" y="0" class="st0" style="font-family:'Roobert-Heavy'; font-size:39.0052px;">i</tspan><tspan x="277.6" y="0" class="st0" style="font-family:'Roobert-Heavy'; font-size:39.0052px;">c S</tspan><tspan x="329.7" y="0" class="st0" style="font-family:'Roobert-Heavy'; font-size:39.0052px;">i</tspan><tspan x="338.9" y="0" class="st0" style="font-family:'Roobert-Heavy'; font-size:39.0052px;">t</tspan><tspan x="355.7" y="0" class="st0" style="font-family:'Roobert-Heavy'; font-size:39.0052px;">e</tspan><tspan x="376" y="0" class="st0" style="font-family:'Roobert-Heavy'; font-size:39.0052px;">s</tspan></text> <g> <path class="st3" d="M1144.8,58.5c-0.2,26.3,0,52,0,77.9"></path> <polyline class="st3" points="1157.6,124.9 1144.8,137.7 1132,124.9 "></polyline> <g> <path class="st3" d="M1165.7,58.5c4.3,18.2,11.2,35.8,21,51.7c3.2,5.1,6.7,10,10.5,14.7"></path> <polyline class="st3" points="1201.8,109.2 1198.6,127 1180.8,123.9 "></polyline> </g> <g> <path class="st3" d="M1123.7,58.5c-5.4,24.1-15.4,47.1-31.5,66.4"></path> <polyline class="st3" points="1087.6,109.2 1090.7,127 1108.5,123.9 "></polyline> </g> </g> <g> <g transform="translate(-349.52 -434.12)"> <g transform="matrix(4.7469 0 0 -4.7469 423.08 438.12)"> <path class="st0" d="M193.9-39.2c-0.4,0-0.7-0.3-0.7-0.7c0-0.4,0.3-0.7,0.7-0.7c0.4,0,0.7,0.3,0.7,0.7 C194.6-39.5,194.3-39.2,193.9-39.2"></path> </g> <g> <path class="st0" d="M1340.7,649h5.7v-17.3h-5.7V649z"></path> <path class="st0" d="M1347.5,649h5.7v-24h-5.7V649z"></path> <path class="st0" d="M1354.4,649h5.7v-24h-5.7V649z"></path> </g> <g transform="matrix(4.7469 0 0 -4.7469 674.15 468.73)"> <path class="st0" d="M157.4-34.7v0.4h-1.2V-38h1.2v1.7c0,0.4,0.2,0.7,0.7,0.7h0.1v1.3C157.8-34.3,157.5-34.4,157.4-34.7"></path> </g> <g transform="matrix(4.7469 0 0 -4.7469 633.63 467.22)"> <path class="st0" d="M163.3-34.9c-0.2,0.2-0.6,0.3-0.9,0.3c-0.9,0-1.6-0.6-1.7-1.5c-0.2,0.8-0.9,1.5-1.8,1.5 c-0.9,0-1.7-0.7-1.8-1.5c-0.2,0.9-0.9,1.5-1.7,1.5c-0.3,0-0.6-0.1-0.8-0.2v1.6h-1.2v-5.1h1.2v0.3c0.3-0.3,0.6-0.4,1-0.4 c0.8,0,1.5,0.6,1.6,1.5c0.2-0.9,0.9-1.5,1.8-1.5c0.9,0,1.6,0.6,1.8,1.5c0.2-0.9,0.9-1.5,1.7-1.5c0.3,0,0.6,0.1,0.8,0.3v-0.2h1.2 v1.6c0,0.1,0,0.1,0,0.2c0,0.1,0,0.1,0,0.2v1.7h-1.2V-34.9z M155.2-37.2c-0.4,0-0.7,0.3-0.7,0.7c0,0.4,0.3,0.7,0.7,0.7 c0.4,0,0.7-0.3,0.7-0.7C155.9-36.9,155.6-37.2,155.2-37.2 M158.9-37.1c-0.4,0-0.7,0.3-0.7,0.7c0,0.4,0.3,0.7,0.7,0.7 c0.4,0,0.7-0.3,0.7-0.7C159.6-36.8,159.3-37.1,158.9-37.1 M162.5-37.2c-0.4,0-0.7,0.3-0.7,0.7c0,0.4,0.3,0.7,0.7,0.7 c0.4,0,0.7-0.3,0.7-0.7C163.2-36.8,162.8-37.2,162.5-37.2"></path> </g> <g transform="matrix(4.7469 0 0 -4.7469 727.16 441.13)"> <path class="st0" d="M149.6-38.7v-1.6c-0.2,0.2-0.5,0.2-0.8,0.2c-1,0-1.8-0.8-1.8-1.9c0-1,0.7-1.9,1.7-1.9c0.4,0,0.7,0.1,1,0.4 v-0.3h1.2v5.1H149.6z M148.9-42.7c-0.4,0-0.7,0.3-0.7,0.7c0,0.4,0.3,0.7,0.7,0.7c0.4,0,0.7-0.3,0.7-0.7 C149.6-42.4,149.3-42.7,148.9-42.7"></path> </g> <g transform="matrix(4.7469 0 0 -4.7469 384.59 462.22)"> <path class="st0" d="M199.5-35.7c-0.3,0-0.6-0.1-0.8-0.2v1.6h-1.2v-5.1h1.2v0.3c0.3-0.3,0.6-0.4,1-0.4c0.9,0,1.7,0.8,1.7,1.9 C201.3-36.4,200.5-35.7,199.5-35.7 M199.4-38.2c-0.4,0-0.7,0.3-0.7,0.7c0,0.4,0.3,0.7,0.7,0.7c0.4,0,0.7-0.3,0.7-0.7 C200.1-37.9,199.8-38.2,199.4-38.2"></path> </g> </g> <g> <path class="st0" d="M1116.5,171.9L1116.5,171.9v61.7l-168.1,0l0-61.7H1116.5 M1116.5,166.9H948.4c-2.8,0-5,2.2-5,5v61.6 c0,2.8,2.2,5,5,5h168.1c2.8,0,5-2.2,5-5v-61.6C1121.5,169.2,1119.3,166.9,1116.5,166.9L1116.5,166.9z"></path> </g> <path class="st0" d="M1202.7,360.3H1188l-3.1-24.9h9.5l2,16.7l5.5-16.7h10.3L1202.7,360.3z M1213.9,335.3h10.3v24.9h-10.3V335.3z M1243,352.6c0,2.6-0.7,3.4-2.3,3.4h-1.9v-7h1.9C1242.4,349.1,1243,349.9,1243,352.6 M1251.7,353.1c0-4.5-2.2-5.3-5.2-5.9 c3-0.6,5.2-1.4,5.2-5.7c0-5.3-5-6.2-9.2-6.2h-14.1v25h14.1C1246.9,360.3,1251.7,359.3,1251.7,353.1 M1243,342.6 c0,2.5-0.7,3.2-2.3,3.2h-1.9v-6.2h1.9C1242.2,339.5,1243,340.3,1243,342.6 M1278.6,349.1v-7.3c0-5.3-6.5-6.5-12-6.5 c-5.6,0-12,1.1-12,6.5v11.3c0,6.2,6.1,7.2,12,7.2c5.8,0,12-1,12-7.2v-2.6h-9.3v2.3c0,2.6-0.6,3.3-2.2,3.3c-1.7,0-2.2-0.6-2.2-3.3 v-3.7L1278.6,349.1z M1264.9,342.4c0-2.3,0.7-2.9,2.2-2.9s2.2,0.6,2.2,2.9v3.2h-4.4V342.4z"></path> <g> <path class="st0" d="M1348.1,205.3L1348.1,205.3v61.7l-168.1,0l0-61.7H1348.1 M1348.1,200.3H1180c-2.8,0-5,2.2-5,5v61.6 c0,2.8,2.2,5,5,5h168.1c2.8,0,5-2.2,5-5v-61.6C1353.1,202.5,1350.9,200.3,1348.1,200.3L1348.1,200.3z"></path> </g> <path class="st0" d="M939.2,301.4c0-1.9-1.3-3.2-3.1-3.2c-0.4,0-1.4,0-1.8,0.1l-1.2,7.5c0.2,0,0.6,0,0.8,0 C936.8,305.8,939.2,303.9,939.2,301.4L939.2,301.4z M960.7,296.8l-2.4,14.7c-0.1,0.6-0.1,0.8,1,0.8l-0.3,1.9h-2 c1.1,0.5,2.2,1.3,2.2,2.3c0,2-1.9,3.5-7,3.5c-9.4,0-15.6-4.8-17.8-12h-1.7l-0.7,4.5c-0.1,0.9-0.1,1.2,1.4,1.3l1.1,0.1l-0.4,2.2 c-1.5-0.1-3.2-0.2-4.9-0.2c-1.5,0-3.2,0.1-4.7,0.2l0.4-2.2c0.4,0,0.7,0,0.9,0c0.2,0,0.5-0.1,0.7-0.1c0.4-0.1,0.8-0.4,0.9-1 l2.3-13.8c-0.7,0.1-1.3,0.3-1.9,0.5c-0.5,0.2-1.1,0.7-1.1,1c0,0.2,0,0.3,0.1,0.4c0.1,0.1,0.2,0.3,0.2,0.4c0,0.1-0.1,0.2-0.1,0.3 c-0.3,0.4-1.1,0.7-1.8,0.7c-0.9,0-1.6-0.7-1.6-1.6c0,0,0,0,0,0v0c0-2.6,3.2-3.6,5.3-4c2.3-0.4,4.7-0.7,7.1-0.7 c4.8,0,8.3,1.5,8.3,5.3c0,3.1-2.4,5.1-4.9,6c1.9,6,6.6,10.5,12.6,10.5c2.3,0,3.1-1,3.1-1.9c0-0.8-0.6-1.5-1.4-1.5l-0.1,0h-0.9 l0.4-1.9c0.7,0,1.4-0.1,1.5-0.7L956,301c0-0.2,0-0.3-0.2-0.3h-1.6l0.3-1.7l6-2.4L960.7,296.8L960.7,296.8L960.7,296.8z M1047.3,312.3l-0.4,1.9h-6.4l0.3-1.9c1,0,1.1-0.1,1.3-0.9l0.7-4.6c0.1-0.8-0.4-1.1-0.8-1.1c-0.9,0-1.9,1-2.1,2.1l-0.6,3.8 c-0.1,0.5,0,0.8,1.1,0.8l-0.3,1.9h-6.5l0.3-1.9c1.2,0,1.4-0.2,1.5-0.9l0.8-4.8c0.1-0.3,0-0.4-0.3-0.4h-1.4l0.3-1.6l5.8-2.5l0.2,0.2 l-0.3,1.5c1.1-0.9,2.3-1.6,3.6-1.6c1.7,0,2.8,1.6,2.8,3.3c0,0.4,0,0.7-0.1,1.3l-0.8,4.7C1045.9,312.2,1046,312.3,1047.3,312.3 L1047.3,312.3z M1023.6,302.7l-1.1,2.4c-0.4-0.2-0.9-0.3-1.3-0.3h-1.3l-0.9,5.5c-0.2,1,0,1.2,0.5,1.2c0.5,0,1.1-0.3,2.1-1.2 l0.9,1.7c-1.2,1.3-2.7,2.6-4.7,2.6c-2.1,0-3-1.2-3-3c0-0.4,0.1-0.9,0.1-1.3l0.9-5.4l-1.5,0l0.4-2.1l1.4,0l0.3-2.2l4-1.6l0.3,0.3 l-0.6,3.5L1023.6,302.7L1023.6,302.7L1023.6,302.7z M1015.7,296.8c-0.5,1.8-0.9,3.6-1.2,5.4h-2.3c0.2-0.8,0.3-1.3,0.3-1.7 c0-1-1.1-1.6-2.8-1.6c-1.7,0-2.9,0.9-2.9,2c0,1.1,0.4,1.5,1.7,2.4l2.3,1.6c2.2,1.5,3.5,2.9,3.4,5.4c-0.1,4.1-3.5,6.2-8,6.2 c-1,0-1.9-0.2-2.6-0.3c-0.6-0.1-1.2-0.3-1.8-0.3c-0.5,0-0.9,0.1-1.4,0.4l-0.4-0.2c-0.3-2-0.6-4-1.1-5.9l2.4-0.6c0.6,3,2,4.4,5,4.4 c2,0,3-1,3.1-2.5c0-1.5-0.7-2.1-2.1-3c-0.6-0.4-1.2-0.8-1.8-1.2c-0.6-0.4-1.1-0.8-1.6-1.3c-1.1-1.1-1.6-2.6-1.5-4.1 c0.1-3.2,2.9-5.5,6.8-5.5c1.6,0,2.9,0.4,4.4,0.5c0.5,0,1.3-0.1,1.8-0.2L1015.7,296.8L1015.7,296.8L1015.7,296.8z M974,298.8 c0,1.5-1.6,2.8-3.4,2.8c-0.9,0-1.9-0.4-1.9-1.6c0-1.8,1.8-3,3.4-3C973.1,297,974,297.6,974,298.8L974,298.8z M973.6,302.3l-1.5,8.9 c-0.2,1-0.2,1.1,1.3,1.1l-0.3,1.9h-6.7l0.3-1.9c1.1,0,1.4-0.3,1.5-0.9l0.7-4.9c0-0.3,0-0.3-0.2-0.3h-1.5l0.3-1.6l6-2.5L973.6,302.3 L973.6,302.3z M967.6,296.7l-2.4,14.5c-0.2,1.1-0.1,1.2,1,1.2l-0.3,1.9h-6.6l0.3-1.9c1.2,0,1.4-0.2,1.6-1l1.6-10.2 c0.1-0.3,0-0.4-0.2-0.4h-1.5l0.3-1.7l6-2.5L967.6,296.7L967.6,296.7z M1054.9,305.8c0-1.1-0.5-1.4-1.1-1.4c-0.7,0-1.7,0.9-2.1,2.8 L1054.9,305.8L1054.9,305.8z M1058.8,306.4l-7.3,3.4c0.2,1.3,0.9,2.1,2,2.1c1.2,0,1.6-0.7,1.6-1c0-0.1,0-0.3-0.1-0.4 c-0.1-0.1-0.2-0.2-0.2-0.4c0-0.1,0-0.2,0.1-0.3c0.4-0.5,1-0.7,1.6-0.7c0.9,0,1.6,0.6,1.6,1.6c0,2.1-2.1,3.8-5.3,3.8 c-3.2,0-5.5-1.9-5.5-5.6c0-3.3,2.9-6.9,6.6-6.9C1057,302.1,1058.3,303.7,1058.8,306.4L1058.8,306.4z M1030.1,306.4 c0-1.3-0.4-1.9-1.2-1.9c-1.2,0-2.4,2.4-2.4,5.9c0,1.3,0.4,1.9,1.2,1.9C1028.9,312.2,1030.1,309.4,1030.1,306.4 M1034.3,307.4 c0,3.6-2.6,7.3-6.8,7.3c-3.2,0-5.2-1.8-5.2-5.5c0-3.7,2.8-7,6.7-7C1032.1,302.1,1034.3,304,1034.3,307.4 M993.6,316.1 c0-0.3-0.3-0.5-0.8-0.5c-0.7,0-1.4,0.1-2.1,0.1c-1.1,0-2.1-0.2-3.1-0.6c-0.5,0.4-0.7,0.8-0.7,1.4c0,0.8,1,1.4,2.2,1.4 C992.1,317.9,993.6,316.8,993.6,316.1 M994.3,305.5c0-0.7-0.3-1.3-0.8-1.3c-1.2,0-1.8,2.3-1.8,3.6c0,0.9,0.2,1.4,0.8,1.4 C993.7,309.3,994.3,306.8,994.3,305.5 M1001.8,303.6c0,0.8-0.7,1.7-1.3,1.7c-0.2,0-0.3-0.2-0.4-0.3c-0.1-0.1-0.2-0.2-0.3-0.2 c-0.1,0-0.2-0.1-0.3-0.1c-0.7,0-1.2,0.8-1.2,1.5l0,0.5c0,0.8-0.2,1.5-0.6,2.2c-1.1,1.7-2.9,2.7-4.9,2.7c-0.7,0-1.5-0.1-2.2-0.3 c-0.1,0.1-0.2,0.3-0.2,0.5c0,0.5,0.4,0.6,1,0.6c1.3,0,2.4-0.2,3.5-0.2c2,0,3.4,1,3.4,2.8c0,3.2-4.9,5.2-9.6,5.2 c-2.7,0-5.4-0.8-5.4-3.1c0-1.2,0.7-2,2.2-2.8h-5.5l0.3-1.9c1.1,0,1.2-0.1,1.3-0.8l0.7-4.8c0.1-0.6-0.3-1-0.8-1 c-0.9,0-1.9,1.1-2.1,1.9l-0.6,4c-0.1,0.5,0,0.7,1.1,0.7l-0.3,1.9h-6.3l0.3-1.9c1.1,0,1.1-0.2,1.2-0.7l0.8-5c0.1-0.3,0-0.4-0.2-0.4 H974l0.3-1.7l6-2.5l0.2,0.2l-0.2,1.5c1.2-1,2.4-1.6,3.5-1.6c1.9,0,2.8,1.8,2.8,3.4c0,0.2,0,0.6-0.1,0.8l-0.8,5.1 c-0.1,0.6,0.3,0.8,0.9,0.8c0.3-1.1,1.2-1.7,2.2-2.1c-0.8-0.8-1.2-1.8-1.1-2.9c0-3.3,2.9-5.2,5.9-5.2c1.4,0,3,0.5,4,1.9 c0.7-1.2,1.6-1.9,2.7-1.9C1001.1,302,1001.8,302.6,1001.8,303.6 M949.9,306.4c0-1.3-0.4-1.9-1.2-1.9c-1.2,0-2.4,2.4-2.4,5.9 c0,1.3,0.4,1.9,1.2,1.9C948.7,312.3,949.9,309.4,949.9,306.4 M954.1,307.4c0,3.6-2.6,7.3-6.8,7.3c-3.1,0-5.2-1.8-5.2-5.5 c0-3.7,2.8-7,6.7-7C951.9,302.1,954.1,304,954.1,307.4"></path> <g> <path class="st0" d="M1075.1,276.4L1075.1,276.4V338L907,338l0-61.7H1075.1 M1075.1,271.4H907c-2.8,0-5,2.2-5,5V338 c0,2.8,2.2,5,5,5h168.1c2.8,0,5-2.2,5-5v-61.6C1080.2,273.6,1077.9,271.4,1075.1,271.4L1075.1,271.4z"></path> </g> <g id="g11_00000101088519808308699130000000782219197367401631_"> <path id="letter_P_00000183969675952685777350000016040703650343710596_" class="st0" d="M1206.9,244.1c1.5,0,2.1-0.7,2.1-2.3 v-11.5c0-1.6-0.5-2.3-2.1-2.3v-1.6h8.5c4.7,0,7.7,2.1,7.7,5.8c0,3.4-2.8,5.8-7.8,5.8h-1.4v3.8c0,1.8,0.9,2.3,3.4,2.3v1.6h-10.4 V244.1z M1214,228v8.6h0.8c2.4,0,3.7-1.8,3.7-4.4c0-2.7-1.3-4.3-3.8-4.3C1214.7,228,1214,228,1214,228z"></path> <path id="letter_i_00000016778223842306113970000002779356635998135485_" class="st0" d="M1223.4,244.1c1.4,0,1.9-0.6,1.9-2.1 v-5.4c0-0.8-0.6-1.3-1.4-1.2h-0.5v-1.7l5.3-1.6h1.3v9.7c0,1.5,0.5,2.1,1.9,2.1v1.6h-8.5L1223.4,244.1L1223.4,244.1z M1227.6,226.7 c1.4,0,2.6,1.2,2.6,2.6s-1.2,2.6-2.6,2.6c-1.4,0-2.6-1.2-2.6-2.6S1226.2,226.7,1227.6,226.7"></path> <path id="letter_t_00000115497484971749031970000007497115549604019344_" class="st0" d="M1233.1,234.8h-1.8v-1.1 c2.1-0.6,4.7-2.3,5.5-4.8h1v4.2h3.3v1.7h-3.3v6.4c0,1.6,0.9,2.1,1.8,2.1c0.6,0,1.3-0.2,1.7-0.5l0.5,0.9c-0.8,1.3-2.7,2.3-4.6,2.3 c-2.8,0-4.1-1.7-4.1-4.5V234.8z"></path> <path id="letter_c_00000175315888098314444080000015472000195853254286_" class="st0" d="M1248.5,232.2c1.8,0,3.4,0.5,4.9,1.3 l-1.7,4.6h-1.1c-0.3-2.8-1.6-3.9-3-3.9c-1.7,0-2.7,1.5-2.7,3.5c0,3,2.1,4.5,4.3,4.5c1.7,0,2.6-0.7,3.2-2l1,0.4 c-0.6,3.1-2,5.5-5.8,5.5c-3.5,0-5.9-2.5-5.9-6.3C1241.7,235.1,1244.4,232.2,1248.5,232.2"></path> <path id="letter_h_00000169551537392990943900000011968338817336575393_" class="st0" d="M1252.9,244.1c1.4,0,1.9-0.6,1.9-2.1 v-11.5c0-0.8-0.6-1.2-1.4-1.2h-0.6v-1.8l5.7-1.4h1v8.8c0.7-1.9,2.1-2.8,4-2.8c2.5,0,4.2,1.4,4.2,4.3v5.5c0,1.5,0.5,2.1,1.9,2.1 v1.6h-7.8V244c1.2,0,1.2-0.7,1.2-2v-5.5c0-1.2-0.6-1.8-1.7-1.8c-0.9,0-1.6,0.6-1.8,1.5v5.8c0,1.3,0.1,2,1.2,2v1.6h-7.8v-1.5 H1252.9z"></path> <path id="letter_f_00000003099688529292561680000002052432664555966112_" class="st0" d="M1270.3,244.1c1.4,0,1.9-0.6,1.9-2.1 v-7.2h-1.9v-1.1c1.5,0,2-0.4,2-1.5c0-2.6,2.3-6,6.9-6c1.5,0,3.1,0.5,4.5,1.1l-2,5l-1-0.2c0.1-2.7-0.8-4.4-2.4-4.4 c-1.3,0-2,1.1-2,2.5c0,1.2,0.3,2.2,0.5,3h2.8v1.7h-2.7v7.1c0,1.5,0.5,2.1,1.9,2.1v1.6h-8.5 C1270.3,245.6,1270.3,244.1,1270.3,244.1z"></path> <path id="letter_o_00000098218672494674300750000010453870482120031896_" class="st0" d="M1279.5,239.1c0-4.5,3.2-6.9,6.8-6.9 c3.7,0,6.8,2.5,6.8,6.9c0,4.5-3.2,6.9-6.8,6.9C1282.7,246,1279.5,243.5,1279.5,239.1 M1284.8,239.1c0,4.4,0.4,5.7,1.6,5.7 s1.6-1.3,1.6-5.7s-0.4-5.7-1.6-5.7C1285.1,233.5,1284.8,234.8,1284.8,239.1"></path> <path id="letter_r_00000075136470596685925170000002088675126198194602_" class="st0" d="M1293.5,244.1c1.4,0,1.9-0.6,1.9-2.1 v-5.2c0-0.8-0.6-1.3-1.4-1.3h-0.6v-1.7l5-1.5h1.4v2.1c0,1.1-0.1,2.7-0.1,3.3h0.1c0.4-4,2.2-5.7,4.3-5.7c0.4,0,0.5,0,0.8,0.1v4.6 c-1.7-0.3-4.7-0.2-4.7,2.9v2.3c0,1.5,0.5,2.1,1.9,2.1v1.6h-8.5V244.1z"></path> <path id="letter_k_00000107551287566289114710000012769584398680706989_" class="st0" d="M1304.4,244.1c1.4,0,1.9-0.6,1.9-2.1 v-11.5c0-0.8-0.6-1.2-1.4-1.2h-0.6v-1.8l5.8-1.4h1v12.1h0.2l2.3-1.1c1.1-0.5,1.3-1,1.3-1.7c0-0.9-0.7-1.4-1.8-1.4v-1.6h6.9v1.4 c-1.5,1.8-2.9,2.5-4.5,3.3l3.1,4.2c1,1.3,1.6,2.7,2.6,2.7v1.6h-5.8l-4.1-6.5h-0.2v3.3c0,1.1,0.1,1.6,1.2,1.6v1.6h-7.8 C1304.4,245.5,1304.4,244.1,1304.4,244.1z"></path> </g> <g> <path class="st0" d="M1315.8,317L1315.8,317v61.7l-168.1,0l0-61.7H1315.8 M1315.8,312h-168.1c-2.8,0-5,2.2-5,5v61.6 c0,2.8,2.2,5,5,5h168.1c2.8,0,5-2.2,5-5V317C1320.8,314.2,1318.6,312,1315.8,312L1315.8,312z"></path> </g> <g> <path class="st2" d="M1098.4,320.9h-13.3V338c0,5.5-4.5,10-10,10H925.3v39.5c0,2.8,2.2,5,5,5h168.1c2.8,0,5-2.2,5-5v-61.6 C1103.4,323.1,1101.2,320.9,1098.4,320.9z"></path> <path class="st2" d="M938.4,171.9c0-5.5,4.5-10,10-10h117.7v-13.7c0-2.8-2.2-5-5-5H893c-2.8,0-5,2.2-5,5v61.6c0,2.8,2.2,5,5,5 h45.4V171.9z"></path> <path class="st2" d="M1137.7,317c0-5.5,4.5-10,10-10h150.8v-30H1180c-5.5,0-10-4.5-10-10v-6.1h-44.6c-2.8,0-5,2.2-5,5v61.6 c0,2.8,2.2,5,5,5h12.3V317z"></path> <path class="st2" d="M1396.3,166.7h-168.1c-2.8,0-5,2.2-5,5v23.6h124.9c5.5,0,10,4.5,10,10v33.1h38.2c2.8,0,5-2.2,5-5v-61.6 C1401.3,168.9,1399,166.7,1396.3,166.7z"></path> </g> </g> </svg> 