<?xml version="1.0" encoding="UTF-8"?> <svg xmlns="http://www.w3.org/2000/svg" viewBox="0 0 86.84 79.61"><title>license_your_music--nbc</title><g><g><g><path d="M33.72,0a8.83,8.83,0,0,0-6.56,2.56A9.31,9.31,0,0,0,24.8,12c4.26,9.67,8.37,19.4,12.88,29,2-10,2.87-20.37,4.72-30.44a9.58,9.58,0,0,0-1.15-6A9.81,9.81,0,0,0,36.9.7,9,9,0,0,0,33.72,0Z"></path><path d="M24,16.59l13.14,29c-9-5.74-18.2-11.72-26.91-17.72a9.11,9.11,0,0,1,2.68-15.28,9.11,9.11,0,0,1,11.09,4"></path><path d="M.77,37.11a8.89,8.89,0,0,0,1.12,9,9.36,9.36,0,0,0,7.59,3.46H38.8L14.24,33.06a9.71,9.71,0,0,0-8.67-.56,9.38,9.38,0,0,0-4.8,4.61"></path><path d="M53.13,0a9,9,0,0,0-3.19.7,9.83,9.83,0,0,0-4.35,3.82,10,10,0,0,0-1.24,4.62h4.59c.62.11,1.25.41,1.06.77h0a.31.31,0,0,1-.09.11l-.09.08-.23.13h0l-.29.12-.29.1a7.51,7.51,0,0,0-3.84,3.4h0a1.05,1.05,0,0,0-.06.24,1.13,1.13,0,0,0,0,.26v.13l0,.27.16,1.09,1.2,7.71h0v.15c0,.05,0,.33.07.49v.06c.66,4.84,1.32,9.69,2.22,14.45v.06l.19,1.3c.06.29.11.58.17.87h0C53.69,31.37,57.79,21.64,62.05,12a9.29,9.29,0,0,0-2.36-9.43A8.82,8.82,0,0,0,53.13,0Z"></path><path d="M62.88,16.59,49.74,45.64c8.85-5.74,17.85-12.06,26.71-18.12a8.6,8.6,0,0,0,2.88-9,9,9,0,0,0-16.45-1.89"></path><path d="M86.07,37.11a8.89,8.89,0,0,1-1.12,9,9.36,9.36,0,0,1-7.59,3.46L48,49.64,72.6,33.06a9.71,9.71,0,0,1,8.67-.56,9.38,9.38,0,0,1,4.8,4.61"></path><g><g><g><polygon points="25.46 78.89 29.08 78.89 29.08 55.07 24.99 55.07 24.99 71.59 24.95 71.59 11.2 55.07 7.59 55.07 7.59 78.89 11.67 78.89 11.67 62.37 11.71 62.37 25.46 78.89"></polygon><path d="M46.55,78.88c3.43,0,5-.94,6.17-2a6.82,6.82,0,0,0,2.19-5.07c0-2.91-1.57-5.36-4.35-6A5.43,5.43,0,0,0,52,57.15a7.82,7.82,0,0,0-5.73-2.08H31.85V78.88ZM46.7,68.2a4.11,4.11,0,0,1,3,1.28,3.22,3.22,0,0,1,1,2.26,3.48,3.48,0,0,1-1,2.4,4.17,4.17,0,0,1-3,1.1H35.93v-7Zm-.88-9.48a3.54,3.54,0,0,1,2.67.91,2.87,2.87,0,0,1,.83,2,3.19,3.19,0,0,1-3.14,3.26,2.17,2.17,0,0,1-.36,0H35.93v-6.2Z"></path><path d="M78.11,72a12.43,12.43,0,0,1-8.94,4c-5.33,0-8.79-4-8.79-9s3.39-9,8.61-9a12.8,12.8,0,0,1,8.32,3.28l2.77-2.73a16.79,16.79,0,0,0-11.16-4.2A12.46,12.46,0,0,0,56.07,66.41V67c0,7,5.18,12.65,13,12.65a16.56,16.56,0,0,0,11.74-5Z"></path></g></g></g></g></g></g></svg> 