<?xml version="1.0" encoding="UTF-8"?> <svg xmlns="http://www.w3.org/2000/svg" viewBox="0 0 61.21 69.92"><defs><style> .sync_licensing-1 { fill: #41bc9f; } .sync_licensing-1, .sync_licensing-2, .sync_licensing-3 { stroke: #000; stroke-linecap: round; stroke-linejoin: round; stroke-width: 2.12px; } .sync_licensing-2 { fill: none; } .sync_licensing-3 { fill: #f2efe9; } </style></defs><title>license_your_music--sync_licensing</title><g><g><polygon class="sync_licensing-1" points="52.83 68.86 1.06 68.86 1.06 8.38 38.6 8.38 52.83 22.61 52.83 68.86"></polygon><polygon class="sync_licensing-2" points="38.6 22.61 52.83 22.61 38.6 8.38 38.6 22.61"></polygon><polyline class="sync_licensing-2" points="52.83 61.54 60.15 61.54 60.15 1.06 8.38 1.06 8.38 8.38"></polyline><line class="sync_licensing-2" x1="36.25" y1="36.7" x2="36.25" y2="50.05"></line><path class="sync_licensing-3" d="M19.27,51.32a3.72,3.72,0,0,1-2.48,4.6,3.5,3.5,0,1,1-3.16-6.24,3.19,3.19,0,0,1,.78-.29A3.7,3.7,0,0,1,19.27,51.32Z"></path><path class="sync_licensing-3" d="M36.06,48.71a3.71,3.71,0,0,1-2.48,4.6,3.5,3.5,0,0,1-3.18-6.24,3.41,3.41,0,0,1,.81-.29A3.71,3.71,0,0,1,36.06,48.71Z"></path><polygon class="sync_licensing-3" points="36.25 36.7 19.5 39.3 19.5 34.42 36.25 31.81 36.25 36.7"></polygon><line class="sync_licensing-2" x1="19.5" y1="39.3" x2="19.5" y2="52.65"></line></g></g></svg> 