<?xml version="1.0" encoding="UTF-8"?> <svg xmlns="http://www.w3.org/2000/svg" viewBox="0 0 86.23 52.49"><title>license_your_music--mtv</title><g><g><g><path id="path5" d="M0,0H29.49q5,5.25,10.1,10.47C42.94,7,46.34,3.52,49.69,0H79.33V21.6a2.12,2.12,0,0,1-.09,1A68.26,68.26,0,0,0,73.07,35a2.59,2.59,0,0,1-.86,1.29A1,1,0,0,1,71,36a4.84,4.84,0,0,1-.34-1.68c-.26-2.19-.5-4.4-.86-6.58a5.73,5.73,0,0,0-1.32-3.15,3.27,3.27,0,0,0-3-.59,3.49,3.49,0,0,0-2.31,1.61,5,5,0,0,0-.39,3.47A38.13,38.13,0,0,0,64.58,35l4.24,11a3.88,3.88,0,0,0,1.88,2.32,5.17,5.17,0,0,0,2.67.21,2.52,2.52,0,0,0,1.81-1.27,17.76,17.76,0,0,0,1.41-3.87c.84-2.66,1.65-5.35,2.73-7.93V52.52H60.82a37.68,37.68,0,0,1-.32-6.37c0-2.08.12-4.15.09-6.22.07-3-.33-6-.5-9-.2-2.33.06-4.68-.15-7,1.75-1.07,3.57-2,5.34-3.08a21.15,21.15,0,0,0,3.47-2.31,1.94,1.94,0,0,0,.65-2.12,3.34,3.34,0,0,0-4.09-1.57c-1.24.56-2,1.78-3.1,2.49-1.4.85-2.82,1.69-4.27,2.49a4.84,4.84,0,0,0-3.58-.38,2.38,2.38,0,0,0-1.5,1.27c-.3.69,0,1.45-.18,2.16a1.5,1.5,0,0,1-.82,1c-1.59.93-3.21,1.84-4.8,2.77A22.81,22.81,0,0,1,42,29.12c-1.12.33-2.43.7-3,1.82A2.68,2.68,0,0,0,40,34a2.83,2.83,0,0,0,2.84.52,11.84,11.84,0,0,0,3.3-2c1.29-1,2.6-1.89,3.92-2.81a9,9,0,0,1,2.26-1.27,1.23,1.23,0,0,1,1.52.6,9.84,9.84,0,0,1,.41,4c0,4.42-.37,8.82-.53,13.24,0,2.07,0,4.14.07,6.22h-4.9V37.83l-9.29,7.7c-3.11-2.56-6.2-5.13-9.3-7.69V52.51H0Q0,26.26,0,0Z"></path><path d="M32.26,0l9,3.86a4,4,0,0,1,1.08.92c-.89,1-1.82,1.87-2.71,2.84C37.15,5.11,34.68,2.6,32.26,0Z"></path><path d="M81.32,0C83,1,84.6,1.93,86.23,2.91V13.6a69.59,69.59,0,0,0-4.9,5.94V0Z"></path><path d="M81.69,30.42a58.34,58.34,0,0,1,4.53-7.09V52.48h-4.9V31.56A2.12,2.12,0,0,1,81.69,30.42Z"></path><path d="M32.28,42c1.35,1.11,2.68,2.25,4,3.34v7.11h-4Z"></path><path d="M42.53,45.65q2.16-1.8,4.33-3.59v2.88l-.89.71H42.53Z"></path></g></g></g></svg> 