<?xml version="1.0" encoding="UTF-8"?> <svg xmlns="http://www.w3.org/2000/svg" viewBox="0 0 92.67 57.91"><title>license_your_music--prime</title><g><g><path d="M1.34,33.83a1,1,0,0,1-.69-.23.94.94,0,0,1-.2-.7V9.28a.9.9,0,0,1,.2-.69,1,1,0,0,1,.67-.2H3.9a.91.91,0,0,1,1,.78l.26.92A8,8,0,0,1,7.72,8.44a8.12,8.12,0,0,1,3.08-.6,6.59,6.59,0,0,1,5.41,2.52,10.6,10.6,0,0,1,2,6.82,12.29,12.29,0,0,1-1,5.15,8,8,0,0,1-2.69,3.39,6.66,6.66,0,0,1-3.92,1.16,8.19,8.19,0,0,1-2.78-.46,6.62,6.62,0,0,1-2.23-1.28v7.79a1,1,0,0,1-.2.69,1,1,0,0,1-.69.2ZM9.13,23a3.36,3.36,0,0,0,2.93-1.35A7.63,7.63,0,0,0,13,17.39a7.86,7.86,0,0,0-.93-4.3,3.32,3.32,0,0,0-3-1.35,6.79,6.79,0,0,0-3.48,1V22a6.49,6.49,0,0,0,3.48,1Z"></path><path d="M22.63,26.51a.76.76,0,0,1-.89-.58v0a.66.66,0,0,1,0-.28V9.28A.88.88,0,0,1,22,8.59a1,1,0,0,1,.67-.2h2.56a.91.91,0,0,1,1,.78l.46,1.9a10.13,10.13,0,0,1,2.69-2.23A5.85,5.85,0,0,1,32,8.18h.49a1,1,0,0,1,.71.2.91.91,0,0,1,.21.69v3a1,1,0,0,1-.2.67.87.87,0,0,1-.69.21H30.9a11.25,11.25,0,0,0-2,.23,10.91,10.91,0,0,0-2,.59V25.63a1,1,0,0,1-.19.67.94.94,0,0,1-.7.21Z"></path><path d="M38.55,5.57a3.12,3.12,0,0,1-2.17-.74,2.69,2.69,0,0,1-.82-2,2.61,2.61,0,0,1,.82-2,3.49,3.49,0,0,1,4.34,0,2.64,2.64,0,0,1,.83,2,2.64,2.64,0,0,1-.83,2A3,3,0,0,1,38.55,5.57Zm-1.7,21A.77.77,0,0,1,36,26a1.31,1.31,0,0,1,0-.28V9.28a1,1,0,0,1,.21-.69,1,1,0,0,1,.67-.2h3.42a1,1,0,0,1,.69.2.9.9,0,0,1,.2.69V25.63a1,1,0,0,1-.2.67.91.91,0,0,1-.69.21Z"></path><path d="M46.43,26.51a.76.76,0,0,1-.89-.6h0a.66.66,0,0,1,0-.28V9.28a.91.91,0,0,1,.21-.69,1,1,0,0,1,.67-.2H49a.92.92,0,0,1,1,.78l.29,1a15,15,0,0,1,3.39-1.76,9.24,9.24,0,0,1,3.08-.53,4.77,4.77,0,0,1,4.51,2.31,14.7,14.7,0,0,1,3.42-1.74A10.66,10.66,0,0,1,68,7.88a5.23,5.23,0,0,1,3.86,1.39,5.25,5.25,0,0,1,1.36,3.87V25.63a1,1,0,0,1-.2.67.91.91,0,0,1-.69.21H68.94a.76.76,0,0,1-.89-.6h0a.66.66,0,0,1,0-.28V14.23c0-1.62-.72-2.42-2.17-2.42a9,9,0,0,0-3.87.92v12.9a1,1,0,0,1-.2.67.93.93,0,0,1-.7.21h-3.4a.76.76,0,0,1-.89-.6h0a.66.66,0,0,1,0-.28V14.23c0-1.62-.72-2.42-2.17-2.42a8.76,8.76,0,0,0-3.91,1V25.62a1,1,0,0,1-.2.67.91.91,0,0,1-.69.21Z"></path><path d="M85.59,27a9,9,0,0,1-6.77-2.42,9.47,9.47,0,0,1-2.32-6.94,10.29,10.29,0,0,1,2.36-7.24,8.71,8.71,0,0,1,6.73-2.63,7.74,7.74,0,0,1,5.18,1.6,5.35,5.35,0,0,1,1.86,4.28,4.55,4.55,0,0,1-2,4A10.52,10.52,0,0,1,84.72,19a14.57,14.57,0,0,1-3.48-.39A4.84,4.84,0,0,0,82.68,22a5.67,5.67,0,0,0,3.72,1,15.22,15.22,0,0,0,1.91,0,23.45,23.45,0,0,0,2.62-.55h.38c.4,0,.6.27.6.82V24.9a1.48,1.48,0,0,1-.16.8,1.47,1.47,0,0,1-.63.41A15.1,15.1,0,0,1,85.59,27ZM84.43,15.89a4.82,4.82,0,0,0,2.63-.55,1.89,1.89,0,0,0,.82-1.69c0-1.49-.89-2.24-2.66-2.24-2.28,0-3.59,1.4-4,4.19a15.75,15.75,0,0,0,3.14.29Z"></path><path d="M83.73,46.46C73.58,53.94,58.88,57.91,46.22,57.91A67.89,67.89,0,0,1,.41,40.46c-.95-.85-.1-2,1-1.36A92.27,92.27,0,0,0,47.29,51.24,91.26,91.26,0,0,0,82.21,44.1C84,43.37,85.4,45.17,83.73,46.46Z"></path><path d="M88,41.7c-1.3-1.65-8.57-.79-11.85-.39-1,.11-1.15-.74-.25-1.37,5.79-4.07,15.32-2.89,16.42-1.53S92,49.31,86.53,53.86c-.84.69-1.63.32-1.26-.6C86.5,50.14,89.25,43.31,88,41.7Z"></path></g></g></svg> 