<?xml version="1.0" encoding="UTF-8"?> <svg xmlns="http://www.w3.org/2000/svg" viewBox="0 0 152.74 46.52"><title>license_your_music--cbs</title><g><g><g><path d="M23,0A23.05,23.05,0,0,0,0,23.12v.07a23,23,0,1,0,45.9,3,21.89,21.89,0,0,0,0-3A23,23,0,0,0,23.09,0Zm0,9.84A23.89,23.89,0,0,1,44.34,23.19a23.65,23.65,0,0,1-42.71,0A23.83,23.83,0,0,1,23,9.85Zm0,1.06A12.33,12.33,0,1,0,35.28,23.28v-.09A12.35,12.35,0,0,0,23,10.9Z"></path><path d="M67.88,2.76a19.9,19.9,0,0,0-20.4,19.37c0,.29,0,.58,0,.87v.13A19.76,19.76,0,0,0,66.87,43.25h.7c7.53,0,12-2.69,16.05-7l-5.49-5.51c-3.06,2.79-5.83,4.6-10.29,4.6-6.71,0-11.37-5.63-11.37-12.33V22.9c0-6.7,4.77-12.19,11.37-12.19,3.92,0,7,1.67,10,4.43L83.32,8.8C79.7,5.21,75.27,2.76,67.88,2.76Z"></path><path d="M86.86,3.44V42.56h18.63c8.81,0,14.64-3.57,14.64-10.72v-.13c0-5.25-2.79-7.87-7.33-9.61a9.09,9.09,0,0,0,5.2-8.44v-.1a9,9,0,0,0-2.69-6.68C113,4.67,109.5,3.44,105,3.44ZM95.23,11h8.52c3.64,0,5.65,1.47,5.65,4v.14c0,2.89-2.42,4.12-6.23,4.12H95.23Zm0,15.44h10c4.39,0,6.37,1.63,6.37,4.25v.14c0,2.89-2.31,4.22-6.09,4.22H95.23V26.44Z"></path><path d="M137,2.86c-8,0-13.69,4.7-13.69,11.81v.11c0,7.77,5.11,10,13,12,6.54,1.7,7.9,2.79,7.9,5v.13c0,2.28-2.14,3.68-5.65,3.68-4.5,0-8.17-1.84-11.68-4.74L121.77,37a24.92,24.92,0,0,0,16.62,6.23h0c8.44,0,14.37-4.36,14.37-12.12V31c0-6.84-4.5-9.68-12.43-11.75-6.74-1.74-8.45-2.59-8.45-5.14V14c0-1.9,1.74-3.43,5-3.43s6.71,1.46,10.19,3.87l4.46-6.5A22.71,22.71,0,0,0,137,2.86Z"></path></g></g></g></svg> 