<?xml version="1.0" encoding="UTF-8"?> <svg xmlns="http://www.w3.org/2000/svg" viewBox="0 0 114.51 33.79"><defs><style> .vice-1 { fill: #fff; } </style></defs><title>license_your_music--vice</title><g><g><path class="vice-1" d="M92.92,13.11c-.22.29-.91.09-1.18.2C91.83,12.87,92.52,13.13,92.92,13.11Z"></path><path class="vice-1" d="M61.16,20.92c3.56-.11,6.9-.62,10.11-.61-1.58.66-3.36,1.25-5.16,1.89a16.09,16.09,0,0,1-5.46,1.38c-1,0-2.34-.35-2.45-1.28-.15-1.29.9-2.37,1.63-3.27a23.18,23.18,0,0,1,2.55-2.6C62.09,17.84,61.5,19.39,61.16,20.92Z"></path><path class="vice-1" d="M96.34,21.94a8.44,8.44,0,0,1-3.27.82,26.1,26.1,0,0,1-5,0C90.25,22,93.68,22.12,96.34,21.94Z"></path><path d="M66.62,9.89c-.87,3-2,6.1-3,9.19,1.48,0,3.18-.26,4.9-.4,1.51-.13,3.52-.07,4.55-.77.86-.59.88-1.88,1.53-2.76.39,1.42,1.57,3.34.71,4.7-.63,1-2.71,1.67-4.08,2.14-1.63.57-2.85,1.05-4.49,1.69A17.43,17.43,0,0,1,62,25.06c-2.3.25-5.44-.21-5.72-2.45a4.31,4.31,0,0,1,.56-2.3,19.13,19.13,0,0,1,3.73-4.8c1-1,1.93-1.94,2.91-2.81S65.6,10.82,66.62,9.89Zm-4.24,6.54A23.8,23.8,0,0,0,59.83,19c-.73.9-1.78,2-1.63,3.27.11.93,1.48,1.25,2.45,1.28a16.09,16.09,0,0,0,5.46-1.38c1.8-.64,3.58-1.22,5.16-1.89-3.21,0-6.55.5-10.11.61C61.5,19.39,62.09,17.84,62.38,16.43Z"></path><path d="M16,16.17a3.31,3.31,0,0,0,1.13-1.53A9.1,9.1,0,0,0,18,12.8a8.08,8.08,0,0,0,0-2.86C17.62,4.83,22.82,3.75,27.15,3a31.35,31.35,0,0,1,8.38-.1,7,7,0,0,0,1.12.15c.39-.06,1-.64,1.38-.87A8.12,8.12,0,0,1,40.94,1a14,14,0,0,1,4.65.25A61.32,61.32,0,0,1,58.2,4.69c.07.31-.52.84-.72,1.22C60.83,4.1,64,2.21,67.85,1.06A19.78,19.78,0,0,1,79.08,1a8,8,0,0,0,1.43.46,15.44,15.44,0,0,0,2.14-.26c11.45-1,22.1,2.32,31.86,4.19A19,19,0,0,1,105.58,13c.4.39.85.53,1.17.92a3.91,3.91,0,0,1,.21,4c-.6,1.18-1.89,1.86-2.56,2.6,2.1-.12,4.17.26,4.45,2.2a5.63,5.63,0,0,1-1.79,4.59c-3.07,3.24-8.44,4.3-13.63,5.37A56,56,0,0,1,82.25,33.8c-3.33,0-8.51-.27-10-2.4a3.37,3.37,0,0,1-.46-1.58c-4,1.72-8.54,3.54-14,3.67-5.66.14-10.82-1.23-12.77-5-.92,1.68-1.72,3.37-3.31,4.29-1.82,1-5.07,1.19-7.31.76C31.93,33,30,32,29.81,29.4s.81-5,1.48-7.1C32,20,32.83,18,33.64,16A11,11,0,0,0,31,18.88a42.51,42.51,0,0,1-8.42,8.42,35.51,35.51,0,0,1-7.1,4.14c-2.38,1-6.28,2.35-9.24,1.17a2.33,2.33,0,0,1-1.56-2.89v0C5,29,5.9,28.5,6,27.66a5,5,0,0,0-1-2.14,52,52,0,0,1-3.16-6C.71,16.78-.65,13,.35,9.69c.92-3,3.51-4.79,6.07-6.23A38.26,38.26,0,0,1,12.81.65c1.32-.46,3.64-1.24,4.64.1,1.42,1.91.19,5.6-.3,7.61A31.24,31.24,0,0,0,16,16.17ZM45.94,2.9a12.58,12.58,0,0,0-5-.26,6.49,6.49,0,0,0-2,.92c-.44.3-1.18,1.09-1.74,1.18a12.87,12.87,0,0,1-2.4-.26A27.28,27.28,0,0,0,23.17,5.6C22,6,20.51,6.62,20,7.75c-.65,1.33.16,3.16-.05,4.85a7.2,7.2,0,0,1-.81,2.2,23.67,23.67,0,0,1-2.4,3.62c-.34.45-1.08,1.45-1.74,1.33-.45-.09-.66-.89-.71-1.79C14,14,15,10.67,15.67,7.34A17.22,17.22,0,0,0,16.23,3c-.09-1-.52-1.36-1.33-1.33-1.34.06-3,1-4.29,1.53A25.11,25.11,0,0,0,6.88,5.09C4.6,6.56,2.43,8.44,2,11.63,1.61,15,3,18,4.18,20.41A19.79,19.79,0,0,0,6.27,24c.72.92,2.19,2.37,2,3.72-.14,1-2.13,2-1.79,3,.18.51,1.36.65,2.41.66a15.3,15.3,0,0,0,7.25-2.09,37,37,0,0,0,7.4-5,49.15,49.15,0,0,0,6.23-6.18c1.87-2.25,3.43-4.75,5.36-7.09,1.38,3.73,0,6.75-1.18,9.44-.6,1.42-1.08,2.72-1.58,4.29-.44,1.41-1.08,3.5-.66,5.06.54,2,3.55,2.38,5.92,2.19a6.26,6.26,0,0,0,4-1.53c1.93-1.89,3-4.55,4.14-7-.25,3.47,1.16,5.51,3.42,6.74A17.84,17.84,0,0,0,57.69,32c6.6,0,11.59-2.5,15.67-4.75a5.2,5.2,0,0,0,.15,3.17c.88,1.65,3.23,1.78,5.77,2a40.25,40.25,0,0,0,4.39.15A53.21,53.21,0,0,0,93,31.44c4.12-.81,8.53-2,11.64-4.09a5.07,5.07,0,0,0,2.45-2.8c.7-3.45-3.4-2.43-5.62-1.94-1.69.37-3.39.88-4.85,1.22-3.21.74-7.44,1.71-10.31.41-.44-.2-1.08-.52-1.07-1.17A1.85,1.85,0,0,1,86,21.89c1.06-.82,2.81-1,4.65-1.17,4.57-.34,11.32.4,14-2.45a3.33,3.33,0,0,0,.56-3.68c-.63-1-2.23-1.24-3.68-1.18-4,.19-7.3,1.83-10.77,1.74-.64,0-1.85,0-2-.46s.35-1.39.66-1.79a4,4,0,0,1,1.38-1.22,8.19,8.19,0,0,1,3.12,0,35.53,35.53,0,0,0,9.44.15,13.57,13.57,0,0,0,7.81-4.59,2.47,2.47,0,0,0,.72-1C103.56,4.77,94.1,2.35,85,2.49a9.41,9.41,0,0,0-4.24.87c-1,.51-2.39,1.69-2.19,3.06.12.81,1.18,1.41,1.94,1.68,1,.36,2,.49,2.81.87-2.15.39-4.74,1-6.9,1.38.43-1.07,1-2.11,1.49-3.42.33-.88,1.13-2.8.86-3.93S76.43,1.69,75,1.67a21.83,21.83,0,0,0-4.34.46C62.45,3.88,56.2,8.37,50.84,12.8a43.35,43.35,0,0,1,3.83-6.64c.2-.29.51-.64.46-.86A63.35,63.35,0,0,0,45.94,2.9Zm45.8,10.41c.27-.11,1,.09,1.18-.2C92.52,13.13,91.83,12.87,91.74,13.31Zm-3.67,9.45a26.1,26.1,0,0,0,5,0,8.44,8.44,0,0,0,3.27-.82C93.68,22.12,90.25,22,88.07,22.76Z"></path></g></g></svg> 