<?xml version="1.0" encoding="UTF-8"?> <svg xmlns="http://www.w3.org/2000/svg" viewBox="0 0 117.87 46.91"><title>license_your_music--hbo</title><g><g><path d="M53.59,36.4H48V27.93h5.1c3.06,0,5.68.79,5.81,4.35a4.61,4.61,0,0,1-1.61,3.33C56.27,36.46,54.87,36.4,53.59,36.4ZM48,10.62h5c2.44,0,5,.43,5,3.52.17,2.79-1.51,4.45-4.87,4.45H48Zm20.82,8.27a23.66,23.66,0,0,0-.24,7.74,13.36,13.36,0,0,0-4.15-3.44,9,9,0,0,0,4.43-4.3ZM92,11.28A12.18,12.18,0,1,1,79.74,23.46,12.18,12.18,0,0,1,92,11.28ZM65.66,43.2a12,12,0,0,0,4.89-9.48v-.49a23.45,23.45,0,1,0-.84-17.47,21.48,21.48,0,0,0,.18-3,11.79,11.79,0,0,0-4.76-9.08,14,14,0,0,0-8.44-3H36.29V46.89H55.42A17.18,17.18,0,0,0,65.66,43.2Z"></path><path d="M92,32.4a8.94,8.94,0,1,0-9-8.94A8.94,8.94,0,0,0,92,32.4Z"></path><polygon points="11.78 28.85 21.23 28.85 21.23 46.89 33.07 46.89 33.07 0.68 21.29 0.68 21.29 17.66 11.84 17.66 11.84 0.68 0 0.68 0 46.89 11.78 46.89 11.78 28.85"></polygon><path d="M113.52,3.48v3.4h.61V5.55h.46a1.4,1.4,0,0,1,.67.11.82.82,0,0,1,.32.77v.38h.56a.54.54,0,0,1,0-.18V6.16a.89.89,0,0,0-.19-.52.81.81,0,0,0-.58-.33,1.25,1.25,0,0,0,.49-.17.74.74,0,0,0,.33-.67.84.84,0,0,0-.53-.87,2.46,2.46,0,0,0-.93-.12Zm2.07,1a.52.52,0,0,1-.35.53,1.57,1.57,0,0,1-.57.07h-.54V3.91h.51a1.61,1.61,0,0,1,.72.12.53.53,0,0,1,.23.49Zm2.28.67a3.09,3.09,0,0,0-6.17,0,3,3,0,0,0,.9,2.2,3.07,3.07,0,0,0,5.27-2.2Zm-3.11-2.67a2.68,2.68,0,0,1,2.68,2.67,2.61,2.61,0,0,1-.78,1.9,2.69,2.69,0,0,1-3.79,0,2.64,2.64,0,0,1-.77-1.9,2.61,2.61,0,0,1,2.66-2.63Z"></path></g></g></svg> 