<?xml version="1.0" encoding="UTF-8"?> <svg xmlns="http://www.w3.org/2000/svg" viewBox="0 0 137.27 49.18"><title>license_your_music--showtime</title><g><g><path d="M34.87,24.93c0-9.94,3.53-16.17,7.91-16.85C38.4,2.86,31.16,0,24.59,0A24.58,24.58,0,0,0,6.23,8.08C10.61,8.93,12,12.63,12,18.19H6.74c0-3.37-.68-5.05-2.7-5.05a2,2,0,0,0-1.85,1.18.59.59,0,0,1-.17.33,5,5,0,0,0-.34,1.52c0,6.74,11.29,6.4,11.29,17,0,4-3.2,7.92-6.74,7.92a24.7,24.7,0,0,0,34.88,1.66c.52-.48,1-1,1.5-1.49-4.21-1-7.74-6.91-7.74-16.34ZM32.51,41.1H26.78v-14H20.72v14H15.16V8.76h5.56V21.9h6.06V8.76h5.73Z"></path><path d="M4.88,36c1.52,0,2.7-1.51,2.7-3.53,0-4-3.71-4.89-7.58-8.42v1.34C.14,31.77,2.36,36,4.88,36Z"></path><path d="M40.42,24.42c0-5.56,1.52-11,4.38-11,3.54,0,4.38,8.43,4.38,11.12,0,5.73-1.85,11.12-4.38,11.12-2.86,0-4.38-5.56-4.38-11.29Z"></path><polygon points="96.68 9.26 72.93 9.26 70.57 27.79 70.57 27.79 68.05 9.26 62.83 9.26 60.13 27.79 59.96 27.79 57.94 9.26 52.72 9.26 56.93 40.76 61.98 40.76 64.85 20.72 65.02 20.72 67.71 40.76 72.93 40.76 76.3 14.15 81.19 14.15 81.19 40.76 86.91 40.76 86.91 14.15 92.13 14.15 92.13 40.76 98.03 40.76 98.03 9.26 96.68 9.26 96.68 9.26"></polygon><polygon points="100.72 9.26 108.47 9.26 111 25.43 111 25.43 113.69 9.26 121.27 9.26 121.27 40.76 116.05 40.76 116.05 17.69 116.05 17.69 112.18 40.76 108.98 40.76 105.1 17.69 104.93 17.69 104.93 40.76 100.72 40.76 100.72 9.26 100.72 9.26"></polygon><polygon points="123.97 9.26 136.94 9.26 136.94 14.15 129.69 14.15 129.69 22.07 135.08 22.07 135.08 27.29 129.69 27.29 129.69 35.88 137.27 35.88 137.27 40.76 123.97 40.76 123.97 9.26 123.97 9.26"></polygon></g></g></svg> 