<?xml version="1.0" encoding="UTF-8"?> <svg xmlns="http://www.w3.org/2000/svg" id="a" viewBox="0 0 200 200"><path d="m100.79,167.87c-.2-.06-.52-.17-.84-.25-.16-.04-.36-.04-.51.01-1.01.32-2.04.3-3.04.02-.45-.12-.8-.16-1.24-.01-.4.13-.98.31-1.27.13-.58-.36-1.14-.23-1.71-.26-.5-.03-1.02.06-1.51-.02-.45-.08-.86-.34-1.31-.48-.27-.08-.67-.21-.85-.08-.98.71-1.85,0-2.72-.2-1.5-.34-3.03-.63-4.45-1.31-.59-.28-1.39.25-2-.27-1.36.28-2.31-.76-3.47-1.12-.47-.15-1.1.15-1.48-.47-.35-.57-1.02-.18-1.53-.28-.09-.02-.21,0-.28-.06-.39-.28-.74-.71-1.17-.81-.46-.11-.93-.1-1.38-.33-.74-.39-1.54-.68-2.29-1.04-1.73-.83-3.32-1.92-5.12-2.63-.75-.95-1.92-1.2-2.87-1.81-.85-.55-1.59-1.28-2.38-1.93-.19-.16-.42-.48-.55-.44-.86.24-1.01-.54-1.42-.93-.56-.54-1.2-.91-1.91-1.24-.5-.23-.87-.74-1.28-1.14-.3-.3-.54-.67-.87-.94-1.32-1.11-2.87-1.99-3.68-3.63-.1-.21-.25-.52-.42-.56-1.52-.34-2.11-1.56-2.75-2.76-.2-.38-.46-.73-.75-1.05-.83-.91-1.78-1.7-2.48-2.75-.28-.42-.63-.73-.57-1.29.01-.11-.18-.26-.31-.37-.52-.43-1.21-.71-1.2-1.55,0-.12-.13-.26-.23-.35-.44-.35-.56-.85-.78-1.34-.32-.73-.89-1.35-1.35-2.01-.11-.16-.36-.35-.32-.46.27-.77-.45-1.15-.69-1.7-.18-.42-.65-.72-.55-1.29.02-.09,0-.22-.05-.28-.95-.93-1.21-2.22-1.75-3.36-.4-.84-.48-1.82-1.12-2.57-.13-.15-.1-.47-.1-.71.01-.36,0-.7-.34-.92-.08-.05-.22-.15-.21-.21.2-1.07-.7-1.88-.68-2.91,0-.37.28-.96-.49-.98-.04,0-.1-.07-.1-.1.18-1.34-.99-2.46-.61-3.84.24-.89-.44-1.53-.68-2.29-.08-.27-.3-.7-.2-.79.8-.77-.16-1.46-.06-2.19.01-.1-.18-.22-.26-.34-.39-.58.66-1.08.05-1.75-.39-.42-.37-1.06-.36-1.66.01-.92-.49-1.8-.3-2.75.12-.56-.22-1.18.29-1.71.1-.1,0-.49-.13-.67-.22-.34-.27-.63,0-.93.21-.23.2-.42-.02-.63-.06-.06-.14-.17-.13-.24.09-.52.36-1.07.25-1.53-.11-.46-.46-1.02-.21-1.37.33-.46-.39-1.01.25-1.32,0-.5-.03-1.01,0-1.51.08-1.22.16-2.44.32-3.65.05-.39.5-.73.55-1.12.05-.39-.17-.82-.26-1.23-.02-.09-.01-.26.03-.28.97-.39.42-1.34.7-1.99.18-.42-.36-.98.06-1.54.33-.44.48-1.01.72-1.51.4-.83.29-1.72.3-2.6,0-.44-.13-.92.39-1.2.08-.05.21-.15.21-.21-.12-.99.76-1.64.89-2.5.13-.86.58-1.59.69-2.46.07-.53.5-1.09.79-1.62.18-.33.5-.61.61-.95.12-.36.06-.75.43-1.05.18-.14.25-.54.21-.79-.07-.44.15-.75.33-1.08.32-.6.76-1.01,1.53-.89.3.04.32-.17.1-.32-.56-.37-.39-.8-.11-1.21.38-.56.87-1.05,1.17-1.64.28-.53.27-1.22.58-1.72.33-.52.9-.89,1.15-1.5.25-.62.53-1.22,1.01-1.7.09-.09.08-.34.17-.37,1.12-.34,1.29-1.47,1.88-2.24.22-.29.25-.71.71-.81.12-.03.18-.27.27-.41.41-.57.7-1.18,1.43-1.54.55-.28.82-1.07,1.32-1.52.63-.56,1.19-1.13,1.6-1.89.22-.4.67-.79,1.1-.94.35-.12.46-.32.68-.52,1.04-.9,1.86-2.08,3.05-2.76.72-.41,1.23-.99,1.77-1.54.72-.74,1.59-1.25,2.44-1.81,1.12-.73,2.27-1.44,3.27-2.35.2-.19.49-.44.72-.42.74.08,1.22-.23,1.67-.76.38-.44.75-.98,1.49-.79.08.02.21-.02.26-.08.82-.88,2.05-.91,3.02-1.49.69-.42,1.29-1.07,2.22-.85.07.02.23-.07.24-.12.15-1.08.99-.77,1.63-.76.43,0,.62-.26.86-.5.5-.51,1.08-.75,1.82-.74.83,0,1.62-.2,2.21-.86.54-.6,1.3-.83,1.99-.6.53.18.9.09,1.2-.21.35-.36.72-.52,1.19-.43.52.1.93-.33,1.39-.29.54.05.89-.3,1.34-.44.84-.24,1.63-.91,2.57-.25.09.06.34.05.39-.01.32-.4.75-.2,1.12-.23.58-.04,1.13.02,1.7-.28.49-.26,1.12.14,1.71-.29.33-.24,1.01.07,1.47-.07.6-.18,1.15-.48,1.72.03.55-.51,1.22-.26,1.84-.29.65-.03,1.31,0,1.97,0h1.97c.66,0,1.31-.04,1.97.01.47.04.94.15,1.39.3.97.31,2.01.17,2.97.49.08.03.21-.11.32-.11.37,0,.89-.11,1.09.08.41.4.83.47,1.35.44,1.37-.08,2.7,0,3.91.8.18.12.47.11.71.1.36-.02.63.16.94.28.74.29,1.54.44,2.31.63.55.14,1.14.17,1.64.41.82.39,1.55.97,2.54.8,1.04.71,2.34.67,3.42,1.22.58.3,1.32.38,1.69,1.05.05.09.25.1.38.15.52.2,1.03.48,1.57.58.55.11.66.75,1.33.79,1.47.1,2.43,1.37,3.74,1.9.39.16.7.49,1.09.65.95.39,1.78.92,2.49,1.68.53.56,1.17,1.04,1.8,1.5.25.18.68.15.9.35.56.49,1.29.74,1.65,1.55.25.55.97.95,1.55,1.27,1,.56,1.77,1.1,2.29,1.72.63.76,1.25,1.52,1.93,2.22.44.45.97.8,1.47,1.18.14.11.35.13.51.22.93.52.96,1.77,2.02,2.29.85.41,1.18,1.49,1.7,2.32.23.38.36.76.9,1.02.65.31,1.23.95,1.54,1.72.14.35.39.65.64.94.22.26.48.46.46.88-.01.18.21.46.4.57.73.42.98,1.18,1.38,1.83.07.11-.05.39.02.43.96.67.93,1.85,1.46,2.73.14.24.24.53.44.72.47.44.82.91.98,1.57.1.39.47.71.72,1.06.45.62.93,1.27.9,2.03-.03.62.64.72.65,1.26,0,.36.22.72.28,1.09.06.38.04.72.26,1.11.17.29.16.71.46,1.02.17.17.18.54.19.82.01.9.21,1.71.9,2.36.53.5.46,1.25.57,1.87.15.8.28,1.57.57,2.34.23.6.49,1.25.39,1.96-.09.63.2,1.26.36,1.82.24.79.16,1.55.24,2.31.03.28.15.54.21.82.04.19.13.4.08.57-.48,1.49.25,2.96.04,4.45-.07.49.18,1.02.28,1.53.1.52.02,1.05.13,1.6.14.74-.06,1.58-.27,2.33-.1.35-.27.63-.02.93.19.23.2.39.03.64-.12.18-.24.55-.15.67.48.58.18,1.24.29,1.86.1.56-.14,1.04-.31,1.54-.07.22-.3.43-.28.63.19,1.69-.35,3.34-.32,5.02,0,.25.08.64-.04.72-.84.59-.54,1.45-.54,2.2,0,.63-.51,1.02-.61,1.57-.11.58-.06,1.18-.13,1.77-.03.22-.21.41-.31.63-.29.69-.73,1.28-.83,2.09-.09.72-.51,1.38-.63,2.16-.13.88-.22,1.93-1.11,2.55-.62,1.41-1.23,2.82-1.85,4.22-.19.43-.4.84-.61,1.26-.08.17-.31.35-.28.48.19.67-.38.96-.61,1.42-.51,1-1.34,1.83-1.58,2.98-.03.12-.2.22-.31.32-1.1.98-1.73,2.26-2.37,3.55-.23.47-.61.86-.94,1.27-.49.61-1,1.2-1.49,1.8-.47.56-.93,1.13-1.39,1.69-.4.49-.75,1.02-1.19,1.47-.37.37-.82.67-1.26.97-.38.26-.48.72-.91,1-.53.35-1.18.77-1.31,1.54-.63.22-1.02.63-1.29,1.25-.12.28-.49.47-.76.67-.31.22-.67.37-.95.62-.52.47-.9,1.25-1.49,1.44-.74.24-1.29.61-1.82,1.11-.24.22-.55.37-.83.54-.16.09-.4.11-.5.24-.77,1.06-1.99,1.56-3.01,2.28-1.32.93-2.62,1.92-3.95,2.83-1.28.1-2.21.99-3.32,1.48-.59.26-1.04.97-1.85.68-.07-.02-.2.22-.33.28-1.21.61-2.41,1.24-3.64,1.81-.59.27-1.24.59-1.86.57-.8-.03-1.4.3-2.01.67-.26.16-.47.32-.79.29-.81-.07-1.6-.06-2.12.74-.06.1-.25.14-.38.16-.86.11-1.73.19-2.6.31-.42.06-.86.12-1.23.31-1.51.78-3.12.9-4.77.91-.77,0-1.6.03-2.27.33-.59.27-1.14.19-1.71.26-.82.1-1.63.22-2.58.35Zm10.69-50.7c-.05-.06-.1-.12-.14-.18-.04.04-.09.09-.13.13.06.05.12.1.18.13.01,0,.06-.06-.66.06.18-.18.33-.33.47-.47-.07-.05-.16-.17-.21-.15-.14.06-.3.14-.39.26-.04.06.07.22.87.21Zm-37.13-47.18c-.11.15-.25.25-.25.35,0,.12.12.24.2.36.19-.14.38-.28.58-.42-.14-.08-.29-.16-.58.56v-.13c-.08.03-.17.04-.23.09-.02.01.03.12.05.18.06-.05.12-.09.24-.99Zm42.91,50.13c0-.12,0-.21,0-.21-.4-.07-.81-.13-1.21-.19.03.08.05.18.1.25.21.3.51.43.86.35.11-.02.19-.15-1.11-.6h.15c-.03-.28,0-.6-.12-.84-.09-.17-.45-.39-.56-.34-.29.15-.52.43-.76.67-.02.02.04.19.08.2.42.06.9-.15,2.57.71Zm-52.08-24.3c-.31,0-.51-.01-.71,0-1.84.13-3-.9-3.58-2.44-.33-.88-.89-1.65-1.13-2.56-.06-.22-.21-.42-.28-.64-.21-.67-.3-1.41-.64-2-.39-.67-.17-1.53-.77-2.12-.14-.13-.13-.47-.1-.7.14-.96-.18-1.8-.62-2.62-.09-.17-.31-.34-.28-.48.13-.67-.35-1.24-.29-1.84.07-.68-.38-1.22-.32-1.84.1-1.24-.24-2.39-.64-3.52-.19-.52.12-.97.01-1.42-.14-.54-.39-1.05-.59-1.57-.02-.04-.01-.1,0-.15.06-.29.17-.59.17-.88,0-.38-.14-.76-.16-1.14-.06-1.01.2-2.05-.55-2.96-.18-.21-.06-.68-.06-1.02,0-.76.18-1.58-.06-2.25-.19-.54-.02-1.16-.29-1.53-.42-.59-.15-1.16-.27-1.72-.02-.09-.07-.17-.1-.26-.07.04-.15.07-.21.13-.1.1-.22.21-.28.33-.88,1.62-1.81,3.2-3.24,4.4-.15.12-.39.32-.37.44.11.63-.39.87-.7,1.24-.09.11-.23.25-.21.36.1.57-.31.93-.66,1.07-.53.2-.66.64-.85,1.02-.24.5-.31,1.08-.52,1.6-.35.86-1.32,1.47-1.06,2.59-.65.42-.66,1.27-1.18,1.78-.4.39-.51.88-.62,1.41-.16.77-.2,1.64-.69,2.27-.47.6-.6,1.26-.82,1.94-.37,1.11-.74,2.19-.6,3.39.02.2-.16.44-.29.63-.48.7-.59,1.49-.62,2.32-.03.87-.23,1.73-.28,2.6-.05.9.04,1.82-.03,2.72-.03.45-.29.88-.44,1.32-.05.16-.11.35-.07.51.26,1.14.24,1.13-.06,2.66-.1.49-.21,1.15.03,1.48.46.63-.02,1.36.31,1.84.43.64.21,1.26.24,1.87.05,1.11,0,2.22.03,3.33,0,.27.11.57.25.8.41.68.73,2.06.65,2.96-.07.74-.07,1.51.46,2.07.4.41.42.83.46,1.34.06.76.24,1.51.38,2.26.79.48.3,1.64,1.12,2.11-.14.94.61,1.46,1.01,2.15.09.15.22.43.16.5-.69.83.06,1.31.42,1.88.26.4.79.78.78,1.17-.01.95.69,1.55.94,2.35.09.31.31.59.53.83.28.31,1.48,2,1.6,2.34.28.77.48,1.05,1.13,1.63.17.15.38.4.36.59-.03.44.37.58.48.87.2.54.98.6,1.02,1.05.07.9.67,1.24,1.28,1.65.13.09.28.29.26.41-.08.52.22.81.52,1.16.63.75,1.61,1.21,1.94,2.22,1.19.02,1.32,1.3,2.1,1.81.44.29.87.61,1.26.96.36.33,1.01.48,1.04,1.04.04.91,1.02.32,1.31.92.18.38.72.6,1.12.87.68.46,1.29.91,1.74,1.67.34.57,1.06,1.17,1.69,1.27,1.19.18,1.94.96,2.86,1.54.24.15.48.3.73.43.55.27,1.16.41,1.59.94.23.28.75.34,1.14.48.22.08.46.11.68.19.66.24,1.31.48,1.96.75.64.27,1.31.88,1.9.81.98-.12,1.21.79,1.9.98.13.04.23.2.36.23,1.01.23,2.02.56,3.05.64.92.07,1.78.38,2.66.51,1.09.16,2.18.23,3.19.73.04.02.1.01.15,0,.72-.22,1.44.58,2.18.02.08-.06.34.11.51.17.32.11.99.11,1.52.13.42.01.86-.17,1.28.21.3.28.81-.02,1.25.29.25.17.85-.18,1.3-.3.11-.03.26-.14.31-.1.46.3.86.28,1.36-.01.3-.18.84-.23,1.15-.08,1.2.58,2.45.13,3.67.27.17.02.36-.09.54-.15.39-.14.78-.33,1.18-.44.46-.12,1.01.22,1.39-.31.31.48.86.14,1.21.34.34.2.48.36.45-.18.79-.13,1.4-.82,2.24-.76.42.03.87.35,1.23.25.43-.12.77-.55,1.18-.8.15-.09.38-.07.58-.06.77.06,1.43-.14,1.99-.69.15-.15.44-.22.66-.21,1.14.05,2.09-.53,3.13-.85,1.45-.45,2.52-1.65,4.03-1.97.18-.04.39-.48.38-.71-.05-.63-.31-1.25.02-1.87-.56-.97-.19-2.03-.31-3.05-.03-.23-.05-.55-.2-.66-.46-.33-.43-.77-.39-1.21.07-.9-.02-1.74-.61-2.48-.14-.18-.3-.42-.29-.63.02-1-.95-1.29-1.39-1.97-.22-.34-.8-.45-1.22-.65-.13-.06-.31-.04-.4-.13-.97-1.01-2.39-1.07-3.55-1.67-.44-.23-1.06-.38-1.5-.25-.94.27-1.84.53-2.83.25-.33-.09-.71.02-1.05-.03-.37-.05-.75-.14-1.08-.3-.59-.3-1.11-.49-1.74-.02-.19.14-.65-.03-.98-.12-.5-.13-1-.46-1.47-.42-.94.08-1.66-.32-2.44-.73-.61-.32-1.07-1.05-1.93-.83-.09.02-.28-.14-.33-.26-.31-.76-1.18-.94-1.6-1.58-.23-.36-.67-.71-.67-1.06,0-.55-.35-.78-.6-1.13-.9-1.25-1.69-2.55-1.56-4.19.05-.61.01-1.18-.57-1.59-.17-.12-.29-.39-.32-.61-.13-1.01-.21-2.03-.32-3.05-.04-.36.18-.64.26-.95.09-.31-.2-.71-.25-1.07-.3-2.09.66-3.93,1.27-5.83.16-.51.49-.99.61-1.56.15-.73.6-1.29,1.16-1.79.76-.68,1.33-1.52,1.83-2.41.18-.33.65-.47.58-.97-.08-.65.66-.39.93-.79.56-.81.64-1.69.38-2.71-.28-1.06-1.5-1.39-1.66-2.48-.02-.11-.59-.06-.77-.23-.59-.58-1.34-.94-1.96-1.46-.6-.5-1.19-1.06-1.71-1.63-.86-.95-1.97-1.15-3.09-1.33-.52-.08-.94-.14-1.29-.57-.41-.5-.92-.61-1.56-.4-.29.1-.69.02-1.01-.09-.59-.21-1.1-.89-1.8-.21-.04.04-.31-.16-.48-.24-1.11-.55-2.3-.42-3.45-.23-.28.05-.44.08-.74.02-.9-.19-1.8-.22-2.74.05-.9.25-1.69.92-2.74.76-.35-.05-.87.2-1.13.48-.37.4-.77.43-1.21.38-.55-.06-.93.14-1.3.54-.25.27-.43.73-.92.67-.63-.07-1.12.12-1.59.59-.23.23-.7.21-1.06.33-.16.05-.31.23-.46.23-.21,0-.52-.22-.61-.15-.8.7-1.75.48-2.56.52Zm90.11-3.21c-.04-.73.24-1.44-.16-2.19-.32-.59-.23-1.41-.35-2.12-.1-.57.18-1.14-.25-1.72-.34-.46-.29-1.2-.59-1.71-.35-.59-.37-1.19-.37-1.82,0-.88-.26-1.74-.78-2.7-.07-.12-.13-.27-.12-.4.05-.89-1-1.49-.65-2.47.02-.06-.23-.19-.3-.32-.11-.2-.28-.44-.25-.64.07-.61-.13-1.05-.6-1.43-.17-.13-.34-.43-.31-.61.2-.99-.58-1.4-1.09-1.98-.18-.21-.42-.48-.42-.72,0-.81.06-1.57-.95-1.88-.2-.06-.33-.45-.43-.71-.23-.64-.09-1.49-1.06-1.67-.02,0,.02-.2-.01-.29-.09-.22-.19-.43-.31-.63-.53-.89-1.65-1.44-1.51-2.71,0-.04-.15-.1-.22-.16-.8-.67-1.29-1.58-1.89-2.42-.44-.62-.7-1.43-1.41-1.8-1-.53-1.65-1.43-2.39-2.21-.34-.37-.51-.96-1.04-1.12-.67-.2-.55-1.1-1.12-1.26-1.12-.31-1.24-1.85-2.5-1.95-.11,0-.18-.32-.31-.45-.51-.51-.96-1.22-1.59-1.44-.68-.25-1.2-.59-1.68-1.06-.48-.47-.93-.96-1.65-1.15-.42-.11-.92-.45-1.09-.82-.32-.68-.87-.89-1.47-.94-.52-.04-.98-.24-1.29-.53-.77-.7-1.47-1.43-2.62-1.37-.49-.57-1.32-.43-1.89-.94-.51-.45-1.38-.36-1.86-.98-.07-.09-.26-.09-.39-.15-.96-.49-2.09-.53-3.01-1.13-.15-.09-.38-.06-.57-.08-.92-.1-1.84-.17-2.75-.32-.4-.07-.88-.21-1.14-.49-.37-.39-.76-.4-1.21-.4-.76,0-1.51,0-2.27,0-.24,0-.61,0-.69-.12-.35-.63-.81-.13-1.21-.17-.37-.05-.41.2-.36.47.05.28.13.55.23.81.21.53.38,1.09.85,1.46.55.43.41,1.15.75,1.66.03.04.07.1.11.1.64.05.68.63.75,1.02.11.56.38.95.71,1.38.31.4.68.87.73,1.35.12,1.07.69,1.94,1,2.92.34,1.05.82,2.07.62,3.23-.02.12.04.33.13.39.6.36.44.94.47,1.48.04.63.15,1.26.15,1.9,0,.65-.12,1.29-.15,1.94-.02.55-.01,1.03-.5,1.48-.28.26-.48.78-.44,1.32.03.39-.14.85-.35,1.2-.72,1.16-1.59,2.23-1.82,3.64-.05.3-.35.56-.51.84-.53.89-1.66,1.43-1.54,2.7.01.13-.25.29-.39.43-.5.5-1.02.98-1.49,1.51-.31.35-.76.77-.78,1.17-.03.67-.41,1.05-.86,1.28-1.19.61-1.52,1.64-1.6,2.83-.02.4,0,.78-.39,1.06-.34.24-.27.57-.13.92.4,1.02.6,2.14,1.61,2.82.07.04.07.17.12.25.76,1.36,2.1,1.94,3.45,2.38.52.17,1.19.11,1.62.47.52.44,1.14-.06,1.68.37.37.29.99.26,1.48.42,1.07.35,2.15.66,3.25.93,1.12.28,2.24.25,3.36.28.22,0,.44.14.66.22.55.18,1.08.71,1.69.09.07-.08.34-.07.44,0,.71.58,1.55.32,2.3.26,1.4-.11,2.73.43,4.11.33.3.59.95.09,1.34.42.48.41,1.15-.05,1.56.22.51.33.86-.16,1.29-.04.23.07.61-.04.7.09.61.84,1.62.79,2.44,1.08.6.21,1.12.46,1.64.81.49.33,1.18.3,1.65.77.15.15.43.3.63.27.48-.08.72.21,1.03.48.28.25.6.51.94.63.5.17.99.49,1.1.89.11.4.33.39.57.51.42.2.74.54.94.94.35.73.58,1.46,1.47,1.83.36.15.62.85.68,1.33.07.51.27.95.54,1.29.58.71.81,1.6,1.3,2.35.5.75.12,1.84.91,2.5.02.02,0,.1,0,.15-.11.7.22,1.31.45,1.93.23.63.19,1.21.02,1.84-.12.45-.24,1.02-.06,1.4.17.35.15.65.19.98.04.29.02.59.09.87.18.77,1.06,1.53-.03,2.28-.02.01-.03.09-.01.1.47.4.02,1.06.29,1.38.41.52-.3.85-.04,1.29.16.28.31.63.27.92-.04.3-.37.55-.49.85-.09.22-.05.48-.07.73-.09,1.52.21,3.06-.28,4.57-.11.35.03.78.05,1.17.25-.3.53-.57.74-.89.26-.39.48-.81.7-1.22.21-.41.35-.87.6-1.26.29-.44.46-.91.65-1.4.25-.63.08-1.57,1.03-1.82.25-.6.49-1.21.75-1.81.15-.35.42-.66.3-1.09-.15-.57.18-1.02.35-1.52.07-.22.22-.43.25-.65.12-1.1.77-2.99,1.34-3.99.23-.4.49-.89.45-1.31-.15-1.6.45-3.13.34-4.72-.04-.58-.14-1.2.49-1.63.13-.09.16-.49.08-.68-.09-.21-.26-.26-.05-.56.37-.52.49-1.15.38-1.8-.07-.42.09-.84-.24-1.28-.16-.22.15-.78.23-1.2.03-.15.07-.34,0-.45-.5-.72-.2-1.54-.3-2.3-.1-.81-.26-1.62-.39-2.43Zm-79.87-25.54c.33,0,.69-.02,1.04,0,.86.07,1.48-.11,1.83-1.06.19-.5.72-.96,1.46-.78.2.05.46-.09.66-.2.15-.08.36-.29.07-.41-.78-.3-.98-1.15-1.59-1.57-.53-.37-.95-.7-.97-1.4,0-.2-.22-.42-.39-.58-.15-.14-.42.48-.46.05-.04-.48-.42-.32-.58-.5-.15-.18-.25-.4-.37-.6-.17-.27-.33-.55-.5-.82-.27.19-.54.39-.82.56-.12.07-.27.08-.4.11.06.08.11.18.19.23.07.05.17.06.26.09-.07.07-.14.2-.23.21-.2.03-.4,0-.6.01-.09,0-.17.06-.26.09.09.07.17.14.26.2.37.28,1.09.24.91,1.03-.03.13.11.29.18.44.04-.19.06-.38.12-.55.03-.1.13-.17.2-.26.27.49.44-.06.68-.06.57,0,1.04.26,1.36.66.09.11-.27.57-.44.87-.06.11-.15.28-.24.29-.62.06-.28.51-.34.79.23.04.48.16.7.11.25-.05.4-.49.74-.19.22.2.53.39.61.65.08.24.3.67-.3.79-.44.09-.88.32-1.27.56-.83.51-1.16.41-1.39-.51-.05-.19.01-.4-.01-.6-.02-.12-.1-.24-.16-.36-.11.11-.24.2-.31.32-.23.41-.49.81-.63,1.24-.16.48.18.86.44,1.24.27.4.37-.06.56-.1Zm47.3,52.16c0,.43-.06.63.01.72.19.25.4.53.66.65.47.21.52-.26.64-.54.09-.21.14-.45.2-.67.05-.18.08-.53.12-.53.69,0,.46-.5.48-.85.01-.2.02-.4,0-.6-.03-.33.17-.34.42-.45.26-.12.47-.3.8-.28.49.04,1.04.16.94-.69-.02-.15.38-.39.63-.5.33-.15.34-.35.14-.55-.12-.12-.16-.47-.53-.21-.42.3-.91.47-1.47.48-.34,0-.66.39-1.08.28-.05.33-.07.67-.15,1-.05.22-.15.45-.28.63-.37.51-.79.98-1.16,1.49-.19.26-.32.56-.36.63Zm-37.94-52.15c-.73-.04-.77.01-.48.59.24.48.51.95.17,1.48-.14.21-.2.29.1.35.23.04.45.14.67.18.08.01.2-.06.25-.12.35-.4.76-.51,1.18-.24.41.27.49.59.06.95-.03.02.14.29.21.44.12-.11.34-.2.36-.32.06-.37-.06-.78.3-1.07-.53-.33-.18-.64,0-.97.03-.05-.18-.33-.3-.35-.4-.05-.8-.04-1.2-.01-.47.03-.17-.78-.77-.65-.21.05-.49-.22-.55-.25Zm-3.09-11.54c-.14-.26-.19-.52-.31-.56-.31-.1-.34.13-.44.4-.11.3-.46.51-.7.77-.65.69-.66.69-.11,1.46.37.51.76,1,1.14,1.49.26.34.74.68,1.07.7.13,0,.32-.03.39-.12.06-.08.04-.34-.03-.39-.6-.39-1.01-.83-1.31-1.55-.37-.87-.56-.79-.18-1.36.18-.27.32-.56.48-.84Zm37.74,58.21c-.17-.36-.31-.66-.44-.95-.07.04-.19.09-.19.12.06.48-.28.37-.56.45-.23.07-.41.31-.61.48.48.26.03.48-.06.66-.28.61-.47,2.07-.29,2.69.01.05-.01.1,0,.15.11.33.29.25.56.15.59-.22.12-.88.52-1.15.59-.39.34-.65-.14-.88-.02-.01-.05-.99-.04-1.12.02-.69.32-.09.46-.13.29-.08.53-.31.79-.47Zm-32.71-52.44c0-.3-.04-.61,0-.9.07-.42-.16-.66-.44-.87-.26-.2-.54-.37-.83-.52-.07-.04-.25.03-.31.1-.32.39-.35,1.48-.08,1.92.25.4.57.77.71,1.2.12.37.35.26.57.29.37.04.38-.2.37-.47-.01-.25,0-.5,0-.75Zm-12.59-3.01c.25,0,.5,0,.76,0,.39.01.33-.26.35-.5.02-.34-.14-.46-.44-.4-1.08.2-1.78-.26-2.18-1.25-.09-.22-.25-.41-.41-.58-.16-.18-.42-.49-.53-.45-.27.1-.38.38-.38.73,0,.78,0,.82.71,1.2.49.26,1.28.23,1.15,1.14,0,.03.15.12.24.13.25.02.5,0,.76,0Zm11.6-9.21c-.08-.21-.18-.37-.21-.55-.09-.42.19-.92-.28-1.24-.24-.16-.75.13-.75-.45,0-.02-.21-.08-.26-.04-.1.07-.23.28-.21.3.34.38.18.64-.16.91-.1.08-.1.48-.09.48.71.15.68,1.02,1.26,1.27.11.05.34.04.39-.04.15-.22.23-.48.31-.66Zm42.99,64.3c.13-.28.24-.53.36-.78.45-.92.45-1.09-.44-1.3-.56-.13-.82-.23-.83-.84,0-.15-.47-.43-.67-.39-.2.04-.41.4-.46.65-.1.45.21.84.77.79.78-.08.8.51,1.01.92.1.2,0,.49.03.74,0,.06.11.11.24.21Zm-54.86-63c-.05.17-.17.34-.14.47.18.82.39,1.64.61,2.45.02.06.16.15.23.13.13-.02.32-.09.34-.18.17-.63.31-1.28.45-1.92.02-.1.04-.28,0-.3-.46-.22-.93-.41-1.51-.66Zm24.96,9.33c0-.37.05-.64-.02-.87-.03-.11-.28-.23-.43-.23-.15,0-.44.16-.44.21.16.93-.39,1.65-.71,2.43-.04.1-.07.21-.11.32.25.01.5.07.73.03.14-.02.28-.18.37-.31.34-.52.9-.96.61-1.58Zm-11.19,14.85c0,.15,0,.3,0,.45-.03.34.02.54.46.55.47,0,.49-.25.44-.56-.1-.6.12-1.05.59-1.42.14-.11.53-.27.11-.51-.18-.1-.45-.22-.61-.16-.92.34-.99.49-.99,1.65Zm-6.01-22.73c-.2-.2-.35-.47-.48-.46-.65.04-.44-.61-.73-.84.14-.16.46-.36-.06-.4-.25-.02-.5-.01-.74,0-.35.01-.6.38-.44.68.08.17.21.38.37.43.57.18.95.46.85,1.13,0,.05.17.19.19.17.36-.22.7-.46,1.06-.7Zm53.4,75.74c.15,0,.25.02.35,0,.12-.03.24-.1.35-.16-.07-.07-.13-.16-.21-.21-.26-.13-.37-.83-.86-.25-.04.04-.37-.05-.37-.1-.11-.95-.83-.79-1.44-.79-.13,0-.27.07-.4.11.08.11.15.25.25.31.4.23.88.35,1.21.65.36.33.7.49,1.12.43Zm-71.07-59.86c-.08.04-.21.07-.21.11-.01.71-.02,1.41,0,2.12,0,.06.29.18.37.14.56-.3.82-.86.8-1.42-.02-.49-.75-.49-.96-.94Zm28-7.6s-.18.06-.36.11c.15.07.32.12.45.21.28.21.51.45.44.87-.05.29-.01.6,0,.9,0,.23.02.32.31.18.33-.15.73-.16,1.1-.23-.26-.32-.52-.63-.76-.96-.13-.19-.3-.41-.3-.61-.01-.52-.33-.51-.87-.48Zm-18.24,14.81c.2,0,.41.05.59-.02.13-.05.29-.23.3-.36,0-.28-.06-.78-.14-.79-.42-.05-.89-.05-1.29.08-.35.11-.44.51-.36.87.08.36.39.19.61.22.1.01.2,0,.3,0Zm6.96-3.03c.61,0,.74-.19.54-.81-.19-.63-.12-.85.4-1.31.12-.11.27-.31.24-.42-.05-.17-.29-.43-.37-.41-.19.05-.47.25-.49.41-.07.71-.39,1.34-.63,1.98-.22.57-.25.56.32.55Zm-13.47-8.13l-.05-.2c-.13.01-.33-.03-.39.04-.23.29-.42.61-.61.93-.04.07-.02.23.03.27.11.07.34.16.38.12.41-.49.91-.67,1.55-.62.13.01.41-.27.39-.39-.02-.25-.2-.48-.31-.72-.14.09-.28.18-.42.27-.18.11-.38.2-.56.3Zm53.31,59.06c.24.14.48.4.64.36.4-.09.8-.28,1.12-.52.14-.1.15-.45.11-.68-.01-.08-.35-.21-.48-.16-.39.14-.76.35-1.12.56-.11.06-.15.23-.28.43Zm-32.14-64.83c-.19-.28-.27-.5-.43-.62-.6-.46-1.31-.29-1.99-.3-.03,0-.1.15-.08.2.04.09.12.18.21.21.61.24,1.35.17,1.81.78.01.02.26-.14.48-.27Zm-11.63,11.6c-.55.32-.99.57-1.42.84,0,0,.06.19.13.24.19.14.39.26.59.38.1.06.29.16.3.13.26-.33.8-.5.67-1.06-.03-.15-.14-.28-.28-.53Zm.9-17.42c-.02-.13-.03-.47-.11-.8-.03-.12-.2-.21-.3-.32-.07.09-.13.18-.2.26-.4.44-.31.99-.28,1.51,0,.11.23.26.37.29.68.13.5-.38.53-.94Zm14.21-1.94s0-.1,0-.15c-.04-.21.14-.55-.23-.58-.3-.03-.52-.06-.74.4-.21.43.07.56.08.82.01.17-.2.57.19.5.26-.04.49-.33.69-.55.07-.08.01-.28.01-.43Zm-4.84-1.86c-.02.72.01.78.31.81.47.06.83-.25.9-.69.06-.42-.2-.65-.49-.78-.13-.06-.43.14-.59.29-.12.11-.13.33-.14.36Zm39.68,64.29c-.06-.33-.11-.57-.15-.8-.17.2-.34.4-.5.6-.12.15-.2.35-.36.45-.47.28.03.46.07.68.03.13.22.23.33.35.12-.18.25-.35.34-.55.12-.25.19-.52.26-.72Zm-50.57-35.04v-.74c0-.1.02-.21,0-.29-.02-.06-.12-.09-.19-.11-.02,0-.1.07-.09.1.16.73-.58,1.16-.61,1.83-.01.31.07.46.4.44.23-.02.52.07.51-.33,0-.3,0-.59,0-.89Zm19.14-18.75c-.34.03-.59.4-.36.73.35.5.43.93.09,1.44-.02.04.1.24.13.23.13-.03.35-.1.35-.15-.02-.63.06-1.22.3-1.81.17-.42-.18-.48-.51-.44Zm28.91,64.09c.65.14,1.13,0,1.19-.39.03-.22-.48-.54-.78-.76-.15-.11-.7.65-.63.96.03.13.25.21.23.2Zm8.43-6.36s.06-.07.09-.1c-.4-.35-.78-.72-1.21-1.03-.05-.04-.32.16-.45.29-.25.24-.01.21.15.31.32.2.59.48.89.72.12.1.5-.04.52-.19Zm-51.5-42.56c.47.27.76.57.93.51.48-.16.91-.46,1.35-.72.04-.03.02-.19,0-.29,0-.04-.07-.07-.1-.11-.47.48-1.11.11-1.63.33-.17.08-.34.17-.55.27Zm11.06-19.06c0,.31-.02.46,0,.6.03.18.08.36.12.54.14-.12.29-.23.41-.37.12-.13.32-.3.3-.41-.08-.35-.24-.68-.4-1.01-.01-.03-.35.03-.37.1-.07.22-.06.47-.07.55Zm21.2,65.74c-.18-.17-.38-.32-.54-.51-.26-.3-.35-.24-.4.14-.01.12-.19.22-.24.35-.04.12,0,.39,0,.39.27.01.55.03.81-.03.12-.03.22-.2.35-.34Zm14.96-1.95c-.36-.23-.61-.42-.89-.56-.1-.05-.28,0-.4.05-.05.02-.1.21-.07.26.17.24.36.46.57.67.06.06.24.09.31.05.15-.1.27-.26.48-.47Zm-34.89-54.56c-.15-.07-.31-.2-.43-.17-.26.07-.49.22-.74.33.04.08.06.2.13.25.11.08.35.1.35.16.05.87.38.23.51.08.11-.12.1-.35.17-.65Zm1.81-7.45c-.07-.4-.1-.63-.17-.85-.01-.04-.19-.08-.25-.05-.07.04-.15.22-.13.23.28.25.26.46,0,.73-.11.11-.09.35-.1.54,0,.08.06.17.1.25.07-.04.17-.05.2-.11.15-.28.28-.57.36-.74Zm-3.84-13.32c.2,0,.39.01.59,0,.05,0,.12-.18.12-.18-.34-.24-.68-.48-1.02-.71-.05.08-.12.15-.14.24-.09.41.07.64.45.66Zm-11.35,32.98c-.03-.26.15-.67-.37-.6-.38.05-.2.38-.23.59-.02.15-.05.32.01.44.05.09.23.15.36.16.07,0,.21-.08.22-.14.03-.14.01-.3.01-.44Zm11.63-9.43c-.17.19-.31.38-.49.54-.22.22-.42.46-.08.68.1.06.45-.13.57-.29.13-.16.13-.43.16-.65,0-.07-.08-.15-.16-.29Zm-12.77-12.66s.11.02.15,0c.13-.09.26-.2.39-.3-.13-.1-.24-.25-.38-.29-.18-.05-.4-.04-.59,0-.1.02-.22.19-.22.29,0,.1.12.25.22.29.13.05.29.01.44.01Zm49.33,73.52c-.09-.29-.14-.42-.18-.55-.07.13-.11.29-.21.38-.34.3-.4.63-.2,1.02,0,.02.09.02.1,0,.18-.31.36-.62.49-.86Zm-8.12-10.05c-.16.28-.3.51-.43.74.15.08.29.19.45.22.25.05.53,0,.45-.34-.05-.21-.27-.38-.46-.62Zm-40.87-60.57c-.14-.24-.22-.47-.27-.46-.25.04-.63-.22-.74.22-.03.1.1.35.15.35.25,0,.51-.06.85-.11Zm1.11-9.86c.1,0,.2.01.29,0,.09-.02.17-.07.25-.1-.09-.07-.18-.14-.27-.2-.15-.1-.3-.24-.47-.29-.11-.03-.27.04-.38.11-.05.03-.07.21-.03.26.07.1.2.17.31.21.09.03.19,0,.29,0Zm41.46,77.59c-.25-.24-.5-.47-.74-.7-.06.09-.17.18-.18.28-.06.53.14.7.66.58.08-.02.16-.09.27-.16Zm9.67,4.85c-.22-.16-.41-.32-.62-.43-.05-.03-.29.18-.28.2.13.24.28.46.43.69.14-.13.27-.26.47-.45Zm-7.87-14.51c-.08-.06-.21-.16-.23-.15-.24.18-.46.39-.68.59-.02.02-.02.11,0,.14.05.05.17.13.18.12.25-.23.49-.46.73-.7Zm-39.14-52.02c-.21.15-.33.24-.45.33.19.14.37.29.57.39.05.02.19-.14.29-.22-.12-.15-.24-.3-.41-.5Zm-7.77,1.32c-.07-.14-.12-.27-.14-.27-.26.05-.61-.19-.75.21-.03.1.08.25.13.38.25-.1.5-.21.76-.32Zm-4.15-19.57c.23-.08.36-.13.48-.17-.19-.17-.38-.35-.59-.49-.03-.02-.18.15-.27.23.13.14.25.29.38.43Zm22.38,18.76c-.25-.03-.42-.07-.6-.06-.13,0-.25.09-.37.14.1.1.19.23.31.3.08.04.22.03.3-.01.11-.07.2-.19.36-.37Zm-6.42-19.87c-.03-.05-.11-.24-.2-.42-.03.18-.08.37-.1.55-.02.15-.02.3,0,.44,0,.05.12.09.19.12.02,0,.09-.06.1-.1.01-.15,0-.3,0-.59Zm11.66,22.78c-.24-.13-.39-.27-.45-.24-.13.08-.21.23-.32.36.1.08.22.23.29.22.14-.03.25-.17.47-.33Zm-17.36-9.71c-.06-.17-.12-.34-.19-.51-.14.13-.4.28-.38.38.04.19.24.35.37.52.06-.12.12-.24.2-.38Zm11.45-4.91c0,.2-.01.4,0,.59,0,.04.13.08.19.11v-1.11c-.06.03-.17.05-.19.11-.03.09,0,.19,0,.29Zm24.51,54.91c.15,0,.32.05.43-.01.09-.05.17-.24.16-.35-.06-.37-.2-.17-.35-.04-.06.06-.17.06-.25.11-.09.06-.17.13-.25.2.08.03.17.07.25.1Zm-33.05-36.77c-.11.25-.22.39-.22.53,0,.08.24.24.27.22.13-.09.25-.22.3-.36.02-.05-.15-.18-.35-.39Zm.6-16.22c.12.19.17.26.22.34.23-.17.47-.34.7-.51-.13-.03-.28-.11-.4-.08-.18.04-.34.16-.52.25Zm-10.38.39c.06-.26.12-.49.15-.72,0-.07-.09-.15-.14-.23-.13.27-.27.54-.4.81.08.03.17.07.39.15Zm48.03,58.35c-.11-.17-.16-.24-.21-.32-.13.17-.26.34-.39.51.08.03.19.11.25.08.14-.07.25-.19.36-.28Zm-52.88-46.56c.06-.14.14-.27.17-.42.01-.06-.09-.15-.14-.23-.13.17-.27.34-.4.51.08.03.17.06.37.14Zm21.6-18.3c.08.11.17.23.26.36.03-.13.11-.27.09-.4-.02-.14-.12-.28-.19-.42-.05.13-.09.26-.16.46Zm28.65,58.87c.35-.09.53-.14.71-.18-.09-.07-.18-.19-.27-.19-.18,0-.36.06-.55.09.04.11.09.22.11.28Zm-18.45,12.31c-.06.09-.17.2-.15.24.07.14.18.26.3.37.02.01.17-.12.25-.19-.13-.14-.27-.28-.4-.42Zm-26.1-72.45c-.09-.35-.14-.53-.18-.71-.07.09-.19.18-.19.27,0,.18.06.36.09.55.11-.04.22-.09.28-.11Zm1.45,9.07c-.15-.13-.29-.26-.43-.39-.07.09-.2.23-.19.25.1.12.23.23.36.3.04.02.15-.09.25-.15Zm10.62-17.18c-.07-.17-.14-.34-.2-.51-.05.13-.15.26-.14.38,0,.18.09.35.14.53.06-.12.12-.24.2-.4Zm-15.02,3.18c.23-.1.31-.13.4-.17-.09-.07-.17-.16-.26-.19-.07-.02-.16.06-.25.09.05.11.09.21.11.26Zm17.93,15.96c.02-.16.06-.3.05-.43,0-.04-.12-.08-.19-.11-.03.13-.08.26-.09.4,0,.04.12.08.23.15Zm-7.87-2.4c-.11.07-.23.11-.23.15,0,.13.06.26.09.4.07-.04.19-.07.19-.11,0-.13-.03-.27-.05-.43Zm-1.16-8.54c-.07-.11-.11-.23-.15-.23-.13,0-.26.06-.4.09.04.07.07.19.11.19.13,0,.27-.03.43-.05Zm31.11,73.57c.02-.16.06-.3.05-.43,0-.04-.12-.08-.19-.11-.03.13-.08.26-.09.4,0,.04.12.08.23.15Zm-31.37-43.53c.11-.07.19-.12.27-.18-.13-.05-.25-.13-.38-.14-.07,0-.15.09-.23.14.12.06.24.12.34.18Zm3.15-22.05c.23-.1.31-.13.4-.17-.09-.07-.17-.16-.26-.19-.07-.02-.16.06-.25.09.05.11.09.21.11.26Zm-3.93,12.71c.23-.1.31-.13.4-.17-.09-.07-.17-.16-.26-.19-.07-.02-.16.06-.25.09.05.11.09.21.11.26Zm2.55-13.44c-.07-.11-.11-.23-.15-.23-.13,0-.26.06-.4.09.04.07.07.19.11.19.13,0,.27-.03.43-.05Zm26.57,52.69c.02-.16.06-.3.05-.43,0-.04-.12-.08-.19-.11-.03.13-.08.26-.09.4,0,.04.12.08.23.15Zm-21.36-54c-.1-.23-.13-.31-.17-.4-.07.09-.16.17-.19.26-.02.07.06.16.09.25.11-.05.21-.09.26-.11Zm-6.39,17.37c-.07-.11-.12-.19-.18-.27-.05.13-.13.25-.14.38,0,.07.09.15.14.23.06-.12.12-.24.18-.34Zm-11.28-20.52c-.11.07-.23.11-.23.15,0,.13.06.26.09.4.07-.04.19-.07.19-.11,0-.13-.03-.27-.05-.43Zm16.94,17.22c.02-.16.06-.3.05-.43,0-.04-.12-.08-.19-.11-.03.13-.08.26-.09.4,0,.04.12.08.23.15Zm43.85,46.29c0-.1,0-.23-.02-.23-.13-.02-.26-.01-.4,0,0,0-.01.19,0,.19.13.03.26.03.42.04Zm-53.45-42.99c-.07-.11-.12-.19-.18-.27-.05.13-.13.25-.14.38,0,.07.09.15.14.23.06-.12.12-.24.18-.34Zm-8.94-8.07c.23-.1.31-.13.4-.17-.09-.07-.17-.16-.26-.19-.07-.02-.16.06-.25.09.05.11.09.21.11.26Zm1.01,8c-.04-.06-.07-.13-.11-.19-.03.03-.1.07-.09.1.02.07.06.14.09.2.03-.03.07-.07.11-.11Zm18.15-25.2s-.07-.07-.11-.11c-.03.07-.08.13-.09.2,0,.02.06.07.09.1.04-.07.07-.13.11-.19Zm23.34,64.18s-.07-.1-.1-.09c-.07.02-.14.06-.2.09.03.03.07.1.1.09.07-.02.14-.06.2-.09Zm7.52-1.25s-.07-.07-.11-.11c-.03.07-.08.13-.09.2,0,.02.06.07.09.1.04-.07.07-.13.11-.19Zm-5.21-.15s.07-.07.11-.11c-.07-.03-.13-.08-.2-.09-.02,0-.07.06-.1.09.07.04.13.07.19.11Zm20.98,7.76s-.07-.1-.1-.09c-.07.02-.14.06-.2.09.03.03.07.1.1.09.07-.02.14-.06.2-.09Zm-29.8-9.23s-.1.07-.09.1c.02.07.06.14.09.2.03-.03.1-.07.09-.1-.02-.07-.06-.14-.09-.2Zm12.9-3.22c.03.06.07.13.11.19.03-.03.1-.07.09-.1-.02-.07-.06-.14-.09-.2l-.11.11Zm17.46-2.33c-.04-.06-.07-.13-.11-.19-.03.03-.1.07-.09.1.02.07.06.14.09.2.03-.03.07-.07.11-.11Zm-62.84-29.13c.04.06.07.13.11.19.03-.03.1-.07.09-.1-.02-.07-.06-.14-.09-.2l-.11.11Zm9.68-1.51c.04.06.07.13.11.19.03-.03.1-.07.09-.1-.02-.07-.06-.14-.09-.2-.03.03-.07.07-.11.11Zm24.51,49.62c.04.06.07.13.11.19.03-.03.1-.07.09-.1-.02-.07-.06-.14-.09-.2-.03.03-.07.07-.11.11Zm-28.44-52.34c.04.06.07.13.11.19.03-.03.1-.07.09-.1-.02-.07-.06-.14-.09-.2-.03.03-.07.07-.11.11Zm8.69-25.93c-.04-.06-.07-.13-.11-.19-.03.03-.1.07-.09.1.02.07.06.14.09.2.03-.03.07-.07.11-.11Zm-5.36,19.36s.07.07.11.11c.03-.07.08-.13.09-.2,0-.02-.06-.07-.09-.1-.04.07-.07.13-.11.19Zm23.9,61.33c.04.06.07.13.11.19.03-.03.1-.07.09-.1-.02-.07-.06-.14-.09-.2-.03.03-.07.07-.11.11Zm-37.06-61.27s.07-.07.11-.11c-.07-.03-.13-.08-.2-.09-.02,0-.07.06-.1.09.07.04.13.07.19.11Zm19.12-.37c-.04-.06-.07-.13-.11-.19-.03.03-.1.07-.09.1.02.07.06.14.09.2.03-.03.07-.07.11-.11Zm38.36,62.99s.07-.07.11-.11c-.07-.03-.13-.08-.2-.09-.02,0-.07.06-.1.09.07.04.13.07.19.11Zm-38.27-63.69c.04.06.07.13.11.19.03-.03.1-.07.09-.1-.02-.07-.06-.14-.09-.2-.03.03-.07.07-.11.11Zm1.12-.22c-.04-.06-.07-.13-.11-.19-.03.03-.1.07-.09.1.02.07.06.14.09.2.03-.03.07-.07.11-.11Zm-4-2.87c-.06.04-.13.07-.19.11.03.03.07.1.1.09.07-.02.14-.06.2-.09-.03-.03-.07-.07-.11-.11Zm7.87-2.21s.07-.07.11-.11c-.07-.03-.13-.08-.2-.09-.02,0-.07.06-.1.09.07.04.13.07.19.11Zm23.9,78.14c-.06.04-.13.07-.19.11.03.03.07.1.1.09.07-.02.14-.06.2-.09-.03-.03-.07-.07-.11-.11Zm-50.53-79.35l.11-.11c-.07-.03-.13-.08-.2-.09-.02,0-.07.06-.1.09.07.04.13.07.19.11Zm21.03-1.58s.07.07.11.11c.03-.07.08-.13.09-.2,0-.02-.06-.07-.09-.1-.04.07-.07.13-.11.19Zm-.91-1.3c.04.06.07.13.11.19.03-.03.1-.07.09-.1-.02-.07-.06-.14-.09-.2-.03.03-.07.07-.11.11Zm-9.77-1.12c-.04-.06-.07-.13-.11-.19-.03.03-.1.07-.09.1.02.07.06.14.09.2.03-.03.07-.07.11-.11Zm-.67-1.15s.07-.07.11-.11c-.07-.03-.13-.08-.2-.09-.02,0-.07.06-.1.09.07.04.13.07.19.11Zm17.09,18.3c.04.06.07.13.11.19.03-.03.1-.07.09-.1-.02-.07-.06-.14-.09-.2-.03.03-.07.07-.11.11Z" fill="#F2B538"></path><path d="m183.84,154.82c-.45,0-.9-.08-1.21.4-.08.13-.33.2-.51.2-.58,0-1.14.17-1.7.26-.81.13-1.55.37-2.32.61-.45.14-.95.5-1.58.09-.35-.23-1.05-.19-1.48.36-.13.17-.54.22-.81.18-1.25-.17-2.42.37-3.66.33-.37-.01-.93.59-.98.96-.03.2-.05.42,0,.6.59,1.95.18,3.95.28,5.93.03.53.06,1.15-.19,1.57-.39.68.36,1.06.23,1.66-.12.53-.03,1.1-.03,1.66s-.05,1.11.01,1.66c.07.62-.13,1.16-.44,1.64-.61.96-.92,2.14-1.91,2.84-.35.25-.83.43-1.02.77-.22.4-.95.17-.9.82,0,.04-.33.15-.5.16-.76.02-1.55-.14-2.26.05-.72.19-1.38-.02-2.02-.1-1.07-.12-2.2-.47-2.85-1.43-.73-1.09-1.3-2.28-1.94-3.42-.04-.08-.09-.18-.08-.27.07-.69-.18-1.33-.28-2-.2-1.24.48-2.29.99-3.35.31-.65,1.13-.8,1.49-1.47.33-.61,1.04-.79,1.64-1.1.57-.29,1.09-.62,1.75-.51.47.08.59-.32.43-.53-.57-.76,0-1.74-.56-2.51-.14-.19-.12-.64.17-.96.52-.57.38-1.19-.06-1.75-.19-.25-.05-.4,0-.63.21-.88.55-1.84.38-2.67-.15-.73-.15-1.44-.24-2.16-.07-.52-.29-1.04.16-1.51.05-.05.01-.22-.02-.31-.13-.35-.37-.68-.4-1.04-.03-.36-.12-.74.14-1.14.14-.21-.17-.67-.15-1.02.01-.31.17-.63.29-.93.14-.35.32-.67.47-1.01.15-.34.26-.71.45-1.02.08-.13.34-.13.49-.23.63-.4,1.49-.38,1.99-1.06.06-.08.28-.1.41-.08.99.15,1.93-.21,2.9-.32.26-.03.52-.21.76-.35.39-.23.89-.27,1.47-.26.52.02,1.1.21,1.54-.29.79.11,1.54-.11,2.29-.3.36-.09.73-.3,1.08-.27.33.03.6.22.98,0,.22-.13.51-.16.78-.31.45-.25.96-.42,1.53-.34.49.07,1,.07,1.33-.44.06-.1.27-.08.38-.16.34-.27.49.48.87.13.23-.21.57-.33.88-.42.31-.09.64.02.99-.2.26-.16.74-.07,1.1.03,1.07.29,1.39.21,2.47-.6.17-.13.57-.22.67-.13.86.77,1.99.58,2.98.86.66.18.99.5,1.17,1.11.17.58.34,1.17.61,1.71.23.46.51.82.02,1.3-.11.1,0,.46.06.69.22.77.31,4.76.1,5.46-.04.13-.21.32-.18.36.59.69.06,1.35.02,2.03-.03.56-.09,1.12.18,1.73.25.56.22,1.33-.06,2.01-.16.39-.21.88-.13,1.3.25,1.24.2,1.22.02,2.48-.09.64-.25,1.36.17,2.03.16.25.17.72.04.99-.35.71-.23,1.33-.02,2.07.2.71.26,1.54-.2,2.28-.11.18-.52.5-.03.82.09.05.08.44-.02.57-.59.81-.77,1.86-1.58,2.53-.24.2-.34.57-.55.82-.15.18-.39.41-.57.4-.42-.03-.64.21-.88.46-.35.38-.69.75-1.25.31-.06-.04-.24,0-.31.06-.92.78-1.96.36-2.96.29-.23-.02-.46-.17-.68-.17-.73.02-1.29-.28-1.8-.78-.2-.19-.52-.26-.71-.45-.45-.44-.95-.82-1.21-1.46-.23-.56-.63-1.05-.94-1.58-.07-.12-.17-.33-.13-.38.32-.38.45-.74.09-1.16-.3-.35.13-.91-.32-1.23.1-1.07.03-2.24.83-3.05.35-.36.68-.57.61-1.11-.01-.09.13-.3.21-.3.71-.06.97-.65,1.32-1.12.28-.37.62-.43,1.05-.42.33,0,.71.01,1-.13.89-.44.94-.57.94-1.54,0-.55-.04-1.11.01-1.66.05-.52.26-1.02.28-1.54.03-1.01.17-.86-.86-.87Z" fill="#F2B538"></path><path d="m185.32,28.92c-.13.84.25,1.85-.29,2.78-.11.19-.11.61.01.72.44.38.24.84.26,1.26.03.6.14,1.26-.06,1.79-.21.56-.73,1.01-1.14,1.49-.47.56-1.16.58-1.8.77-.72.21-1.42.45-2.11.75-.17.07-.36.53-.31.58.66.68-.09,1.69.58,2.34-.12.46-.14.97-.38,1.35-.25.39-.31.67-.06,1.06.1.15.1.36.13.55.04.31,0,.6-.3.78.18.18.36.36.53.54.03.03.08.09.07.12-.09.41-.23.82-.29,1.24-.05.37.41.59.08,1.16-.33.56,0,1.48-.1,2.22-.2,1.51-.35,3.01-.85,4.48-.45,1.29-1.36,2-2.47,2.47-.68.29-1.4.5-2.1.76-.44.16-.96.16-1.44.18-1.03.05-2.08.13-2.85-.79-.05-.06-.18-.12-.25-.1-1.15.23-1.64-.9-2.52-1.23-.1-.04-.21-.24-.19-.33.17-.67-.34-.98-.67-1.4-.29-.36-.55-.76-.56-1.28-.02-.72.18-1.47-.28-2.15-.07-.11.04-.37.11-.54.24-.66.59-1.29.72-1.97.1-.52.29-.89.66-1.25.27-.26.4-.65.66-.92.33-.34.62-.68,1.2-.78.57-.09,1.1-.51,1.6-.85.25-.17.44-.36.78-.34.09,0,.28-.22.3-.36.09-.67-.18-1.39.32-1.99-.82-.86.58-1.95-.29-2.81-.08-.08-.03-.3,0-.44.09-.56.42-1.21.24-1.67-.23-.59-.26-1.14-.24-1.71.07-1.82.21-3.65.28-5.47.02-.47.05-.92-.22-1.42-.19-.36.05-1.03.25-1.49.45-1.02.79-2.17,2-2.63.09-.03.14-.2.22-.2.6-.03,1.22.06,1.79-.08.48-.11.85-.57,1.42-.58.97-.01,1.97.16,2.9-.3,1.42.2,2.87.24,3.93,1.49.56.66.52,1.42.7,2.13.16.61.03,1.3.03,2.08Z" fill="#F2B538"></path><path d="m7.34,63.68c.44-1.59.32-3.25,1.27-4.69.38-.57.67-1.06,1.42-1,.1,0,.27,0,.28-.03.23-1.21,1.39-.77,2.08-1.16,1.18-.66,1.16-.82.94-2.17-.2-1.25-.07-2.56-.06-3.84,0-.22.21-.45.19-.67-.14-1.27.33-2.57-.26-3.82-.1-.22.28-.62.25-.92-.07-.92.08-1.82-.22-2.77-.29-.93-.17-2.04.31-3,.05-.1.16-.28.12-.31-.57-.63-.05-1.21.27-1.52.63-.63,1.41-1.17,2.23-1.52.39-.17.94-.18,1.36-.37.91-.41,2.04-.09,2.81-.89.97.15,1.95-.21,2.94.21.54.23,1.18.23,1.74.56.53.31.87.65.88,1.29.01.6.14.76.58,1.55.1.19.55.52.03.81-.04.02,0,.19,0,.29.03.62.25,1.2.04,1.88-.19.6-.01,1.3-.05,1.95-.02.42.18.89-.24,1.27-.1.09-.13.45-.04.56.86,1.05-.14,1.8-.47,2.6-.27.66-1.18.89-1.39,1.7-.03.1-.43.11-.67.16-.61.12-1.22-.13-1.88.22-.41.22-.43.4-.46.73-.04.48.64.95.23,1.34-.53.51.17.77.08,1.16-.06.23.02.55-.11.7-.25.3-.22.46,0,.76.15.21.19.61.09.85-.6,1.55-.14,3.15-.29,4.72.4.51.25,1.11.31,1.69.12,1.15-.24,2.18-.71,3.19-.06.13-.22.26-.2.37.16.85-.26,1.41-.86,1.93-.24.21-.4.53-.54.83-.16.37-.27.73-.81.57-.43-.13-.62.24-.86.48-.46.47-1.07.56-1.64.8-.66.27-1.17.37-1.77,0-.11-.07-.34.04-.51.09-.71.21-.96.12-1.51-.53-.06-.07-.17-.09-.26-.13-.09,1.08-.61-.19-.84.16-.43-.29-.87-.58-1.3-.87-.12-.08-.32-.11-.36-.21-.45-1.29-1.95-2.04-1.8-3.65.04-.44-.23-.91-.36-1.35Z" fill="#F2B538"></path><path d="m166.56,7.14c-.13.84.25,1.85-.29,2.78-.09.15-.09.45,0,.59.51.73.25,1.54.28,2.3.03,1.19-1.11,2.96-2.25,3.06-.95.08-1.65.84-2.61.7-.07,0-.26.27-.25.41.05.87-.15,1.74.26,2.61.27.58-.22,1.19-.42,1.77-.08.24-.15.37-.04.64.15.39.11.86.19,1.28.07.37.22.72.28,1.09.02.11-.09.26-.17.38-.21.33-.22.63.06.93.08.09.15.29.11.4-.22.58-.53,1.15.01,1.72-.44.5-.23,1.12-.31,1.69-.17,1.18-.36,2.36-.62,3.53-.08.35-.37.66-.61.95-.29.35-.69.61-.94.98-.43.62-1.13.76-1.73.94-.47.14-.95.11-1.3.54-.09.11-.36.08-.55.11-.86.15-1.79-.32-2.6.29-.06.05-.3-.04-.38-.13-.59-.61-1.2-1.15-2.13-1.07-.56-.71-1.86-.71-1.85-1.99,0-.24-.24-.52-.43-.72-.54-.55-.79-1.18-.78-1.96,0-.51.25-1.1-.27-1.55-.05-.04.05-.26.1-.4.3-.89.76-1.73.81-2.69,0-.13.08-.28.16-.38.54-.7,1.43-1.1,1.72-2.01.02-.05.17-.11.25-.09,1.09.16,1.75-.95,2.8-.93.07,0,.2-.2.2-.32.04-.72-.11-1.47.3-2.15.07-.11-.08-.35-.13-.54-.05-.18-.21-.44-.14-.53.57-.74.13-1.45,0-2.18-.05-.28-.04-.63.1-.86.3-.48.19-.85.02-1.36-.2-.59-.1-1.27-.13-1.92-.08-1.63.52-3.22.3-4.86-.05-.38.17-.8-.24-1.12-.08-.06-.09-.29-.06-.42.47-1.63,1.02-3.22,2.52-4.23.17-.12.56-.02.8.08.55.24.99.21,1.46-.23.42-.39.96-.56,1.58-.56.82,0,1.68.22,2.44-.28,1.01.48,2.4-.05,3.15,1.19.16.27.53.4.78.63.12.11.23.27.26.42.12.56.25,1.12.3,1.69.05.55.01,1.11.01,1.79Z" fill="#F2B538"></path><path d="m47.52,162.98c.4,0,.81.02,1.21,0,.3-.02.38.09.48.39.1.3.4.67.68.75.81.23.91.88,1.1,1.51.18.57.65,1.13.04,1.74-.1.1-.12.47-.02.57.46.47.28,1.03.27,1.55-.01.52.25,1.1-.27,1.56-.05.04.29.41.26.61-.08.67.27,1.39-.21,2.03-.1.13-.1.38-.07.57.17,1-.23,1.73-1.01,2.31-.2.15-.38.34-.53.53-.27.35-.59.47-1.04.44-.58-.04-1.13,0-1.7.25-.35.15-.56.13-.59.6-.07.97.32,1.98-.26,2.9.4.57.28,1.11.12,1.76-.11.45.29,1.01.39,1.54.04.19-.07.47-.2.61-.45.46-.57,1-.12,1.43.39.38.39.77.39,1.21,0,1.16.05,2.31-.52,3.41-.32.62-.07,1.4-.34,2.12-.22.6-.74,1.1-.71,1.85.01.24-.73.27-.89.8-.1.34-.46.63-.76.87-.33.25-.73.41-1.1.62-.33.19-.62.49-.97.56-.42.09-.93.1-1.3-.07-.5-.24-.86-.22-1.36,0-.58.25-1.15.19-1.77-.28-.44-.33-.86-.85-1.61-.87-.37-.01-.73-.63-1.08-.99-.83-.84-1.68-2.7-1.84-3.92-.05-.37-.35-.77-.27-1.08.31-1.13.53-2.29.88-3.41.01-.04.03-.1.06-.13.67-.71,1.64-1.15,1.9-2.21.92-.18,1.61-1.06,2.64-.91.5.07.55-.19.56-.61,0-.47-.21-1.01.28-1.39.05-.04.05-.22,0-.29-.62-.93-.03-1.85-.01-2.78.02-.71.22-1.47-.27-2.15-.1-.13-.07-.42,0-.59.49-1.28.34-2.53.02-3.84-.19-.76,0-1.6-.04-2.41-.06-1.37.23-2.68.61-3.98.04-.13.05-.29.13-.4.39-.49.82-.98,1.23-1.43.36-.4.98-.9,1.79-.74.71.14,1.37-.41,2.14-.31.66.08,1.33.07,2-.24.46-.21,1.09-.04,1.64-.04Z" fill="#F2B538"></path><path d="m35,150.72c-.12,1.07-.25,2.13-.34,3.2-.03.32-.14.7.21.97.06.05.11.21.08.26-.54.77-.21,1.63-.29,2.45-.01.1.04.24,0,.3-.6.63-.96,1.42-1.46,2.11-.3.42-.92.65-1.44.84-.28.1-.67-.02-1-.11-.62-.16-.89,0-.93.6-.02.3,0,.6,0,.91,0,2.52,0,5.04,0,7.56,0,.52.17,1.07-.28,1.56-.13.14-.12.56,0,.73.45.64.24,1.33.28,2,.06.94.04,1.87-.79,2.54-.06.9-.85,1.44-1.1,2.27-.11.34-.33.9-1.01.75-.2-.04-.54.22-.71.43-1.16,1.44-2.71,1.14-4.21.93-.59-.08-1.16-.36-1.75-.51-.9-.24-1.49-1-2.3-1.38-.31-.15-.64-.2-.55-.67.02-.11-.08-.29-.18-.36-1.08-.77-1.02-2.11-1.57-3.14-.18-.33-.15-.99.07-1.28.53-.7.44-1.46.5-2.23.05-.62.21-1.23.9-1.5.17-.07.38-.18.46-.33.46-.81,1.2-1.26,1.98-1.72.36-.21.66-.32,1.06-.38.86-.12,1.04-.35,1.01-1.2-.01-.47.14-.95-.26-1.42-.14-.16.23-.69.25-1.05.04-.85,0-1.71.02-2.57.01-.38-.12-.76.22-1.13.21-.23.16-.65-.19-.91-.43-.32-.46-.7-.15-1.14.08-.12.03-.34,0-.51-.04-.23-.25-.53-.17-.66.54-.84.16-1.75.28-2.61.07-.47-.22-1,.24-1.41.06-.05.09-.22.05-.27-.61-.83-.17-1.64-.02-2.48.11-.6.27-1.1.65-1.56.14-.17.18-.43.29-.63.08-.14.2-.39.29-.38,1.25.1,2.17-1.02,3.41-.93.49-.62,1.2-.5,1.86-.65.67-.15,1.33-.19,2-.28.95-.12,1.7.33,2.4.78,1.51.97,2.27,2.38,2.19,4.22Z" fill="#F2B538"></path></svg> 