<?xml version="1.0" encoding="UTF-8"?> <svg xmlns="http://www.w3.org/2000/svg" xmlns:xlink="http://www.w3.org/1999/xlink" id="Icon_3" data-name="Icon 3" width="75.675" height="100" viewBox="0 0 75.675 100"><defs><clipPath id="clip-path"><rect id="Rectangle_28" data-name="Rectangle 28" width="75.675" height="100" fill="#57d694"></rect></clipPath></defs><g id="Group_25" data-name="Group 25" clip-path="url(#clip-path)"><path id="Path_49" data-name="Path 49" d="M105.754,339.633a1.728,1.728,0,0,1,1.7.963.636.636,0,0,0,.383.326c.274.1.493.355.768.448s.617-.077.891.166c.053.047.217.022.3-.026a1.63,1.63,0,0,1,.838-.3c.234,0,.385-.238.487-.446.13-.267.281-.493.616-.494.189,0,.282-.152.361-.27.243-.359.585-.36.966-.378a3.7,3.7,0,0,1,2.037.477.94.94,0,0,1,.3.234,2.627,2.627,0,0,0,.49.487,7.02,7.02,0,0,1,1.106.606c.275.237.63.132.957.057.289-.066.545-.217.844-.276s.4-.45.737-.521c.087-.018.176-.129.223-.218a1.674,1.674,0,0,1,1.712-.822c.276.006.532-.2.827-.019.651.4,1.5.52,1.873,1.29.11.225.281.075.377.154.59.489,1.289.314,1.941.289a1.221,1.221,0,0,0,.934-.421c.18-.227.383-.547.62-.591.3-.056.212-.492.537-.417a1.415,1.415,0,0,1,1.149-.3c.119.006.288-.07.338.1s-.055.222-.221.223c-.075,0-.1.1-.092.187.1.755-.416,1.421-.318,2.176.017.13-.082.193-.159.25a.393.393,0,0,0-.159.414,1.739,1.739,0,0,1-.222.943,12.92,12.92,0,0,0-.411,1.341.313.313,0,0,0,.04.21c.43.026.383.526.669.668.307.152.453.442.655.679a3.514,3.514,0,0,1,.576.872c.038.088.174.158.121.264-.181.355.053.619.149.923a2.443,2.443,0,0,0,.166.411c.084.162-.17.231-.158.408a.988.988,0,0,1-.115.714c.278.243.017.45-.031.681a4.536,4.536,0,0,1-.744,1.6c-.1.145-.077.253.048.327a4.389,4.389,0,0,0,.848.445c.42.136.846.228,1.061.674.089.185.312.208.449.26.571.218.923.755,1.52.948a1.108,1.108,0,0,1,.622.674c.044.133.1.158.21.162.076,0,.212,0,.218.03.111.492.648.536.913.879a7.553,7.553,0,0,1,.745,1.048,4.27,4.27,0,0,0,.615.77,4.577,4.577,0,0,1,.795,1.194c.188.434.681.7.653,1.241a1.451,1.451,0,0,1,.49,1c.014.34.377.6.308.983-.029.159.145.2.2.312.131.238.331.458.27.762-.053.269.1.489.149.733.062.29.367.6.012.9.061.3-.143.636.153.891-.093.473.194.891.18,1.365a4.03,4.03,0,0,1-.265,1.25c-.075.207.251.29.057.446s-.137.483-.481.543c-.226.04-.175.392-.057.419.3.07.14.147.109.317-.09.492-.27.958-.355,1.453a2.729,2.729,0,0,1-.479.909.573.573,0,0,0-.14.343,2.309,2.309,0,0,1-.646,1.4c-.179.245-.4.45-.572.716s-.4.443-.444.777c-.024.185-.213.277-.361.4a5.764,5.764,0,0,0-1.459,1.7c-.142.271-.4.282-.574.461a2.163,2.163,0,0,1-1.1.806.177.177,0,0,0-.115.1c-.142.437-.632.408-.91.68-.212.207-.635.181-.687.594-.646.128-1.027.749-1.6.926-.5.154-.952.407-1.445.549a1.187,1.187,0,0,0-.394.209c-.179.13-.38.329-.594.269-.389-.108-.49.391-.827.331a1.451,1.451,0,0,0-.788.212,4.116,4.116,0,0,1-1.415.423c-.462.005-.838.306-1.289.36-.1.012-.2.126-.343.124a2.257,2.257,0,0,0-.9.136c-.266.105-.607-.034-.887.172a.321.321,0,0,1-.306,0c-.264-.235-.5-.021-.751,0-.405.038-.814.354-1.22.005a2.471,2.471,0,0,1-1.128.16c-.509-.051-1.038.123-1.53-.152a.267.267,0,0,0-.295.042.362.362,0,0,1-.545,0,.3.3,0,0,0-.217-.043,8.646,8.646,0,0,1-2-.193,2.827,2.827,0,0,1-1.128-.206,2.16,2.16,0,0,0-1.25-.241,1.991,1.991,0,0,1-.881-.177,15.078,15.078,0,0,0-2.384-.778.545.545,0,0,1-.152-.018c-.424-.2-.722-.6-1.255-.633-.465-.025-.769-.436-1.156-.656a2.79,2.79,0,0,0-1.087-.461,1.255,1.255,0,0,1-.816-.5,6.024,6.024,0,0,0-1.581-1.207c-.191-.13-.358-.281-.534-.423-.32-.257-.54-.624-.946-.793a5.315,5.315,0,0,1-.9-1.038.854.854,0,0,1-.075-.209c-.108-.293-.518-.237-.629-.521a1.264,1.264,0,0,0-.439-.614,3.43,3.43,0,0,1-.981-1.411A11.112,11.112,0,0,1,96.3,373.2a.654.654,0,0,0-.241-.294.532.532,0,0,1-.23-.545c.043-.223-.11-.371-.2-.555a2.584,2.584,0,0,1-.28-1.156,1.446,1.446,0,0,0-.25-1.089.207.207,0,0,1-.064-.21c.281-.675-.081-1.34-.03-2.02a7.479,7.479,0,0,0,.2-1.518c.19-.143.193-.277.015-.446-.08-.075-.007-.176.056-.27.152-.227.145-.581.307-.734.251-.238-.24-.485.087-.641-.039-.273.328-.3.332-.584a1.635,1.635,0,0,1,.207-.7c.165-.312.148-.664.31-.988a6.969,6.969,0,0,1,1.053-1.62c.193-.21.082-.446.255-.625.266-.275.442-.625.733-.89a3,3,0,0,0,.792-1.021,1.034,1.034,0,0,1,.808-.645c.237-.039.434-.356.633-.563.1-.1.129-.3.241-.354.565-.3.938-.836,1.508-1.152a3.675,3.675,0,0,0,1.255-.837.661.661,0,0,1,.448-.237c.509-.006.77-.449,1.182-.617.121-.049.125-.138.007-.223a1.1,1.1,0,0,1-.448-.768c-.064-.449-.423-.768-.481-1.242a1.849,1.849,0,0,1,0-.962.7.7,0,0,0,.078-.364,4.675,4.675,0,0,1,.694-2.5c.089-.2.281-.308.405-.462s.188-.305.415-.38c.18-.06.307-.281.456-.433.034-.034.062-.075.092-.112-.346-.2.041-.5-.083-.708-.144-.242.067-.6-.273-.764-.216-.1-.082-.328-.157-.492a1.878,1.878,0,0,1-.253-.919,6.164,6.164,0,0,0-.555-2.408c-.136-.514-.172-.5.347-.51h.079m20.467,24.039c.377.238.308-.247.475-.39a.148.148,0,0,0-.082-.242c-.1-.026-.237-.008-.21.142.057.315-.1.366-.357.335a.16.16,0,0,0-.121.077c-.039.072-.005.1.076.079.05-.011.105,0-.08.069v-.071a.618.618,0,0,0-.123.046c-.042.026-.032.075.03.094.022.007.061-.044.391-.139m-10.17,8.748c-.038-.039.078-.185-.077-.147a6.766,6.766,0,0,0-.7.223.163.163,0,0,0-.016.141c.192.156.157.369.154.571s.143.174.268.175c.106,0,.239,0,.206-.151-.067-.3.2-.52.385-2.06-.021.021-.057.04-.056.059a1.835,1.835,0,0,1-.163.961c-.039.072,0,.081.077.082.2,0,.483-.239.385-.367a1.05,1.05,0,0,1-.15-.655c0-.028-.061-.053-.315,1.169m-6.845-11.751a.9.9,0,0,0,0-.157c-.023-.131.09-.316-.173-.348-.221-.027-.331.106-.455.237.283.194-.106.374-.012.573.068.144-.11.36.087.46.1.052.54-.388.552-.529.007-.078,0-.157-.636.61v-.071a.615.615,0,0,0-.123.046c-.042.026-.032.075.03.094.022.007.061-.044.73-.914m6.374,7.938c.142.051.158-.2.312-.159a.37.37,0,0,0-.3-.312c-.2-.039-.181.125-.18.255,0,.106-.007.216,2.559-1.217-.14,0-.273.007-.4,0-.15-.01-.259.013-.245.2s-.017.508.035.521c.431.109.249.436.285.683.012.085-.023.185-.1.181-.185-.011-.33.1-.485.122-.1.015-.032-.226-.053-.35-.009-.051.019-.121-.006-.155a.869.869,0,0,0-.223-.221c-.019-.012-.123.07-.16.127-.122.189-.305.161-.489.174-.074,0-.211-.115-.239.071a.285.285,0,0,0,.11.274.3.3,0,0,0,.333.093.528.528,0,0,1,.668.335c.046.126-.078.325.193.337.249.011.521-.006.591-.256.064-.231.375-.455.06-.762-.159-.155-.036-.385.147-.532.118-.094.274.012.37-.062a1.534,1.534,0,0,1,.329-.17c.188-.086-.215-.222-.031-.258a3.18,3.18,0,0,1,1.116-.205c.2.031.286.08.254.278-.024.155.106.4-.232.379-.082,0-.057.087-.005.158a.422.422,0,0,0,.489.136c.073-.017.073-.068.022-.11-.23-.189-.121-.452-.1-.666a1.25,1.25,0,0,0-.512-1.225,2.288,2.288,0,0,1-.282-.279c-.105-.11-.11-.061-.183.054a1.451,1.451,0,0,0-.143.893c.006.161-.087.235-.178.326-.123.123-.216.063-.33-.031-.182-.149-.407-.019-2.994,1.372m-8.286-18.654a1.342,1.342,0,0,0,.354.951c.553.72.536.731,1.479.513.1-.023.266-.048.308,0,.214.263.492.135.739.146.45.02.9.006,1.352.006a7.374,7.374,0,0,0,1.349-.018,1.436,1.436,0,0,1,1.169.152c.014.01.069-.057.11-.065a2.806,2.806,0,0,1,1.459.054c.109.026.11-.087.17-.091.278-.017.593-.216.785-.155a3.73,3.73,0,0,0,.741.125c.247.028.535-.118.731.154.213-.26.433-.2.656-.014.656-.411,1.448.13,2.1-.3a.148.148,0,0,1,.139.033c.164.214.391.114.588.118.663.012,1.326.025,1.988-.005.273-.012.56.252.714.146.383-.261.767-.082,1.143-.13a1.839,1.839,0,0,1,.866.013.634.634,0,0,0,.7-.152c.015-.01.074.036.109.061.162.116.234.108.325-.109.078-.187.086-.485.186-.54.215-.12.255-.175.127-.388a.3.3,0,0,1,.088-.354c.1-.1.073-.288.211-.379-.234-.342-.134-.8-.352-1.123-.184-.27-.412-.629-.737-.676-.466-.067-.945-.389-1.412-.117-.215.125-.4.063-.6.084-.074.008-.07-.129-.228-.094a3.427,3.427,0,0,1-2.045-.046.673.673,0,0,0-.543,0c-.317.233-.653.12-.979.14a2.237,2.237,0,0,1-1.021-.022c-.378-.182-.665.11-1,.031-.125-.03-.268.017-.395-.011a3.185,3.185,0,0,0-1.94,0,.879.879,0,0,1-.529-.054,1.668,1.668,0,0,0-1.274,0c-.1.038-.189.109-.271.024-.134-.139-.221-.114-.395-.027a1.121,1.121,0,0,1-.9,0c-.092-.035-.2-.149-.269-.076-.247.254-.548.133-.82.134a1.885,1.885,0,0,1-1.115-.121,2.443,2.443,0,0,1-1.79-.025c-.069-.027-.2-.037-.23,0-.184.232-.438.175-.655.144a.606.606,0,0,0-.645.353,3.2,3.2,0,0,0-.552,1.7m10.965,10.378c-.093.024-.263-.08-.295.124-.018.118.028.2.17.192a.121.121,0,0,1,.144.137c-.041.445.253.8.318,1.216.016.1-.02.224.128.235a.5.5,0,0,0,.3-.036.474.474,0,0,0,.222-.3c.064-.313.257-.291.487-.144a.3.3,0,0,0,.221-.005c.089-.424.516-.292.753-.466a.609.609,0,0,1,.83-.021.214.214,0,0,0,.205-.026.164.164,0,0,0-.03-.264c-.081-.062-.1-.208-.291-.07a.576.576,0,0,1-.7-.1c-.341-.255-.809-.2-1.212-.314-.314.361-.6.056-.871-.064a.793.793,0,0,0-.376-.093m-7.78,5.169c0,.437,0,.443-.543.4-.22-.019-.26.078-.259.271s.151.253.249.364c.145-.294.287.068.422,0,.089-.044.206-.108.231-.188.059-.188.245-.324.218-.544-.021-.17.063-.265.221-.214.2.066.559-.227.6.25.007.089.16.091.2.057.267-.229.709-.23.871-.553.2-.389.7-.074.788-.34.1-.3-.6-.265-.46-.731.04-.128-.179-.168-.22-.116-.344.445-1,.565-1.2,1.146-.048.138-.145.1-.243.125-.283.058-.392-.094-.491-.327a.321.321,0,0,0-.47-.127c-.173.1.153.151.092.293a.643.643,0,0,0,0,.235m.955,5.937c0-.422,0-.423-.394-.442-.079,0-.175.029-.234-.006-.28-.161-.385-.112-.512.216a1.868,1.868,0,0,0-.132.655c0,.181.028.363-.159.49-.105.072-.225.178-.148.32s.236.064.359.073a.875.875,0,0,0,.391-.006c.261-.115.359-.131.536.193.275.5.288-.5.627-.189.013.012.084-.039.127-.06-.027-.037-.052-.077-.082-.111-.38-.429-.381-.429-.381-1.133m1.113-10.029c0-.018,0-.049-.019-.064-.134-.126-.3-.046-.449-.058-.211-.017-.159.152-.166.272-.01.155.033.338-.037.458-.086.149-.289.037-.439.062-.171.029-.278.219-.489.166-.147-.037-.154.1-.149.206.007.127-.026.3.043.373.283.3.009.4-.168.523-.05.035-.145.017-.19.09.069.025.14.077.206.071.29-.025.272.079.14.271-.009.014.138.135.213.207.171-.318.317.1.509.02a.571.571,0,0,0,.3-.208c.091-.158-.133-.26-.173-.26a.479.479,0,0,1-.379-.241.43.43,0,0,1,.322-.73.867.867,0,0,0,.584-.27,3.463,3.463,0,0,0,.337-.888m1.745,2.149a.712.712,0,0,0,.159.505.379.379,0,0,1,.172.327c-.023.3.093.253.328.166a.514.514,0,0,1,.614.438c0,.405.216.808.013,1.217a.414.414,0,0,0,0,.235c.005.028.088.072.1.065a3.936,3.936,0,0,0,.337-.334.177.177,0,0,0-.033-.269c-.169-.15-.053-.347-.086-.519-.042-.22.117-.5-.138-.652-.377-.223.023-.444-.03-.653-.022-.088-.134-.217-.208-.219a1.12,1.12,0,0,1-.924-.615c-.014-.021-.038-.053-.056-.052-.074,0-.178-.041-.21.055a1.444,1.444,0,0,0-.035.305m-2.7,4.714h-.009a.916.916,0,0,0-.013-.383c-.038-.075-.128-.286-.258-.18-.243.2-.5.088-.747.093-.224,0-.259.1-.251.281,0,.067-.046.194-.073.195-.454.009-.2.353-.223.525s.151.161.275.067c.04-.03.087-.1.109-.092.131.049.017.295.166.278.1-.011.175-.191.286-.251.043-.023.147.1.232.116a.413.413,0,0,0,.5-.261,1.091,1.091,0,0,0,.008-.39m.755-7.8c-.074.014-.044.016-.025,0,.219-.148.229-.5.542-.565.013,0,.023-.159-.064-.2-.381-.18-.743-.366-.736-.878,0-.078-.086-.091-.154-.014-.1.115-.261.212-.091.384.106.108.1.172-.061.171s-.176.09-.162.2a.129.129,0,0,0,.163.12c.228-.036.348.036.314.292a1.539,1.539,0,0,0,0,.4c.01.08.085.122.273.088m1.477.269c.043.086-.226.048-.111.191.07.087.142.164.105.275-.12.362.231.491.39.519a4.027,4.027,0,0,1,1.07.311c.137.066.134-.039.129-.085a.55.55,0,0,0-.505-.5c-.309,0-.559-.015-.627-.408-.022-.128-.215-.223-.321-.342-.05-.055-.077-.061-.13.041m4.507,9.621c-.08-.005-.176-.006-.2.076s-.032.22.111.238c.112.015.185.024.2.169.049.385-.017.5-.471.624-.129.035-.182.08-.169.2.016.15.134.12.237.129a.307.307,0,0,0,.274-.113c.181-.194.37-.38.561-.563.133-.127.126-.151-.035-.286-.049-.041-.045-.14-.085-.2-.1-.15-.194-.318-.423-.272m-5.74-1.433c-.053,0-.106,0-.159,0a.335.335,0,0,0-.356.331c-.006.316-.364.6-.087.928a.144.144,0,0,0,.232-.1c0-.3.081-.5.412-.538.062-.008.111-.107.169-.161.119-.108.072-.254.052-.369s-.164-.09-.264-.091m-1.319,1.02c.043-.259-.143-.252-.294-.218-.309.07-.537.361-.9.325-.067-.007-.2.131-.211.212-.014.132.146.072.224.111.314.157.313.158.549-.1.127-.139.295-.068.443-.07.195,0,.2-.119.187-.258m5.1,4.632c0,.053,0,.106,0,.159.009.262.059.286.327.149.023-.011.035-.042.057-.054.337-.178.335-.177.114-.555a.327.327,0,0,1-.02-.15c0-.128.026-.276-.18-.265-.153.008-.1.166-.148.217a.549.549,0,0,0-.151.5m8.63-1.354c.609,0,.738-.124.763-.663a2.159,2.159,0,0,0,0-.318c0-.045-.046-.086-.071-.129a.669.669,0,0,1-.113.1c-.132.074-.1.225-.17.328-.128.2-.226.453-.552.364a.189.189,0,0,0-.145.025.182.182,0,0,0-.055.131c0,.045.027.125.053.13a2.421,2.421,0,0,0,.294.029m-3.052-5.715c-.024-.182-.222-.246-.188-.432.011-.06-.071-.075-.1-.013-.109.211-.349.03-.483.164l-.167.167c.242.185.069.478.185.694.016.03.092.044.136.038s.186-.017.087-.118-.091-.129,0-.232c.125-.15.275-.108.425-.128a.125.125,0,0,0,.114-.139m-11.965,3.858a.789.789,0,0,1-.445-.276c-.091-.146-.15-.024-.223.032-.124.095-.332-.056-.422.114s.17.241.156.405a.437.437,0,0,0,.01.231c.058.1.223.126.253.038.1-.3.249-.5.6-.442.016,0,.043-.064.068-.1m15.47-.294a1.076,1.076,0,0,0-.318-.625.6.6,0,0,0-.112-.066.505.505,0,0,0-.054.136c-.017.212.093.47-.272.523-.091.013-.009.434.008.411.192-.257.5-.047.708-.194.029-.021.021-.094.039-.185m-11.471-3.616c-.023-.081-.06-.137-.16-.125a.389.389,0,0,1-.476-.373c-.015-.091.031-.25-.093-.236s-.067.177-.064.275-.072.132-.1.2c-.1.241.093.478.48.6.232.074.307-.122.409-.262.013-.017,0-.051,0-.077m.477,4.079c-.009.173-.04.481.227.535.208.042.206-.294.327-.442.071-.087.263-.133.19-.271-.047-.09-.213-.1-.322-.161-.28-.151-.419-.042-.422.339m12.775-5.672.062.016c.032-.475.51-.386.755-.591.117-.1.065-.147-.016-.225-.1-.094-.179-.168-.326-.078a2.044,2.044,0,0,0-.649.5c-.05.07-.216.1-.134.213.066.091.253.024.308.167m-8.045-2.511c.359.148.486-.36.824-.379-.006-.072.016-.172-.024-.21-.13-.125-.36.04-.493-.167-.043-.067-.111.043-.1.119.029.221-.02.361-.286.321-.118-.018-.2.028-.193.17s.114.146.272.146m-5.412,10.22c.178-.209.49-.135.713-.3.107-.08.2-.19.089-.321-.077-.089-.184-.066-.266.023-.206.228-.409.422-.714.117-.055-.055-.2-.028-.3-.022-.035,0-.066.056-.1.086l.579.419m14.375-6.313c0-.378-.1-.5-.356-.4a2.791,2.791,0,0,0-.426.248,4.156,4.156,0,0,0,.34.334c.074.059.193.061.265.12.115.1.167.094.176-.063,0-.079,0-.159,0-.239m-8.756,2.071c.19-.271-.28-.484-.171-.809a.485.485,0,0,0-.194-.068.124.124,0,0,0-.112.163,2.784,2.784,0,0,1,.167,1.029c0,.019.075.062.12.073a.146.146,0,0,0,.186-.089,1.276,1.276,0,0,0,0-.3m.813,5.37c-.256-.054-.085-.352-.3-.358a.37.37,0,0,1-.257-.148,2.817,2.817,0,0,0-.245.5c-.035.124.319.352.384.264.1-.135.309-.093.42-.256m-13.867-6.859a3.488,3.488,0,0,0,0-.389.146.146,0,0,0-.228-.111c-.114.107-.374.209-.2.416a.7.7,0,0,1,.119.423c.011.078.079.116.169.11s.14-.05.144-.137c0-.1,0-.208,0-.311m12.254-3.2a.124.124,0,0,0-.1-.171c-.15-.012-.309-.044-.43.116-.067.089-.161.183-.1.27a3.259,3.259,0,0,0,.386.4c.028-.038.083-.079.08-.115-.018-.19.251-.282.159-.5m1.7,0c-.036.026-.094.047-.1.075a1.034,1.034,0,0,0,0,.311c.037.184-.122.5.12.531.372.053.154-.29.187-.454.028-.138.092-.154.2-.167.046-.006.2-.034.065-.124s-.37.048-.476-.172m8.818,4.145c.021.084-.081.263.115.291.27.038.17-.184.2-.319a1.043,1.043,0,0,1,.14-.248c-.3-.071.115-.31-.081-.379-.25-.088-.174.188-.27.271a.4.4,0,0,0-.108.384m-6.332.3c-.129,0-.181,0-.233,0-.1,0-.263-.03-.263.074s.127.178.152.317.226.107.334.077a.359.359,0,0,0,.285-.312c0-.042-.025-.119-.053-.127a1.188,1.188,0,0,0-.221-.03m2.989-7.171h0c0,.08-.021.221,0,.229a1.447,1.447,0,0,1,.547.4.091.091,0,0,0,.052-.036.281.281,0,0,0,.032-.144c-.069-.284-.37-.4-.476-.663-.031-.076-.1-.126-.147-.023a.612.612,0,0,0-.006.234m-12.035,4.624a1.659,1.659,0,0,0,.307,0,.136.136,0,0,0,.1-.173.309.309,0,0,0-.493-.2,2.513,2.513,0,0,0-.218.218.527.527,0,0,0-.06.108.538.538,0,0,0,.132.052,2.038,2.038,0,0,0,.231,0m3.352-.164c.165.053.242-.069.327-.164.047-.052.038-.06-.182-.165-.261-.124-.434-.093-.538.109a.185.185,0,0,0,.008.151c.062.109.114.024.164-.022.143-.128.139.087.221.09m7.445,2.845c.105.006.129-.051.118-.132-.029-.216.015-.363.283-.321a.743.743,0,0,0,.237,0c.041-.007.075-.053.113-.081-.056-.056-.107-.152-.169-.16-.183-.025-.335.123-.541.106-.111-.009-.064.284-.222.361l.182.23m-1.472-3.478c.021-.13-.119-.159-.16-.251-.03-.068.062-.249-.117-.173-.1.043-.239.148-.2.3.025.092.11.165.151.255.033.072-.011.242.15.11.074-.06.19-.111.173-.246m.357,3.267a2,2,0,0,0-.162.285c-.039.105.046.1.123.113.174.018.354-.055.517.1.11.108.173-.072.211-.129.114-.169-.06-.125-.131-.133-.175-.02-.376.058-.557-.24m6.33-4.066c-.02-.045-.034-.123-.058-.127a.715.715,0,0,0-.574.048c-.061.045-.166.137-.155.157.053.1.194.134.248.054.154-.23.235.026.349.031s.2-.026.191-.163m-5.45.282c.074-.124-.087-.147-.137-.2-.159-.178-.271-.032-.379.081-.164.172.055.218.118.274.178.157.267-.041.4-.151m2.578,6.409c.128.019.167-.1.244-.16a.185.185,0,0,0,.051-.264c-.05-.082-.39-.085-.413,0a1.056,1.056,0,0,0-.007.365c0,.023.082.039.126.059m-18.882-3.207a1.176,1.176,0,0,1-.464-.288c-.04.107-.287.164-.169.264s.008.365.206.319c.157-.036.286-.193.427-.3m-.081,2.359a.262.262,0,0,0-.007-.056c-.2-.015-.313-.245-.526-.206a.146.146,0,0,0-.077.115.347.347,0,0,0,.316.354c.153.027.188-.15.294-.207m20.476-5.516a.935.935,0,0,0-.165.171c-.037.064.228.437.315.442.029,0,.08-.051.09-.088.051-.181-.1-.5-.24-.525m-6.45-2.509c-.132-.03-.146-.215-.308-.2-.257.021-.141.22-.158.347-.011.081.049.136.141.131.167-.01.238-.136.325-.276m-3.976-1.653c0-.013.011-.05,0-.062a1.343,1.343,0,0,0-.736-.054c-.073.038-.072.107,0,.1.235-.01.414.144.627.183.069.013.132-.064.111-.171m-9.072,7c-.016-.118.071-.317-.2-.3-.1.007-.207-.026-.279.077.186.069.08.349.28.4.105.025.205-.012.2-.175m6.529,6.195c-.025-.081-.061-.147-.157-.124a.357.357,0,0,0-.317.356.116.116,0,0,0,.152.12.368.368,0,0,0,.323-.352m1.957,2.9c-.094-.013-.2.017-.2.082.01.133-.114.324.115.391.078.023.2-.022.185-.082-.025-.132.134-.328-.1-.391m-.207-18.907a.573.573,0,0,0,0-.078c-.015-.113.058-.275-.153-.282-.026,0-.06-.011-.076,0a.183.183,0,0,0-.012.314c.018.018.044.033.054.055.039.087.073.177.108.266.1-.071.078-.178.08-.278m4.222-1.943a.884.884,0,0,0-.2.26c-.022.059.124.042.2.049.139.014.261,0,.242-.189-.008-.083-.053-.138-.235-.121m-1.025,15.46-.088-.181c-.094.109-.266.168-.241.353.011.079.06.141.156.119.046-.011.114-.022.128-.053a1.034,1.034,0,0,0,.045-.238m-13.384-1.424c0-.1-.007-.21-.158-.193-.1.011-.265-.052-.275.048-.015.143.12.24.273.269.1.018.134-.043.16-.124m8.359-7.677a2.172,2.172,0,0,1-.238,0,.132.132,0,0,0-.158.121.2.2,0,0,0,.024.142c.094.125.105-.04.162-.054s.089-.035.135-.047a.551.551,0,0,1,.077,0c.072-.008.193.037.2-.055.016-.158-.13-.085-.2-.1m6.1,7.588c-.018-.035-.043-.1-.053-.1-.135.027-.322-.1-.393.109a.21.21,0,0,0,.071.192c.187.078.259-.1.376-.2m.983-6.181c.012-.077-.047-.117-.128-.133s-.183.013-.185.083c0,.119-.065.256.044.363a.054.054,0,0,0,.052,0c.072-.1.22-.143.217-.316m2.206-1.348c-.073-.073-.142-.2-.217-.2s-.19.116-.2.2c-.028.155.121.1.2.1s.2.049.222-.1m3.6,11.085c.084-.117.266-.167.237-.354-.007-.043-.049-.081-.074-.121-.088.112-.263.168-.238.352.006.043.048.081.075.123m-23-7.993c-.024-.082-.06-.131-.158-.13-.147,0-.17.09-.158.2a.133.133,0,0,0,.154.126c.148,0,.16-.091.162-.2m23.722,4.483a.354.354,0,0,0-.272-.275.232.232,0,0,0-.044.126.322.322,0,0,0,.267.279,1.013,1.013,0,0,0,.049-.13m-3.7-6.361c.125.037.188-.058.247-.134.031-.04.178-.064.056-.156a.158.158,0,0,0-.137-.024c-.084.049-.151.124-.232.179s-.071.074,0,.109c.021.01.043.017.065.026M115.1,368.958c0-.1-.014-.194-.162-.2a.133.133,0,0,0-.154.126c-.012.109.011.2.158.2.1,0,.134-.047.158-.13m5.571,8.881a1.263,1.263,0,0,0,0-.2c-.028-.137-.143-.142-.235-.111s-.061.1,0,.16a.214.214,0,0,1,.073.122.2.2,0,0,0,.089.185l.074-.155m-1.15-20.216c.1,0,.209-.009.193-.157,0-.045-.03-.126-.048-.127-.139,0-.173.14-.267.2l.122.08m-2.352,2.946c-.019-.079.053-.224-.1-.208-.092.009-.057.131-.053.2s-.056.226.1.21c.092-.009.046-.13.057-.2m-1.109.16c-.047-.031-.086-.075-.128-.079-.1-.01-.2,0-.2.153,0,.077.024.164.1.131s.149-.133.224-.2m15.6,12.175-.055-.132-.258.219c.041.025.08.066.123.071.111.012.2-.02.191-.157m-5.492-.955c-.078.019-.224-.053-.208.1.009.092.131.057.2.053s.226.057.21-.1c-.009-.092-.13-.045-.2-.057m-1.834.3c-.022-.081.062-.215-.057-.267-.08-.035-.113.057-.1.133.016.1-.061.229.057.281.08.035.108-.056.1-.147m-3.662-.8c-.022-.081.062-.215-.057-.267-.08-.035-.113.057-.1.133.016.1-.061.229.057.281.08.035.108-.056.1-.147m-10.983-4.271-.049-.135-.27.207c.04.027.078.071.12.076.1.011.205,0,.2-.148m13.862,10.48-.092-.14a.8.8,0,0,0-.074.2c0,.037.048.08.074.12l.092-.179M107.913,363.5l-.139.092a.808.808,0,0,0,.2.074c.037,0,.08-.048.12-.074l-.179-.092m6.206,6.639c-.02-.031-.039-.093-.062-.094-.071,0-.162-.04-.2.051-.01.022.034.1.056.1.071,0,.157.039.21-.054m1.114-1.95c-.053-.093-.139-.059-.21-.055-.022,0-.065.076-.056.1.041.091.133.056.2.051.024,0,.043-.063.062-.094m6.849,7.888-.139.092a.8.8,0,0,0,.2.074c.037,0,.08-.048.12-.074l-.179-.092M110,374.657c.044-.018.121-.031.125-.056.016-.093-.054-.115-.13-.1-.046.008-.121.029-.126.054-.016.093.053.111.131.1m7.164-14.647c-.078-.007-.147.01-.131.1,0,.025.08.046.126.053.076.013.146-.009.13-.1,0-.025-.082-.037-.125-.055m-4.385,7.312c.1-.051.1-.1.028-.12a.415.415,0,0,0-.208,0c-.077.021-.076.078,0,.1a.755.755,0,0,0,.18.017m-2.324,6.525-.139.092a.8.8,0,0,0,.2.074c.037,0,.08-.048.12-.074l-.179-.092m1.27-.365c-.02-.031-.039-.093-.062-.094-.071,0-.162-.04-.2.051-.01.022.034.1.056.1.071,0,.157.039.21-.054m11.657-11.263-.092-.14a.807.807,0,0,0-.074.2c0,.037.048.08.074.12l.092-.179m-9.306.68c-.031.019-.093.039-.094.062,0,.071-.04.162.051.2.022.01.1-.034.1-.056,0-.071.039-.157-.054-.21m-12.9,3.025c-.031.019-.093.039-.094.062,0,.071-.04.162.051.2.022.01.1-.034.1-.056,0-.071.038-.157-.054-.21m21.37-2.829c-.053-.093-.139-.059-.21-.054-.022,0-.065.076-.056.1.041.091.133.056.2.051.024,0,.043-.063.062-.094m-17.8,6.926-.092-.14a.806.806,0,0,0-.074.2c0,.037.048.08.074.12l.092-.179m13.1,4.932.1-.057c-.018-.018-.039-.053-.052-.05a.489.489,0,0,0-.107.05l.057.057m8.245-11.7.057.1c.018-.018.053-.039.05-.052a.493.493,0,0,0-.05-.107l-.057.057m-22.05,1.672.057-.057a.5.5,0,0,0-.107-.05c-.013,0-.035.032-.052.05l.1.057m10.3,7.323.1-.057c-.018-.018-.039-.053-.052-.05a.5.5,0,0,0-.107.05l.057.057m-1.705-1.114.057-.057a.5.5,0,0,0-.107-.05c-.013,0-.035.032-.052.05l.1.057m3.1-8.472.057.057a.5.5,0,0,0,.05-.107c0-.013-.032-.035-.05-.052l-.057.1m1.194,1.467.057-.057a.511.511,0,0,0-.107-.05c-.013,0-.035.032-.052.05l.1.057m-2.627,2.354.057.057a.493.493,0,0,0,.05-.107c0-.013-.032-.035-.05-.052l-.057.1m-7.562-4.583.057-.057a.5.5,0,0,0-.107-.05c-.013,0-.035.032-.052.05l.1.057m.693,11.247c-.018-.018-.039-.053-.052-.05a.494.494,0,0,0-.107.05c.018.018.039.053.052.05a.506.506,0,0,0,.107-.05M126.8,366.7c-.018.018-.053.039-.05.052a.5.5,0,0,0,.05.107c.018-.018.053-.039.05-.052a.5.5,0,0,0-.05-.107m-9.688,4.116.057-.057a.5.5,0,0,0-.107-.05c-.013,0-.035.032-.052.05l.1.057m7.2-10.541-.057-.1c-.018.018-.053.039-.05.052a.488.488,0,0,0,.05.107Zm3.923,13.748c-.018.018-.053.039-.05.052a.489.489,0,0,0,.05.107c.018-.018.053-.039.05-.052a.489.489,0,0,0-.05-.107m.216-6.743-.056-.1c-.018.018-.053.039-.05.052a.487.487,0,0,0,.05.107l.056-.057m-24.04-7.8-.057-.1c-.018.018-.053.039-.05.052a.5.5,0,0,0,.05.107l.057-.057m23.721,8.392-.057-.057a.486.486,0,0,0-.05.107c0,.013.032.035.05.052l.057-.1m.9,6.63c-.018.018-.053.039-.05.052a.488.488,0,0,0,.05.107c.018-.018.053-.039.05-.052a.494.494,0,0,0-.05-.107m-12-8.972.057.057a.5.5,0,0,0,.05-.107c0-.013-.032-.035-.05-.052l-.057.1m4.219,2.786-.1.057c.018.018.039.053.052.05a.5.5,0,0,0,.107-.05l-.057-.057m5.128-2.832-.057-.057a.489.489,0,0,0-.05.107c0,.013.032.035.05.052l.057-.1m-19.058,0,.057.1c.018-.018.053-.039.05-.052a.5.5,0,0,0-.05-.107l-.057.057m10.109-3.1.057-.057a.5.5,0,0,0-.107-.05c-.013,0-.035.032-.052.05l.1.057" transform="translate(-79.88 -285.495)" fill="#57d694"></path><path id="Path_50" data-name="Path 50" d="M260,156.66c-.242-.058-.689-.023-.9-.5-.081-.184-.311-.13-.448-.272-.245-.255-.5-.493-.386-.875.084-.29-.293-.49-.153-.723.154-.256.089-.544.214-.789.031-.061.1-.086.019-.173-.409-.452-.017-.934-.041-1.4.251-.169-.214-.285-.036-.438s.185-.258.026-.45.105-.367.182-.525a.623.623,0,0,0,.091-.435,6.5,6.5,0,0,1-.172-1.341c-.029-.342.287-.415.343-.665.062-.272-.35-.517-.137-.708.249-.223-.207-.384.049-.584.192-.15.072-.444.08-.672s-.013-.424.211-.551c.143-.081.115-.221.112-.351a3.952,3.952,0,0,1,.306-1.863,1.191,1.191,0,0,0,.007-.629,1.173,1.173,0,0,1,.171-.728.969.969,0,0,0,.161-.494,1.359,1.359,0,0,1,.323-.96c.145-.211.085-.309.023-.522s.174-.5.143-.792c.431-.263.29-.692.294-1.069,0-.2.078-.235.253-.294.213-.072.356-.386.215-.51-.294-.256-.05-.422.024-.6.124-.3.372-.546.311-.905-.022-.127.084-.179.149-.257a2.109,2.109,0,0,0,.486-1.229c.009-.161-.008-.264.229-.31.328-.065.155-.517.4-.689-.074-.366.17-.615.327-.9.143-.258.281-.52.4-.789a1.214,1.214,0,0,1,.341-.5.44.44,0,0,0,.216-.467.385.385,0,0,1,.177-.4c.208-.173.507-.313.593-.535a5.06,5.06,0,0,1,.3-.671c.061-.108.016-.283.166-.326.312-.088.354-.357.44-.6a1.665,1.665,0,0,1,.438-.6c.137-.126.349-.245.377-.4.056-.3.439-.283.469-.595.018-.187.12-.314.4-.35.2-.026.343-.391.532-.584a.423.423,0,0,0,.087-.363c-.011-.342.174-.474.486-.447.249.021.434-.088.459-.31.027-.246.322-.11.32-.251,0-.247.126-.243.3-.241a1.283,1.283,0,0,1,.424.128c.326.117.7-.031,1.046.173.142.083.281.067.356.281.09.258.552.191.589.535.028.262-.07.561.024.788.13.315.2.527-.078.813-.164.168-.154.473-.449.6a.432.432,0,0,0-.288.506.112.112,0,0,1,0,.078c-.121.18-.558-.072-.5.415.03.246-.268.308-.527.321a.329.329,0,0,0-.247.354c.036.323-.085.48-.407.636a.785.785,0,0,0-.547.784,1.085,1.085,0,0,0-.529.882c-.008.043-.071.108-.109.108-.4,0-.424.374-.612.593a.772.772,0,0,0-.186.566c0,.168.076.4-.242.368-.021,0-.073.081-.071.122.017.33.013.618-.422.7-.164.031.037.309-.117.414-.091.062-.259-.01-.264.2a3.063,3.063,0,0,1-.7,1.687c-.21.291-.171.714-.531.909a.3.3,0,0,0-.026.289c.352.361,0,.434-.211.577-.035.023-.164.046-.062.167.3.36-.019.626-.2.86-.306.4-.324.384-.338.726s.119.742-.257,1.008c-.13.092-.064.252-.052.371.034.342-.248.614-.186.967.02.116-.275,0-.268.166,0,.076.133.136.134.26a.514.514,0,0,1-.137.346c-.053.067-.009.2-.029.3-.146.706-.3,1.41-.469,2.111-.025.106-.034.207-.129.265-.2.124-.111.248-.046.414.092.237-.109.435-.211.619-.113.2-.2.279.1.373.218.067.149.284.053.45l-.216.609a1.5,1.5,0,0,0,.17.167c.114.082.108.14,0,.23a.427.427,0,0,0-.215.39,1.114,1.114,0,0,1-.129.661.639.639,0,0,0,.063.667c.184.22-.1.483-.02.586.215.28,0,.378-.136.508s-.014.157.039.231c.026.037.016.1.032.145.073.226-.24.338-.163.571.062.187.227.334.168.571s.1.514-.066.683c-.2.2.26.366-.048.585-.218.155.316.443.033.747a.991.991,0,0,0-.25.769.827.827,0,0,1-.444.831,2.636,2.636,0,0,1-1.476.442" transform="translate(-217 -104.288)" fill="#57d694"></path><path id="Path_51" data-name="Path 51" d="M415.45,49.679c0,.132,0,.265,0,.4a4.2,4.2,0,0,1-.757,2.554,3.38,3.38,0,0,1-.708.964,8.311,8.311,0,0,1-1.578,1.171,4.051,4.051,0,0,1-1.626.511c-.334-.006-.687.187-1.045.131a12.134,12.134,0,0,1-2.241-.531,5.2,5.2,0,0,1-2.861-2.744c-.178-.343-.188-.774-.366-1.117a2.5,2.5,0,0,1-.11-1.222,4.142,4.142,0,0,1,.109-1.216c.1-.346.158-.733.256-1.092a4.918,4.918,0,0,1,.9-1.532,2.1,2.1,0,0,1,.73-.718c.85-.377,1.514-1.183,2.552-1.127a2.619,2.619,0,0,1,1.443-.149,3.527,3.527,0,0,1,1.384.294c.4.191.864.211,1.208.548a3.334,3.334,0,0,0,.644.349c.179.107.135.45.442.436a5.072,5.072,0,0,1,1.261,1.781,6.293,6.293,0,0,1,.347,1.045,6.965,6.965,0,0,1,.018,1.268m-10.182,1.58c-.025-.141.047-.3-.164-.308a.136.136,0,0,0-.159.119c-.03.187.15.245.239.358l.085-.17" transform="translate(-339.797 -36.936)" fill="#57d694"></path><path id="Path_52" data-name="Path 52" d="M394.9,184.825c.037-.632-.1-1.143.288-1.55-.1-.605.434-.994.516-1.535a.318.318,0,0,1,.1-.2,8.2,8.2,0,0,1,1.8-1.616,4.649,4.649,0,0,1,2.47-.765,1.1,1.1,0,0,0,.825-.125c.159-.114.455.116.71.153a6.014,6.014,0,0,1,2.372.99c.6.387.921,1.02,1.445,1.464.1.088.111.253.178.318.323.306.271.744.415,1.107a2,2,0,0,1,.2,1.113c-.026.139-.073.32.1.432.084.054.047.142.051.217a.512.512,0,0,1,0,.236c-.271.533-.081,1.159-.339,1.689-.173.354-.386.687-.556,1.042a5.562,5.562,0,0,1-1.584,1.7,3.751,3.751,0,0,1-1.391.656,6.384,6.384,0,0,1-2.728.3,2.965,2.965,0,0,1-1.849-.711,3.1,3.1,0,0,1-1.191-.752,5.483,5.483,0,0,1-1.43-1.859c-.152-.3.068-.683-.232-.939.01-.515-.329-.993-.172-1.371" transform="translate(-331.999 -150.507)" fill="#57d694"></path><path id="Path_53" data-name="Path 53" d="M27.537,319.992c.215.64-.337,1.238-.318,1.93-.451.419-.425,1.164-1.013,1.491a6.1,6.1,0,0,1-1.821,1.52c-.218.168-.441.032-.663.141a3.378,3.378,0,0,1-.922.277,4.92,4.92,0,0,1-2.572-.03,6.276,6.276,0,0,1-3.883-3.916,4.113,4.113,0,0,1-.1-.513c-.041-.246.116-.53-.153-.737-.038-.03-.036-.171,0-.229a2.623,2.623,0,0,0,.148-1.37,3.215,3.215,0,0,1,.147-.494c.069-.412.387-.692.489-1.076a1.239,1.239,0,0,1,.775-.785.342.342,0,0,0,.18-.235c0-.51.5-.643.724-.977.793-.262,1.468-.878,2.376-.8a2.02,2.02,0,0,1,1.048-.162,3.2,3.2,0,0,1,.8.188c.434.093.88.141,1.312.273.353.108.563.4.906.51.293.092.629.2.7.6.037.223.309.155.445.352.313.454.572.931.851,1.4a10.035,10.035,0,0,1,.526,1.535,3.363,3.363,0,0,1,.022,1.1m-7.266.411c-.095-.013-.2.017-.2.082.011.133-.114.324.115.391.078.022.2-.022.185-.082-.025-.132.134-.328-.1-.391m4.068,3.122c-.019-.031-.039-.093-.062-.094-.071,0-.162-.04-.2.051-.01.021.034.1.056.1.071,0,.157.039.21-.054" transform="translate(-13.504 -264.034)" fill="#57d694"></path><path id="Path_54" data-name="Path 54" d="M144.955,94.837c.39,0,.655.005.921,0a1.037,1.037,0,0,1,.579.146.8.8,0,0,0,.564.186.726.726,0,0,1,.659.308,4.073,4.073,0,0,0,.858.626,3.625,3.625,0,0,1,1.3,1.633c.051.113.2.186.236.3.066.213.3.363.235.618-.073.275.139.478.175.726.012.085.147.127.15.256a3.254,3.254,0,0,0-.021.907,1.2,1.2,0,0,1-.131.889,1.747,1.747,0,0,0-.185.8,2.2,2.2,0,0,1-.5,1.135,4.083,4.083,0,0,0-.439.7.8.8,0,0,1-.47.473.5.5,0,0,0-.245.173,4.234,4.234,0,0,1-1.55,1.064,3.314,3.314,0,0,1-.857.24,7.449,7.449,0,0,1-3.046-.07,7.194,7.194,0,0,0-1.169-.44c-.149-.024-.2-.156-.3-.237-.376-.314-.682-.694-1.1-.98a2.835,2.835,0,0,1-.654-.984c-.182-.322-.34-.657-.521-.98a2.162,2.162,0,0,1-.281-1.074c.008-.4.02-.8,0-1.193a4.027,4.027,0,0,1,.195-1.042,3.456,3.456,0,0,1,.789-1.735,5.125,5.125,0,0,0,.521-.655c.577-.86,1.583-1.124,2.416-1.63.672.013,1.318-.311,1.877-.159m-1.155,6.286c.154-.173.283-.258.273-.323-.012-.084-.134-.152-.209-.227-.065.093-.233.121-.2.27a1.283,1.283,0,0,0,.137.279m1.831.26c-.034.025-.094.048-.1.074a2.381,2.381,0,0,0,0,.464c0,.035.124.073.191.074.043,0,.185-.033.059-.128s-.092-.224-.1-.348a.492.492,0,0,0-.057-.136" transform="translate(-117.001 -79.705)" fill="#57d694"></path><path id="Path_55" data-name="Path 55" d="M5.807.008c.318,0,.637,0,.955,0,.213,0,.421-.017.556.2a.249.249,0,0,0,.268.121.492.492,0,0,1,.547.217c.087.14.229.1.356.1.155,0,.313-.036.316.224,0,.086.165.184.27.252a5.542,5.542,0,0,1,2.054,2.586A6.465,6.465,0,0,1,11.2,6.748a1.3,1.3,0,0,0-.027.228,3.626,3.626,0,0,1-1.042,2.276c-.217.194-.415.41-.621.617a1.788,1.788,0,0,1-.849.635c-.351.068-.406.555-.836.5-.324-.043-.617.262-.967.149-.433.384-1.031-.057-1.471.292a7.617,7.617,0,0,1-1.5-.357A5.639,5.639,0,0,1,.827,8.537C.751,8.376.522,8.325.51,8.111.469,7.381-.13,6.781.026,6a3.024,3.024,0,0,0,.006-.636A5.068,5.068,0,0,1,.268,3.954,5.776,5.776,0,0,1,1.306,1.992c-.087-.31.238-.194.337-.323A5.061,5.061,0,0,1,2.72.795,1.627,1.627,0,0,1,3.789.326c.026,0,.062.011.078,0C4.457-.135,5.148.037,5.807.008M3.522,5.759l.092.14a.8.8,0,0,0,.074-.2c0-.037-.048-.08-.074-.12l-.092.179" transform="translate(0 0)" fill="#57d694"></path><path id="Path_56" data-name="Path 56" d="M124.023,190.01c.645-.073,1.1.383,1.588.766.051.04.045.149.094.2.231.221.552.306.728.638a2.586,2.586,0,0,0,.543.639c.173.157.336.422.524.442.266.029.107.349.406.374.371.031.343.609.694.765.318.141.462.462.7.663a7.575,7.575,0,0,1,1.019,1.248c.321.419.879.635,1.1,1.123.229.51.734.767,1,1.253.13.241.423.4.55.716.115.288.461.464.6.786a5.245,5.245,0,0,0,.652,1.082c.223.3.359.5.311.646-.106.332.319.225.319.414a.8.8,0,0,0,.2.478,4.185,4.185,0,0,1,.7,1.3c.035.136.088.224-.026.332s-.079.225.031.328a1.179,1.179,0,0,1,.38,1.036.522.522,0,0,0,.021.306c.116.174.319.354.192.55-.193.3.155.386.179.6.019.173-.055.355.068.552a2,2,0,0,1,.181,1.118c0,.221-.1.468.133.662.076.064.01.19-.08.265a.3.3,0,0,0-.05.362c.344.35.078.67-.037.981a1.124,1.124,0,0,0-.138.342c-.044.64-.728.725-1.022,1.152-.317,0-.635.02-.951,0a5.941,5.941,0,0,1-1.37-.718c-.073-.068-.164-.123-.157-.253.028-.542-.25-1.05-.165-1.605a.75.75,0,0,0-.151-.728c.378-.38.075-.807-.035-1.128-.131-.383-.022-.807-.272-1.161-.075-.106-.012-.31-.012-.469s.036-.327-.225-.307c-.072.005-.114-.1-.092-.183.1-.374-.209-.684-.16-1.048a.231.231,0,0,0-.147-.252.445.445,0,0,1-.33-.57c.056-.271-.438-.084-.326-.413.077-.224-.072-.375-.213-.547a2.178,2.178,0,0,1-.6-1.025c-.044-.262-.484-.4-.52-.729-.041-.376-.6-.3-.567-.708-.269-.136-.256-.521-.6-.632-.149-.049-.273-.272-.383-.456a2.675,2.675,0,0,0-.608-.708,6.592,6.592,0,0,1-.959-1.179c-.171-.224-.29-.5-.652-.462-.149.015-.187-.194-.3-.222-.334-.081-.009-.582-.292-.546-.374.048-.355-.246-.463-.4-.159-.222-.54-.2-.564-.544-.57-.136-.685-.726-1.054-1.064-.058-.053.007-.217-.126-.245a1.043,1.043,0,0,1-.872-.9c-.523-.373-.211-.923-.295-1.389.256-.149.066-.508.314-.67.039-.026-.026-.163.066-.205.468-.216.811-.7,1.4-.658.026,0,.053,0,.135,0" transform="translate(-102.656 -159.753)" fill="#57d694"></path><path id="Path_57" data-name="Path 57" d="M218.425,228.884c-.057.9.267,1.684.152,2.5.21.221.055.432.017.666a1.05,1.05,0,0,0,.114.874c-.186.258-.119.476-.006.768a1.051,1.051,0,0,1-.036.979c-.225.251.2.465-.071.63.291.232.074.439-.007.675-.055.162-.253.279-.172.487.009.023.008.074,0,.076-.442.135-.673.613-1.109.72a2.724,2.724,0,0,1-.95.005c-.267-.032-.395-.43-.739-.322a1.879,1.879,0,0,0-.622-.774c-.162-.157-.009-.4-.212-.558s.313-.323.08-.526a.388.388,0,0,1-.1-.433c.258-.914-.129-1.82-.016-2.734a2.8,2.8,0,0,0-.021-1.26c-.143-.383-.029-.8-.27-1.164a.732.732,0,0,1,0-.685c.194-.234.007-.381-.038-.517-.107-.322-.083-.661-.166-.967a2.758,2.758,0,0,1-.13-.973,2.124,2.124,0,0,0-.156-.732c-.121-.482-.2-.974-.311-1.46a4.694,4.694,0,0,0-.32-.985c-.133-.288-.006-.627-.137-.974-.149-.4.111-.866.278-1.287a1.382,1.382,0,0,1,.942-.819c.438-.126.884-.366,1.384-.033a12.4,12.4,0,0,1,1.029.759,1.284,1.284,0,0,1,.3.821c.073.418-.154.908.322,1.222.013.008.009.051,0,.076-.181.792.252,1.5.35,2.25a20.037,20.037,0,0,0,.4,2.126,3.5,3.5,0,0,1,.215,1.573" transform="translate(-179.222 -184.882)" fill="#57d694"></path><path id="Path_58" data-name="Path 58" d="M122.629,274.906c.737-.135,1.54.279,2.377.159a7.425,7.425,0,0,1,3.106,1.536,10.08,10.08,0,0,1,1.493,1.855,4.413,4.413,0,0,1,.521,1.368,4.877,4.877,0,0,1,.181,1.522,1.772,1.772,0,0,1-.273,1.086c-.165.2-.162.612-.409.682-.451.128-.836.443-1.354.4a1.669,1.669,0,0,1-1.023-.428c-.281-.242-.419-.585-.673-.836a.431.431,0,0,1-.088-.439,2.969,2.969,0,0,0-.2-1.2,1.644,1.644,0,0,0-.4-.756,3.105,3.105,0,0,0-.819-.652,5.121,5.121,0,0,0-1.133-.352,15.187,15.187,0,0,0-2.326-.13,1.747,1.747,0,0,1-1.3-.692,2.019,2.019,0,0,1,.04-2.465,1.667,1.667,0,0,1,1.307-.658c.29-.019.583,0,.975,0" transform="translate(-100.815 -231.117)" fill="#57d694"></path><path id="Path_59" data-name="Path 59" d="M295,286.185a1.586,1.586,0,0,1-1.1-.458c-.575-.413-.586-1.037-.72-1.617a1.288,1.288,0,0,1,.22-.778,8.242,8.242,0,0,1,2.31-3.083,2.416,2.416,0,0,1,1.344-.764,3.5,3.5,0,0,1,1.369-.727.572.572,0,0,1,.288-.066.718.718,0,0,0,.747-.315c.227-.3.651-.07.9-.324.575.21,1.308.07,1.694.692.217.35.555.7.494,1.133a7.232,7.232,0,0,1-.158.885,1.207,1.207,0,0,1-.5.723,4.762,4.762,0,0,1-1.279.562,7.015,7.015,0,0,0-2.081.916c-.489.265-.7.765-1.06,1.135a4.615,4.615,0,0,0-.7,1.148c-.4.757-1.081.807-1.759.938" transform="translate(-246.492 -233.785)" fill="#57d694"></path><path id="Path_60" data-name="Path 60" d="M96.175,283a1.384,1.384,0,0,1,1.314.483,1.964,1.964,0,0,1-1.415,3.457,1.928,1.928,0,0,1-1.874-1.976,1.828,1.828,0,0,1,.619-1.417A1.474,1.474,0,0,1,96.175,283" transform="translate(-79.203 -237.922)" fill="#57d694"></path><path id="Path_61" data-name="Path 61" d="M396.177,260.17c-.051-.363.284-.664.163-1.044-.038-.119.1-.169.171-.241.162-.173.337-.334.5-.506a1.162,1.162,0,0,1,.882-.362,2.522,2.522,0,0,1,1.457.313A1.255,1.255,0,0,1,400,259.36c.017.222-.062.445.133.666a.583.583,0,0,1-.07.578,2.092,2.092,0,0,1-1.681,1.248,1.857,1.857,0,0,1-2.2-1.681" transform="translate(-333.1 -216.94)" fill="#57d694"></path><path id="Path_62" data-name="Path 62" d="M192,168.111a2.43,2.43,0,0,1-1.129-.349c-.412-.184-.528-.673-.682-1.05-.1-.253-.314-.549-.185-.873a4.231,4.231,0,0,1,.5-1.131c.2-.24.6-.311.9-.467a1.113,1.113,0,0,1,.928.019,2.348,2.348,0,0,1,1.3.706c.048.062.149.106.161.17a2.655,2.655,0,0,1-.189,2.289,1.131,1.131,0,0,1-.957.524c-.239-.023-.389.284-.64.161" transform="translate(-159.716 -138.014)" fill="#57d694"></path><path id="Path_63" data-name="Path 63" d="M345.2,105.049a2,2,0,0,1,2.068-1.948,1.95,1.95,0,0,1,1.9,2.023,2.109,2.109,0,0,1-1.983,1.938,1.905,1.905,0,0,1-1.986-2.014" transform="translate(-290.245 -86.687)" fill="#57d694"></path><path id="Path_64" data-name="Path 64" d="M207.872,193.2a1.23,1.23,0,0,1-.411,1.113,1.843,1.843,0,0,1-1.408.617c-.272-.02-.584.131-.807-.155-.741-.127-.98-.714-1.148-1.319a2.3,2.3,0,0,1,.307-1.818,3.049,3.049,0,0,1,.891-.526c.3-.1.6-.339.9,0a1.2,1.2,0,0,1,.974.332,1.838,1.838,0,0,1,.7,1.759" transform="translate(-171.542 -160.535)" fill="#57d694"></path><path id="Path_65" data-name="Path 65" d="M377.981,88.31a1.929,1.929,0,0,1-1.451,1.715c-.189.05-.381.267-.561.142-.335-.231-.741-.056-1.084-.263-.2-.121-.363-.187-.444-.446-.093-.3-.357-.544-.443-.842a1.82,1.82,0,0,1,.84-1.937,3.784,3.784,0,0,1,.49-.342c.655-.292,1.219.06,1.771.23.451.139.61.711.839,1.129.067.123.026.306.043.613" transform="translate(-314.411 -72.499)" fill="#57d694"></path><path id="Path_66" data-name="Path 66" d="M39.929,81a1.981,1.981,0,0,1-.566,1.6c-.364.387-.872.333-1.264.585-.482-.236-1.085-.229-1.459-.672a2.228,2.228,0,0,1-.019-2.885c.355-.4.971-.432,1.49-.568.222-.058.388.253.641.161a8.272,8.272,0,0,1,1.11,1.108c.156.244.019.51.067.672" transform="translate(-30.354 -66.465)" fill="#57d694"></path><path id="Path_67" data-name="Path 67" d="M74.039,302.927a1.4,1.4,0,0,1-1.375-.528,1.833,1.833,0,0,1-.485-1.527,2.107,2.107,0,0,1,1.008-1.488,2.232,2.232,0,0,1,2.387.2c.134.373.526.613.557,1.036a2.344,2.344,0,0,1-.318,1.455c-.206.335-.572.466-.787.768-.073.1-.179.085-.282.085h-.7" transform="translate(-60.66 -251.497)" fill="#57d694"></path><path id="Path_68" data-name="Path 68" d="M77.644,143.976a1.693,1.693,0,0,1-1.074,1.855c-.045.023-.072.091-.117.1a.349.349,0,0,1-.234,0c-.37-.245-.821.269-1.167-.131-.319.017-.393-.411-.712-.393-.056-.311-.343-.483-.453-.767a1.791,1.791,0,0,1,.832-2.228c.109-.061.227-.1.328-.168.26-.163.527-.389.832-.275a2.951,2.951,0,0,1,1.137.527,1.562,1.562,0,0,1,.628,1.479" transform="translate(-62.021 -119.342)" fill="#57d694"></path><path id="Path_69" data-name="Path 69" d="M367.3,275.869a1.833,1.833,0,0,1-2.022,1.927,1.8,1.8,0,0,1-1.257-.383,2.323,2.323,0,0,1-.679-1.677,1.984,1.984,0,0,1,2.245-1.779,1.849,1.849,0,0,1,1.713,1.913" transform="translate(-305.493 -230.341)" fill="#57d694"></path><path id="Path_70" data-name="Path 70" d="M101.9,168.911a2.265,2.265,0,0,1,1.524.558c.295.2.351.587.5.9.078.167-.046.413.163.558-.258.2-.094.488-.16.726-.031.112-.188.189-.223.3-.231.748-.933.76-1.5.941a1.38,1.38,0,0,1-1.293-.475,2.2,2.2,0,0,1-.788-1.285,2.075,2.075,0,0,1,.406-1.563,1.806,1.806,0,0,1,1.375-.659" transform="translate(-84.158 -142.012)" fill="#57d694"></path><path id="Path_71" data-name="Path 71" d="M53.986,116.717c-.818.176-1.211-.529-1.732-1,.024-.592-.571-1.225.12-1.772.066-.4.413-.606.682-.815a1.8,1.8,0,0,1,1.536-.169c.768.161,1.028.784,1.3,1.412a1.531,1.531,0,0,1-.333,1.63c-.513.662-.692.719-1.57.719" transform="translate(-43.754 -94.898)" fill="#57d694"></path><path id="Path_72" data-name="Path 72" d="M193.347,543.18l-.145-.074c.071-.1.179-.088.277-.076a.869.869,0,0,1,.2.076c-.071.1-.177.081-.332.074" transform="translate(-162.444 -456.571)" fill="#57d694"></path><path id="Path_73" data-name="Path 73" d="M194.259,518.195l.1.057c-.018.018-.039.053-.052.05a.5.5,0,0,1-.107-.05l.057-.057" transform="translate(-163.284 -435.697)" fill="#57d694"></path></g></svg> 