<?xml version="1.0" encoding="UTF-8"?> <svg xmlns="http://www.w3.org/2000/svg" id="a" viewBox="0 0 200 200"><path d="m28.86,88.04c-.19-.56.34-1.33-.29-1.95.63-1.05.19-2.2.27-3.3.08-1.09.09-2.2-.02-3.28-.04-.35.6-.47.14-.89-.41-.38-.33-.93-.02-1.38.43-.62.4-1.37.1-1.87-.31-.51.12-1.15-.46-1.57-.11-.08.15-.71.29-1.08.13-.34.59-.65.03-1.01-.01-1.25-.03-2.49-.03-3.74,0-.07.11-.17.19-.2.09-.04.21-.02.31,0,.58.1,1.16.29,1.75.29s1.19-.11,1.74-.31c.53-.2.98.82,1.47.03.57,0,1.15-.06,1.71,0,.69.08,1.45-.31,2.07.29.05.05.28-.04.41-.11.63-.33,1.26-.25,1.9-.05.04.01.08.1.11.1.67-.02,1.35-.56,1.99-.16.7.44,1.41.09,2.1.23.72-.62,1.66-.45,2.35-.25.82.24,1.59.21,2.39.23.28,0,.56-.15.84-.21.19-.04.4-.11.59-.08.48.08.96.28,1.44.28s1.04-.4,1.42-.25c.82.32,1.71-.48,2.46.25.08.08.37-.06.56-.11.24-.06.54-.25.69-.17.72.41,1.36.35,2.12.02.41-.18,1.08.29,1.52.13.53-.18.89-.18,1.41,0,.45.14,1.02-.16,1.54-.15.47,0,.97.3,1.41.22,1.64-.3,1.75-.33,3.37.05.25.06.51.03.77.03,1.56,0,3.13,0,4.69,0,.4,0,.75-.05,1.15-.25.36-.18.98-.26,1.46.14.16.14.54.19.72.09.77-.42,1.49-.32,2.26,0,.25.11.72.1.88-.06.38-.36.78-.24,1.17-.22.48.03.99.35,1.43.25.48-.11.94-.23,1.44-.29,1.24-.15,2.4.46,3.62.33.59-.06,1.2.15,1.77-.28.2-.15.67.06,1.01.12.19.03.38.09.56.16.75.31,1.42-.43,2.27-.06.66.28,1.6.24,2.31.02,1.37-.44,2.74-.25,4.1-.24.84,0,1.74-.35,2.55.26.09.07.43-.29.63-.27,1.01.11,2.05-.33,3.03.23.12.07.35-.07.53-.1.34-.05.82-.26,1.01-.12.57.45,1.18.26,1.77.27,1.61.03,3.23.03,4.85,0,.53-.01,1.05.08,1.62-.24.42-.23,1.16-.18,1.77.13.37.19.91.17,1.34.08,1.34-.28,1.33-.29,2.43-.02.34.08.75.15,1.06.04,1.18-.41,2.33-.51,3.5.01.09.04.21,0,.31,0,.55,0,1.06-.07,1.61-.26.44-.16,1.04.22,1.57.24.37.01.74-.23,1.12-.28.41-.05.83-.03,1.25,0,.39.03.77-.08,1.17.22.27.2.87.22,1.19.05.6-.32,1.09-.47,1.65,0,.07.06.3,0,.41-.08.48-.34.9-.32,1.4,0,.19.12.59.07.82-.05.26-.14.4-.17.67-.02.23.13.68.22.81.09.37-.37.78-.21,1.17-.21.39,0,.78.16,1.17.16.36,0,.71-.16,1.07-.16.28,0,.56.17.84.21.35.05.72.12,1.04.05,1.26-.29,1.25-.31,2.43,0,.14.04.3.05.45.05.62-.02,1.42.2,1.81-.11.72-.58,1.18.39,1.67.1.73-.43,1.48-.26,2.23-.28.34-.01.71-.14,1.01.21.07.08.34-.01.52-.05.19-.04.42-.22.55-.15.97.51,1.91.25,2.88.01.4-.1.91-.19,1.33.15.11.09.42.1.51,0,.31-.32.72-.27,1.02-.17,1.23.41,2.42.45,3.67.01.47-.17,1.11,0,1.64.14.65.16,1.25.2,1.91-.03.41-.15.91-.21,1.34-.13,1.81.34,1.8.36,3.5,0,.3-.06.63-.05.93.01,1.37.32,1.37.33,2.43.04.19-.05.43-.12.6-.05,1.7.67,3.47.12,5.19.3,1.91-.68,3.88-.14,5.81-.31.86.43,1.78.3,2.68.31.26,0,.61.11.76-.02.36-.31.75-.5,1.06-.14.21.24.11.68-.23.95-.05.04.03.28.08.41.04.09.18.14.2.23.15.72-.37,1.41-.25,2.05.13.69.49,1.29,0,1.97-.07.1.03.37.12.52.21.35.22.64-.05.97-.09.11-.1.43-.02.51.38.36.24.81.17,1.17-.33,1.55-.36,1.54-.04,2.75.05.19.06.4.06.6,0,1.77,0,3.54,0,5.32,0,.43-.13.84-.05,1.31.13.75.17,1.57-.16,2.32.64.67-.17,1.44.16,2.14-.55.3.08.78-.07.95-.38.42.04.61.08.9.08.54-.12,1.12-.12,1.68,0,.55.3,1.18.11,1.63-.28.67-.34,1.17.02,1.81.16.28.16.79,0,1.07-.58.98-.24,2.02-.24,3.01,0,.37.35.83.25,1.28-.21.96-.08,1.91-.03,2.87.07,1.15.15,2.31-.22,3.48-.2.63-.17,1.45.17,2.23.25.56.04,1.36-.07,2.08-.19,1.3-.07,2.64-.05,3.96,0,.29.21.58.18.85-.14,1.15.38,2.36-.29,3.48-.05.08.08.27.14.4.26.63.3,1.28-.02,1.89-.15.28-.13.42.05.66.45.6-.35,1.25-.12,1.66.35.62.28,1.15.12,1.72-.3,1.05-.26,2.1-.03,3.15.06.29.15.58.16.87,0,.62.2,1.39-.1,1.82-.49.7.45,1.11.12,1.68-.12.2-.2.46-.2.69-.02.7-.02,1.4,0,2.1.01.29.2.58.18.85-.06.79-.45,1.67-.23,2.35.27.82.11,1.61.26,2.39.09.49-.33.88-.14,1.36.19.49.26.97-.18,1.39-.05.05.02.31.11.4.35.36.23.8.15,1.16-.33,1.44-.22,1.42-.04,2.75.17,1.26.13,2.58,0,3.85-.12,1.04-.2,1.01.06,2.44.14.74-.19,1.51-.2,2.21,0,.69.41,1.5.16,2.19-.18.48-.35.76,0,1.21.15.2.09.6.06.9-.04.44.21.95-.28,1.29.38.36.32.83.27,1.26-.06.64-.19,1.27-.29,1.9.63.61.21,1.38.29,2.06.07.67.02,1.35.02,2.03,0,.1,0,.21,0,.31,0,1.71-.51,2.13-2.13,1.54-.83-.3-1.65-.25-2.41-.12-1.66.28-2.35.36-3.69,0-.19-.05-.41-.08-.6-.05-.43.08-.85.28-1.28.28-.37,0-.74-.23-1.12-.28-.29-.04-.61,0-.9.09-1.05.29-3.15.3-4.2-.01-.09-.03-.19-.1-.27-.08-.53.09-1.08.15-1.59.32-.47.16-.87-.8-1.32-.05-.83.01-1.66.02-2.49.03-.45,0-.71.3-.49.65.34.54.37.97,0,1.49-.09.13.09.46.16.69.04.14.17.33.12.41-.62.89.51,1.91-.21,2.79-.03.04.16.21.16.32-.02.7-.01,1.41-.11,2.1-.19,1.37-.26,2.73.04,4.09.05.24.21.56.11.72-.49.82-.35,1.6-.1,2.46.1.36-.19.82-.18,1.23.07,1.52.2,3.04.3,4.56.02.26.05.54-.02.78-.03.11-.32.25-.45.22-1.37-.38-1.81-.39-3.06-.05-.19.05-.46.14-.59.05-.75-.53-1.59-.23-2.38-.29-.57-.04-1.27.2-1.69-.06-.56-.34-.87.17-1.34.1-.45-.07-.92.11-1.46.02-.8-.14-1.73-.33-2.55.18-.12.07-.34.12-.43.06-1.19-.74-2.63.15-3.82-.6-.13-.08-.45-.03-.57.08-.46.43-1.02.27-1.48.19-1.7-.31-1.7-.34-3.5.02-.2.04-.42,0-.62,0-1.52.13-3.07-.31-4.57.3-.14.06-.37-.07-.55-.15-.54-.23-1.07-.29-1.58.03-.42.27-.72.14-1.08-.17-.55-.46-1.88-.5-2.41-.09-.88.68-1.82.41-2.74.21-.32-.07-.6-.41-.91-.42-.3,0-.61.25-.92.39-.68.3-1.92.28-2.63-.03-.83-.37-1.63-.65-2.56-.14-.36.2-1,.22-1.35.03-.47-.24-.79-.02-1.17.05-.65.12-1.29.67-1.93,0-.68.36-1.19.08-1.84-.23-.48-.23-1.25-.3-1.89.21-.49.4-1.12.51-1.77.04-.41-.3-.98-.3-1.41.07-.29.25-.46.12-.77.06-.85-.16-1.82-.35-2.58-.08-.9.32-1.6.2-2.43-.04-.44-.13-.85-.42-1.49-.09-.57.3-1.46.2-2.14.02-.58-.15-.98-.33-1.4.26-.09.13-.59.17-.69.05-.4-.44-.87-.25-1.31-.26-1.56-.02-3.13,0-4.69-.02-.49,0-1.03.22-1.47-.24-.06-.07-.34.08-.52.11-.29.05-.59.15-.88.13-.61-.04-1.53-.07-1.87.15-.49.31-.83.22-1.2-.18-.12-.13-.46-.29-.49-.26-.56.65-1.1-.03-1.63,0-.74.05-1.53-.32-2.23.27-.15.13-.51.05-.76.01-.43-.08-.85-.28-1.28-.28-.37,0-.75.19-1.12.29-.1.02-.25.05-.31,0-.81-.68-1.62-.09-2.4.03-.57.09-1.11.49-1.54-.25-.06-.11-.45-.16-.56-.07-.6.44-1.27.24-1.91.3-.29.03-.63.03-.86.17-.44.27-.8.22-1.07-.16-.31-.43-.81-.46-1.11-.3-.78.45-1.59.2-2.39.29-.39.04-.82-.17-1.17.22-.07.08-.38.02-.51-.07-.34-.24-.62-.21-.98,0-.23.13-.58.15-.83.07-.22-.07-.38-.34-.56-.53-.19.31-.49.32-.81.32-1.88,0-3.75.01-5.63-.01-1.01-.01-.99,0-1.55.16-.36.1-.89.23-1.13.05-.51-.37-1.1-.33-1.47-.16-.97.44-1.81.02-2.67-.21-.26-.07-.3.04-.45.11-.46.21-.93.3-1.4-.03-.52-.37-1.01-.37-1.5.11-.16.16-.55.35-.63.28-.88-.71-1.71.16-2.58.05-1.51-.19-3.04-.26-4.56-.32-.53-.02-1.05-.08-1.62.23-.42.23-1.2.27-1.75-.16-.07-.06-.2-.11-.27-.08-.44.19-.82.55-1.35.06-.3-.28-.82-.02-1.28-.3-.42-.26-1.19-.25-1.66-.04-.9.41-1.8.2-2.7.27-.21.02-.52-.09-.61.02-.37.43-.63.27-1.03.01-.3-.2-.82.16-1.13-.28-.83.51-1.77.06-2.63.33-.16.05-.21.21-.46.06-.38-.23-.83-.25-1.27.05-.19.13-.66.12-.81-.02-.57-.56-1.03.57-1.65.01-.36-.32-.99-.36-1.5-.48-.11-.03-.25.16-.38.18-.28.03-.57.04-.84,0-.18-.02-.46-.22-.52-.17-.53.55-1.18.23-1.77.26-.59.03-1.16.08-1.77-.25-.45-.24-1.14-.13-1.69-.03-1.93.34-3.84.34-5.59.14-.86-.1-1.75.1-2.63.15-.24.01-.52,0-.73-.11-.53-.28-.99-1.16-.64-1.55.56-.62-.11-1.48.58-1.98.04-.03-.09-.26-.12-.4-.07-.29-.21-.59-.16-.86.1-.52.61-1.09.2-1.54-.43-.48.1-1.17-.51-1.54-.09-.06-.06-.41-.01-.6.14-.53.37-1.01.32-1.59-.04-.53-.17-1.1.27-1.61.15-.18.12-.65,0-.91-.53-1.24-.24-2.52-.28-3.79-.05-1.51,0-3.02-.01-4.53,0-.48-.04-.94-.19-1.42-.09-.31.39-.75.47-1.17.05-.24-.26-.53-.26-.8-.03-.96-.05-1.9-.29-2.85-.12-.47-.27-1.11.19-1.62.13-.15.09-.49.07-.74-.04-.64.02-1.26-.25-1.93-.2-.51.17-1.24.24-1.88.02-.22-.16-.46-.17-.7-.03-.59-.11-1.21,0-1.78.16-.82.33-4.95.05-5.65-.26-.65-.25-1.27-.03-1.9.26-.74.25-1.47,0-2.21-.06-.18-.18-.39-.14-.56.15-.73.32-1.45.32-2.22,0-.75,0-1.51.11-2.27.14-1.09-.12-2.24-.29-3.35-.03-.23-.24-.41-.02-.65.09-.1.11-.27.18-.39.31-.54-.64-.91-.16-1.53.31-.4.23-.9-.13-1.39-.18-.23-.16-.77,0-1.06.53-1.03.22-2.11.28-3.17.06-1.09.08-2.19-.02-3.28-.05-.5-.17-.93-.02-1.48.13-.46.19-1.05-.18-1.62-.24-.36-.16-1.02-.06-1.52.38-2.04.41-2.04-.02-3.81-.11-.45.11-.8.33-1.11.37-.52.34-.94.02-1.49-.17-.29-.72-.74-.05-1.15.05-.03.06-.25.02-.29-.56-.5-.29-1,.02-1.46.27-.41.4-.71.02-1.18-.18-.22,0-.71-.04-1.07-.07-.79.24-1.63-.3-2.38-.07-.1-.04-.31,0-.46.42-2.19.42-2.92,0-4.75-.05-.2-.09-.47,0-.61.49-.77.35-1.47.03-2.27-.16-.39-.21-.97.2-1.46.27-.33.46-.84-.12-1.19-.09-.05-.15-.34-.1-.4.74-.85-.13-2.01.57-2.86-.35-.55-.75-1.27-.52-1.76.29-.62.24-1.19.23-1.78,0-.54.23-1.11-.16-1.65-.09-.13.07-.54.22-.72.3-.36.37-.64.14-1.09-.25-.51-.35-1.11-.49-1.67-.09-.4.15-.66.51-.49,1.08.51,2.21.21,3.32.3.69.06,1.43-.19,2.06.3.06.05.2,0,.31,0,.66.04,1.21-.4,1.91-.35.57.04,1.24.32,1.76-.27.07-.08.32-.06.45,0,1.33.62,2.73.18,4.1.29.33.03.66-.01,1.02-.18.39-.18.96,0,1.45.03.28.02.69.2.82.08.47-.43.99-.17,1.48-.22.34-.04.74-.11.97.29.25-.33.6-.3.96-.3.45,0,1.09.1,1.31-.15.24-.27.08-.88.09-1.34,0-.1,0-.21,0-.43Zm12.69,100.78c-.06.05-.12.1-.18.15.05.05.09.09.14.14.05-.06.1-.12.14-.19,0-.01-.06-.06-.28.33v-.14c-.08.03-.17.04-.24.09-.02.01.03.12.05.19.06-.05.12-.1.37-.57Zm.13-27.84c0,.21-.03.42.01.62.02.11.15.27.25.29.79.12,1.58.32,2.37.3,1.37-.03,2.75.25,4.1-.27.41-.16.93-.05,1.4-.02.49.03.97-.1,1.47.26.23.17.81-.18,1.25-.26.12-.02.27.1.41.14.17.05.37.13.53.1,1.18-.25,1.18-.24,2.43.04.33.07.7-.02,1.04-.07.29-.04.57-.22.85-.19.43.04.85.24,1.28.28.51.06,1.04,0,1.55.05.22.02.56.28.62.22.5-.49,1.09-.17,1.63-.24.84-.12,1.67-.05,2.54-.25,1.17-.27,2.51-.21,3.69.06,1.14.26,2.24.05,3.35.18,1.16-.64,2.42-.23,3.62-.28.51-.02,1.03.37,1.55.42.59.05,1.2-.09,1.81-.13,1-.07,2.03.19,3-.3.17-.08.5-.1.6,0,.53.52,1.18.26,1.76.28.48.01.97.14,1.47-.25.26-.21.88-.15,1.23.25,1.22-.53,2.44-.38,3.66.02.13.04.37.02.43-.06.28-.38.67-.25,1-.23,1.31.07,2.65-.25,3.94.3.62.26,1.13-.36,1.74-.3,1.36.13,2.76-.31,4.1.3.17.08.47.09.61,0,.7-.49,1.48-.25,2.23-.29.52-.03,1.04-.04,1.56,0,.44.03.86-.07,1.33.21.31.18.97-.02,1.37-.24.63-.33,1,.58,1.7.17.47-.28,1.2-.12,1.81-.14.26-.01.53-.04.78.02,1.79.4,1.79.36,3.82.01.55-.09,1.16.26,1.74.26.63,0,1.34-.41,1.89-.24.91.29,1.7.39,2.58-.03.27-.13.69.05,1.03.1.18.03.46.2.52.14.43-.47.98-.27,1.46-.25,1.94.07,3.87.23,5.81.28.58.01,1.17.19,1.78-.24.58-.41,1.21.36,1.87.26.15-.02.33.04.47-.01.91-.37,1.81-.57,2.72,0,.07.04.24.02.29-.03.47-.52,1.07-.22,1.61-.26.59-.05,1.17-.03,1.76.27.57.29,1.14-.26,1.73-.29.16,0,.39-.07.46,0,.47.51,1.07.31,1.6.28,1.11-.06,2.25.31,3.32-.29.12-.06.39-.06.44.02.36.48.88.33,1.29.26.71-.11,1.39-.18,2.09.02.56.16,1.06-.24,1.59-.27.52-.04,1.06.19,1.59.27.13.02.3-.03.42-.11.67-.41,1.48-.33,2.08-.12.51.18.98.22,1.46.22,2.1-.01,4.17-.49,6.28-.31.65.06,1.27.09,1.92.27.56.15,1.25-.19,1.89-.24.28-.02.57.12.85.19.19.04.42.16.57.1.66-.24,1.28-.16,1.94,0,.27.06.6-.04.87-.14.64-.24,1.26-.24,1.9,0,.63.24,1.26.27,1.9-.03.17-.08.38-.11.57-.13.95-.09.96-.09.96-1.01,0-.46.1-.98-.07-1.38-.49-1.1-.09-2.24-.24-3.34.63-.94.32-2.01.25-2.99-.04-.56-.31-1.15-.24-1.75.07-.64-.3-1.34.29-1.9-.5-.39.26-.81,0-1.14-.49-.6-.3-1.28-.28-1.91.02-.79-.25-1.64.3-2.37-.5-.74-.3-1.57-.3-2.37,0-.38-.11-.77.16-1.19.14-.22-.16-.69-.16-1.06,0-.39-.17-.81.22-1.17.12-.12.13-.58,0-.69-.39-.36-.22-.77-.24-1.16-.03-.62-.05-1.25,0-1.87.06-.64-.31-1.35.28-1.91-.53-.51-.24-1.16-.27-1.74-.02-.4.28-.89.13-1.21-.28-.62-.24-1.27-.1-1.8.16-.6-.15-1.09-.04-1.63.03-.14.14-.26.17-.4.06-.24.21-.61.12-.71-.54-.54-.22-1.18-.28-1.77-.06-.57-.05-1.15,0-1.72.05-.59.28-1.17.28-1.75,0-.63-.27-1.27-.27-1.9,0-.63.19-1.27.29-1.9.02-.15.06-.35,0-.46-.43-.71-.35-1.38,0-2.1.09-.19-.01-.5-.08-.73-.29-1.04-.3-2.25,0-3.26.06-.19.16-.47.08-.57-.85-1.07.3-2.3-.29-3.38-.03-.06.01-.22.07-.27.28-.25.24-.44.06-.78-.16-.3-.06-.76-.02-1.14.02-.24.26-.55.17-.69-.55-.86-.21-1.8-.28-2.7-.04-.53-.13-1.09.24-1.57-.56-.69-.18-1.49-.24-2.24-.06-.8-.11-1.61.27-2.38.1-.2-.15-.55-.17-.84-.03-.38-.12-.83.02-1.15.36-.81.29-1.67.1-2.41-.21-.77-.26-1.39,0-2.14.19-.56.25-1.3.05-1.83-.57-1.47-.11-2.95-.28-4.42.69-.78-.26-.58-.36-.49-.5.42-1.07.27-1.61.28-.89.02-1.77,0-2.66,0-.3,0-.66.05-.9-.08-.78-.44-1.7-.38-2.38-.15-.62.21-1.19.18-1.77.21-.31.02-.64-.27-.96-.27-.38,0-.74.22-1.12.28-.23.03-.49-.05-.72-.13-.9-.33-1.81-.13-2.72-.11-.43.89-1.1.22-1.66.26-.44.04-.81-.19-1.32-.06-.78.2-1.72.25-2.47,0-.71-.24-1.39-.15-2.08-.27-.58-.1-.79.5-1.17.56-.33.06-.75-.36-1.13-.54-.05-.03-.17.08-.25.12-.63.31-1.29.32-1.89.02-.73-.36-1.34-.02-2,.15-.68.17-1.3-.65-2.01-.2-.68.43-1.42.22-2.1.15-.27-.03-.64-.18-.97-.27-1.12-.3-2.23.87-3.35.02-.02-.02-.15.14-.24.15-.28.04-.64.17-.83.05-.64-.41-1.4-.36-1.93-.16-.97.37-1.91.18-2.86.25-.4.03-.75-.05-1.15-.26-.29-.15-.82.24-1.25.24-.48,0-1.04.25-1.45-.24-.47.4-1.04.26-1.57.25-.29,0-.57-.14-.86-.17-.38-.04-.77-.05-1.16-.02-.23.02-.46.18-.69.2-.41.03-.83,0-1.25,0s-.83.02-1.25,0c-.4-.02-.84.02-1.19-.14-.43-.19-.69.15-1.05.18-.46.04-.77-.74-1.36-.11-.3.32-.95.06-1.38-.25-.64.71-1.29-.02-1.93,0-.3.01-.61.03-.88.14-.7.31-1.42.23-2.1.1-1.23-.24-1.2-.19-2.44,0-.78.12-1.66.7-2.47-.14-.18-.18-.81-.21-1-.05-.43.38-.89.16-1.32.26-.54.12-1.08-.42-1.41-.26-.5.24-.97.24-1.46.25-.47.01-.94.03-1.41,0-.39-.03-.85-.01-1.15-.21-.54-.35-.77.52-1.25.23-.08-.05-.24.04-.3-.01-.74-.54-1.59-.3-2.38-.29-1.11.02-2.26-.29-3.31.3-.56.31-1.08-.82-1.63-.03-.62,0-1.34.21-1.84-.04-.42-.22-.59.06-.87.06-2.35,0-4.69,0-7.04,0-.25,0-.54-.22-.74-.14-.51.19-.89.2-1.41-.07-.34-.17-.92.15-1.39.21-.12.02-.25-.16-.39-.18-.35-.06-.72-.18-1.04-.11-1.82.39-2.16.4-4.12,0-.32-.06-.72,0-1.02.15-.26.13-.4.14-.67,0-.3-.15-.7-.06-1.02-.19-.36-.14-.58.55-1.03.05-.27-.3-.73.25-1.09.25-.64,0-1.31.22-1.95-.19-.26-.16-.81-.2-1.01-.03-.39.34-.77.23-1.16.24-1.62.02-3.23-.03-4.85.03-.54.02-.96-.3-1.44-.31-.48-.01-.95.22-1.43.27-.22.02-.46-.12-.7-.19-.14-.04-.39-.13-.41-.1-.34.59-.96.14-1.41.41-.42.26-.86-.19-1.35-.13-.67.08-1.35.01-2.03.02-.62,0-1.38-.18-1.82.1-.74.48-1.18-.27-1.84-.16-.86.15-1.83.27-2.68-.25-.11-.07-.39-.07-.45,0-.41.52-.97.2-1.45.3-1.04.22-1.98-.36-3-.32-.47.02-.49,0-.41.64.2,1.64-.4,3.23-.35,4.86-.43.39-.2.71-.06,1.19.29,1,.43,2.09.35,3.12-.05.66-.21,1.26.03,1.94.22.62-.21,1.28-.24,1.9-.02.59-.34,1.16-.11,1.8.24.64-.11,1.39.34,2.06.14.2-.1.65-.17.99-.03.14-.15.35-.1.41.49.56.42,1.07,0,1.64-.09.13-.02.4.03.6.07.28.24.55.26.83.04.62.01,1.25.01,1.88-.75.54.23,1.08,0,1.62-.06.13-.05.29-.1.43-.14.46-.32.91-.43,1.38-.12.52.24.88.45,1.3.1.21-.05.55-.09.83-.05.45-.3,1.03-.11,1.32.39.6.21,1.19.27,1.77.23,2.16-.47,4.28-.32,6.44.01.14-.02.33-.11.41-.3.29-.19.49.03.78.12.16.14.62.04.7-.46.32-.01.51.07.72.37.91.32,1.82.13,2.92-.15.88-.04,1.81-.02,2.72,0,.18.21.4.15.53-.46,1.08-.39,2.12,0,3.21.14.38-.08.88-.14,1.33-.04.29-.04.61-.15.87-.17.39.39.62.14,1.05-.16.28-.11.69-.12,1.04-.02.42,0,.83,0,1.25,0,.21.08.47-.02.61-.56.82-.26,1.59-.01,2.42.1.33.38.67.08,1.17-.18.3.18.92.25,1.4.02.17-.13.35-.19.54-.04.14-.14.36-.09.41.53.47.39,1.12.26,1.6-.3,1.1-.13,2.23-.34,3.31-.1.5-.05,1.02.11,1.29.54.95.11,1.92.27,2.87-.62.72-.19,1.58-.31,2.37.72.88.01,1.67-.15,2.49-.06.28-.2.67-.07.83.54.7.62,1.38.23,2.16-.06.13,0,.31,0,.46Zm-7.97,12.18c-.56-.05-1.04.07-1.08.73-.04.56-.28.79-.85.85-.41.04-.6.56-.31.85.31.31.76.48,1.05.79.28.3-.16,1.07.67,1.05,0-.47.1-.91.56-1.13.3-.14.63-.27.95-.31.43-.06.56-.24.3-.57-.21-.27-.2-.7-.73-.79-.39-.07-.6-.64-.35-1,.28-.41.27-.49-.21-.45Zm-.82-5.8c-.33-.26-.46-.43-.6-.44-.6-.04-1.2.09-1.67-.53-.13-.17-.74-.04-1.11.03-.47.09-.8.52-1.35.51-.34,0-.34.32-.14.55.43.5.66.5,1.59.08.89-.4,1.79-.52,2.72-.15.08.03.19-.01.55-.04Zm19.79,11.09c.98.06,1.54-.11,1.96-.6.09-.1.17-.27.15-.39-.02-.09-.19-.23-.3-.23-.57-.02-1.15-.05-1.71,0-.38.03-.75.19-1.12.3-.09.03-.17.08-.26.12.05.07.09.18.16.22.46.25.93.48,1.11.58Zm-27.59-5.05c.02.26-.02.44.05.56.1.17.28.3.42.44.06-.12.09-.26.17-.37.37-.52.45-1.39,1.42-1.21,0,0,.04-.14.06-.21-.64,0-.54-.74-.96-.95-.05-.02-.21.06-.2.09.04.57-.55.69-.76,1.07-.11.21-.16.45-.2.58Zm59.18,8.63c-.04-.13,0,0,.05.15.11-.07.23-.14.33-.22.23-.21.4-.53.67-.63.45-.17,1.03-.31.67-.85-.31-.47-.8.07-1.19.21-.5.18-.68.57-.53,1.36Zm40.51-7.93c.7.13.97-.43,1.33-.84.04-.05,0-.2-.03-.29-.02-.04-.18-.06-.2-.03-.29.4-.59.49-1.07.23-.25-.13-.58-.07-.58.43,0,.45.19.53.56.49Zm-87.38,8.26c.09-.23.21-.38.21-.53,0-.47-.41-.98-.66-.83-.33.2-.58.52-.87.79.4.17.79.34,1.32.57Zm28.81-1.05c-.12.16-.37.37-.42.62-.08.33.6.74.99.6.12-.04.23-.29.23-.45-.01-.46-.37-.83-.79-.77Zm59.99,2.79c-.11-.21-.22-.55-.29-.54-.32.05-.68.12-.93.32-.14.1-.15.65-.1.67.32.11.67.19,1,.15.12-.01.2-.37.31-.6Zm-17.59-3.32c0-.16.02-.31,0-.47-.03-.19-.09-.38-.13-.57-.15.13-.29.28-.44.4-.39.31-.54.62-.06.98.12.09.21.24.34.32.07.04.28-.01.28-.04.03-.21.01-.41.01-.62Zm-73.21-47.91c.1-.69,0-1.11-.51-1.29-.1-.04-.35.06-.37.14-.16.5.13.84.49,1.14.1.08.21.15.32.22.05-.13.1-.26.07-.21Zm-17.51,31.66s-.09-.07-.11-.12c-.23-.38-.65-.45-.93-.29-.22.12-.28.54-.41.83.2.05.19.52.55.24.23-.18.49-.31.73-.48.07-.05.12-.12.18-.18Zm7.67-21.08c-.07.04-.38.1-.42.25-.11.33.16.39.45.38.07,0,.14.14.21.2.35.29.57,0,.72-.23.25-.37-.2-.44-.36-.6-.08-.08-.29-.01-.6-.01Zm76.18,38.7c-.13-.22-.23-.38-.32-.54-.13-.25-.11-.23-.32-.02-.14.15-.36.22-.5.37-.08.09-.15.36-.11.38.15.1.36.21.51.17.27-.07.51-.25.74-.37Zm27.19-1.02c-.26-.08-.41-.17-.54-.15-.32.07-.62.2-.93.3-.13.05-.26.1-.39.15.13.05.25.11.38.16.25.09.52.27.76.24.19-.02.34-.31.73-.71Zm-106.05-13.74c-.04-.46-.52-.87-.88-.8-.12.02-.29.13-.31.22-.08.4.35.73.92.7.1,0,.2-.09.28-.12Zm2.7,3.26c.05-.08.11-.16.15-.24.06-.12.08-.31.17-.37.21-.14.58.22.71-.22-.24-.03-.49-.04-.71-.11-.17-.06-.31-.22-.49-.29-.05-.02-.25.14-.24.19.06.27.15.54.25.81.03.09.1.16.16.23Zm-4.28-24.95c-.22.6-.36.91-.46,1.24-.02.07.1.25.12.25.25-.05.69.21.68-.29,0-.31-.17-.62-.35-1.19Zm11.01,8.23c-.24-.24-.43-.41-.6-.61-.33-.38-.45.31-.74.14-.03-.02-.14.1-.22.16.18.07.35.15.53.22.23.08.45.18.68.23.09.02.21-.08.34-.14Zm-8.93,28.09c.4-.24.75-.44,1.09-.67.02-.02-.1-.24-.15-.37-.36.18-.73.36-1.08.57-.03.02.07.25.14.48Zm9.85-58.65c-.19-.31-.35-.6-.55-.86-.02-.03-.32.06-.36.15-.14.28.11.94.39,1.01.12.03.29-.16.52-.3Zm-13.89,39.87c.39-.2.74-.36,1.07-.57.04-.02-.06-.27-.1-.41-.24.31-.54-.03-.77.07-.16.07-.29.28-.36.46-.04.09.08.25.16.44Zm22.35,22.12c-.15,0-.31-.02-.46,0-.06.01-.09.12-.14.19.25.14.48.33.74.41.12.04.33-.11.45-.23.04-.04-.05-.31-.15-.36-.11-.07-.3-.02-.45-.02Zm-14.5-30.18c-.32-.36-.5-.57-.69-.78-.15.19-.34.36-.44.57-.03.06.19.32.31.34.2.03.42-.06.82-.14Zm.95,25.71c-.36-.15-.45-.2-.54-.22-.34-.08-.63.03-.78.34-.05.1.07.31.16.42.04.05.23.05.32,0,.26-.14.5-.32.85-.54Zm52.8-1.9c.07-.39.16-.62.12-.82-.02-.12-.29-.33-.35-.3-.21.1-.38.29-.57.45.22.18.43.36.8.67Zm-56.77-32.74c0,.15-.02.31,0,.46.01.06.12.09.19.14.14-.25.33-.48.41-.74.04-.12-.11-.33-.23-.45-.04-.04-.31.05-.36.15-.07.11-.02.3-.02.45Zm61.11,37.68c.23-.18.45-.26.48-.39.08-.35-.18-.43-.46-.37-.16.04-.31.15-.46.23.13.15.26.31.44.53ZM24.32,115.95c-.2-.11-.34-.25-.41-.21-.22.1-.42.27-.62.41.19.14.38.33.59.38.08.02.24-.3.44-.57Zm9.49,65.8c.16-.2.34-.33.35-.46.04-.41-.31-.33-.53-.3-.14.02-.27.19-.4.29.16.13.32.26.57.47Zm81.78,6.77c-.51-.22-.66-.34-.81-.34-.22-.01-.57-.12-.53.3.01.12.23.29.37.3.19.02.39-.09.97-.25Zm-51.21-20.48c-.25.14-.48.23-.48.28.04.26-.23.65.23.76.11.03.36-.1.36-.16,0-.26-.06-.53-.11-.88Zm-49.98-8.33c.1,0,.21.02.3,0,.13-.03.26-.09.39-.14-.07-.07-.12-.15-.2-.21-.12-.1-.2-.36-.43-.11-.08.09-.26.1-.38.16-.08.04-.15.11-.22.16.08.05.15.12.24.14.09.02.2,0,.3,0Zm130.71,24.26c-.11.22-.22.33-.22.45-.02.41.31.3.53.3.13,0,.26-.09.39-.14-.21-.18-.43-.37-.7-.6Zm-90.92-2.55c0,.21-.02.32,0,.41.03.14.1.26.15.39.05-.13.1-.26.16-.39.09-.22.19-.43.26-.66.02-.05-.08-.19-.11-.19-.14.01-.32.02-.4.11-.08.1-.05.28-.06.32Zm-13-5.53c-.22-.11-.33-.22-.45-.22-.41-.02-.3.31-.3.53,0,.13.09.26.14.39.18-.21.37-.43.6-.7ZM15.77,106.06c.04-.1.07-.2.11-.3-.13-.05-.3-.18-.38-.14-.25.12-.47.3-.7.46.13.05.27.15.39.14.2-.02.39-.11.58-.16Zm20.6,62.76c0,.21-.03.32,0,.42.06.17.13.33.23.47.03.04.18-.02.28-.04-.07-.14-.15-.28-.19-.44-.03-.09.02-.21-.01-.3-.05-.15-.13-.28-.2-.42-.05.13-.09.27-.1.3Zm7.67,15.95c-.22-.17-.34-.31-.48-.34-.08-.02-.2.14-.3.22.11.13.19.29.33.37.06.03.22-.11.46-.25Zm-13.88-4.63c-.07-.19-.1-.28-.14-.36-.07.03-.16.04-.21.1-.12.15-.23.3-.31.47-.03.06.05.17.09.25.07-.03.15-.05.21-.09.14-.12.26-.26.36-.36Zm-1.03-5.33c.07.17.14.35.2.52.14-.14.42-.31.39-.41-.04-.19-.26-.35-.4-.52-.06.12-.12.25-.2.41Zm-9.78-1.92c.22-.09.31-.13.4-.17-.14-.27-.29-.55-.43-.82-.05.08-.15.17-.14.24.03.24.11.48.17.74Zm6.1-9.72c-.05-.1-.11-.22-.18-.35-.05.13-.1.26-.16.39-.04.08-.13.15-.15.24-.02.1,0,.21.01.31.14-.04.32-.03.4-.12.08-.1.05-.28.08-.47Zm3.82-1.85c.21-.07.35-.12.48-.16-.14-.07-.27-.18-.42-.2-.13-.02-.28.06-.41.09.12.09.24.19.35.27Zm-9.61-6.6c.14-.15.27-.3.41-.44-.09-.07-.24-.21-.25-.2-.12.11-.23.23-.31.38-.02.04.09.15.16.26Zm113.29,33.59c-.15-.16-.28-.31-.41-.46-.05.13-.18.33-.14.37.11.12.29.17.45.24.01,0,.08-.13.1-.16Zm-15.41-1.94c.36-.09.55-.14.73-.19-.09-.07-.18-.19-.28-.19-.19,0-.38.06-.57.1.04.12.09.23.11.29Zm-49.45-.44c-.21.08-.29.11-.38.15.14.17.28.35.42.52.05-.08.15-.17.14-.24-.03-.15-.12-.29-.18-.43Zm-44.05-14.31c.14-.15.27-.3.41-.44-.09-.07-.24-.21-.25-.2-.12.11-.23.23-.31.38-.02.04.09.15.16.26Zm10.94,11.32c.36-.09.55-.14.73-.19-.09-.07-.18-.19-.28-.19-.19,0-.38.06-.57.1.04.12.09.23.11.29Zm-12.77-21.29c.12-.08.24-.18.37-.27-.14-.04-.28-.11-.41-.1-.15.02-.29.13-.43.19.13.05.27.1.47.17Zm104.18,10.78c.08.12.18.24.27.37.04-.14.11-.28.1-.41-.02-.15-.13-.29-.19-.43-.05.13-.1.27-.17.47Zm-78.66,7.45c-.09-.36-.14-.55-.19-.73-.07.09-.19.18-.19.28,0,.19.06.38.1.57.12-.04.23-.09.29-.11Zm-8.11-7.1c-.12.08-.24.18-.37.27.14.04.28.11.41.1.15-.02.29-.13.43-.19-.13-.05-.27-.1-.47-.17Zm92.21,5.08c-.11-.17-.17-.25-.22-.33-.14.18-.27.35-.41.53.09.03.2.11.26.08.14-.07.25-.19.37-.29Zm-99.97-13.22s-.07.16-.12.27c.09.04.18.12.25.1.1-.03.18-.13.27-.2-.09-.04-.17-.07-.41-.17Zm-7.68-17.2c-.07-.11-.12-.24-.15-.24-.14,0-.27.06-.41.1.04.07.08.19.12.2.14,0,.28-.03.45-.05Zm-2.15-10.53c-.05-.1-.12-.23-.18-.35-.05.08-.15.16-.15.24.01.13.09.26.15.39.05-.08.1-.16.18-.27Zm101.6,37.87c-.17-.02-.31-.06-.45-.05-.04,0-.08.13-.12.2.14.04.27.09.41.1.04,0,.08-.12.15-.24Zm-37.16,12.32c-.12-.08-.21-.18-.28-.17-.13.01-.26.09-.39.15.08.05.16.15.24.15.13,0,.27-.07.43-.12Zm-20.72-12.09c-.12.08-.2.13-.27.18.13.05.26.13.39.15.07,0,.16-.09.24-.15-.12-.06-.25-.13-.35-.18Zm30.42,11.78c-.12-.08-.21-.18-.28-.17-.13.01-.26.09-.39.15.08.05.16.15.24.15.13,0,.27-.07.43-.12Zm-15.65-9.84c-.05-.1-.12-.23-.18-.35-.05.08-.15.16-.15.24.01.13.09.26.15.39.05-.08.1-.16.18-.27Zm-10.19,9.28s-.08.16-.1.27c0,.02.17.11.24.09.1-.03.18-.13.27-.2-.09-.04-.17-.07-.42-.17Zm28.65-9.03c-.1.05-.23.12-.35.18.08.05.16.15.24.15.13-.01.26-.09.39-.15-.08-.05-.16-.1-.27-.18Zm-26.66,7.82c-.12.08-.2.13-.27.18.13.05.26.13.39.15.07,0,.16-.09.24-.15-.12-.06-.25-.13-.35-.18Zm-45.94-55.39c-.07-.11-.12-.24-.15-.24-.14,0-.27.06-.41.1.04.07.08.19.12.2.14,0,.28-.03.45-.05Zm109.4,48.55c-.11.07-.24.12-.24.15,0,.14.06.27.1.41.07-.04.19-.08.2-.12,0-.14-.03-.28-.05-.45Zm-32.61.99c.24-.1.32-.14.41-.17-.09-.07-.17-.17-.27-.2-.07-.02-.17.06-.25.1.05.11.09.22.12.27Zm-72.97-47.14c-.1-.24-.14-.32-.17-.41-.07.09-.17.17-.2.27-.02.07.06.17.1.25.11-.05.22-.09.27-.12Zm22.64,47.34c-.08.12-.18.21-.17.28.01.13.09.26.15.39.05-.08.15-.16.15-.24,0-.13-.07-.27-.12-.43Zm-24.33-26.24c.02-.17.06-.31.05-.45,0-.04-.13-.08-.2-.12-.04.14-.09.27-.1.41,0,.04.12.08.24.15Zm-1.65-5.68s-.07.16-.12.27c.09.04.18.12.25.1.1-.03.18-.13.27-.2-.09-.04-.17-.07-.41-.17Zm-2.42,35.08c.02-.17.06-.31.05-.45,0-.04-.13-.08-.2-.12-.04.14-.09.27-.1.41,0,.04.12.08.24.15Zm65.61-2.22c-.08.12-.18.21-.17.28.01.13.09.26.15.39.05-.08.15-.16.15-.24,0-.13-.07-.27-.12-.43Zm-58.81.73c.24-.1.32-.14.41-.17-.09-.07-.17-.17-.27-.2-.07-.02-.17.06-.25.1.05.11.09.22.12.27Zm-.73-9.61c-.1-.24-.14-.32-.17-.41-.07.09-.17.17-.2.27-.02.07.06.17.1.25.11-.05.22-.09.27-.12Zm.12,2.62c-.08.12-.18.21-.17.28.01.13.09.26.15.39.05-.08.15-.16.15-.24,0-.13-.07-.27-.12-.43Zm10.76,6.77s-.08-.1-.1-.1c-.07.02-.14.06-.21.1.03.03.08.1.1.1.07-.02.14-.06.21-.1Zm56.56,6.3c-.04-.07-.07-.13-.11-.2-.03.03-.1.08-.1.1.02.07.06.14.1.21.03-.03.07-.07.11-.11Zm-16.95-5.88s.08-.08.11-.11c-.07-.03-.14-.08-.21-.1-.03,0-.07.06-.1.1.07.04.14.08.2.11Zm-20.64-.63s.08-.08.11-.11c-.07-.03-.14-.08-.21-.1-.03,0-.07.06-.1.1.07.04.14.08.2.11Zm-43.4-33.84c-.04-.07-.07-.13-.11-.2-.03.03-.1.08-.1.1.02.07.06.14.1.21.03-.03.07-.07.11-.11Zm31.79,36.39s-.1.08-.1.1c.02.07.06.14.1.21.03-.03.1-.08.1-.1-.02-.07-.06-.14-.1-.21Zm66.66-3.49s.08-.08.11-.11c-.07-.03-.14-.08-.21-.1-.03,0-.07.06-.1.1.07.04.14.08.2.11Zm-83.18-6.88s.08-.08.11-.11c-.07-.03-.14-.08-.21-.1-.03,0-.07.06-.1.1.07.04.14.08.2.11Zm2.81,6.57s.08-.08.11-.11c-.07-.03-.14-.08-.21-.1-.03,0-.07.06-.1.1.07.04.14.08.2.11Zm-6.14-44.21s-.08-.1-.1-.1c-.07.02-.14.06-.21.1.03.03.08.1.1.1.07-.02.14-.06.21-.1Zm56.25,50.62s-.08-.08-.11-.11c-.03.07-.08.14-.1.21,0,.03.06.07.1.1.04-.07.08-.14.11-.2Zm-20.33-8.13s-.08-.08-.11-.11c-.03.07-.08.14-.1.21,0,.03.06.07.1.1.04-.07.08-.14.11-.2Zm-45.46-62.34s-.1.08-.1.1c.02.07.06.14.1.21.03-.03.1-.08.1-.1-.02-.07-.06-.14-.1-.21Zm124.58,59.62c-.04-.07-.07-.13-.11-.2-.03.03-.1.08-.1.1.02.07.06.14.1.21.03-.03.07-.07.11-.11Zm-116.71-7.97c-.07.04-.13.07-.2.11.03.03.08.1.1.1.07-.02.14-.06.21-.1-.03-.03-.07-.07-.11-.11Zm2.03,4.22s.08.08.11.11c.03-.07.08-.14.1-.21,0-.03-.06-.07-.1-.1-.04.07-.08.14-.11.2Z" fill="#40BCD0"></path><path d="m82.66,54.99c-.1-1.42.42-2.57.33-3.82-.06-.91-.28-1.79-.32-2.68-.04-.99.25-2,.26-3,0-.84-.18-1.69-.3-2.53,0-.07-.11-.13-.18-.19-.55.79-1.06-.12-1.63-.07-1.5.14-3.02.04-4.53.05-.35,0-.72-.1-.99.27-.06.08-.34.1-.44.03-.71-.49-1.38-.25-2.1-.02-.33.11-.81.18-1.16-.18-.08-.08-.36-.02-.52.04-.74.28-1.47.23-2.21.02-.23-.07-.49-.19-.71-.15-1.11.21-2.04-.35-3.02-.64-.12-.04-.25-.13-.33-.23-.3-.43-.93-2.49-.94-3.05-.04-1.36-.05-1.38,1.09-2.33.4-.33.79-.63,1.1-1.08.27-.39.79-.58,1.16-.91.52-.46,1.04-.87,1.68-1.21.75-.4,1.21-1.35,1.96-1.71.68-.32,1.55-.47,2.08-.97.93-.89,2.23-1.41,2.8-2.7.1-.23.47-.34.71-.51.44-.31.89-.63,1.33-.94.56-.39,1.29-.46,1.76-1.09.38-.5.98-.84,1.51-1.23.15-.11.36-.18.54-.18.35,0,.39-.16.43-.47.08-.6.47-.95,1.06-1.11.56-.15.69-.28,1.19-.84.07-.08.14-.15.22-.22.57-.54,1.49-.46,1.97-1.28.42-.71,1.13-1.3,1.93-1.69.39-.19.75-.44,1.14-.65.4-.22.73-.47,1.06-.83.54-.59,1.44-.84,2.05-1.38.53-.47,1.4-.49,1.65-1.39.09-.32.79-.48,1.24-.67.48-.2.81-.38.94-1.01.08-.39.71-.77,1.17-.93.34-.12.67-.16.91-.46,1.22-1.52,3.03-2.23,4.57-3.31.97-.68,2.04-1.21,2.68-2.27.06-.11.23-.26.31-.24.72.21.93-.3,1.24-.76.37-.56.96-.85,1.56-1.13.35-.16.77-.28,1.01-.55.61-.67,1.36-.44,2.02-.32.92.17,2.98,1.4,3.66,2.08.53.53.9,1.24,1.47,1.71.55.45,1.32.61,1.9,1.04.85.63,1.6,1.41,2.43,2.07.53.43,1.14.77,1.7,1.16.56.39.93,1.04,1.75,1.08.35.02.72.26.76.73,1.37.78,2.16,2.39,3.9,2.69.25.04.67.19.82.7.1.34.43.81.88,1.07.39.22.66.65,1.04.91.4.27.84.49,1.3.62.59.17.91.58,1.29,1.01.49.56,1.13.99,1.73,1.45.47.36.96.91,1.46.94.81.04.99.81,1.62,1.04.53.19.85.95,1.38,1.2,1.3.63,2.19,1.83,3.55,2.37.37.15.7.37.99.79.89,1.28,1.98,2.4,3.6,2.79.14.03.33.05.4.15.6.87,1.74,1.19,2.21,2.18,1.22.44,1.69,2.06,3.21,2.05.92.85,2.41,1.06,2.86,2.47,1.24,1,1.05,2.24.38,3.38-.3.51.14,1.17-.49,1.53-.13.07-.17.4-.28.42-.83.14-1.51.64-2.3.87-.09.03-.22.11-.27.08-.97-.6-2.11.55-3.05-.3-.75.1-1.53-.21-2.27.18-.21.11-.48.13-.73.13-1.35.01-2.71.02-4.06,0-.29,0-.57-.15-.85-.19-.35-.05-.76-.21-1.04-.08-.88.4-1.71.45-2.58-.01-.06-.03-.38.19-.38.29,0,.61-.09,1.18-.32,1.75-.15.36-.07.76-.06,1.14.01.99.22,1.99-.21,3.02-.36.87.05,1.87.36,2.78.03.09.18.14.21.23.04.15.01.31.01.46,0,.16.07.38-.01.46-.79.81.13,1.92-.53,2.76-.2.26-.28.61-.4.92-.18.49-.19,1.21-.54,1.44-.58.39-1.35.5-2.05.66-.77.18-1.56.27-2.34.41-.11.02-.3.15-.32.12-.29-.34-.68-.18-1.02-.2-.47-.02-.94,0-1.41,0-.52,0-1.17.19-1.53-.05-.51-.34-.78.21-1.19.07-.32-.11-.66.03-1.01-.25-.21-.17-.74-.15-1.01,0-.59.33-1.11.24-1.71.06-.31-.09-.75.23-1.05.13-.62-.19-1.11-.26-1.8-.04-.63.2-1.44.15-2.24-.13-.79-.28-1.8-.37-2.64.2-.34.23-.64.26-1,.01-.14-.1-.48-.1-.6,0-.47.4-.88.01-1.32.01-2.36,0-4.69-.59-7.06-.34-.53.06-1.06.27-1.59.29-.51.02-1.13-.33-1.53-.15-.58.27-1.12.14-1.65.14-.58,0-1.24.28-1.75-.28-.05-.05-.21-.03-.3,0-.38.1-.75.28-1.12.29-.32,0-.64-.27-.96-.27-.69,0-1.38-.09-2.08.25-.39.19-1.06-.27-1.51-.12-.52.17-.88.17-1.41-.01-.52-.18-1.18-.06-1.77.02-.37.05-.86.5-1.04.38-.78-.51-1.68.04-2.46-.4-.48-.27-1.05-.28-1.58.05-.19.12-.58.2-.71.09-.81-.67-1.66-1.33-2.33-2.13-.45-.54-1.06-1.18-.64-1.86Zm30.32-16.08c0,.47.01.83,0,1.19-.02.3.06.56.39.45.21-.07.51-.17.42-.59-.22-1.04-.06-1.49.79-2.19.18-.15.37-.15.06-.32-.08-.05-.21,0-.29-.04-.84-.43-.91-.6-.75-1.72v-1.06c-.59.06-.13.63-.37.82-.56.47-.82.9-.06,1.42.09.06.15.36.1.4-.6.5-.15,1.17-.3,1.64Zm-2.75,3.67c-.12-.39-.14-.9-.4-1.19-.42-.46-.97-.83-1.53-1.11-.22-.11-.77-.27-.92.19-.08.26-.23.79.43.72.03,0,.11.07.11.09-.14,1.01.58.91,1.15.82.62-.09.36.5.64.66.12.07.22.18.33.28.06-.13.11-.26.2-.46Zm3.87-12.64c-1.11-.04-1.2.03-1.61.95-.25.56-.08,1.08.39,1.23.43.14.93-.09,1-.64.07-.46.21-.74.61-.93.11-.05.22-.12.32-.19-.11-.11-.2-.25-.33-.32-.17-.08-.37-.11-.39-.11Zm-3.31,2.11c0-.15.02-.26,0-.36-.05-.17-.13-.34-.2-.51-.17.08-.37.14-.51.26-.39.32-.76.94-1.14.94-.81,0-.64.46-.64.89,0,.13.09.27.14.4.18-.06.37-.1.53-.2.37-.23.51-.82,1.09-.72.62.1.86-.14.74-.7Zm11.62,2.1c-.11.21-.23.37-.27.56-.02.09.08.25.16.32.32.25.72.37.87.85.12.4.6.42.91.27.31-.14.56-.44.46-.87-.09-.38-.3-.6-.71-.65-.43-.05-.93.2-1.43-.47Zm-7.72,7.68c-.15.15-.38.27-.42.44-.05.26-.22.68.18.78.81.21.38.49.1.81-.05.06,0,.2,0,.3.11,0,.22,0,.33-.02.19-.04.37-.13.56-.13.76-.03.05-.89.6-1.03-.19-.18-.34-.43-.57-.52-.25-.1-.65.11-.62-.42,0-.07-.1-.14-.16-.21Zm-10.46-8.33c0-.32.01-.58,0-.84,0-.07-.11-.14-.17-.21-.05.08-.13.17-.13.25,0,.58-.63.34-.86.7-.34.54.52.76.23,1.24-.12.2-.17.45-.23.68-.02.06.01.19.05.21.09.04.23.07.29.02.71-.54.89-1.28.82-2.06Zm11.44-7.65c.07-.07.14-.15.22-.22.51-.41,1.01-.81,1.52-1.21l.58-1.03c-.08-.11-.14-.29-.23-.31-.12-.02-.38.11-.38.14.12.56-.21.77-.66.97-.4.18-.52.77-1.09.79-.06,0-.11.44-.14.69,0,.06.11.13.17.19Zm-9.87,5.01c0,.16-.01.31,0,.47.02.14.06.29.1.43.11-.07.25-.12.33-.22.2-.28.33-.62.57-.85.25-.23.76-.17.8-.68-.41-.02-.81-.05-1.22-.07-.05,0-.1,0-.16,0-.35-.04-.45.14-.42.46.02.15,0,.31,0,.47Zm12.96,12.22c-.07-.58-.09-.92-.15-1.25-.02-.12-.14-.22-.22-.33-.13.1-.33.18-.39.32-.15.35-.33.6-.75.63-.17.01-.33.11-.49.17.19.04.4.05.56.14.26.14.46.37.72.5.14.07.37.05.52-.01.14-.06.24-.23.19-.17Zm3.27-15.34c-.08.02-.5.02-.52.13-.06.25-.02.6.12.82.22.36.46.41.45-.15,0,0,.2-.01.3-.02-.03.47.1.57.44.19.07-.08.15-.14.22-.22.22-.23.1-.69-.21-.74-.2-.03-.41,0-.79,0Zm-6.83,6.02c.47-.1.87-.16,1.25-.27.11-.03.18-.21.26-.32-.09-.04-.17-.1-.26-.12-.68-.13-1.44.27-2.07-.29,0,0-.24.19-.31.32-.04.08,0,.29.07.31.36.14.73.25,1.06.36Zm-6.5,5.06c.21-.43.41-.74.52-1.08.05-.16-.03-.38-.1-.56-.02-.05-.19-.08-.27-.05-.26.1-.61.17-.74.37-.13.19-.11.56-.02.8.07.19.34.31.6.52Zm11.79-6.79c0,.43,0,.48,0,.53-.02.27,0,.55.36.47.11-.02.24-.27.25-.43.05-.58-.12-1.2.32-1.71.03-.04-.04-.18-.07-.27-.11.06-.27.08-.32.17-.24.51-.46,1.03-.55,1.23Zm-3.75,6.72c0-.05.02-.14,0-.15-.37-.18-.73-.43-1.12-.48-.14-.02-.6.35-.41.7.11.21.34.73.77.19.08-.1.4,0,.6-.03.07-.01.11-.15.17-.22Zm-1.13,8.66c-.09.04-.27.11-.44.19.11.21.17.48.34.61.17.13.45.15.69.15.18,0,.35-.1.53-.15-.14-.25-.24-.53-.44-.72-.11-.11-.38-.05-.68-.08Zm-16.08-6.07c-.07-.05-.14-.16-.2-.15-.61.06-.34-.66-.73-.81-.11-.04-.15-.25-.23-.39-.14.15-.41.38-.38.44.18.35.4.7.68.95.15.13.47.07.72.09.03,0,.07-.07.13-.13Zm12.9-.02c-.13-.15-.24-.38-.41-.44-.23-.08-.5-.03-.76-.02-.24.02-.48.06-.72.1.12.45.51.08.71.22.2.15.35.37.56.52.1.08.3.12.4.07.1-.05.13-.24.23-.45Zm-11.02,4.55c.05,0,.11.02.15,0,.16-.07.31-.15.47-.23-.1-.13-.19-.28-.31-.39-.14-.12-.31-.28-.48-.3-.23-.03-.48.05-.72.09.14.28.26.58.45.82.05.07.29.01.44.01Zm-2.84-11.02s-.25-.24-.27-.22c-.23.21-.44.45-.65.69.16.08.31.19.47.23.45.1.5-.18.45-.69Zm7.75,2.57c.09.3.14.44.18.58.07-.13.12-.29.22-.39.34-.31.41-.65.21-1.05,0-.02-.09-.03-.1-.02-.19.32-.37.64-.51.88Zm13.36-7.76c-.2-.19-.36-.36-.37-.35-.25.19-.48.4-.7.63-.01.01.2.29.22.28.27-.16.52-.34.86-.56Zm-5.6-3.46c.27-.03.49-.02.65-.1.08-.04.15-.29.1-.39-.27-.58-.75.45-1.04-.13-.07.05-.17.08-.19.15-.03.09-.04.26.01.28.16.09.35.14.47.18Zm-7.04.76c-.1-.06-.18-.14-.26-.16-.15-.02-.33-.06-.45,0-.2.12-.37.31-.55.46.23.05.48.18.69.13.21-.05.38-.28.57-.44Zm.62,8.59c.08-.01.32-.05.55-.09-.03-.07-.06-.14-.09-.21-.32.14-.63-.56-.96,0-.03.05-.19,0-.29.01-.04,0-.11.08-.1.1.03.07.07.19.12.2.2.02.4,0,.77,0Zm14.09,9.28c-.3-.18-.52-.34-.76-.46-.04-.02-.13.07-.2.1.14.24.28.48.42.72.15-.1.29-.2.54-.36Zm-16.46-5.88c-.25-.2-.46-.36-.67-.53-.03.19-.12.39-.08.56.03.13.22.25.37.3.05.02.18-.16.37-.33Zm14.49-6.68c.2-.22.38-.35.36-.4-.06-.15-.18-.28-.31-.38-.03-.02-.28.15-.28.23,0,.15.11.29.23.55Zm.69,4.52c0-.19.04-.34,0-.38-.13-.11-.3-.16-.46-.24,0,.11-.01.22.01.32.02.09.1.16.14.24.06.12.11.24.17.36.06-.13.12-.25.15-.3Zm-27.47,1.79c-.07-.18-.13-.35-.2-.52-.14.13-.42.3-.39.4.04.19.25.35.39.53.06-.12.12-.25.2-.4Zm28.77.26c.14-.25.28-.41.25-.46-.08-.13-.24-.22-.37-.33-.08.1-.24.23-.22.3.04.14.18.26.34.48Zm-21.86-13.97c.17-.4.25-.53.23-.56-.1-.13-.24-.22-.36-.33-.05.08-.16.18-.15.25.05.18.15.35.28.64Zm14.77,25.05c-.14.19-.28.36-.41.54.09.04.21.12.25.1.13-.1.24-.23.32-.37.02-.04-.09-.15-.15-.27Zm-11.68-22.68c-.08-.21-.11-.3-.14-.38-.18.14-.35.27-.53.41.08.05.17.16.23.15.15-.03.3-.11.44-.17Zm-6.6,3.78c-.09-.06-.2-.17-.25-.15-.14.07-.27.18-.38.31-.02.02.12.17.19.26.14-.14.29-.28.43-.42Zm.47,5.4c.16-.15.3-.28.45-.41-.13-.05-.33-.18-.37-.14-.12.11-.17.29-.24.45,0,.01.12.08.16.1Zm26.26,7.63c.24-.1.32-.14.41-.17-.09-.07-.17-.17-.27-.2-.07-.02-.17.06-.25.1.05.11.09.22.12.27Zm-25.12-.84s-.16-.08-.27-.1c-.02,0-.11.17-.09.24.03.1.13.18.2.27.04-.09.07-.17.17-.42Zm13.68-15.55c-.07-.11-.12-.24-.15-.24-.14,0-.27.06-.41.1.04.07.08.19.12.2.14,0,.28-.03.45-.05Zm14.37,13.55c.08.12.13.2.18.27.05-.13.13-.26.15-.39,0-.07-.09-.16-.15-.24-.06.12-.13.25-.18.35Zm-7.1-8.95s-.16-.08-.27-.1c-.02,0-.11.17-.09.24.03.1.13.18.2.27.04-.09.07-.17.17-.42Zm-2.82.3c-.1-.24-.14-.32-.17-.41-.07.09-.17.17-.2.27-.02.07.06.17.1.25.11-.05.22-.09.27-.12Zm8.27-1.76s.08-.08.11-.11c-.07-.03-.14-.08-.21-.1-.03,0-.07.06-.1.1.07.04.14.08.2.11Zm-31.47-.42s-.08-.1-.1-.1c-.07.02-.14.06-.21.1.03.03.08.1.1.1.07-.02.14-.06.21-.1Zm9.02-.67s-.08-.08-.11-.11c-.03.07-.08.14-.1.21,0,.03.06.07.1.1.04-.07.08-.14.11-.2Zm18.81,10.68s-.08-.1-.1-.1c-.07.02-.14.06-.21.1.03.03.08.1.1.1.07-.02.14-.06.21-.1Zm-10.79-15.17s-.1.08-.1.1c.02.07.06.14.1.21.03-.03.1-.08.1-.1-.02-.07-.06-.14-.1-.21Zm-15.75,25.44c.04.07.07.13.11.2.03-.03.1-.08.1-.1-.02-.07-.06-.14-.1-.21-.03.03-.07.07-.11.11Zm27.16-3.08s-.08-.1-.1-.1c-.07.02-.14.06-.21.1.03.03.08.1.1.1.07-.02.14-.06.21-.1Z" fill="#40BCD0"></path><path d="m71.07,123.99c.09,1.03-.01,2.17.24,3.35.19.86.44,1.94-.23,2.83-.05.07.07.27.1.41.07.23.26.55.17.69-.5.76-.2,1.59-.29,2.39-.07.64.08,1.27-.26,1.93-.21.41.03,1.08.13,1.62.11.59.31,1.13-.15,1.71-.36.45-.55,1.1-.59,1.6-.08.94-.62,1.47-1.3,1.77-.78.35-1.01,1.24-1.86,1.5-.73.22-1.41.62-2.1.96-.13.06-.23.22-.36.26-.14.05-.35.07-.46,0-.8-.49-1.63.33-2.5-.15-.65-.36-1.52-.4-2.3-.44-.47-.03-.8-.14-1.06-.49-.31-.42-.84-.56-1.12-1.07-.3-.52-.98-.84-1.26-1.36-.24-.46-.68-.71-.94-1.13-.25-.41-.46-.74-.46-1.23,0-.64.05-1.27-.26-1.92-.29-.6.33-3.1.69-4.06,1-2.66,3.33-3.69,5.66-4.68.58-.25.83-.46.81-1.05-.02-.62-.04-1.25,0-1.87.04-.48.31-.97.27-1.43-.04-.42-.37-.81-.28-1.28.09-.48-.24-1.05.31-1.43-.15-.46-.3-.92-.44-1.38-.07-.23-.25-.56-.16-.69.46-.66.23-1.38.29-2.07.03-.41-.12-1,.09-1.19.48-.44-.3-.55-.11-.9.21-.4-.26-.75-.26-1.11,0-.54-.25-1.12.18-1.64.17-.21.17-1.94.1-2.35-.17-1.13.11-2.23.37-3.3.11-.45.46-.95.72-1.4.25-.43.83-.68,1.27-1,.14-.1.41-.16.43-.27.12-.59.53-.61,1.02-.7.36-.06.63-.52,1.03-.01.08.11.49.03.71-.06,1.29-.54,2.59-.98,4.03-.86.41.03.95-.4,1.25-.25.76.38,1.41-.19,2.11-.04.46-.62,1.47-.01,1.85-.85.04-.1.46-.16.56-.07.53.48.87.22,1.26-.19.11-.12.38-.16.56-.13,1.35.23,2.54-.32,3.75-.76.17-.06.46-.2.52-.14.48.55.88.12,1.34-.03,1.03-.34,2.07-.65,3.17-.64,1.1,0,2.19.05,3.23-.52.4-.22,1.08.07,1.5-.14.54-.28,1.06-.31,1.61-.26.48.04,1.02.08,1.42.33.58.36,1.25.54,1.8.94.41.29.8.6,1.18.92.1.08.21.24.2.35-.1,1.23.54,2.38.34,3.63-.06.37.06.76.2,1.16.22.63.21,1.37-.06,2.09-.22.59-.59,1.16-.47,1.84.13.72.28,1.44.43,2.16.05.24.25.52.17.69-.6,1.34-.19,2.74-.27,4.1-.03.47.31.97.26,1.43-.05.45-.38.86.02,1.32.08.09,0,.4-.09.56-.29.58-.31,1.12.02,1.7.11.2.18.56.08.73-.47.77-.08,1.49-.03,2.26.08,1.2-.16,2.41-.26,3.62-.83.75-.15,1.58.07,2.21.29.83.28,1.56.09,2.34-.35,1.48-.85,2.9-1.87,4.07-.1.95-.85,1.45-1.44,2.06-.14.15-.27.33-.45.44-.71.42-1.69.19-2.26.96-.83-.01-1.68.08-2.48-.08-.64-.13-1.19.21-1.8.1-.41-.07-.79-.02-1.09-.43-.23-.32-.65-.41-1-.58-1.12-.55-2.3-1.15-2.79-2.43-.47-1.22-1.3-2.24-1.6-3.56-.36-1.56-.37-2.59.24-4.04.28-.66.77-1.24.8-2.02,0-.22.16-.48.33-.63.36-.33.96-.53,1.12-.92.22-.53.64-.78.96-1.16.11-.13.35-.19.54-.19.87,0,1.65-.23,2.33-.81.13-.11.39-.06.56-.15.14-.07.34-.25.33-.36-.15-1.31.33-2.65-.26-3.95-.19-.42,0-1.01.04-1.52,0-.11.11-.22.16-.33-.14-.01-.29-.07-.42-.03-.23.06-.44.25-.67.26-.95.05-1.88-.08-2.75.58-.37.28-1.22-.08-1.61.2-.57.4-1.34-.21-1.71.41-.4.68-1.21.11-1.63.64-.07.08-.29.05-.43.06-1.1.11-2.23.12-3.3.34-.79.17-1.57.35-2.38.28-.82-.07-1.53.47-2.37.34-.51-.08-.76.28-.78.87-.02.89,0,1.77,0,2.79Zm10.48-6.81s-.1.08-.1.1c.02.07.06.14.1.21.03-.03.1-.08.1-.1-.02-.07-.06-.14-.1-.21Zm-17.4-1.05c-.04-.07-.07-.13-.11-.2-.03.03-.1.08-.1.1.02.07.06.14.1.21.03-.03.07-.07.11-.11Z" fill="#40BCD0"></path><path d="m113.29,104.59c.13-.41.39-1.15.57-1.9.2-.83.56-1.35,1.51-1.14.49-.43,1.08.11,1.68-.26.45-.28,1.22-.05,1.84-.06.2,0,.44,0,.58-.1.38-.3.69-.1,1.08-.04.89.13,1.82.11,2.71-.03.33-.05.48-.05.77.09,1.28.62,2.63.47,3.98.22.92-.17,1.82-.49,2.78-.47.54.01,1.08.57,1.62.01,1.41.71,3.02-.1,4.45.57.13.06.41-.02.52-.13.59-.65,1.23-.57,1.93-.23.13.06.33.15.42.09.81-.53,1.6-.1,2.41,0,.58.06,1.23.2,1.74-.29,1,.14,2.04-.27,3.02.27.24.13.61.01.92.05.49.06.86-.69,1.39-.21.46.41.99.12,1.48.21.49.09,1.04-.24,1.47.23.59-.35,1.24-.27,1.87-.21.55.06,1.02.19,1.56-.18.33-.22.9-.22,1.33-.13,1.6.3,1.59.33,3.18-.01.2-.04.48-.09.61,0,.94.67,2.09-.03,3.07.54.6.34,1.22.61,1.73,1.12.47.48.29,1.3.96,1.65.04.02,0,.2,0,.3,0,.1.02.28-.02.29-.92.35-.29,1.48-.99,1.95-.33.22-.62.5-.96.7-.72.41-2.98.64-3.71.42-.19-.05-.4-.12-.58-.09-.48.07-.96.18-1.43.31-.44.12-.79-.3-1.32-.05-.71.34-1.45-.17-2.15-.39-.31-.1-.46-.24-.78,0-.21.15-.59.14-.88.12-1.41-.14-2.86.33-4.24-.28-.45.56-.85.14-1.32.02-.37-.1-.84.19-1.27.27-.39.07-.8-.11-1.15.29-.11.13-.53.11-.75.02-1.34-.6-2.73-.18-4.1-.29-.22-.02-.46.19-.69.2-.59.02-1.27.16-1.77-.07-1.52-.68-2.97-.51-4.45.04-.18.07-.46.19-.56.11-.89-.68-2,.02-2.93-.49-.25-.14-.86.27-1.02.12-.53-.49-.54.19-.8.26-.09.03-.18.07-.26.12-.47.32-.73-.62-1.23-.2-.35.29-.72.33-1.07-.04-.03-.03-.08-.06-.13-.07-.76-.09-1.5.26-2.21.25-.7-.02-1.31-.4-2.12-.02-.54.26-1.4.29-2.07-.12-.08-.05-.17-.1-.27-.11-1.15-.11-2.32-.33-3.46-.27-.8.04-1.39-.28-1.9-.7-.32-.26-.41-.82-.56-1.26-.06-.19-.01-.41-.01-.98Z" fill="#40BCD0"></path><path d="m120.51,115.93c1.41,0,2.51-.2,3.49.05,1.33.33,2.63.21,3.94.26.39.01.75-.03,1.15-.23.35-.17.86-.35,1.44-.12.59.23,1.34.03,2.01.06.39.02.8-.16,1.17.21.13.13.56.15.7.03.61-.51,1.41-.41,1.91-.19.7.3,1.21-.12,1.8-.07.07,0,1.15-.06,1.22-.05.46.02.92.04,1.38.06.51.02,1.16-.15,1.51.1.53.37.79-.5,1.2-.1,1.43-.75,2.82,0,4.21.18.37.05.44-.25.74-.2,1.2.19,2.45-.3,3.62.32.15.08.43.03.58-.06.53-.31.96-.31,1.52.03.31.19.88.18,1.26-.27.43-.51.94-.35,1.49-.08.43.21.92.66,1.42.08h5c.76.84,2.38.69,2.54,2.21.8.76.79,1.53.02,2.3.07.92-.26,1.56-1.19,1.83-.14.04-.27.24-.37.21-.89-.2-1.67.33-2.53.34-.61,0-1.18-.09-1.74-.3-.51.58-1.17.27-1.75.27-2.04.02-4.06-.51-6.12-.29-.49.05-1.02-.2-1.47.25-.06.06-.41-.21-.62-.22-.78-.04-1.56-.08-2.33-.01-.69.06-1.43-.32-2.08.27-.14.13-.54.11-.76,0-1.28-.6-2.64-.33-3.93-.23-.72.06-1.54.43-2.2.2-1.17-.4-2.32-.2-3.48-.25-.38-.02-.79-.14-1.16.23-.17.16-.6.12-.89.06-2.02-.41-2.98-.33-4.75-.04-.87.14-1.81.21-2.72-.12-.43-.16-.97-.05-1.46-.02-.24.01-.47.2-.7.18-.43-.05-.88-.34-1.27-.25-.37.08-.71.28-1.13.28-1.51,0-2.99-.35-4.48-.49-.24-.02-.51.18-.75.15-.28-.03-.54-.26-.81-.28-.47-.03-.87-.06-1.23-.46-.41-.44-.47-1.01-.58-1.48-.21-.98.17-1.94.51-2.88.3-.84.82-1.13,1.7-1.16,1.78-.07,3.54-.5,4.96-.29Z" fill="#40BCD0"></path><path d="m113.29,133.97c.12-.4.36-1.14.57-1.89.25-.86.8-1.19,1.69-1.16.69.02,1.39.16,2.07-.27.53-.34,1.11.24,1.78.04.55-.16,1.31-.33,1.9.23.14.13.54.11.75,0,.97-.47,1.91-.42,2.87,0,.17.08.41.01.62.01,1.2,0,2.43.18,3.58-.06.91-.19,1.79-.25,2.69-.24.69,0,1.43-.21,2.06.3.03.03.1.01.15,0,.63-.1,1.27-.29,1.9-.29.58,0,1.23.4,1.73.24.6-.2,1.17-.23,1.76-.26.36-.02.69.01.95.29.24-.39.63-.31.97-.27.49.05,1.03-.22,1.46.25.06.07.3.05.41-.01.92-.54,1.95-.3,2.86-.18.74.1,1.33.84,1.62,1.65.11.32.15.68.34.95.63.92.25,1.7-.3,2.45-.52.7-1.32,1.02-2.03,1.48-.46.3-.98.44-1.27.25-.72-.46-1.29-.34-1.96.02-.2.11-.55-.06-.76.03-.67.3-1.19-.55-1.98-.11-.56.31-1.41.09-2.14.1-.73,0-1.46.03-2.18,0-1.16-.05-2.28-.47-3.46-.31-.44.06-.93-.19-1.3.29-.06.08-.33-.03-.44.03-.48.28-.77-.67-1.38-.14-.31.26-.98.12-1.49.12-.49,0-.96,0-1.46-.25-.34-.16-.87.39-1.41.26-.43-.1-.91.16-1.32-.25-.08-.09-.51.25-.76.23-1.31-.13-2.63.26-3.95-.24-.68-.26-1.54-.05-2.32-.06-1.55-.02-2.85-1.32-2.83-3.22Z" fill="#40BCD0"></path></svg> 