<?xml version="1.0" encoding="UTF-8"?> <svg xmlns="http://www.w3.org/2000/svg" id="a" viewBox="0 0 200 200"><path d="m3.83,194.66c-.12-.57.25-1.31-.3-1.96-.09-.11-.06-.46.05-.58.4-.43.38-.8-.03-1.2-.05-.05-.05-.2-.03-.29.09-.43.29-.85.29-1.28s-.22-.85-.28-1.28c-.03-.23,0-.52.12-.72.29-.54.24-1.05.04-1.59-.08-.23-.25-.56-.15-.7.47-.71-.35-1.46.15-2.2.22-.33.27-.95.11-1.33-.38-.89-.19-1.67-.04-2.58.16-.95.38-2.04-.17-3.01-.09-.16-.1-.41-.06-.59.06-.28.28-.54.28-.81,0-.27-.27-.54-.27-.81s.26-.54.28-.81c.04-.78.06-1.57,0-2.34-.06-.74.3-1.55-.29-2.22-.05-.06-.03-.21,0-.31.08-.32.35-.78.24-.92-.29-.33-.26-.67-.23-1.01.08-.85.25-1.68.29-2.53.02-.48.2-1.01-.26-1.46-.11-.11-.05-.54.08-.7.26-.31.26-.49-.02-.78-.58-.6.38-1.13.1-1.81-.21-.52-.23-1.2-.11-1.77.25-1.24.29-1.23-.06-2.75-.07-.33-.05-.73.09-1.04.26-.59.29-1.12-.01-1.71-.13-.25-.21-.68-.08-.88.41-.62.1-1.33.33-1.9.26-.66-.18-1.18-.07-1.79.07-.39-.26-.85-.26-1.27,0-.43.29-.86.27-1.28-.04-.79.1-1.56-.22-2.4-.25-.66-.27-1.59.16-2.38.4-.74-.28-1.46-.21-2.18.07-.67.58-1.37.17-2.01-.29-.45.09-.63.07-.89-.04-1.01.34-2.06-.19-3.03-.02-.04-.08-.09-.08-.12.1-.48.56-.97.28-1.42-.28-.44-.31-.85-.27-1.3.06-.79-.12-1.58.25-2.4.19-.4.21-1.07-.12-1.63-.19-.31-.27-.87-.11-1.17.45-.89.29-1.8.26-2.7-.04-1.21.19-2.42-.24-3.64-.19-.54-.29-1.31.19-1.92.1-.13.12-.42.06-.59-.69-1.81-.18-3.67-.26-5.51-.02-.48.34-1.03.26-1.59-.06-.49-.04-.95-.23-1.46-.21-.58-.28-1.39.12-2.08.12-.21.07-.58-.03-.83-.29-.74-.26-1.49-.02-2.21.22-.65.26-1.27,0-1.9-.23-.53-.12-1.03,0-1.59.16-.81.7-1.55.22-2.52-.29-.58-.05-1.43-.05-2.16,0-1.15.02-2.29,0-3.44-.02-.59.02-1.16-.24-1.77-.23-.53-.02-1.3.12-1.94.06-.25.12-.4,0-.66-.14-.3-.22-.7-.15-1.02.4-1.98.33-2.48.03-4.44-.12-.76-.31-1.63.17-2.41.1-.15.09-.39.1-.58,0-1.15.03-2.29-.01-3.44-.01-.38-.27-.75-.28-1.12,0-.42.36-.98.19-1.22-.31-.46-.16-.9-.19-1.33-.02-.23.06-.51.19-.69.2-.28,0-.43-.07-.66-.11-.35-.1-.79,0-1.14.08-.24.21-.37.06-.66-.15-.29-.31-.79-.17-.99.32-.46.31-.77-.02-1.18-.09-.11-.04-.47.08-.57.88-.77.32-1.7.14-2.45-.19-.77-.23-1.38,0-2.14.2-.67.07-1.43.09-2.16-.82-.75,0-1.5.04-2.24.01-.28.33-.45.08-.9-.24-.44.07-1.22-.2-1.62-.39-.57-.19-.91.07-1.35.05-.08.02-.21,0-.31-.09-.45-.63-.8-.14-1.37.26-.3.25-.83.36-1.25.02-.09.12-.24.09-.26-.66-.57,0-1.31-.27-1.98-.25-.62.14-1.41-.34-2.05-.1-.14-.08-.43,0-.61.63-1.54.14-3.15.31-4.72.03-.33-.28-.61-.27-.81.02-.69-.28-1.43.18-2.1.12-.18.14-.51.08-.74-.16-.52-.52-1.08-.27-1.58.28-.56-.13-.99-.03-1.48.1-.53-.24-1.14.31-1.6.05-.04.05-.25,0-.3-.37-.32-.52-.76-.14-1.03.17-.12.73.15,1.02.36.35.25.61.22.97.08.74-.28,1.7-.29,2.63-.21.62.05,1.25-.03,1.87.02.54.04,1.13-.24,1.62.26.06.06.34-.11.52-.15.24-.05.54-.19.72-.1.8.39,1.48.28,2.16-.26.13-.11.42-.13.59-.06,1.33.54,2.67.36,4.02.13.13-.02.29.12.44.17.37.11.75.3,1.12.29.43,0,.85-.19,1.28-.29.43-.1.92.19,1.32-.24.1-.11.39-.08.59-.07.82.06.86.07.85-.54-.01-.49.19-1-.23-1.47-.16-.18-.16-.63-.05-.89.42-1.03.3-2.01,0-3.04-.14-.48.07-1.06-.05-1.55-.17-.73-.36-1.39.26-2,.07-.07.08-.32.01-.41-.55-.7-.12-1.5-.25-2.24-.08-.48.18-1.02-.28-1.46-.11-.1-.07-.4-.03-.6q.33-1.64,0-3.18c-.02-.1-.04-.24,0-.31.71-1.08-.13-2.43.61-3.5.07-.11.07-.35,0-.46-.58-.85-.22-1.8-.29-2.69-.05-.65.3-.95.77-.62.4.28.78.15,1.15.26.81.25,1.53-.41,2.42-.07.73.28,1.65.07,2.48.05.39,0,.79.1,1.15-.27.16-.16.65-.14.9-.02.88.43,1.67.24,2.58.05.83-.18,1.8-.26,2.71.15.4.18.97-.02,1.46-.06.19-.02.38-.16.56-.14.42.04.96.34,1.22.17.47-.3.9-.13,1.34-.17.46-.05.99-.15,1.39.02.79.32,1.58.3,2.38.27.59-.02,1.22.23,1.77-.28.11-.1.51,0,.69.14.25.17.41.21.66,0,.14-.11.36-.13.55-.16.54-.1.99.48,1.65.05.4-.26,1.12-.07,1.69-.04.29.02.56.18.85.2.59.03,1.22.1,1.77-.05.36-.1.63-.24.97-.01.12.08.31.2.39.16.97-.56,1.91-.28,2.88-.02.34.09.77.13,1.18-.14.27-.18.75-.05,1.14-.03.13,0,.27.2.38.18.53-.08,1.08-.14,1.59-.32.47-.17.76.7,1.36.09.38-.39,1.1.33,1.52.18.56-.2.93-.25,1.53-.09.74.21,1.59.03,2.4,0,.13,0,.27-.18.39-.16.75.09,1.4.51,2.29.09.68-.32,1.63-.06,2.46-.11.39-.02.7.43,1.18.05.23-.19.8-.13,1.11.27.03.04.27-.06.4-.12.63-.3,1.26-.25,1.9-.03.73.25,1.47.26,2.21,0,.63-.22,1.24-.2,1.9.02.44.15,1.02.17,1.45.01.33-.12.5-.23.78.04.12.11.44.17.57.08.81-.54,1.69-.28,2.54-.28,3.23-.03,6.46-.03,9.69,0,.69,0,1.41-.22,2.08.28.2.15.65.12.91,0,1.45-.58,2.96-.09,4.4-.34.52-.09.81.76,1.37.16.41-.43.82.17,1.22.17.48,0,.96-.3,1.43-.26,1.16.08,2.34-.3,3.48.26.22.11.77-.37.93-.25.74.57,1.64-.55,2.29.28.68-.17,1.34-.44,2.06-.31.49.08,1.03-.2,1.47.25.06.07.34-.09.52-.12,1.26-.18,2.51-.27,3.78.04.46.11.98.04,1.47.02.18,0,.38-.1.54-.2.52-.33.8.56,1.4.21.39-.23.97-.17,1.47-.19.24,0,.47.11.71.15.34.06.71.2,1.03.14,2-.4,2.56-.4,4.44,0,.35.07.79.14,1.08-.01.88-.47,1.8-.24,2.7-.28.94-.04,1.88-.03,2.81,0,.27.01.54.28.81.28s.55-.29.81-.27c.59.04,1.16-.06,1.79.18.48.19,1.31-.49,1.83-.16.67.43,1.3.15,1.93.27.83-.68,1.82-.35,2.68-.24.57.07,1.16.25,1.76.23.39,0,.77.09,1.17-.21.23-.17.74.04,1.13.08.45.05.92.2,1.34.13,1.69-.31,1.67-.29,3.19,0,.44.08.95-.26,1.43-.26.48,0,.99.34,1.43.25.67-.13,1.26-.49,1.96,0,.17.12.62-.24.94-.26.3-.02.61.17.92.16.34,0,.68-.1,1.01-.19.64-.16,1.2.28,1.84.17.6-.1,1.21-.18,1.81-.15.74.04,1.48.27,2.22.28,1.11,0,2.22.14,3.32-.26.55-.2,1.36-.25,1.84.02.65.36,1.1-.4,1.65-.06.47.29.93.18,1.47.05.48-.12,1.06-.19,1.62.2.29.21.95.14,1.31-.05.36-.2.69-.21,1.02-.18.59.05,1.31.45,1.71.23.63-.35,1.2-.19,1.79-.22.59-.03,1.2-.17,1.77.27.18.14.6.02.9-.03.85-.14,1.31.21.98.86-.28.56-.39,1.01.03,1.51.03.03.02.09.04.14.18.57-.7.98-.14,1.69.34.44.32,1.14-.16,1.69-.1.11-.08.48.02.59.5.49.23,1.08.25,1.62.02.41-.35.96-.18,1.22.26.42.2.79.19,1.18,0,.44.22.95-.29,1.28.84.71-.03,1.61.25,2.44.18.54.24,1.27-.18,1.93-.2.32-.18.98.02,1.31.22.36.12.69.21,1.02.21.78-.64,1.41-.16,2.31.32.62.15,1.51.14,2.27,0,.54.15,1.1-.28,1.61-.15.18-.12.69.03.89.35.45.38.76.02,1.22-.12.15.06.54.11.83.18,1.16.28,2.31-.06,3.46-.07.24-.2.56-.1.72.6.97.14,2.01.29,3.01-.47.43-.05.86-.03,1.31.02.53.3,1.15-.24,1.61-.01,1.14-.03,2.28-.04,3.42.55.56.33,1.27.29,1.9-.07,1.21.34,2.45-.28,3.63-.15.28.21.56.27.81.18.8-.35,1.66-.2,2.35.17.76.38,1.56.18,2.22-.32,1.06-.36,2.05-.09,3.09.03.1-.04.22-.07.33-.13.64-.28,1.28.1,1.9.09.16.11.39.09.58-.02.3-.15.6-.14.9,0,.34.16.69.14,1.03-.05.79.11,1.58-.24,2.4-.19.44-.34,1.23.24,1.73-.56.5-.28,1.16-.27,1.74,0,.58-.16,1.16.23,1.78.21.33-.24,1.03-.23,1.55.01.47.53.96.27,1.42-.47.84-.18,1.58-.04,2.42.13.84.43,1.85-.25,2.67.14.8-.24,1.62.21,2.42.15.27.21.79.05,1.02-.32.46-.39.77,0,1.21.32.38-.73.87.05,1.28-.06.56-.26,1.16-.15,1.69.12.61.07,1.11-.03,1.71-.17.98,0,2.01.04,3.03,0,.19.07.38.15.56.18.38-.32.63-.15,1.05.15.35.12.79.14,1.19.02.42.04.84,0,1.25-.04.33-.27.64-.28.97,0,.27.24.53.27.81.03.23-.09.48-.12.72-.05.49-.27,1.08-.08,1.44.23.42.2.78.2,1.17,0,.39-.15.78-.15,1.18,0,.35.13.71.16,1.07.03.41,0,.83,0,1.25s.03.84,0,1.25c-.05.54.24,1.13-.29,1.61-.1.09-.08.45.01.59.45.71.36,1.39.05,2.13-.15.36-.23.92-.05,1.2.48.73.27,1.5.25,2.24-.01.74.31,1.54-.25,2.24-.06.08.14.34.15.52.03.38.14.84-.02,1.14-.18.34-.21.52.06.78.09.08.13.33.07.42-.52.86-.23,1.7-.01,2.57.08.3-.14.67-.15,1.01-.03,1.01-.17,2.05,0,3.03.14.81.18,1.52,0,2.33-.17.76-.03,1.6,0,2.4.02.34.28.78.15,1-.49.83-.26,1.7-.26,2.55,0,.79-.2,1.61.26,2.39.18.31.05.82.03,1.23-.02.39.07.77-.25,1.16-.14.17.18.7.24,1.08.03.18-.03.4-.11.57-.35.73-.22,1.47-.06,2.21.05.24.22.5.16.7-.5,1.59.24,3.17.02,4.75-.06.44.18.93-.28,1.3-.1.08-.06.4-.02.6.33,1.56.16,1.55.05,3.19-.1,1.4-.35,2.87.18,4.28.1.27.1.61.07.9-.1.9.3,1.85-.3,2.69.22.83.4,1.66.31,2.53-.04.39-.1.76-.24,1.15-.18.5-.01,1.16.08,1.77.19,1.19.15,2.45,0,3.65-.07.55-.22,1.05,0,1.59.02.04.09.07.11.11.29.72-.19,1.36-.22,2.03-.02.68.49,1.34.26,2.05-.06.18-.27.8-.72.24-1.31-.06-2.6-.6-3.92-.33-.79.17-1.57.37-2.38.28-.49-.05-.97.11-1.5-.17-.33-.18-.9.15-1.37.16-.39.01-.79.14-1.17-.22-.17-.16-.69-.19-.87-.05-.61.48-1.28.26-1.92.28-1.61.03-3.23.03-4.85,0-.49,0-.97.11-1.47-.25-.29-.21-.92-.09-1.32.06-.6.24-1.11.25-1.72,0-.28-.12-.84.27-1.03.12-.44-.36-.89-.17-1.32-.23-.38-.05-.41.21-.38.49.03.24.02.52.14.72.26.44.23.84.03,1.28-.08.18-.16.37-.16.55,0,.45-.02.87.26,1.3.14.22-.37.89-.23,1.06.51.63.23,1.3.25,1.93.02.53.16,1.07-.25,1.62-.2.27.04.87.09,1.32,0,.04.08.07.1.11.28.57-.26,1.09-.18,1.55.08.47.42.93.16,1.4-.32.59-.28,1.11-.04,1.71.13.31.22.75.1,1.03-.4.88-.33,1.67-.02,2.58.24.7.06,1.55.03,2.33,0,.09-.2.26-.29.24-.89-.14-1.86.37-2.69-.3-.03-.03-.1-.01-.15,0-.63.1-1.34.43-1.88.25-.6-.2-1.24-.41-1.75-.21-1.01.39-2.01.23-3.01.26-.43.01-.85-.06-1.31-.21-.61-.21-1.43-.34-2.07.12-.58.42-.93-.34-1.39-.2-.46.14-.97.67-1.29.56-.7-.25-1.43-.09-2.06-.31-.38-.13-.59.07-.85.04-.59-.07-1.24.28-1.76-.28-.1-.1-.4-.03-.61-.01-.54.05-1.06-.02-1.62.25-.39.19-1.03-.24-1.56-.23-.58,0-1.16.24-1.75.27-.46.02-1.04-.33-1.37-.15-.58.31-1.11.1-1.65.16-.51.06-1.04.01-1.56.01s-1.04.02-1.56,0c-.48-.03-1.03.19-1.43-.28-.34.49-.85.27-1.29.28-.39,0-.79.14-1.17-.22-.17-.16-.6-.12-.89-.07-2.03.41-2.7.4-4.44.02-.4-.09-.84-.09-1.24-.01-1.56.31-1.55.32-3.18,0-.15-.03-.36-.07-.46,0-.8.55-1.69.24-2.54.29-.65.04-1.32.11-1.9-.3-.51.51-1.16.3-1.75.3-.49,0-1.02.2-1.46-.27-.1-.11-.47.02-.71.07-.14.03-.25.15-.38.2-.45.19-.85-.26-1.34-.08-.41.15-.82.11-1.29-.14-.41-.22-1.11-.26-1.5-.04-.55.31-1.08.27-1.62.25-.54-.02-1.14.25-1.61-.27-.05-.05-.39.07-.51.2-.5.53-1,.5-1.62.17-1.23-.68-2.58-.43-3.87-.27-.3.04-.71.05-.99.21-.62.35-1.19-.79-1.78-.02h-4.22c-.68,0-1.36-.04-2.03.01-.65.05-1.25-.23-1.94-.05-.68.18-1.45.07-2.18.03-.49-.03-1.03.22-1.46-.25-.06-.07-.28-.02-.41.02-.13.05-.25.22-.37.23-2.29.01-4.59.01-6.88.01-.59-.62-1.18.1-1.78.01-.41-.06-.83,0-1.25-.02-.39-.03-.77.09-1.18-.19-.21-.14-.7.16-1.06.18-.23.02-.47-.1-.71-.15-.24-.05-.52-.2-.71-.13-1.6.58-3.26.17-4.88.3-.31.03-.62.21-.92.17-.27-.03-.5-.37-.76-.4-.66-.07-1.34-.15-1.98-.03-1.12.2-1.1.25-2.44-.01-.16-.03-.35.09-.53.14-.19.05-.41.04-.57.14-.39.24-.61-.47-1.05-.12-.28.23-.71.4-1.07.39-.53-.02-1.11-.12-1.55-.37-.42-.24-.69-.12-1.09-.07-1,.12-2.04.17-3.02.02-.6-.09-1.11-.25-1.71.03-.3.14-.7.13-1.05.09-.48-.05-.98-.34-1.43-.26-.47.08-.87.56-1.32,0-.3.36-.72.28-1.11.28-.36,0-.9.15-1.06-.03-.43-.48-.68.12-1.03.04-.68-.16-1.43.25-2.1-.24-.1-.07-.35.03-.52.08-.14.04-.27.12-.41.15-.59.15-1.09-.44-1.81-.06-.47.25-1.27.21-1.93-.12-.26-.13-.75.25-1.05.15-.52-.17-.95-.14-1.48-.02-.48.11-1.12.27-1.6-.23-.1-.11-.4-.07-.6-.03-2.09.42-2.12.3-4.13.04-1.08-.14-2.24-.29-3.34.17-.3.13-.71.13-1.04.05-1.23-.29-1.23-.3-2.43,0-.19.05-.43.1-.6.04-1.48-.49-2.96.23-4.44.02-.35-.05-.71.03-.96-.31-.19.32-.5.33-.81.29-.29-.03-.63-.02-.87-.16-.36-.21-.62-.21-.98,0-.24.14-.58.17-.87.15-.42-.02-.93-.32-1.22-.16-.42.23-.8.19-1.18.16-.74-.06-1.54.3-2.21-.28-.62.61-1.38.21-2.07.27-.42.04-.92.22-1.32-.22-.06-.07-.41.14-.62.2-.28.08-.51.06-.5-.32,0-.42,0-.83,0-1.37Zm21.75-98.04h.14c-.03-.08-.04-.17-.09-.24-.01-.02-.12.03-.19.05.05.06.1.12.57.37-.05-.06-.1-.12-.15-.18-.05.05-.09.09-.14.14.06.05.12.1.19.14.01,0,.06-.06-.33-.28Zm-7.51-35.96h.14c-.03-.08-.04-.17-.09-.24-.01-.02-.12.03-.19.05.05.06.1.12.28.81,0,.1-.01.21,0,.31.02.09.07.18.1.27.11-.08.23-.14.33-.23.45-.38.08-.62-.18-.85-.04-.04-.24.01-.25.04-.03.15-.01.31-.15-.16Zm-1.54,104.45c-.38-.05-.82-.08-1,.6-.07.26.03.31.12.44.16.24.28.17.44-.01.12-.14.28-.25.43-.37.42.57.52-.08.74-.22.03-.02-.05-.34-.15-.42-.09-.07-.29-.02.35-.3-.06.05-.12.1-.18.15.05.05.09.09.14.14.05-.06.1-.12.14-.19,0-.01-.06-.06-1.02.19Zm21.38-6.09c0,.83-.01,1.67,0,2.5,0,.35-.05.82.14,1.01.22.22.6-.02.94-.17.44-.19,1.15-.26,1.5-.02.61.41,1.19.2,1.78.26,1.07.11,2.06-.51,3.16-.32.51.09,1.05.09,1.56,0,.41-.08.68.42,1.18.07.36-.24,1.01-.05,1.53-.05.53,0,1.08-.1,1.56.24.42-.5.98-.2,1.46-.23.43-.02.85-.07,1.31.25.33.22.87-.42,1.4-.26.23.07.45.17.69.23.19.05.46.15.58.06.75-.52,1.59-.31,2.38-.28,2.09.08,4.21-.35,6.28.29,1.26-.16,2.56.34,3.78-.3.12-.06.35-.07.46,0,.66.48,1.28.46,1.95,0,.18-.12.59-.13.76,0,.77.6,1.67-.49,2.41.22,1.08-.41,2.14-.39,3.22.06.22.09.6.12.76,0,.42-.35.78-.46,1.2-.05,1.09-.33,2.18-.32,3.28,0,.26-.38.66-.22,1-.23.62-.02,1.25,0,1.88,0s1.25-.03,1.88,0c.65.05,1.34-.23,1.95.2.64.46,1.09-.46,1.71-.22.22.09.48.11.72.14.49.06,1.01.22,1.47.12,1.45-.31,1.84-.3,3.38,0,.63.13,1.4.17,1.96-.08.53-.24,1.14-.32,1.46-.13.59.33,1.01-.31,1.49-.05,1.17.63,2.44.35,3.62.25.88-.08,1.7-.46,2.57.05.14.08.39-.02.58-.07.23-.06.46-.2.69-.22.57-.03,1.15-.01,1.72-.01.54.76,1.08-.31,1.62,0,.04.02.13-.02.15,0,.39.5.77-.08,1.15,0,.48.1.95.23,1.44.3.24.03.55.04.73-.09.49-.34.88-.19,1.4-.03.91.27,1.89.31,2.79-.18.97.36,2.01.54,2.96.21.52-.18,1.14-.36,1.44-.16.6.39,1.01-.31,1.49-.05.04.02.11,0,.15,0,1.84.43,3.39.41,5.37.01.43-.09.85.08,1.3.24.35.13.88-.39,1.41-.25.09.02.15.16.24.17,1.36.2,2.72.23,4.09-.04.67-.13,1.39-.04,2.09-.02.18,0,.46.22.52.16.48-.51,1.08-.25,1.61-.27,1.15-.04,2.29-.06,3.44,0,1.99.09,4-.3,5.97.29.28.08.72.1.89-.06.38-.36.78-.22,1.17-.23.65-.02,1.27.03,1.92.26.56.2,1.32.23,1.84,0,.63-.29,1.03-.29,1.66,0,.52.24,1.23.05,1.85.05.1,0,.25.03.3-.02.51-.57,1.21-.33,1.76-.25.87.13,1.71.5,2.56-.03.08-.05.24-.05.3,0,.55.44,1.03.41,1.65.03.32-.19.94-.08,1.33.1.71.32,1.48.29,2.09.09.45-.15.87-.22,1.31-.21.9,0,1.79.08,2.7.23,1.05.18,2.22.32,3.31-.22.32-.16.92-.13,1.18.08.47.38.65-.31,1.06-.14.34.15.73.1,1.13.3.62.31.99-.22.84-.96-.09-.47-.09-1,.03-1.46.17-.6.3-1.13-.07-1.71-.11-.17-.03-.48-.02-.72,0-.04.1-.07.1-.11.03-.28.18-.64.06-.83-.19-.3-.28-.46-.04-.79.13-.19.05-.55.02-.83-.03-.24-.18-.46-.19-.7-.02-1.04-.07-2.09,0-3.13.07-1-.33-2.05.28-3.01.05-.07-.09-.26-.13-.4-.25-.82-.26-1.68-.19-2.64.02-.32.5-.59.05-1.02-.23-.22-.44-.73.12-1.08.14-.09.1-.54.07-.82-.03-.29-.26-.58-.21-.84.27-1.43.26-1.42,0-2.87-.08-.43-.03-.94.14-1.34.26-.61.21-1.22.09-1.79-.25-1.22-.28-1.2.02-2.44.07-.29.16-.73.02-.9-.48-.56-.26-1.18-.27-1.77-.01-.62.24-1.25.15-1.85-.18-1.26-.39-2.47.12-3.71.11-.28-.04-.69-.14-1.02-.21-.74-.29-1.49.04-2.2.13-.29,0-.42-.04-.66-.21-1.04-.32-2.1.06-3.14.08-.23.19-.61.08-.71-.54-.54-.4-1.27-.23-1.75.22-.62-.25-1.1-.05-1.64.08-.23.35-.56.28-.63-.26-.3-.2-.67-.32-.97-.16-.38.59-.48.14-.91-.19-.18-.14-.69-.1-1.03.15-1.36-.38-2.77.29-4.1.04-.09-.13-.26-.14-.4-.04-.7-.28-1.48-.04-2.08.29-.73.11-1.41.17-2.11.03-.31-.26-.64-.27-.96,0-.27.27-.54.27-.81,0-.32-.25-.64-.28-.97-.05-.62-.1-1.26,0-1.87.1-.61.21-1.18,0-1.78-.03-.1.15-.25.16-.39.03-.49.17-1.03,0-1.45-.12-.3-.19-.58-.17-.86.05-.49-.11-.97.16-1.5.17-.34-.11-.91-.17-1.37-.02-.15-.07-.38,0-.46.85-.85-.54-1.87.21-2.71-.31-.93-.39-1.82.06-2.76.14-.29.16-.78-.19-1.15-.39-.41-.24-.92-.09-1.42.44-1.46.39-1.45.03-3.34-.09-.45-.09-.96.15-1.49.22-.49.13-1.2-.02-1.75-.13-.46-.25-.87,0-1.27.22-.35.24-.63,0-.97-.09-.13-.14-.44-.07-.51.38-.35.2-.78.22-1.17.03-.57.05-1.15,0-1.72-.05-.54-.27-1.06-.29-1.59-.04-1.41-.01-2.81-.01-4.22,0-.31-.13-.73.03-.92.39-.47.48-1.03.13-1.37-.54-.52.26-.93-.07-1.46-.22-.35-.59-1.05.14-1.49.08-.05.12-.34.06-.4-.51-.48-.28-1.08-.25-1.61.05-.9-.32-1.85.24-2.71-.8-.72.43-1.65-.24-2.43-.13-.15-.02-.61.11-.86.34-.64.33-1.41.12-1.94-.3-.77-.23-1.49-.25-2.24-.03-1.72,0-3.44,0-5.16,0-.68-.09-1.37.04-2.02.06-.32.14-.55-.03-.85-.26-.43-.48-.87.11-1.26.25-.16.22-.36.08-.65-.15-.29-.21-.68-.18-1.01.13-1.62-.35-3.28.29-4.88.04-.09-.14-.26-.16-.39-.06-.66-.34-1.44-.08-1.95.31-.63.19-1.19.24-1.78.1-1.27-.8-2.54,0-3.81.02-.03,0-.1-.03-.14-.64-.86-.54-1.79-.29-2.76.06-.24,0-.52.01-.78.02-.4,0-.75.27-1.15.33-.49-.07-.94-.66-.73-.84.3-1.76.48-2.51.22-.62-.22-1.18-.17-1.77-.24-1.75-.22-3.44.47-5.19.3-.49-.05-.97.12-1.5-.17-.33-.18-.9.14-1.37.17-.34.02-.72-.02-1.02-.16-.27-.13-.41-.15-.67.02-.19.13-.48.17-.71.14-.28-.04-.54-.28-.81-.27-.32,0-.64.22-.97.28-.25.05-.63.11-.76-.02-.44-.47-.98-.29-1.46-.27-1.16.05-2.31.17-3.47.3-.8.09-1.59-.49-2.41-.02-.12.07-.32.04-.46,0-1.43-.4-1.42-.37-2.87-.02-.42.1-.97.07-1.34-.13-.57-.3-1.23-.3-1.63-.11-.96.46-1.92.17-2.87.25-.25.02-.65-.3-.76-.2-.43.38-1,.35-1.26.1-.59-.57-.9.39-1.38.13-.12-.07-.35.04-.45-.03-.74-.58-1.67-.43-2.37-.22-.77.23-1.49.24-2.24.23-.79-.01-1.59.15-2.39-.25-.46-.23-1.19-.2-1.68,0-.8.33-1.5.47-2.27-.02-.15-.09-.46-.1-.61,0-.71.48-1.42.1-2.12.13-1.11.06-2.19.25-3.28-.07-.65.51-1.39.14-2.09.22-.2.02-.57-.33-.63-.27-.58.59-1.29.18-1.92.29-1.74.31-3.47-.58-5.22,0-.13.04-.33.02-.44-.06-.76-.5-1.63-.33-2.39-.21-2,.3-1.98.35-3.81-.03-.65-.13-1.27.12-1.91.27-.68.16-1.37-.63-2.04-.26-.7.39-1.38.27-2.08.27-.74,0-1.49.15-2.24-.26-.32-.17-.87.05-1.31.16-.45.11-.87.26-1.28-.09-.07-.06-.22-.13-.26-.1-.38.32-.96.49-1.26.27-.49-.37-.79.08-1.18.05-.57-.04-1.15,0-1.72-.01-.57,0-1.33.18-1.65-.1-.67-.59-1.01.47-1.53.11-.15-.11-.35-.15-.54-.21-.14-.04-.34-.14-.41-.09-.69.57-1.49.22-2.23.28-.78.06-1.62.19-2.33-.03-1.16-.35-2.22-.43-3.36.02-.35.14-.92.13-1.19-.07-.41-.3-.79-.14-1.17-.22-.44-.1-.76.24-1.13.29-.35.05-.74-.19-1.12-.27-.13-.03-.31.03-.41.12-.32.28-.62.27-.97.06-.15-.09-.45-.19-.51-.12-.44.46-.99.27-1.47.23-.95-.09-1.96.37-2.85-.26-.84.57-1.78.2-2.68.27-.36.02-.91-.38-1.08-.24-.39.32-.77.28-1.16.25-.64-.06-1.27.09-1.95-.18-.51-.2-1.23.13-1.86.19-.34.03-.71.09-.99-.27-.08-.1-.47-.12-.58-.02-.4.34-.72.35-1.22.12-.32-.14-.81.16-1.22.16-.58,0-1.2.19-1.73-.25-.62.68-1.2,0-1.8-.03-.38-.02-.77-.12-1.19.15-.27.18-.78.13-1.13.02-1.16-.34-2.32-.3-3.46-.03-.76.18-1.47.17-2.22.03-.58-.11-1.26-.27-1.76-.07-.41.16-.78.17-1.17.2-.41.03-.97.17-1.22-.03-.48-.4-.79.22-1.18.04-.18-.08-.41-.04-.57-.13-.78-.43-1.71-.37-2.39-.11-.99.37-1.94.27-2.85.13-.45-.07-.49-.12-.43.27.06.43.24.85.29,1.28.05.46.03.94,0,1.41-.05.95-.5,1.86-.31,2.84.09.43.29.85.29,1.28,0,.43-.21.85-.28,1.28-.04.24-.02.53.09.74.45.89.28,1.84.18,2.72-.16,1.41-.23,1.39.02,2.88.09.53.09,1.2-.16,1.64-.43.74.32,1.2.21,1.86-.1.61-.72,1.22-.24,1.84.23.3.22.57.2.86-.07,1,.16,2-.26,3.02-.21.5-.06,1.23.11,1.8.2.67-.39,1.2-.15,1.83.03.09.03.19.06.29.3,1.12.28,1.12-.02,2.43-.07.33-.08.76.08,1.03.4.7.12,1.41.18,2.11.02.21-.28.44-.27.65.02.33.27.64.27.97s-.27.64-.27.97c-.02.93-.15,1.91.1,2.77.15.51.29,1.05.16,1.46-.31.95-.23,1.9-.29,2.85-.03.43-.42,1.04-.25,1.24.41.5.23.99.26,1.47.04.83-.03,1.67.02,2.5.06,1.05-.26,2.14.29,3.16.1.19.07.54-.04.75-.38.73-.39,1.41,0,2.13.23.41-.29.79-.22,1.09.09.42.36.83.25,1.28-.05.22-.31.39-.42.61-.1.21-.23.49-.17.7.16.6.57,1.19.56,1.78-.02.65-.15,1.27.03,1.93.36,1.31-.56,2.64,0,3.96.03.08-.01.2-.04.29-.32,1.16-.29,1.15,0,2.43.09.37-.02.77-.1,1.17-.16.77-.2,1.63-.03,2.39.16.71.24,1.32-.02,2.03-.16.42-.01.97.03,1.46.03.34.27.77.14,1.01-.43.74-.39,1.4.01,2.11.08.14.02.43-.08.57-.42.57-.38,1.34-.16,1.76.31.58.22,1.09.24,1.62.04,1.04.01,2.08.01,3.13,0,.31.12.74-.03.91-.55.61-.13,1.3-.29,1.93-.17.65.35,1.26.07,1.9.64,1.7.11,3.38-.2,5.04-.08.4-.13.67.02,1.09.2.57.51,1.17.17,1.91-.18.4-.25,1.08.22,1.6.16.17.17.72.02.88-.47.51-.26,1.08-.28,1.61-.02.7-.12,1.4.28,2.07.12.2-.05.58-.1.87-.03.18-.2.46-.13.52.47.44.16.99.27,1.46.2.84-.37,1.57-.31,2.37.08,1.31-.19,2.64.28,3.95.21.58-.11,1.26-.23,1.9-.18.96-.08,1.97-.04,2.96.05.95-.23,1.93.28,2.85.11.21,0,.6-.12.87-.28.64-.29,1.28,0,1.89.12.27.06.41.01.66-.12.57-.1,1.18-.09,1.78,0,.23.16.45.22.68.16.53-.26.94-.32,1.43-.05.39.12.79-.18,1.18-.12.16.15.59.18.9.04.41-.02.84.02,1.25.06.69-.13,1.37.26,2.09.22.4-.06,1.07-.12,1.62-.05.45-.08.9-.15,1.35-.08.48-.4,1.03-.26,1.42.22.6.26,1.16.27,1.76,0,.73,0,1.46,0,2.19Zm-5.16,15.16c-.56-.05-1.04.07-1.08.73-.04.56-.28.81-.85.85-.33.02-.59.52-.4.74.18.21.46.47.71.47.7.02.62.52.7.95.02.11,0,.22-.01.33.14-.04.39-.05.4-.11.17-.85.89-.98,1.53-1.12.42-.1.56-.24.3-.58-.21-.27-.2-.7-.73-.79-.39-.07-.6-.64-.35-1,.28-.41.27-.49-.21-.45Zm19.41,5.33c.59.02,1.2-.27,1.69-.8.1-.11.2-.3.17-.43-.02-.12-.19-.3-.31-.32-1.01-.16-1.93.33-2.92.4-.13,0-.32.27-.36.45-.09.36.32.28.44.41.35.38.75.24,1.29.29Zm-20.51-11.44c-.12-.04-.28-.11-.44-.14-.38-.07-.88,0-1.14-.22-.6-.51-1.09-.6-1.74-.11-.29.21-.72.24-1.1.33-.37.09-.36.32-.19.55.35.46.85.6,1.46.22.78-.49,1.61-.47,2.45-.44.17,0,.33.19.51.26.03.01.13-.09.18-.16.02-.03,0-.1,0-.28Zm94.44,5.34c-.06-.06-.17-.25-.33-.31-.11-.04-.33.05-.42.15-.12.14-.12.38-.24.51-.34.36-.63.86-1.28.44-.17-.11-.91.58-.82.77.08.17.33.31.53.35.16.03.35-.15.53-.19.24-.06.61,0,.71-.13.37-.52.84-.9,1.32-1.29.03-.02,0-.1,0-.3Zm-101.95.89c0,.36-.05.54.01.66.1.17.27.3.42.44.07-.15.11-.32.22-.45.38-.45.45-1.31,1.36-1.08,0-.1.01-.21.02-.31-.68.19-.34-.61-.73-.76-.2-.07-.25-.23-.38.08-.13.31-.41.54-.6.83-.16.23-.27.49-.32.59Zm61.05,7.4c-.11-.12-.19-.29-.29-.31-.51-.1-1.47.37-1.64.82-.07.17,0,.4.02.6.15-.06.3-.12.44-.19.39-.18.79-.35,1.17-.56.12-.06.18-.22.3-.38Zm-22.27-11.97c.09.24-.2.65.3.71.4.04.25-.34.38-.5.15-.2.4-.34.52-.55.13-.23.1-.47-.27-.51-.91-.09-.93-.09-.92.86ZM24.77,88.55c.23-.07.42-.12.61-.17-.12-.15-.26-.28-.36-.44-.1-.16-.25-.37-.21-.52.14-.6-.48-.38-.66-.64-.03-.04-.25-.03-.29.03-.45.62.87.83.35,1.48.19.09.38.18.56.26Zm-4.05,79.95s.1.19.18.34c.2-.41.48.02.65-.05.37-.16.4-.43.12-.78-.15-.19.19-.7-.32-.68-.37.01-.63.29-.63.72,0,.1,0,.21,0,.46Zm15.92,14.6c.1-.53-.32-1.08-.69-1.01-.17.03-.39.38-.4.6-.02.33.19.61.59.56.2-.02.38-.11.5-.15Zm87.98,2.66c.1,0,.23.04.3,0,.1-.07.19-.19.24-.3.02-.07-.03-.21-.1-.25-.2-.13-.41-.26-.63-.31-.15-.03-.39.02-.5.12-.15.16.05.72.23.75.15.02.31,0,.46,0Zm-16.96-4.21c0-.15.01-.3,0-.45,0-.09-.05-.18-.08-.27-.11.06-.22.11-.32.19-.08.06-.14.14-.22.21-.48.48-.45.5.2.84.18.09.36.47.42-.06.02-.15,0-.3,0-.45Zm-6.87,1.63c-.13-.22-.23-.38-.32-.54-.13-.25-.11-.23-.32-.02-.14.15-.36.22-.5.37-.08.09-.15.36-.11.38.15.1.36.21.51.17.27-.07.51-.25.74-.37Zm-35.59.07c.76.02.86-.02.76-.25-.1-.25-.29-.46-.43-.69-.24.21-.47.42-.71.63.16.13.32.26.38.3Zm61.96-.27c.15-.17.34-.38.51-.6.04-.05,0-.21-.05-.27-.24-.24-.41-.06-.63.08-.19.12-.47.08-.7.12-.04,0-.11.07-.11.09.01.07.04.18.09.21.25.12.52.21.89.36ZM18.86,85.86c-.09-.05-.24-.2-.31-.17-.34.14-.68.32-1,.51-.1.06-.14.21-.21.31.14.03.29.12.41.09.36-.11.7-.26,1.04-.41.05-.02.04-.18.07-.33Zm60.57,93.93c.51.05.76.02.72-.45-.03-.29-.04-.48-.4-.48-.34,0-.64.02-.54.47.04.19.17.36.22.45ZM15.73,82.93c-.02-.19,0-.41-.09-.58-.04-.08-.32-.15-.39-.1-.25.2-.25,1.03,0,1.22.07.05.32-.02.39-.11.08-.1.06-.28.08-.44Zm98.84,97.61c-.09-.11-.18-.34-.35-.41-.39-.15-.65.13-.88.4.09.07.17.17.27.2.18.06.43.01.55.12.39.37.34.02.41-.32Zm-95.61-17.06c-.36-.52-.51.08-.73.23-.04.03.06.27.1.41.21-.08.43-.16.64-.24.05-.02.1-.03.14-.03.38,0,.39-.23.32-.51-.15.04-.31.08-.48.13Zm5.72,8.15s.11-.08.11-.11c-.08-.62.37-.44.69-.48.09-.01.16-.09.24-.14-.07-.05-.14-.13-.22-.16-.31-.11-.62-.22-.93-.31-.08-.02-.19.02-.29.04.03.11.07.21.09.32.04.24.06.48.12.71.01.06.13.09.19.13Zm-5.63,2.14c-.09-.4-.16-.72-.24-1.04-.11.03-.28.03-.31.09-.12.25-.26.53-.26.8.01.38.37.22.59.24.1,0,.21-.08.21-.09Zm5.74-28.68c.27-.03.69.15.63-.38-.05-.39-.39-.21-.61-.24-.15-.02-.33-.05-.45.01-.1.05-.15.24-.17.37,0,.07.08.21.15.23.15.04.31.01.46.01Zm10.8,24.39c-.15.15-.37.3-.35.36.11.31.27.6.43.89.02.03.25,0,.26-.04.06-.23.16-.49.1-.7-.05-.19-.29-.34-.45-.51Zm-12.51-52.86c-.3.24-.68.4-.75.65-.12.38.29.28.51.3.52.05.39-.34.39-.61,0-.1-.09-.2-.15-.34Zm-2.36,30.89s-.28-.23-.29-.22c-.21.23-.4.48-.59.72.15.07.29.16.44.19.48.1.47-.22.44-.7Zm3.74-91.39c.11-.2.25-.34.21-.41-.1-.22-.27-.42-.41-.62-.14.19-.33.38-.38.59-.02.08.3.24.57.44Zm40.05,122.57c-.21-.15-.41-.32-.64-.44-.05-.03-.29.19-.28.21.13.25.3.48.45.71.14-.14.28-.28.47-.48Zm-50.78-18.56c-.26.16-.52.32-.77.49.25.13.49.33.76.38.12.02.39-.26.41-.42.01-.14-.25-.29-.39-.45Zm7.12,2.85c.2-.11.41-.21.61-.33.08-.05.13-.14.2-.21-.08-.05-.17-.15-.24-.14-.23.03-.47.07-.69.16-.12.05-.21.2-.31.31.12.06.25.12.43.21Zm-6.53-55.4c.16-.22.34-.42.45-.64.03-.05-.18-.3-.2-.3-.25.13-.48.29-.71.44.13.14.26.28.46.5Zm25.8,69.4c-.04-.09-.05-.23-.11-.25-.13-.04-.27-.02-.41,0-.04,0-.1.07-.1.1-.01.2-.02.41,0,.61,0,.05.18.13.19.12.15-.19.29-.38.43-.58Zm-13.93,5.4c.16-.13.33-.24.47-.39.02-.02-.2-.3-.21-.29-.25.14-.48.3-.71.46.12.06.25.12.45.23Zm57.88,2.72c.39-.39.55-.55.72-.72-.2-.07-.4-.19-.59-.17-.11,0-.25.23-.29.38-.03.12.08.27.16.52Zm-30.5-3.1c-.07,0-.16,0-.16,0-.04.38-.07.76-.11,1.14.07,0,.2.02.21,0,.11-.34.21-.69.3-1.05,0-.01-.17-.06-.24-.09Zm-20.15-48.88c.23.28.42.5.6.71.05-.13.15-.26.15-.39,0-.22.12-.55-.29-.54-.12,0-.23.11-.45.22Zm5.05,41.06c.1,0,.21.02.31,0,.14-.03.26-.1.4-.15-.13-.05-.26-.13-.4-.15-.2-.03-.41-.02-.61,0-.09,0-.16.1-.24.15.08.05.16.13.24.15.1.03.2,0,.31,0Zm-9.57,1.77c-.15-.15-.24-.28-.37-.36-.07-.04-.2,0-.3,0,.03.24.06.47.1.71.15-.09.29-.18.58-.36Zm2.56-51.24c.14-.42.19-.6.26-.77.06-.14.39-.21.09-.42-.03-.02-.12-.02-.15,0-.11.12-.26.25-.29.39-.04.17.03.37.09.79Zm-7.04,38.94c-.2.42-.31.62-.4.83-.04.09-.01.21-.01.32.16-.08.42-.12.45-.24.06-.21,0-.46-.04-.92Zm-3.38-60.77c.15,0,.31.02.46,0,.05,0,.07-.13.11-.2-.38,0-.76,0-1.14,0,.04.07.07.19.12.2.15.03.31,0,.46,0Zm28.39,71.14c-.12.26-.23.4-.23.55,0,.08.25.25.28.23.13-.09.25-.23.31-.38.02-.05-.16-.18-.36-.4Zm-24-18.35c-.17.11-.25.17-.33.22.18.14.35.27.53.41.03-.09.11-.2.08-.26-.07-.14-.19-.25-.29-.37Zm107.69,18.25c.06-.14.14-.28.17-.43.01-.07-.09-.16-.14-.23-.14.18-.28.35-.41.53.09.03.17.07.38.14Zm-119.54-8.37c-.08-.21-.11-.29-.15-.38-.17.14-.35.28-.52.42.08.05.17.15.24.14.15-.03.29-.12.43-.18Zm27.49,21.29c-.19-.14-.36-.28-.54-.41-.04.09-.12.21-.1.25.1.13.23.24.37.32.04.02.15-.09.27-.15Zm4.48-17.08c-.21.08-.29.11-.38.15.14.17.28.35.42.52.05-.08.15-.17.14-.24-.03-.15-.12-.29-.18-.43Zm-26.44-14.47s-.1-.18-.11-.17c-.16.06-.34.12-.45.24-.04.05.09.24.14.37.14-.14.28-.29.42-.44Zm89.03,21.65c.16-.15.3-.28.45-.41-.13-.05-.33-.18-.37-.14-.12.11-.17.29-.24.45,0,.01.12.08.16.1Zm45.86-.77c-.08-.11-.17-.24-.27-.37-.04.14-.11.28-.1.41.02.15.13.29.19.43.05-.13.1-.27.17-.47Zm-130.52-3.99s-.1-.18-.11-.17c-.16.06-.34.12-.45.24-.04.05.09.24.14.37.14-.14.28-.29.42-.44Zm107.38,6.71c-.11-.17-.17-.25-.22-.33-.14.18-.27.35-.41.53.09.03.2.11.26.08.14-.07.25-.19.37-.29ZM24.1,105.9c.08.12.18.24.27.37.04-.14.11-.28.1-.41-.02-.15-.13-.29-.19-.43-.05.13-.1.27-.17.47Zm-8.54,42.09c.36-.09.55-.14.73-.19-.09-.07-.18-.19-.28-.19-.19,0-.38.06-.57.1.04.12.09.23.11.29Zm31.2,32.91c-.09-.36-.14-.55-.19-.73-.07.09-.19.18-.19.28,0,.19.06.38.1.57.12-.04.23-.09.29-.11Zm42.51.64s-.16-.07-.27-.12c-.04.09-.12.18-.1.25.03.1.13.18.2.27.04-.09.07-.17.17-.41Zm-68.3-43.33c.02-.17.06-.31.05-.45,0-.04-.13-.08-.2-.12-.04.14-.09.27-.1.41,0,.04.12.08.24.15Zm77.35,34.91c-.12-.08-.21-.18-.28-.17-.13.01-.26.09-.39.15.08.05.16.15.24.15.13,0,.27-.07.43-.12Zm-74.93-25.76c.24-.1.32-.14.41-.17-.09-.07-.17-.17-.27-.2-.07-.02-.17.06-.25.1.05.11.09.22.12.27Zm-4.82-31.05c-.1.05-.23.12-.35.18.08.05.16.15.24.15.13-.01.26-.09.39-.15-.08-.05-.16-.1-.27-.18Zm10.84,56.3c.02-.17.06-.31.05-.45,0-.04-.13-.08-.2-.12-.04.14-.09.27-.1.41,0,.04.12.08.24.15ZM10.9,87.51c-.08.12-.18.21-.17.28.01.13.09.26.15.39.05-.08.15-.16.15-.24,0-.13-.07-.27-.12-.43Zm18.83,88.22c.02-.17.06-.31.05-.45,0-.04-.13-.08-.2-.12-.04.14-.09.27-.1.41,0,.04.12.08.24.15Zm-9.13-100.42c-.08.12-.18.21-.17.28.01.13.09.26.15.39.05-.08.15-.16.15-.24,0-.13-.07-.27-.12-.43Zm102.06,100.49c-.17-.02-.31-.06-.45-.05-.04,0-.08.13-.12.2.14.04.27.09.41.1.04,0,.08-.12.15-.24Zm12.14,3.39c-.11.07-.24.12-.24.15,0,.14.06.27.1.41.07-.04.19-.08.2-.12,0-.14-.03-.28-.05-.45Zm-32.23.91c-.01-.11,0-.24-.02-.24-.14-.02-.27-.01-.41,0,0,0-.01.19,0,.2.13.03.27.03.43.04Zm-37.72-3.71c.12-.08.2-.13.27-.18-.13-.05-.26-.13-.39-.15-.07,0-.16.09-.24.15.12.06.25.13.35.18Zm-42.09-27.79c.24-.1.32-.14.41-.17-.09-.07-.17-.17-.27-.2-.07-.02-.17.06-.25.1.05.11.09.22.12.27Zm121.86,36.69s-.16-.07-.27-.12c-.04.09-.12.18-.1.25.03.1.13.18.2.27.04-.09.07-.17.17-.41ZM12.55,35.98c.1-.05.23-.12.35-.18-.08-.05-.16-.15-.24-.15-.13.01-.26.09-.39.15.08.05.16.1.27.18Zm66.83,141.6c-.08.12-.18.21-.17.28.01.13.09.26.15.39.05-.08.15-.16.15-.24,0-.13-.07-.27-.12-.43Zm34.15,12.23c.02-.17.06-.31.05-.45,0-.04-.13-.08-.2-.12-.04.14-.09.27-.1.41,0,.04.12.08.24.15Zm-15.27-11.31c-.07-.11-.12-.24-.15-.24-.14,0-.27.06-.41.1.04.07.08.19.12.2.14,0,.28-.03.45-.05Zm-31.73-8.69s-.1.08-.1.1c.02.07.06.14.1.21.03-.03.1-.08.1-.1-.02-.07-.06-.14-.1-.21Zm58.28,8.87s-.08-.08-.11-.11c-.03.07-.08.14-.1.21,0,.03.06.07.1.1.04-.07.08-.14.11-.2Zm-52.45-1.79s.08.08.11.11c.03-.07.08-.14.1-.21,0-.03-.06-.07-.1-.1-.04.07-.08.14-.11.2Zm70.52-1.09c-.07.04-.13.07-.2.11.03.03.08.1.1.1.07-.02.14-.06.21-.1-.03-.03-.07-.07-.11-.11Zm-111.64-2.19c-.07.04-.13.07-.2.11.03.03.08.1.1.1.07-.02.14-.06.21-.1-.03-.03-.07-.07-.11-.11Zm-2.86-1.61s-.1.08-.1.1c.02.07.06.14.1.21.03-.03.1-.08.1-.1-.02-.07-.06-.14-.1-.21Zm83.54-1.52c-.07.04-.13.07-.2.11.03.03.08.1.1.1.07-.02.14-.06.21-.1-.03-.03-.07-.07-.11-.11Zm-85.62-2.35c-.04-.07-.07-.13-.11-.2-.03.03-.1.08-.1.1.02.07.06.14.1.21.03-.03.07-.07.11-.11Zm25.53,12.31s-.1.08-.1.1c.02.07.06.14.1.21.03-.03.1-.08.1-.1-.02-.07-.06-.14-.1-.21Zm58.79,0s-.1.08-.1.1c.02.07.06.14.1.21.03-.03.1-.08.1-.1-.02-.07-.06-.14-.1-.21ZM18.58,53.58c.04.07.07.13.11.2.03-.03.1-.08.1-.1-.02-.07-.06-.14-.1-.21-.03.03-.07.07-.11.11Zm10.54,127.68c-.04-.07-.07-.13-.11-.2-.03.03-.1.08-.1.1.02.07.06.14.1.21.03-.03.07-.07.11-.11Zm30.33.22s-.08-.08-.11-.11c-.03.07-.08.14-.1.21,0,.03.06.07.1.1.04-.07.08-.14.11-.2Zm-42.91-44.56s.08-.08.11-.11c-.07-.03-.14-.08-.21-.1-.03,0-.07.06-.1.1.07.04.14.08.2.11Zm11.26-.63s.08-.08.11-.11c-.07-.03-.14-.08-.21-.1-.03,0-.07.06-.1.1.07.04.14.08.2.11Zm-12.76-20.71c-.04-.07-.07-.13-.11-.2-.03.03-.1.08-.1.1.02.07.06.14.1.21.03-.03.07-.07.11-.11Zm.47-13.92s-.08.08-.11.11c.07.03.14.08.21.1.03,0,.07-.06.1-.1-.07-.04-.14-.08-.2-.11Zm64.58,80.53c-.04-.07-.07-.13-.11-.2-.03.03-.1.08-.1.1.02.07.06.14.1.21.03-.03.07-.07.11-.11ZM30.62,94.39s.08-.08.11-.11c-.07-.03-.14-.08-.21-.1-.03,0-.07.06-.1.1.07.04.14.08.2.11Zm-14.94-1.94c-.04-.07-.07-.13-.11-.2-.03.03-.1.08-.1.1.02.07.06.14.1.21.03-.03.07-.07.11-.11Zm7.35-14.01c.07-.04.13-.07.2-.11-.03-.03-.08-.1-.1-.1-.07.02-.14.06-.21.1.03.03.07.07.11.11Zm6.34-4.6c-.07.04-.13.07-.2.11.03.03.08.1.1.1.07-.02.14-.06.21-.1l-.11-.11Zm-6.5-2.35c-.04-.07-.07-.13-.11-.2-.03.03-.1.08-.1.1.02.07.06.14.1.21.03-.03.07-.07.11-.11Zm-10.23-9.47c.04.07.07.13.11.2.03-.03.1-.08.1-.1-.02-.07-.06-.14-.1-.21-.03.03-.07.07-.11.11Zm104.29,125.02c-.07.04-.13.07-.2.11.03.03.08.1.1.1.07-.02.14-.06.21-.1-.03-.03-.07-.07-.11-.11Zm-27.83-8.85s.08-.08.11-.11c-.07-.03-.14-.08-.21-.1-.03,0-.07.06-.1.1.07.04.14.08.2.11Z" fill="#57D694"></path><path d="m172.46,54.95c-.17,1.9-.55,3.66-.38,5.46.07.69-.06,1.36.25,2.08.24.56.28,1.4-.43,1.98-.26.21-.27.72-.47,1.04-.51.81-1.48.96-2.24,1.37-.97.52-1.02.41-2.04-.04-.22-.1-.45-.18-.68-.24-.33-.08-.78-.03-.99-.23-.46-.45-1.03-.79-1.25-1.5-.28-.9-.77-1.73-.61-2.72.01-.07-.1-.16-.15-.24-.07.07-.18.13-.22.22-.1.22-.16.46-.25.68-.05.12-.11.28-.22.34-1.44.8-1.43.8-2.29,2.01-.21.29-.49.53-.75.79-.22.22-.54.4-.65.67-.43,1.04-.97,1.93-2.19,2.17-.44.65-.93,1.27-1.32,1.95-.33.58-.54,1.2-1.37,1.19-.1,0-.21.25-.29.41-.5.99-1.13,1.87-1.94,2.64-.6.57-1.02,1.3-1.76,1.75-.28.17-.49.51-.67.8-.38.62-.85,1.09-1.52,1.38-.35.15-.67.41-.98.66-.34.28-.61.8-1.11.19-.04-.05-.34.11-.52.18-2.03.82-2.56.24-3.83-.84-.72-.62-1.54-1.21-1.9-2.17-.02-.04-.07-.08-.11-.11-1.13-.83-1.69-2.11-2.54-3.17-.11-.14-.13-.42-.25-.46-.64-.22-1.18-.42-1.06-1.3.03-.23-.41-.54-.65-.8-.32-.34-.71-.63-.98-1.01-.22-.3-.36-.69-.45-1.06-.23-1.01-1.01-1.6-1.67-2.28-.45-.47-.98-.84-1.04-1.62-.02-.22-.14-.71-.7-.8-.36-.06-.92-.36-.76-1.04.04-.17-.18-.45-.34-.62-.54-.57-1.09-1.12-1.65-1.66-.3-.29-.61-.56-.49-1.05.03-.13.02-.37-.07-.43-.9-.64-1.05-2.01-2.29-2.32-.13-.03-.31-.2-.32-.32-.13-1.15-1.13-1.64-1.79-2.38-.31-.36-.44-.72-.57-1.18-.18-.62-.6-1.29-1.11-1.67-.79-.58-1.59-1.05-1.71-2.13-.72-.47-.7-1.8-1.94-1.68-.05,0-.11-.25-.19-.35-.06-.07-.17-.1-.26-.15-.23.5-.85.5-1.13,1.06-.37.75-1.06,1.34-1.61,1.99.05,1.11-1.19,1.43-1.46,2.37-.08.26-.42.45-.64.67-.28.29-.52.55-.56,1.03-.03.39-.39.78-.66,1.12-.6.75-1.35,1.4-1.84,2.21-.54.9-1.14,1.74-1.83,2.52-.13.14-.16.39-.31.49-.94.67-1.28,1.76-1.88,2.67-.34.51-.39,1.22-1.18,1.39-.18.04-.24.5-.39.74-.18.29-.62.77-.57.81.48.5-.06.41-.25.6-.38.39-.8.73-1.09,1.25-.38.67-.4,1.7-1.45,1.9-.06.01-.06.28-.12.4-.71,1.48-1.68,2.78-2.75,4.02-.22.26-.48.55-.54.86-.17.93-1.23,1.3-1.35,2.23-.92.24-1.12,1.2-1.73,1.76-.08.07-.15.21-.22.21-1.33.02-2.52,1.42-3.95.41-.79.15-1.22-.22-1.47-.94-.08-.22-.34-.39-.54-.56-.48-.42-1.12-.74-1.43-1.26-.33-.56-.77-.86-1.28-1.17-.17-.1-.22-.41-.32-.64-.06-.13-.05-.35-.14-.4-1.62-.87-2.08-2.8-3.49-3.87-.31-.23-.29-.98-.59-1.1-.48-.2-.68-.47-.86-.91-.25-.59-1.04-.66-1.31-1.31-.24-.58-.64-1.09-.98-1.63-.35-.54-.71-1.06-1.07-1.59-.05-.08-.08-.23-.14-.24-.91-.17-1.43-.75-1.74-1.58-.31-.83-1.32-1.11-1.58-2.01-.06-.22-.33-.38-.52-.57-.4-.39-.48-.39-.71.11-.62,1.31-1.31,2.58-2.47,3.51-.15.12-.35.33-.33.47.08.58-.33.87-.68,1.13-1.37,1.02-2.12,2.5-2.95,3.92-.1.16-.12.38-.23.53-.38.48-1.14.53-1.33,1.31-.15.61-.55,1.17-1.28,1.32-.06.01-.08.17-.12.25-.86,1.75-2.06,3.24-3.26,4.76-.57.73-.99,1.6-1.7,2.25-.3.28-.55.61-1.04.52-.17-.03-.4.04-.55.15-.71.5-1.5.52-2.31.46-.59-.04-1.27.27-1.7-.41-.32-.5-1.06-.67-1.03-1.46.01-.23-.36-.46-.52-.71-.15-.24-.43-.58-.36-.76.39-1.06.08-2.27.78-3.28.37-.54.67-1.06,1.19-1.53.76-.69,1.4-1.57,1.89-2.48.68-1.29,1.68-2.26,2.68-3.26.64-.64,1.33-1.25,1.27-2.29,0-.16.15-.36.28-.5.85-.93,1.83-1.71,2.36-2.93.3-.69,1.09-1.1,1.34-1.96.11-.38.41-.94,1.02-1.14.31-.1.52-.51.67-.95.26-.77.76-1.47,1.24-2.14.34-.47,1.18-.61.93-1.48-.03-.11.24-.3.37-.46.29-.35.55-.72.87-1.04.26-.27.62-.44.87-.72.26-.29.51-.61.74-.92.49-.67,1.17-1.39,1.93-1.63.81-.27,1.81-.13,2.7.03.96.18,1.34.61,2.06,1.38.45.47.83,1.02,1.49,1.29.34.14.57.55.84.85.03.03-.02.13,0,.15.62.57,1.37,1.05,1.84,1.72.44.63.58,1.48,1.5,1.69.71,1.37,2.3,2.12,2.61,3.77.02.13.15.28.27.35,1.15.69,1.78,1.87,2.71,2.78.8.78,1.35,1.82,2.02,2.74.24.32.51.63.77.93.23.26.49.46.49.9,0,.71.78.65,1.18.97.1.09,1.22-.82,1.3-1.01.39-.94.94-1.79,1.75-2.37.28-.2.46-.26.44-.6-.04-.7.39-1.06.9-1.5.7-.6,1.3-1.35,1.62-2.28.09-.25.31-.58.54-.64.73-.22,1.07-.85,1.22-1.4.16-.59.38-1.08.84-1.37.81-.5.76-1.49,1.4-2.11.55-.53.99-1.25,1.26-1.96.21-.54.99-.39,1.02-1.13.02-.41.55-.79.81-1.21.36-.58.68-1.18,1.02-1.77.07-.13.13-.26.2-.38.24-.43.97-.47,1.01-.95.04-.58.49-.75.73-1.12.11-.16.25-.36.23-.52-.11-.76.4-1.09.92-1.43.24-.16.56-.32.64-.56.44-1.34,1.59-2.14,2.38-3.21.2-.27.34-.6.56-.86.61-.74,1.45-1.38,1.83-2.22.54-1.2,2-1.12,2.55-2.17.78-.12,1.57-.34,2.35-.33.59,0,1.05.5,1.49.92.32.31.68.61,1.09.76.56.21.62.99,1.09,1.06.69.1.7.65.96,1.03.18.26.26.52.64.68.32.13.48.61.74.91.36.42.35,1.2,1.14,1.22.47,1.48,1.93,2.36,2.31,3.89.06.23.19.46.35.63.61.66,1.2,1.28,1.6,2.15.31.69.96,1.32,1.53,1.85.99.92,1.36,2.25,2.4,3.1.39,1.65,1.85,2.63,2.6,4.08.43.83,1.34,1.35,1.84,2.21.41.68,1.01,1.25,1.53,1.87.48.58.85,1.38,1.47,1.69.76.38.76,1.08,1.03,1.63.3.6.92.75,1.28,1.3.5.78,1.19,1.44,1.62,2.31.29.59.63.6,1.07.12.33-.37.59-.79.89-1.19.27-.36.54-.72.82-1.07.23-.28.44-.6.73-.78.68-.44,1.12-1.13,1.82-1.56.82-.52,1.25-1.43,1.82-2.2.02-.03-.02-.12,0-.15.16-.2.31-.43.51-.57.99-.67,1.54-1.82,2.55-2.46.65-.41,1.32-.74,1.34-1.67,0-.18.43-.35.66-.52.08-.06.16-.11.24-.16-.08-.05-.17-.16-.25-.15-1.11.16-1.97-.52-2.93-.86-.5-.18-.94-.5-1.4-.76-.03-.9-.87-1.55-.74-2.51.05-.36.03-.73,0-1.09-.03-.39.12-.65.36-.95.56-.69,1.04-1.44,1.57-2.16.12-.16.33-.43.44-.41,1.07.25,2.09-.85,3.21-.06.31.22.92.07,1.38.02.39-.03.66.29,1.17.07.62-.26,1.43-.03,2.16-.07.49-.03,1.02.22,1.46-.28.09-.1.55-.04.7.1.37.36.94-.03,1.15.23.4.5.58-.07.87-.06,1.04.05,2.09.1,3.12,0,1.05-.11,1.68.44,2.09,1.22.54,1.04,1.02,2.1.99,3.35-.02.99.23,1.99.35,2.88Z" fill="#57D694"></path><path d="m150.32,120.78c1.23-.14,2.38-.33,3.53-.37,1-.04,1.97.47,2.99.29.43-.07.85.05,1.32-.24.38-.24,1.07-.22,1.51-.04,1,.41,1.92.48,2.89-.02.09-.05.31.03.41.11.36.33.91.31,1.14.13.44-.36.88-.23,1.32-.24.78-.01.98.2,1.03.95.03.4-.08.83.32,1.12-.38.8-.03,1.81-.7,2.52-.26.27-.36.48-.04.76.07.06.14.22.11.25-.53.68-.47,1.58-.88,2.3-.31.55-.75,1.05-.97,1.63-.39,1.05-.97,1.93-1.78,2.71-.61.59-1.12,1.3-1.67,1.96-.63.74-1.44,1.23-2.24,1.75-.55.35-.99.85-1.53,1.23-.59.42-1.38.52-1.89,1.1-.08.1-.27.16-.4.15-.86-.06-1.52.42-2.13.88-.37.28-.68.36-1.1.39-.64.05-1.27.24-1.9.29-.62.05-1.39-.22-1.84.06-.85.52-1.52-.11-2.27-.06-.83.06-1.7.16-2.49-.02-1.36-.31-2.68-.82-4-1.28-.22-.08-.39-.34-.55-.54-.21-.25-.46-.33-.8-.35-1.11-.06-2.11-.38-2.63-1.5-.02-.04-.07-.09-.11-.11-.39-.19-.83-.31-1.16-.57-.29-.23-.45-.62-.7-.92-.08-.09-.39-.13-.38-.15.19-.92-.59-1.09-1.11-1.39-.82-.48-.69-1.57-1.42-2.08-.11-.98-1.32-1.58-.94-2.74-.51-.33-.15-1.06-.7-1.45-.3-.22-.51-.75-.52-1.16-.04-.96-.37-1.83-.56-2.74-.2-.94-.2-1.98-.04-2.93.09-.55.35-1.04.05-1.58.47-.49.2-1.09.19-1.63,0-.88.09-1.67.63-2.41.21-.29.22-.74.33-1.11.07-.23.12-.51.29-.65.32-.27.36-.59.34-.96-.03-.67.17-1.2.84-1.51.19-.09.38-.39.39-.6.04-.79.56-1.26,1.05-1.76.92-.92,1.82-1.86,2.77-2.76.66-.62,1.37-1.2,2.08-1.76.18-.14.46-.24.68-.21.51.06.88-.25,1.21-.48,1.15-.8,2.47-1.1,3.8-1.41.48-.11,1.04.2,1.43-.32.82.1,1.58-.18,2.37-.29.94-.13,1.23.12,1.15,1.08-.04.46.49.8.08,1.33-.31.4.38,1.06.24,1.39-.64,1.45.19,3.05-.55,4.46-.06.11.17.35.17.53.02.91.01,1.81-.01,2.72,0,.23-.25.54-.17.69.56.97.22,2.01.28,3.01.06,1.04.03,2.08,0,3.12,0,.17-.18.34-.25.52-.1.26-.11.48.27.52,1.1.12,2.2.26,3.24.38Z" fill="#57D694"></path><path d="m109.84,97.93c-.01.05,0,.33-.13.53-.27.44-.24.85-.03,1.28.06.13.13.26.17.4.22.73-.34,1.41-.13,2.14.19.68.3,1.34-.14,2.02-.19.3-.19.92,0,1.21.61.93.21,1.92.24,2.86.01.48-.28.95.03,1.47.27.45-.45.94,0,1.47.13.15.07.51.01.76q-.38,1.75,0,3.5c.05.25.11.59-.01.77-.48.71-.28,1.48-.29,2.23-.03,2.03-.03,4.07,0,6.1,0,.64-.23,1.34.3,1.91.05.06,0,.2,0,.31.02.8-.8,1.6-.01,2.4,0,.88.07,1.77,0,2.65-.05.69.34,1.45-.28,2.07-.05.05.06.27.1.41.06.18.21.38.18.54-.12.7-.16,1.37-.02,2.09.14.7.04,1.45.03,2.18-.01.5-.38.98-.66.83-1.13-.59-2.34-.06-3.47-.32-.79-.18-1.47-.16-2.17.22-.21.11-.49.06-.73.13-.85.26-1.68-.85-2.54-.04-.78-.7-1.82.1-2.63-.45-.37-.25-.38.17-.55.28-.37.22-.91.14-.97-.24-.07-.4-.12-.85-.02-1.23.37-1.46.38-1.45,0-2.87-.1-.36.14-.65.28-.98.18-.44.7-.91.1-1.49-.19-.18-.09-.69-.06-1.05.04-.49-.21-1.04.28-1.44-.48-.4-.26-.94-.29-1.43-.03-.52,0-1.04,0-1.56v-2.97c0-.52.03-1.04,0-1.56-.04-.54.22-1.12-.28-1.61-.13-.13-.1-.53,0-.76.47-1.12.47-2.22,0-3.35-.11-.27-.08-.64,0-.93.12-.44.6-.98.46-1.24-.24-.48-.11-.91-.15-1.35-.05-.52-.04-1.04,0-1.56.03-.49-.19-1.03.29-1.45.1-.09.09-.48-.02-.58-.5-.49-.2-1.08-.27-1.61-.1-.71.47-1.5-.3-2.13-.05-.04-.06-.24-.01-.29.6-.68.23-1.48.29-2.22.07-.78-.03-1.57.03-2.34.04-.59-.14-1.16.24-1.78.21-.34-.08-1.06-.28-1.55-.22-.53-.13-.89.32-1.19.42-.27.99-.35,1.24.02.4.6.76.11,1.12.12.73.02,1.46,0,2.19,0,.42,0,1.07.16,1.2-.03.31-.45.64.07.96-.19.22-.17.74.02,1.13.08.62.09,1.19.45,1.88.17.28-.11.69-.13,1.02.17.06.05.48-.38.78-.49.23-.09.51-.02.78-.02q.88,0,.85,1Z" fill="#57D694"></path><path d="m82.35,109.45s.35.14.68.22c.16.04.36-.01.53-.05.14-.03.3-.19.39-.16,1.69.7,3.36-.31,5.06-.04.73.12,1.42.41,2.21.38.82-.03,1.56-.26,2.32-.48.52-.15.9,0,.98.43.02.1-.02.22,0,.31.23.7-.83,1.39,0,2.09-.14.69.28,1.44-.25,2.09-.02.03.07.14.09.22.19.79.34,1.55-.11,2.33-.16.28-.17.78-.02,1.06.33.63.33,1.27.27,1.91-.05.58.3,1.25-.29,1.76-.05.04.06.27.11.41.34,1.04.25,2.09.06,3.14-.08.44-.29.95-.15,1.32.39,1.04.43,2.02-.02,3.04-.1.22-.01.51-.01.77,0,2.55-.02,5.1.01,7.65,0,.58.22,1.16.29,1.75.04.32.06.67-.43.24-.24-.21-.62-.26-.94-.34-.19-.05-.42-.08-.61-.03-.54.14-.85.92-1.68.35-.43-.29-1.22-.03-1.84-.06-.66-.02-1.32-.08-1.97-.14-.08,0-.19-.14-.22-.12-.41.31-.76.54-1.37.3-.47-.19-1.08-.11-1.58.26-.34.25-.69-.4-1.17-.02-.26.2-.81.06-1.22.03-.55-.04-.66-.32-.49-1.01.06-.24.05-.5.08-.75.15-1.05-.3-2.13.28-3.17.13-.24-.2-.72-.27-1.1-.1-.57-.38-1.24-.18-1.68.26-.58.11-1.11.16-1.65.06-.62-.1-1.27.04-1.87.2-.83.25-1.58-.26-2.31-.1-.14-.15-.47-.06-.58.49-.59.21-1.28.31-1.91.04-.23.29-.47.25-.66-.08-.38-.42-.73-.42-1.09,0-.35.34-.68.46-1.04.07-.23.09-.61-.05-.74-.42-.41-.08-.93-.27-1.3-.32-.63.56-1.02.18-1.7-.25-.44-.14-1.09-.16-1.65-.02-.62-.04-1.25,0-1.87.04-.54-.26-1.15.3-1.59-.48-.48-.39-.97-.08-1.5.03-.05-.15-.21-.17-.32-.21-1.07-.14-1.16,1.22-1.14Z" fill="#57D694"></path><path d="m150.45,114.4c.17-.61-.17-1.15.27-1.6.08-.08.03-.37-.05-.51-.25-.43-.27-.87,0-1.27.18-.26.16-.41,0-.66-.13-.19-.23-.59-.13-.69.54-.59.27-1.29.27-1.92,0-.63.23-1.28-.24-1.93-.21-.3.31-.86.29-1.4-.06-1.19-.03-2.39-.01-3.59,0-.39-.18-.82.22-1.17.07-.06-.04-.34-.06-.52-.06-.55-.11-1.1-.15-1.65,0-.03.22-.13.26-.1.52.4,1.1.15,1.65.16.58.01,1.22-.51,1.66.3.03.05.2.05.29.03,1.58-.35,2.85.7,4.3.95.23.04.51.14.64.31.6.8,1.67.86,2.34,1.56.28.29.77.38,1.16.57,1.37.68,2.15,1.95,2.99,3.12.52.73,1.42,1.32,1.3,2.42.81.07.89.86,1.29,1.32.27.31.49.76.54,1.17.08.56.12,1.02.53,1.52.36.44.39,1.21.41,1.83.02.57.23,1.06.31,1.59.07.47.73.87.24,1.38-.4.42-.12.89-.21,1.32-.09.39-.97.72-1.28.42-.37-.36-.59-.54-1.14-.16-.35.24-1.01.05-1.53.05-1.25,0-2.5.04-3.75-.01-.84-.03-1.68-.22-2.53-.28-.27-.02-.64.08-.81.26-.52.56-1.18.48-1.69.23-.42-.21-.93,0-1.14-.22-.43-.46-.69.06-1.02.05-1.3-.05-2.6-.04-3.9,0-.49.01-.81-.18-.9-.62-.16-.78-.27-1.57-.38-2.24Z" fill="#57D694"></path><path d="m50.43,136.98c.18-.71-.3-1.59.28-2.43.14-.21-.21-.72-.27-1.1-.08-.59.18-1.15.03-1.78-.16-.69-.04-1.45-.04-2.18,0-.68-.02-1.36,0-2.03.01-.29.13-.57.18-.86.03-.17.09-.41,0-.52-.26-.39-.3-.71.02-1.09.11-.13.16-.45.08-.57-.52-.75-.24-1.59-.28-2.38-.02-.44.09-.89.14-1.34.56.04,1.16-.04,1.66.15.34.12.51.2.78-.07.08-.09.29-.1.43-.08.42.07.98.37,1.22.2.46-.31.9-.21,1.33-.2,1.31.05,2.63-.19,3.95.26.78.27,1.94,0,2.93-.41.41-.17.7-.28,1.08.05.43.37-.05.62-.04.88.03.6-.24,1.14-.1,1.79.2.89,0,1.87.06,2.8.06.87-.16,1.69-.33,2.53.62.72.24,1.58.29,2.37.03.43.19.93-.17,1.33-.04.04-.05.18-.02.21.76.66.19,1.44.2,2.16.02,1.56,0,3.13.01,4.69,0,.36-.23.32-.46.43-.48.23-.8-.5-1.35-.07-.29.23-.91.04-1.37.04-.52,0-1.04.02-1.56,0-.29-.01-.6-.05-.87-.15-.64-.24-1.25-.21-1.9,0-.42.13-1.03.31-1.31.12-.58-.39-.98-.08-1.5-.02-.42.05-.68.63-1.23.28-.35-.22-.88-.11-1.31-.23-.34-.1-.6-.35-.58-.78.02-.62,0-1.25,0-2Z" fill="#57D694"></path><path d="m66.84,124.99c.28.11.58.32.91.35.35.03.82-.27,1.04-.13.41.27.8.17,1.18.17.39,0,.8-.1,1.17-.15,1.1-.14,2.24-.15,3.34.01.96.14,1.89.22,2.84,0,.14-.03.27-.16.4-.15.5.03,1,.09,1.49.16.08.01.22.15.21.21-.07.46-.06.99-.29,1.36-.24.38-.07.55,0,.9.17.8.12,1.65.06,2.48-.05.74.27,1.53-.27,2.23-.13.17-.13.57,0,.75.48.76.12,1.61.33,2.37.17.64-.47,1.06-.24,1.71.2.55.17,1.19.19,1.79.01.24-.05.5-.16.71-.06.11-.31.22-.42.18-1.21-.39-2.46-.05-3.68-.18-.49-.05-1.04.24-1.46-.25-.05-.06-.22-.09-.28-.05-.95.63-2,.2-3,.29-.48.04-.95.03-1.47-.22-.46-.22-1.18-.24-1.77.11-.24.14-.59.13-.88.11-.12,0-.33-.32-.3-.37.39-.66.53-1.29,0-1.95-.08-.1,0-.3-.02-.46-.06-.63.66-1.19.19-1.85-.4-.57-.14-1.2-.18-1.8-.05-.67.08-1.37-.04-2.03-.11-.61.31-1.14.07-1.79-.2-.55-.04-1.24-.04-1.86,0-.3.08-.74-.08-.89-.65-.58.04-1.03.13-1.5.03-.14.62-.17,1.04-.27Z" fill="#57D694"></path></svg> 