<?xml version="1.0" encoding="UTF-8"?> <svg xmlns="http://www.w3.org/2000/svg" xmlns:xlink="http://www.w3.org/1999/xlink" id="Icon_2" data-name="Icon 2" width="89.893" height="90" viewBox="0 0 89.893 90"><defs><clipPath id="clip-path"><rect id="Rectangle_29" data-name="Rectangle 29" width="89.893" height="90" fill="#f2b538"></rect></clipPath></defs><g id="Group_26" data-name="Group 26" clip-path="url(#clip-path)"><path id="Path_74" data-name="Path 74" d="M.2,89.05c-.054-.265.114-.612-.138-.911a.28.28,0,0,1,.021-.27.346.346,0,0,0-.014-.557c-.026-.025-.022-.094-.013-.137a2.927,2.927,0,0,0,.133-.595,4.8,4.8,0,0,0-.128-.6.578.578,0,0,1,.056-.336.837.837,0,0,0,.019-.74C.092,84.8.017,84.65.06,84.585c.216-.33-.165-.678.068-1.022a.751.751,0,0,0,.053-.617,1.971,1.971,0,0,1-.018-1.2,2.04,2.04,0,0,0-.081-1.4.422.422,0,0,1-.026-.276c.028-.13.129-.252.129-.377s-.124-.251-.124-.376.122-.249.128-.376a8.283,8.283,0,0,0,0-1.091c-.027-.345.139-.719-.136-1.034-.024-.028-.013-.1,0-.142.038-.148.165-.364.11-.429a.562.562,0,0,1-.108-.47c.036-.394.114-.784.134-1.177.011-.224.092-.472-.121-.68-.051-.049-.026-.252.035-.326.119-.142.121-.228-.008-.361-.271-.281.175-.528.047-.843a1.512,1.512,0,0,1-.052-.821,2.025,2.025,0,0,0-.026-1.28A.821.821,0,0,1,.1,69.8.848.848,0,0,0,.1,69,.5.5,0,0,1,.062,68.6c.191-.287.046-.62.152-.886C.336,67.4.13,67.16.18,66.874c.033-.183-.12-.394-.12-.591s.135-.4.125-.594a3.388,3.388,0,0,0-.1-1.117,1.376,1.376,0,0,1,.075-1.107c.186-.344-.13-.678-.1-1.014.031-.314.269-.64.079-.934-.134-.208.04-.3.035-.414-.02-.47.158-.957-.089-1.411-.011-.02-.039-.041-.035-.057.048-.222.262-.451.129-.658a.909.909,0,0,1-.128-.6,2.881,2.881,0,0,1,.118-1.115A.857.857,0,0,0,.117,56.5a.668.668,0,0,1-.052-.545A2.446,2.446,0,0,0,.186,54.7,5.247,5.247,0,0,0,.073,53a.932.932,0,0,1,.089-.893.328.328,0,0,0,.028-.273,7.759,7.759,0,0,1-.119-2.562c-.01-.224.157-.478.122-.739a2.863,2.863,0,0,0-.108-.681,1.163,1.163,0,0,1,.057-.969A.519.519,0,0,0,.131,46.5a1.477,1.477,0,0,1-.007-1.028,1.2,1.2,0,0,0,0-.884,1.189,1.189,0,0,1,0-.74c.075-.375.328-.722.1-1.173A2.484,2.484,0,0,1,.2,41.669c0-.534.011-1.068,0-1.6a2.04,2.04,0,0,0-.114-.825,1.634,1.634,0,0,1,.055-.9.387.387,0,0,0,0-.308.8.8,0,0,1-.071-.475A4.414,4.414,0,0,0,.07,35.492a1.564,1.564,0,0,1,.08-1.121A.546.546,0,0,0,.194,34.1c0-.534.014-1.068,0-1.6-.006-.175-.127-.348-.129-.523,0-.194.166-.454.088-.569C0,31.193.075,30.992.057,30.788a.531.531,0,0,1,.087-.323c.091-.132,0-.2-.031-.308a.947.947,0,0,1,0-.531c.036-.113.1-.175.026-.309S0,28.951.066,28.858a.393.393,0,0,0-.008-.551.273.273,0,0,1,.035-.263c.408-.358.149-.79.063-1.139a1.723,1.723,0,0,1,0-1,3.8,3.8,0,0,0,.04-1c-.379-.348,0-.7.02-1.043.006-.129.154-.208.039-.417s.033-.568-.094-.753c-.183-.267-.087-.423.032-.629a.232.232,0,0,0,0-.144c-.04-.208-.3-.37-.064-.64.119-.139.114-.384.167-.58.012-.043.054-.112.041-.123-.306-.267,0-.611-.123-.922C.1,19.366.278,19,.057,18.7a.35.35,0,0,1,0-.284,7.45,7.45,0,0,0,.142-2.2c.016-.155-.129-.284-.127-.376.007-.323-.132-.664.084-.978a.454.454,0,0,0,.035-.342c-.073-.244-.241-.5-.124-.735.132-.259-.06-.459-.016-.687.047-.247-.112-.533.144-.744a.14.14,0,0,0,0-.138c-.171-.148-.242-.353-.067-.481.08-.058.34.069.477.169a.413.413,0,0,0,.453.038,2.954,2.954,0,0,1,1.223-.1c.289.025.583-.013.872.011.25.02.528-.113.753.121.027.027.156-.053.241-.071.113-.025.252-.088.337-.047a.861.861,0,0,0,1-.121.323.323,0,0,1,.273-.027,3.351,3.351,0,0,0,1.872.061c.062-.011.135.055.206.077a1.84,1.84,0,0,0,.521.137,3.014,3.014,0,0,0,.595-.134c.2-.045.429.09.612-.114.046-.051.181-.037.273-.03.382.028.4.031.395-.251-.006-.227.088-.466-.107-.686a.482.482,0,0,1-.023-.415,2.058,2.058,0,0,0,0-1.414c-.064-.224.034-.492-.021-.722-.081-.337-.168-.647.123-.929A.2.2,0,0,0,10.21,7.1c-.258-.327-.057-.7-.117-1.045-.039-.225.083-.475-.129-.678-.049-.048-.033-.188-.015-.279a2.444,2.444,0,0,0,0-1.481.215.215,0,0,1,0-.143c.329-.5-.059-1.129.284-1.631a.234.234,0,0,0,0-.212c-.271-.4-.1-.836-.134-1.253-.024-.3.138-.441.358-.289.188.13.364.07.536.123.377.115.713-.192,1.128-.032A3.214,3.214,0,0,0,13.274.2c.183,0,.367.045.536-.126A.467.467,0,0,1,14.228.07a1.689,1.689,0,0,0,1.2.021A1.992,1.992,0,0,1,16.69.16a1.492,1.492,0,0,0,.677-.029c.089-.008.177-.073.261-.065.194.019.445.158.566.081.219-.14.42-.059.624-.081a1.421,1.421,0,0,1,.649.008A2.532,2.532,0,0,0,20.577.2c.273-.012.569.106.822-.129.05-.046.235,0,.323.063.117.078.192.1.309,0a.588.588,0,0,1,.258-.075c.25-.045.462.223.767.021.186-.122.519-.033.785-.018.133.008.262.086.4.091a2.775,2.775,0,0,0,.826-.025c.167-.045.294-.114.451-.006.054.037.146.095.181.074A1.632,1.632,0,0,1,27.035.193a.658.658,0,0,0,.55-.064c.128-.082.35-.025.53-.013.061,0,.124.093.178.085a3.841,3.841,0,0,0,.738-.148c.221-.078.356.326.634.042.176-.18.514.153.707.085a1.037,1.037,0,0,1,.713-.04,3.787,3.787,0,0,0,1.115,0c.062,0,.126-.083.182-.077.351.043.653.236,1.065.04A3.3,3.3,0,0,1,34.59.056c.18-.01.325.2.548.021A.408.408,0,0,1,35.652.2c.015.019.125-.029.186-.058A1.129,1.129,0,0,1,36.721.13a1.525,1.525,0,0,0,1.027,0,1.311,1.311,0,0,1,.886.008,1.1,1.1,0,0,0,.674.006c.153-.055.231-.107.364.018A.283.283,0,0,0,39.936.2c.375-.25.788-.128,1.182-.133q2.255-.022,4.511,0c.322,0,.658-.1.967.129a.523.523,0,0,0,.426,0A9.224,9.224,0,0,1,49.07.042c.243-.043.375.353.637.074.189-.2.38.077.568.079.222,0,.448-.138.666-.123a3.921,3.921,0,0,1,1.621.121c.1.05.361-.171.43-.116.343.266.762-.255,1.068.13a2.335,2.335,0,0,1,.958-.146c.226.039.478-.095.683.119.029.031.157-.042.241-.054A4.5,4.5,0,0,1,57.7.144a2.408,2.408,0,0,0,.683.009.555.555,0,0,0,.249-.094c.24-.153.372.26.651.1a1.55,1.55,0,0,1,.686-.089A1.668,1.668,0,0,1,60.3.135,1.41,1.41,0,0,0,60.78.2a3.887,3.887,0,0,1,2.065,0,.814.814,0,0,0,.5,0A2.681,2.681,0,0,1,64.6.065c.436-.017.873-.014,1.309,0,.127.005.251.128.376.128s.254-.134.376-.125A2.6,2.6,0,0,1,67.5.156c.224.087.611-.23.853-.075.31.2.6.071.9.125.385-.314.848-.164,1.245-.112A5.482,5.482,0,0,0,71.31.2a.79.79,0,0,0,.546-.1c.106-.08.346.016.526.035A2.34,2.34,0,0,0,73.007.2a2.755,2.755,0,0,1,1.484,0c.207.038.443-.121.665-.121s.458.157.664.118c.311-.06.587-.228.912,0,.077.054.286-.111.439-.122s.284.078.426.076a2,2,0,0,0,.471-.087c.3-.075.559.132.857.081a3.939,3.939,0,0,1,.841-.071C80.112.085,80.454.2,80.8.2A4.289,4.289,0,0,0,82.344.077,1.167,1.167,0,0,1,83.2.085c.3.168.51-.184.767-.027a.828.828,0,0,0,.684.024A.87.87,0,0,1,85.4.175.7.7,0,0,0,86.013.15a.779.779,0,0,1,.474-.083c.272.024.611.21.8.106a1.625,1.625,0,0,1,.831-.1A1.09,1.09,0,0,1,88.935.2c.085.066.278.01.418-.013.4-.066.608.1.457.4a.563.563,0,0,0,.014.7c.013.016.009.044.016.066.086.264-.325.457-.066.786a.622.622,0,0,1-.072.786.279.279,0,0,0,.011.273c.232.227.108.5.118.752.007.192-.162.448-.086.569a.855.855,0,0,1,.088.547c0,.2.1.442-.134.6.391.333-.013.75.115,1.135a1.045,1.045,0,0,1-.082.9.7.7,0,0,0,.012.611c.1.168.058.319.1.472.1.362-.3.656-.075,1.077a2.4,2.4,0,0,1,.067,1.059c0,.251.07.512-.129.75a.431.431,0,0,0,.014.412.385.385,0,0,1,.007.567c-.056.07.03.253.051.384a3.57,3.57,0,0,1-.027,1.61c-.033.109-.093.261-.047.336.278.45.067.938.137,1.4-.217.2-.023.4-.016.608.009.244.141.533-.111.747q-.009.8-.019,1.593c.255.261.153.591.135.885a3.832,3.832,0,0,1-.129,1.69c-.068.132.1.258.123.376.086.37-.163.772-.092,1.092a2.175,2.175,0,0,1,.084,1.033,2.575,2.575,0,0,0-.04,1.44c.012.045-.02.1-.031.154a1.144,1.144,0,0,0,.047.885.483.483,0,0,1,.043.27c-.011.141-.068.281-.067.421,0,.159.075.32.065.477a3.018,3.018,0,0,1-.113,1.116.686.686,0,0,0,.112.8c-.26.233-.129.54-.127.809a1.364,1.364,0,0,0,.108.829c.1.155-.113.478-.107.724,0,.221.246.444.123.662a1.552,1.552,0,0,0-.02,1.126,1.462,1.462,0,0,1-.116,1.245c.065.371-.114.756.1,1.126a.544.544,0,0,1,.025.472c-.148.213-.18.357,0,.563.151.175-.342.406.023.6a2.7,2.7,0,0,0-.069.784,1.97,1.97,0,0,1-.016.8,6.518,6.518,0,0,0,.02,1.408.709.709,0,0,0,.072.26c.081.177-.151.293-.068.49a1.685,1.685,0,0,1,.064.555,3.365,3.365,0,0,1,0,.581c-.02.153-.125.3-.129.45,0,.124.11.247.128.377a1.514,1.514,0,0,1-.056.336c-.025.228-.128.5-.036.672a1.007,1.007,0,0,1,.094.544c0,.182-.07.365-.071.548,0,.165.061.329.074.5.014.193,0,.388,0,.582s.014.389,0,.582c-.024.25.111.527-.135.748a.3.3,0,0,0,.006.277,1,1,0,0,1,.025.993.715.715,0,0,0-.022.557,1.653,1.653,0,0,1,.118,1.041c-.006.344.145.716-.116,1.041-.029.037.066.158.072.243a1.091,1.091,0,0,1-.009.531c-.083.159-.1.24.026.364a.211.211,0,0,1,.034.2,1.454,1.454,0,0,0-.005,1.2c.036.142-.066.313-.072.471a6.989,6.989,0,0,0,0,1.409,2.669,2.669,0,0,1,0,1.086,4.38,4.38,0,0,0,0,1.117c.007.159.13.362.068.466a2.124,2.124,0,0,0-.122,1.185,1.971,1.971,0,0,0,.122,1.112c.085.144.022.38.012.574s.034.36-.117.541c-.066.08.086.328.114.5a.476.476,0,0,1-.05.267,1.524,1.524,0,0,0-.027,1.029c.024.111.1.235.075.327-.233.74.111,1.474.007,2.21-.029.2.086.431-.132.606-.048.039-.029.188-.01.279a3.546,3.546,0,0,1,.021,1.483,4.565,4.565,0,0,0,.085,1.99.942.942,0,0,1,.033.421c-.047.416.141.86-.141,1.25a3.29,3.29,0,0,1,.146,1.176,2.128,2.128,0,0,1-.112.534,1.805,1.805,0,0,0,.038.824,6.1,6.1,0,0,1,0,1.7,1.43,1.43,0,0,0,0,.739c.008.02.04.032.049.052.134.336-.09.632-.1.946s.228.625.121.954c-.028.086-.128.372-.335.111a7.219,7.219,0,0,0-1.823-.152,3.541,3.541,0,0,1-1.106.132c-.229-.024-.451.052-.7-.079-.154-.082-.421.068-.639.076-.18.006-.368.064-.542-.1a.421.421,0,0,0-.407-.024c-.285.223-.6.122-.894.129-.752.016-1.5.014-2.255,0a1.037,1.037,0,0,1-.684-.114.789.789,0,0,0-.615.03.979.979,0,0,1-.8,0c-.131-.054-.393.125-.477.055-.205-.169-.413-.08-.616-.107-.176-.025-.193.1-.177.226a.89.89,0,0,0,.064.336.593.593,0,0,1,.015.6.7.7,0,0,0-.075.258.979.979,0,0,0,.121.607c.065.1-.174.414-.108.5.237.293.106.6.119.9a1.021,1.021,0,0,1-.116.754c-.094.126.019.405.042.615,0,.019.039.031.048.052.128.266-.12.508-.083.72s.195.435.077.654a.851.851,0,0,0-.016.795.687.687,0,0,1,.045.48,1.525,1.525,0,0,0-.009,1.2,3.269,3.269,0,0,1,.015,1.084.18.18,0,0,1-.134.114c-.415-.065-.864.175-1.251-.138-.015-.012-.048-.005-.072,0-.3.048-.624.2-.877.118a1.3,1.3,0,0,0-.814-.1,3.946,3.946,0,0,1-1.4.121,1.69,1.69,0,0,1-.609-.1,1.058,1.058,0,0,0-.962.057c-.27.2-.431-.161-.647-.092s-.45.312-.6.259c-.326-.115-.665-.044-.959-.145-.177-.062-.272.033-.4.018-.273-.033-.576.132-.821-.131-.045-.048-.187-.013-.283-.006a1.925,1.925,0,0,0-.753.118c-.181.087-.481-.11-.727-.109-.271,0-.541.114-.813.126-.214.01-.483-.154-.638-.072-.268.142-.517.047-.77.075a6.637,6.637,0,0,1-.727.006c-.243,0-.486.011-.728,0-.225-.013-.478.09-.663-.133-.158.228-.4.125-.6.13-.18,0-.368.064-.543-.1-.078-.075-.279-.058-.415-.031a3.935,3.935,0,0,1-2.067.007,1.451,1.451,0,0,0-.577-.007,2.528,2.528,0,0,1-1.482,0,.326.326,0,0,0-.215,0c-.371.256-.786.113-1.18.136a1.309,1.309,0,0,1-.885-.141c-.237.237-.538.141-.813.139-.226,0-.474.093-.679-.124-.047-.05-.221.009-.332.035a1.245,1.245,0,0,0-.178.095c-.21.087-.4-.12-.623-.038a.7.7,0,0,1-.6-.065.839.839,0,0,0-.7-.02,1.3,1.3,0,0,1-.752.118c-.249-.008-.529.115-.75-.127-.022-.024-.181.033-.236.091a.542.542,0,0,1-.752.077,2.841,2.841,0,0,0-1.8-.124,1.339,1.339,0,0,0-.46.1c-.29.162-.555-.369-.83-.008H42.827c-.316,0-.632-.02-.946.006a4.506,4.506,0,0,0-.9-.024,3.369,3.369,0,0,1-1.014.014c-.227-.013-.481.1-.681-.117-.027-.03-.13-.009-.19.012s-.115.1-.173.105c-1.067.007-2.134,0-3.2,0-.275-.287-.548.047-.826.006-.19-.028-.388,0-.581-.008a.928.928,0,0,1-.549-.089c-.1-.067-.324.073-.5.086a1.252,1.252,0,0,1-.332-.07c-.111-.024-.241-.095-.332-.062a8.38,8.38,0,0,1-2.27.141,2.3,2.3,0,0,1-.427.081c-.124-.016-.23-.172-.354-.186a3.291,3.291,0,0,0-.921-.016,2.033,2.033,0,0,1-1.134-.006c-.075-.015-.164.042-.248.063a.942.942,0,0,0-.263.064c-.18.11-.285-.219-.488-.054a.823.823,0,0,1-.5.183,1.571,1.571,0,0,1-.721-.174.665.665,0,0,0-.507-.034,5.222,5.222,0,0,1-1.407.01,1.233,1.233,0,0,0-.8.015.944.944,0,0,1-.487.044c-.225-.025-.457-.158-.665-.121s-.406.262-.616,0c-.141.168-.334.128-.516.131s-.419.071-.494-.013c-.2-.224-.318.057-.478.018-.317-.077-.666.118-.975-.113-.046-.035-.161.016-.243.036-.065.017-.124.054-.188.071-.275.07-.506-.207-.841-.028a1.071,1.071,0,0,1-.9-.054c-.121-.06-.348.114-.49.069a1.186,1.186,0,0,0-.689-.007.723.723,0,0,1-.746-.106c-.049-.05-.188-.034-.279-.015a3.97,3.97,0,0,1-1.92.02,2.955,2.955,0,0,0-1.556.078.839.839,0,0,1-.483.024,1.607,1.607,0,0,0-1.133,0,.538.538,0,0,1-.281.017c-.69-.228-1.376.107-2.065.01-.162-.023-.33.012-.445-.144a.341.341,0,0,1-.379.137,1.08,1.08,0,0,1-.4-.074.4.4,0,0,0-.454,0,.761.761,0,0,1-.4.071c-.194-.011-.432-.149-.566-.076a.908.908,0,0,1-.55.074c-.343-.027-.715.137-1.028-.128-.287.285-.642.1-.963.127-.2.017-.429.1-.614-.1-.029-.031-.189.063-.29.093-.131.039-.236.03-.235-.147,0-.194,0-.388,0-.636M10.318,43.428h.065a.414.414,0,0,0-.044-.11c-.007-.009-.058.015-.088.024.022.028.045.057.266.171l-.069-.085-.065.065a.683.683,0,0,0,.087.065c.006,0,.029-.028-.152-.129M6.825,26.692H6.89a.405.405,0,0,0-.044-.11c-.007-.009-.057.015-.088.024.022.029.045.058.132.376a.828.828,0,0,0,0,.144.636.636,0,0,0,.047.125,1.762,1.762,0,0,0,.153-.107c.208-.178.038-.287-.081-.4a.141.141,0,0,0-.115.019c-.012.07-.006.144-.071-.074M6.11,75.3c-.177-.023-.38-.037-.466.28-.034.123.014.143.057.206.074.112.132.079.2-.007a1.592,1.592,0,0,1,.2-.174c.194.264.241-.039.343-.1a.3.3,0,0,0-.072-.2c-.043-.035-.136-.007.161-.141l-.085.069.065.065a.689.689,0,0,0,.065-.088c0-.005-.028-.029-.473.088m9.948-2.835c0,.388-.005.776,0,1.164,0,.163-.024.382.066.472s.28-.008.439-.078a.85.85,0,0,1,.7-.011c.283.192.555.092.827.121.5.053.96-.236,1.469-.149a2.024,2.024,0,0,0,.724,0c.189-.037.315.194.551.033.166-.113.47-.025.713-.021a1.2,1.2,0,0,1,.726.112c.195-.231.454-.094.681-.105a.883.883,0,0,1,.61.114c.153.1.4-.195.651-.121.107.032.211.08.319.108.089.022.214.069.271.03A1.654,1.654,0,0,1,25.916,74a11.126,11.126,0,0,1,2.923.136c.584-.074,1.193.16,1.761-.141a.245.245,0,0,1,.213,0,.715.715,0,0,0,.907,0,.382.382,0,0,1,.352,0c.36.279.779-.23,1.121.1a1.948,1.948,0,0,1,1.5.028.42.42,0,0,0,.353,0c.2-.161.362-.212.556-.022a2.653,2.653,0,0,1,1.524,0c.121-.177.305-.1.464-.107.29-.01.582,0,.873,0s.583-.016.873,0,.625-.107.905.094c.3.215.508-.214.795-.1a1.334,1.334,0,0,0,.337.064,2.236,2.236,0,0,0,.683.054,2.9,2.9,0,0,1,1.571,0,1.609,1.609,0,0,0,.911-.035.855.855,0,0,1,.68-.061c.274.155.47-.143.692-.022a2.834,2.834,0,0,0,1.685.115c.409-.035.791-.214,1.2.022.063.037.181-.011.27-.033a1.867,1.867,0,0,1,.32-.1c.266-.015.533-.005.8-.005.251.355.5-.144.753,0,.019.011.061-.009.07,0,.181.232.358-.039.536,0,.222.047.443.108.668.14a.521.521,0,0,0,.342-.042c.228-.159.41-.088.652-.016a1.657,1.657,0,0,0,1.3-.083,2.051,2.051,0,0,0,1.376.1c.242-.084.53-.165.671-.074.277.181.468-.144.7-.024.019.01.049,0,.072,0a5.476,5.476,0,0,0,2.5.006,1.142,1.142,0,0,1,.6.11c.163.06.411-.18.656-.114.041.011.072.074.112.079a5.579,5.579,0,0,0,1.9-.018,4.417,4.417,0,0,1,.974-.009c.084,0,.216.1.241.076.224-.235.5-.117.752-.125.533-.018,1.068-.026,1.6,0a11.218,11.218,0,0,1,2.78.134.511.511,0,0,0,.413-.03c.175-.168.362-.1.543-.105a2.4,2.4,0,0,1,.893.122,1.249,1.249,0,0,0,.856,0,.793.793,0,0,1,.773,0,2.235,2.235,0,0,0,.863.022c.047,0,.116.014.139-.011.24-.266.562-.155.817-.116.407.062.794.231,1.194-.015a.155.155,0,0,1,.141,0,.589.589,0,0,0,.766.015.788.788,0,0,1,.617.045,1.333,1.333,0,0,0,.971.041,1.822,1.822,0,0,1,.609-.1,7.74,7.74,0,0,1,1.255.108A2.475,2.475,0,0,0,81.82,74a.622.622,0,0,1,.549.038c.22.175.3-.146.494-.064.159.068.342.048.525.14.289.144.458-.1.393-.448a1.546,1.546,0,0,1,.016-.68.885.885,0,0,0-.034-.8c-.053-.081-.012-.223-.008-.337,0-.018.045-.033.047-.052.016-.131.081-.3.026-.386-.088-.14-.129-.213-.018-.367.063-.087.025-.256.009-.385-.013-.111-.084-.216-.087-.325-.01-.485-.031-.972,0-1.455.034-.465-.154-.954.132-1.4.022-.034-.042-.122-.062-.187a3.306,3.306,0,0,1-.089-1.23c.011-.148.232-.275.024-.474a.3.3,0,0,1,.057-.5c.066-.041.048-.251.034-.38s-.119-.271-.1-.39a2.468,2.468,0,0,0,0-1.337,1.165,1.165,0,0,1,.064-.623,1.376,1.376,0,0,0,.044-.833,1.722,1.722,0,0,1,.01-1.134c.034-.136.076-.339.007-.419-.223-.261-.121-.55-.127-.823a7.137,7.137,0,0,0,.071-.861,3.139,3.139,0,0,1,.055-1.727.842.842,0,0,0-.064-.474,1.432,1.432,0,0,1,.018-1.025c.063-.133,0-.2-.02-.306a2.668,2.668,0,0,1,.027-1.463c.038-.106.087-.282.038-.332a.751.751,0,0,1-.106-.814c.1-.29-.116-.512-.025-.761.039-.105.161-.26.132-.294-.121-.141-.091-.314-.15-.452-.075-.177.272-.224.066-.424-.088-.086-.063-.319-.046-.48.07-.634-.179-1.29.135-1.908.02-.04-.061-.121-.066-.185a2.424,2.424,0,0,1-.018-.966,3.042,3.042,0,0,0,.079-.982c.013-.144-.121-.3-.125-.448,0-.124.128-.252.124-.376,0-.151-.116-.3-.128-.45a3.584,3.584,0,0,1,0-.871,1.564,1.564,0,0,0,0-.83c-.016-.045.07-.119.074-.181a1.673,1.673,0,0,0,0-.677.857.857,0,0,1-.078-.4,1.631,1.631,0,0,1,.075-.7c.081-.157-.049-.421-.079-.638-.01-.071-.033-.176,0-.213.394-.4-.252-.868.1-1.261a1.62,1.62,0,0,1,.028-1.285.48.48,0,0,0-.09-.535c-.181-.189-.113-.428-.043-.66a2.212,2.212,0,0,0,.015-1.554,1.137,1.137,0,0,1,.067-.693,1.306,1.306,0,0,0-.01-.816.682.682,0,0,1,0-.592.358.358,0,0,0,0-.452c-.042-.061-.067-.205-.031-.238.178-.162.092-.362.1-.544a5.729,5.729,0,0,0,0-.8c-.023-.249-.126-.493-.133-.741-.02-.654-.007-1.309-.007-1.964,0-.146-.059-.339.013-.427.179-.219.221-.481.058-.638-.249-.24.121-.431-.033-.679-.1-.161-.273-.49.064-.694a.2.2,0,0,0,.027-.186c-.238-.221-.131-.5-.118-.75.021-.42-.149-.861.112-1.259-.374-.337.2-.767-.111-1.129-.061-.07-.011-.286.051-.4a1.115,1.115,0,0,0,.057-.9,2.776,2.776,0,0,1-.114-1.041c-.014-.8,0-1.6,0-2.4a4.921,4.921,0,0,1,.018-.942.479.479,0,0,0-.016-.394c-.123-.2-.223-.407.052-.585.115-.075.1-.169.036-.3a.918.918,0,0,1-.085-.47,7.314,7.314,0,0,1,.134-2.27c.017-.044-.067-.119-.074-.182-.028-.306-.156-.668-.038-.905a1.97,1.97,0,0,0,.113-.827c.048-.589-.372-1.18,0-1.772a.078.078,0,0,0-.014-.065,1.4,1.4,0,0,1-.134-1.282,1.806,1.806,0,0,0,.006-.363.918.918,0,0,1,.126-.534c.151-.228-.031-.439-.308-.342a1.829,1.829,0,0,1-1.17.1,3.614,3.614,0,0,0-.824-.114c-.813-.1-1.6.218-2.413.141-.229-.022-.451.054-.7-.081-.152-.083-.421.067-.639.078a1,1,0,0,1-.474-.076.254.254,0,0,0-.31.01.516.516,0,0,1-.331.065c-.13-.017-.253-.131-.377-.128a3.123,3.123,0,0,0-.45.13c-.116.022-.294.053-.351-.008-.206-.22-.455-.135-.678-.125-.539.025-1.076.081-1.613.141-.374.041-.742-.229-1.119-.007a.315.315,0,0,1-.215,0,1.779,1.779,0,0,0-1.338-.007.951.951,0,0,1-.622-.06.9.9,0,0,0-.759-.052,3.444,3.444,0,0,1-1.334.115c-.117.01-.3-.138-.352-.095a.453.453,0,0,1-.588.047c-.273-.264-.416.182-.64.059-.056-.031-.164.02-.209-.015a1.2,1.2,0,0,0-1.1-.1,3.361,3.361,0,0,1-1.04.106,2.363,2.363,0,0,1-1.114-.118,1.062,1.062,0,0,0-.784,0,1.049,1.049,0,0,1-1.055-.009.315.315,0,0,0-.282,0c-.33.224-.663.044-.988.06a4.388,4.388,0,0,1-1.526-.034c-.3.236-.649.067-.973.1-.095.01-.267-.153-.293-.127-.272.274-.6.083-.9.134-.808.142-1.617-.271-2.427,0a.268.268,0,0,1-.2-.026,1.524,1.524,0,0,0-1.115-.1,3.384,3.384,0,0,1-1.775-.013,2.046,2.046,0,0,0-.887.128c-.316.076-.638-.291-.948-.119a1.786,1.786,0,0,1-.966.125,2.014,2.014,0,0,1-1.041-.12c-.147-.08-.407.022-.608.074s-.4.119-.593-.041c-.033-.027-.1-.06-.12-.047-.178.147-.445.229-.584.124-.228-.174-.368.035-.548.023-.265-.019-.533,0-.8-.006s-.618.086-.769-.049c-.309-.276-.47.221-.713.053a.943.943,0,0,0-.249-.1c-.064-.021-.161-.067-.192-.041-.321.263-.692.1-1.037.131a3.061,3.061,0,0,1-1.085-.013,2.268,2.268,0,0,0-1.563.007.671.671,0,0,1-.553-.034c-.188-.141-.368-.063-.545-.1-.2-.046-.353.111-.524.133a1.866,1.866,0,0,1-.521-.126.253.253,0,0,0-.191.054.338.338,0,0,1-.45.026c-.069-.042-.209-.087-.239-.056-.205.215-.463.128-.683.107-.443-.043-.911.173-1.328-.123-.391.266-.83.095-1.245.124-.169.011-.423-.178-.5-.112a.665.665,0,0,1-.539.115,2.809,2.809,0,0,1-.909-.084c-.237-.1-.571.061-.863.087-.16.013-.329.043-.462-.124a.276.276,0,0,0-.271-.01.459.459,0,0,1-.568.056c-.147-.066-.376.075-.567.076-.27,0-.56.086-.8-.115-.288.315-.557,0-.835-.015a.824.824,0,0,0-.553.068.73.73,0,0,1-.527.01A3.123,3.123,0,0,0,22.478,6.1a2.419,2.419,0,0,1-1.032.013,1.613,1.613,0,0,0-.819-.033,1.685,1.685,0,0,1-.543.091c-.193.013-.452.081-.568-.014-.225-.185-.367.1-.549.02-.082-.036-.19-.016-.267-.058a1.368,1.368,0,0,0-1.112-.052,2.508,2.508,0,0,1-1.325.06c-.208-.033-.228-.055-.2.126.029.2.113.395.135.6a3.937,3.937,0,0,1,0,.654,5.021,5.021,0,0,0-.142,1.322,3.13,3.13,0,0,1,.134.595,4.412,4.412,0,0,1-.129.6.6.6,0,0,0,.04.344,2.151,2.151,0,0,1,.082,1.266,3.206,3.206,0,0,0,.008,1.338,1.234,1.234,0,0,1-.073.761c-.2.343.15.558.1.865-.047.285-.334.566-.111.859a.519.519,0,0,1,.091.4,4.106,4.106,0,0,1-.121,1.4,1.365,1.365,0,0,0,.051.837c.094.31-.181.561-.072.853.016.042.014.091.026.135a1.588,1.588,0,0,1-.009,1.132.73.73,0,0,0,.036.481c.185.323.054.657.084.982.009.1-.133.2-.127.3.01.152.125.3.125.45s-.124.3-.128.449a4.347,4.347,0,0,0,.048,1.29,1.268,1.268,0,0,1,.073.681,5.074,5.074,0,0,0-.134,1.327c-.012.2-.2.483-.118.577.191.23.108.459.119.685.019.387-.013.777.01,1.163a3.269,3.269,0,0,0,.133,1.472.432.432,0,0,1-.017.349.965.965,0,0,0,0,.991c.105.19-.133.369-.1.508.04.2.167.387.117.6-.025.1-.146.18-.2.282a.541.541,0,0,0-.08.325,3.426,3.426,0,0,1,.261.827,2.956,2.956,0,0,0,.015.9c.167.608-.262,1.227,0,1.843.015.036-.006.091-.018.135a1.552,1.552,0,0,0,0,1.132,1.308,1.308,0,0,1-.048.542,2.728,2.728,0,0,0-.012,1.113,1.54,1.54,0,0,1-.011.943,1.678,1.678,0,0,0,.013.679c.013.16.127.361.065.468a.906.906,0,0,0,.007.983.307.307,0,0,1-.037.267.816.816,0,0,0-.072.817,1.5,1.5,0,0,1,.111.756c.019.484.006.97.006,1.455,0,.145.057.344-.016.424-.255.284-.06.607-.133.9s.164.586.035.886a4.242,4.242,0,0,1-.1,2.343.833.833,0,0,0,.008.506,1.076,1.076,0,0,1,.079.887.692.692,0,0,0,.1.744.42.42,0,0,1,.01.411c-.217.236-.121.5-.128.751a1.663,1.663,0,0,0,.128.965c.055.094-.023.269-.048.405-.016.084-.091.214-.062.241.216.2.073.459.125.681.093.39-.17.729-.147,1.1a6.357,6.357,0,0,0,.128,1.837c.1.272-.054.587-.108.884a6.028,6.028,0,0,0-.017,1.378,2.818,2.818,0,0,0,.13,1.328.559.559,0,0,1-.054.4,1.047,1.047,0,0,0,0,.88.4.4,0,0,1,.006.307,3.686,3.686,0,0,0-.042.827,1.332,1.332,0,0,0,.1.318c.073.248-.121.438-.148.667-.021.181.055.366-.086.551-.057.074.071.275.084.42.017.193-.01.389.007.582a2.165,2.165,0,0,0,.12.971c.1.186-.029.5-.056.755-.021.209-.035.419-.069.626-.037.224-.188.48-.121.66a2.3,2.3,0,0,1,.124.821c0,.339,0,.679,0,1.019m-2.4,7.056c-.262-.024-.483.034-.5.34a.365.365,0,0,1-.394.394c-.154.011-.272.243-.187.343a.566.566,0,0,0,.329.221c.324.011.29.244.326.441a.676.676,0,0,1-.006.153c.065-.017.182-.023.188-.052.079-.4.413-.454.714-.523.2-.045.261-.113.138-.269-.1-.128-.094-.324-.34-.369a.313.313,0,0,1-.164-.468c.131-.192.125-.228-.1-.211M22.691,82a1.041,1.041,0,0,0,.786-.372.283.283,0,0,0,.081-.2.224.224,0,0,0-.145-.148,5.911,5.911,0,0,0-1.359.186c-.063,0-.149.127-.168.208-.04.169.149.13.206.191.161.177.349.114.6.136m-9.543-5.325a1.739,1.739,0,0,0-.205-.065c-.179-.034-.41,0-.529-.1a.559.559,0,0,0-.81-.053,1.438,1.438,0,0,1-.51.153c-.171.042-.167.151-.087.256a.462.462,0,0,0,.679.1,1.87,1.87,0,0,1,1.14-.2c.08,0,.154.087.236.121.016.007.061-.044.084-.075s0-.047,0-.131M57.1,79.157a.5.5,0,0,0-.155-.146.224.224,0,0,0-.2.068c-.055.064-.054.178-.111.239-.156.168-.294.4-.593.207-.081-.052-.426.271-.383.36a.369.369,0,0,0,.247.161c.074.013.161-.068.246-.089.111-.027.284,0,.33-.06a3.138,3.138,0,0,1,.613-.6c.012-.009,0-.046,0-.141m-47.441.414c0,.166-.024.251.006.305a1.081,1.081,0,0,0,.195.206.923.923,0,0,1,.1-.207c.178-.208.208-.61.635-.5,0-.048.006-.1.009-.146-.318.089-.159-.286-.341-.353-.093-.034-.115-.106-.176.039a2.673,2.673,0,0,1-.279.386,2.865,2.865,0,0,0-.15.272m28.408,3.443c-.052-.057-.087-.134-.136-.143a.864.864,0,0,0-.761.383.76.76,0,0,0,.008.281c.068-.029.137-.056.2-.087.182-.084.367-.164.544-.259.054-.029.085-.1.141-.175M27.7,77.442c.04.113-.095.3.14.329.188.021.117-.156.175-.235.07-.094.187-.158.242-.258s.047-.218-.128-.236c-.425-.043-.432-.041-.43.4M9.937,39.67l.282-.081a1.826,1.826,0,0,1-.167-.205c-.046-.075-.115-.172-.1-.242.065-.281-.226-.176-.305-.3a.148.148,0,0,0-.135.014c-.21.289.4.387.163.69l.261.12m-1.883,37.2.086.157c.093-.192.223.009.3-.025.171-.074.187-.2.054-.363-.071-.087.09-.327-.151-.318a.3.3,0,0,0-.292.334c0,.048,0,.1,0,.215m7.408,6.792c.046-.245-.148-.5-.322-.47-.081.015-.181.176-.188.277a.232.232,0,0,0,.276.262,1.23,1.23,0,0,0,.233-.069M56.405,84.9c.047,0,.107.018.14,0a.305.305,0,0,0,.11-.142.131.131,0,0,0-.046-.117.968.968,0,0,0-.294-.146.286.286,0,0,0-.232.058c-.071.074.021.337.107.349a1.557,1.557,0,0,0,.214,0m-7.895-1.961c0-.071,0-.141,0-.211a.588.588,0,0,0-.039-.124,1.571,1.571,0,0,0-.149.087.952.952,0,0,0-.1.1c-.221.221-.21.233.093.391.083.043.166.22.2-.029a1.777,1.777,0,0,0,0-.211m-3.2.76c-.06-.1-.107-.175-.148-.252-.06-.114-.051-.108-.149-.007-.067.068-.168.1-.232.175-.04.043-.068.167-.052.178a.353.353,0,0,0,.236.081,1.706,1.706,0,0,0,.344-.174m-16.56.034c.352.01.4-.009.354-.114a2.19,2.19,0,0,0-.2-.32l-.329.293.178.141m28.833-.123c.07-.081.16-.175.235-.279a.134.134,0,0,0-.022-.126c-.111-.114-.19-.027-.294.038a.994.994,0,0,1-.327.058c-.02,0-.051.031-.049.042.006.035.017.086.042.1.117.055.24.1.415.17M7.187,38.419c-.044-.025-.111-.092-.144-.078a3.525,3.525,0,0,0-.464.238c-.045.027-.066.1-.1.146.064.015.136.058.191.041a3.719,3.719,0,0,0,.483-.193c.024-.011.019-.082.033-.154M35.375,82.131c.236.023.355.008.335-.211-.012-.135-.02-.223-.188-.221s-.3.007-.25.221a.87.87,0,0,0,.1.212M5.734,37.056a.882.882,0,0,0-.04-.269.193.193,0,0,0-.181-.047.5.5,0,0,0,0,.57c.033.025.148-.008.183-.05s.026-.131.036-.2M51.727,82.481c-.04-.049-.086-.16-.163-.19-.182-.07-.3.059-.411.188a.494.494,0,0,0,.128.092c.084.027.2.006.256.057.184.173.158.011.19-.148M7.233,74.542c-.166-.242-.236.036-.338.109-.02.014.029.124.046.189l.3-.111a.209.209,0,0,1,.067-.013c.176,0,.182-.1.147-.236l-.222.061m2.66,3.793c.02-.02.053-.039.051-.053-.036-.287.173-.2.322-.221.04,0,.076-.043.113-.066a.461.461,0,0,0-.1-.075c-.143-.053-.288-.1-.435-.144a.365.365,0,0,0-.133.016,1.476,1.476,0,0,1,.042.15c.02.111.028.223.054.333.006.026.059.041.089.061m-2.621.994-.109-.483c-.05.013-.131.013-.145.044a.911.911,0,0,0-.12.37c.005.178.172.1.275.109a.175.175,0,0,0,.1-.04M9.943,65.984c.125-.015.321.07.291-.177-.022-.183-.181-.1-.284-.112a.378.378,0,0,0-.211.005c-.046.024-.07.11-.079.172a.131.131,0,0,0,.069.107.909.909,0,0,0,.214.005m5.025,11.35c-.071.071-.171.138-.161.167a2.441,2.441,0,0,0,.2.414c.007.014.116,0,.121-.02a.675.675,0,0,0,.047-.325c-.025-.091-.134-.158-.207-.235m-5.822-24.6c-.139.114-.314.187-.349.3-.054.177.135.129.24.139.242.023.18-.157.179-.285,0-.048-.04-.095-.069-.156M8.049,67.11a1.126,1.126,0,0,0-.135-.1c-.1.105-.187.222-.276.337a1.072,1.072,0,0,0,.206.09c.223.047.221-.1.206-.327m1.74-42.53c.052-.094.114-.16.1-.191A2.179,2.179,0,0,0,9.7,24.1a.9.9,0,0,0-.178.275c-.009.038.14.112.266.206m18.638,57.04a2.489,2.489,0,0,0-.3-.2c-.023-.012-.136.09-.132.1.063.114.138.222.211.33l.219-.225M4.8,72.983l-.359.226a1.29,1.29,0,0,0,.353.175c.055.009.182-.12.189-.194s-.116-.137-.183-.208m3.315,1.325c.094-.05.19-.1.282-.153a.52.52,0,0,0,.094-.1c-.037-.023-.077-.069-.111-.065a1.219,1.219,0,0,0-.32.074c-.058.024-.1.094-.144.144l.2.1M5.072,48.529a2.361,2.361,0,0,0,.211-.3c.013-.025-.086-.141-.092-.138-.114.062-.223.135-.333.206l.214.231m12.006,32.3c-.017-.04-.026-.107-.052-.115a.525.525,0,0,0-.191,0,.069.069,0,0,0-.047.048,1.776,1.776,0,0,0,0,.282c0,.023.084.06.087.056.07-.087.135-.178.2-.269M10.6,83.336a1.827,1.827,0,0,0,.218-.183.489.489,0,0,0-.1-.135c-.114.064-.222.14-.332.214l.211.1M37.532,84.6l.337-.336a.81.81,0,0,0-.277-.081c-.051,0-.116.107-.134.176s.035.125.074.242m-14.2-1.444a.666.666,0,0,0-.074,0c-.019.176-.035.353-.051.529.034,0,.094.008.1,0q.078-.241.139-.487a.905.905,0,0,0-.11-.041M13.961,60.414l.278.332a.564.564,0,0,0,.068-.181c0-.1.055-.255-.136-.251-.054,0-.108.05-.21.1m2.352,19.1a.606.606,0,0,0,.142,0,1.535,1.535,0,0,0,.184-.071.815.815,0,0,0-.184-.069,1.213,1.213,0,0,0-.285,0c-.04,0-.075.045-.113.069a.482.482,0,0,0,.114.07.554.554,0,0,0,.142,0m-4.453.823a1.06,1.06,0,0,0-.173-.167c-.034-.02-.093,0-.141,0l.045.33.269-.168M13.051,56.5c.065-.195.087-.279.121-.358.027-.064.181-.1.041-.195a.072.072,0,0,0-.067,0c-.052.057-.122.114-.137.183a1.454,1.454,0,0,0,.042.369M9.773,74.616c-.095.2-.147.289-.184.388a.464.464,0,0,0-.007.149c.073-.035.193-.058.208-.109a1.575,1.575,0,0,0-.017-.427M8.2,46.338a1.255,1.255,0,0,0,.214,0c.021,0,.034-.061.05-.094l-.531,0c.018.032.032.088.055.093a1.25,1.25,0,0,0,.213,0m13.21,33.1a.849.849,0,0,0-.106.256c0,.037.116.115.13.1a.4.4,0,0,0,.144-.175c.01-.025-.074-.084-.168-.186M10.245,70.9l-.153.1.247.189c.014-.04.053-.093.039-.119a1.034,1.034,0,0,0-.133-.172m50.113,8.491a1.006,1.006,0,0,0,.081-.2c.006-.031-.043-.073-.067-.109l-.192.245.178.067M4.729,75.5l-.069-.176-.242.195c.037.023.079.071.11.065a.981.981,0,0,0,.2-.083m12.794,9.908-.251-.192c-.016.04-.058.1-.045.116a.579.579,0,0,0,.172.147c.019.011.072-.04.124-.071m2.085-7.95-.177.069.195.241c.023-.037.071-.079.065-.11a1.008,1.008,0,0,0-.083-.2M7.3,70.726c-.015-.023-.047-.083-.053-.08a.551.551,0,0,0-.208.112c-.019.021.041.114.065.174l.2-.2M48.735,80.8l.209-.192c-.06-.023-.154-.082-.174-.063a.564.564,0,0,0-.11.209c0,.006.058.036.074.046m21.342-.36-.124-.171a.556.556,0,0,0-.045.191.749.749,0,0,0,.09.2l.079-.221M9.34,78.585c-.015-.023-.047-.083-.053-.081a.552.552,0,0,0-.207.112c-.02.021.04.114.064.174l.2-.2m49.968,3.124-.1-.153-.189.247c.04.014.093.053.119.039a1.01,1.01,0,0,0,.172-.133M9.626,47.745l.124.171a.549.549,0,0,0,.045-.192.727.727,0,0,0-.09-.2l-.079.22M5.654,67.333l.34-.089c-.043-.032-.085-.089-.128-.09A1.328,1.328,0,0,0,5.6,67.2l.051.134M20.172,82.646c-.044-.167-.067-.254-.089-.34-.032.043-.089.085-.09.128a1.365,1.365,0,0,0,.045.263l.134-.051m19.782.3-.126-.054c-.016.04-.054.086-.045.119a.433.433,0,0,0,.091.126l.08-.191M8.17,62.777A1.082,1.082,0,0,0,8.2,62.57c0-.02-.059-.037-.091-.055a1.079,1.079,0,0,0-.045.191c0,.017.057.039.111.072m36,16.245c-.057-.038-.1-.085-.13-.081a.746.746,0,0,0-.181.068c.037.024.074.069.11.068a.889.889,0,0,0,.2-.055M9.3,67.033l.191-.08a.431.431,0,0,0-.126-.091c-.034-.009-.079.028-.119.045l.054.126M7.054,52.585l-.163.084c.037.024.076.071.11.068a.746.746,0,0,0,.181-.068l-.128-.084m5.046,26.2a1.116,1.116,0,0,0,.025-.208c0-.02-.059-.037-.091-.055a1.031,1.031,0,0,0-.045.191c0,.017.057.038.111.072m-8.616-39.6c-.038.057-.085.1-.081.13a.727.727,0,0,0,.068.181c.024-.037.069-.074.068-.11a.888.888,0,0,0-.055-.2M12.245,80.24a1.116,1.116,0,0,0,.025-.207c0-.02-.059-.037-.091-.055a1.042,1.042,0,0,0-.045.191c0,.017.058.039.111.072M7.994,33.512c-.037.057-.085.1-.081.13a.746.746,0,0,0,.068.181c.024-.037.069-.074.068-.11a.867.867,0,0,0-.055-.2m47.5,46.764a1.119,1.119,0,0,0-.208-.025c-.02,0-.037.059-.055.091a1.067,1.067,0,0,0,.19.045c.018,0,.039-.058.072-.111m5.651,1.577c-.054.034-.112.055-.111.072a1.064,1.064,0,0,0,.045.19c.032-.018.09-.035.091-.055a1.125,1.125,0,0,0-.025-.208m-15,.424a.545.545,0,0,0-.011-.111.973.973,0,0,0-.191,0,.3.3,0,0,0,0,.091,1.849,1.849,0,0,0,.2.02M28.591,80.549l.128-.085a.725.725,0,0,0-.181-.067c-.034,0-.073.043-.11.067l.163.085M9,67.615l.191-.08a.44.44,0,0,0-.127-.091c-.033-.009-.079.028-.119.045L9,67.615M65.713,84.689l-.126-.054c-.017.04-.054.085-.045.119a.438.438,0,0,0,.091.126l.08-.191M4.253,15.207l.163-.084c-.037-.024-.076-.072-.11-.068a.746.746,0,0,0-.181.068l.128.084M35.354,81.1c-.038.057-.085.1-.081.13a.725.725,0,0,0,.067.181c.024-.037.069-.074.068-.11a.888.888,0,0,0-.055-.2m15.892,5.69a1.083,1.083,0,0,0,.025-.208c0-.02-.059-.037-.091-.055a1.031,1.031,0,0,0-.045.191c0,.017.057.038.111.072m-7.107-5.263c-.033-.053-.054-.112-.072-.111a1.041,1.041,0,0,0-.191.045c.019.032.035.09.055.091a1.077,1.077,0,0,0,.207-.025M29.374,77.481c-.016.016-.048.036-.046.047a.433.433,0,0,0,.046.1c.016-.016.048-.036.045-.048a.46.46,0,0,0-.045-.1m27.12,4.126-.052-.052a.433.433,0,0,0-.046.1c0,.012.029.032.046.048l.052-.094m-24.407-.831.052.052a.433.433,0,0,0,.046-.1c0-.012-.029-.032-.046-.048l-.052.094m32.816-.51-.094.052c.016.016.036.048.048.045a.462.462,0,0,0,.1-.045l-.052-.052M12.95,79.248l-.094.052c.016.016.036.048.048.045A.452.452,0,0,0,13,79.3l-.052-.052M11.62,78.5c-.016.016-.048.036-.046.047a.454.454,0,0,0,.046.1c.016-.016.048-.036.046-.047a.433.433,0,0,0-.046-.1M50.5,77.793l-.094.052c.016.016.036.048.048.046a.432.432,0,0,0,.1-.046l-.052-.052M10.653,76.7l-.052-.094c-.016.016-.048.036-.046.048a.465.465,0,0,0,.046.1l.052-.052m11.882,5.727c-.016.016-.048.036-.046.048a.442.442,0,0,0,.046.1c.016-.016.048-.036.045-.048a.462.462,0,0,0-.045-.1m27.359,0c-.016.016-.048.036-.046.048a.442.442,0,0,0,.046.1c.016-.016.048-.036.046-.048a.464.464,0,0,0-.046-.1M7.056,23.4l.052.094c.016-.016.048-.036.045-.048a.452.452,0,0,0-.045-.1l-.052.052m4.906,59.417-.052-.094c-.016.016-.048.036-.046.047a.432.432,0,0,0,.046.1l.052-.052m14.116.1-.052-.052a.475.475,0,0,0-.046.1c0,.012.029.032.046.048l.052-.094M6.111,62.18l.052-.052a.454.454,0,0,0-.1-.046c-.012,0-.032.029-.048.046l.094.052m5.239-.291.052-.052a.432.432,0,0,0-.1-.046c-.012,0-.032.029-.048.046l.094.052M5.414,52.253l-.052-.094c-.016.016-.048.036-.046.048a.454.454,0,0,0,.046.1l.052-.052m.218-6.476-.052.052a.464.464,0,0,0,.1.046c.012,0,.032-.029.048-.046l-.094-.052M35.683,83.25l-.052-.094c-.016.016-.048.036-.046.048a.452.452,0,0,0,.046.1l.052-.052M12.659,42.388l.052-.052a.473.473,0,0,0-.1-.045c-.012,0-.032.029-.048.045l.094.052m-6.954-.9-.052-.094c-.016.016-.048.036-.045.047a.452.452,0,0,0,.045.1l.052-.052m3.42-6.518.094-.052c-.016-.016-.036-.048-.048-.045a.459.459,0,0,0-.1.045l.052.052m2.952-2.141-.094.052c.016.016.036.048.048.046a.452.452,0,0,0,.1-.046l-.052-.052M9.052,31.734,9,31.64c-.016.016-.048.036-.046.048a.464.464,0,0,0,.046.1l.052-.052m-4.76-4.408.052.094c.016-.016.048-.036.046-.048a.475.475,0,0,0-.046-.1l-.052.052M52.825,85.506l-.094.052c.016.016.036.048.048.046a.5.5,0,0,0,.1-.046l-.052-.052M39.873,81.389l.052-.052a.433.433,0,0,0-.1-.046c-.012,0-.032.029-.048.046l.094.052" transform="translate(0 0)" fill="#f2b538"></path><path id="Path_75" data-name="Path 75" d="M103.143,41.177a13.73,13.73,0,0,0-.176,2.541,2.937,2.937,0,0,0,.117.97.767.767,0,0,1-.2.92c-.122.1-.124.334-.219.483-.239.377-.689.445-1.044.637-.45.243-.476.191-.947-.018a2.026,2.026,0,0,0-.318-.11c-.154-.039-.364-.013-.458-.108-.212-.211-.48-.367-.583-.7a2.715,2.715,0,0,1-.282-1.266c.005-.032-.046-.073-.071-.109-.034.034-.081.063-.1.1-.046.1-.074.212-.118.315a.328.328,0,0,1-.1.158,2.148,2.148,0,0,0-1.065.934,3.3,3.3,0,0,1-.348.366c-.1.1-.249.188-.3.312a1.414,1.414,0,0,1-1.017,1.011c-.206.3-.434.591-.612.908-.152.269-.251.56-.638.556-.045,0-.1.118-.135.189a4.376,4.376,0,0,1-.9,1.231,5.081,5.081,0,0,1-.818.813,1.081,1.081,0,0,0-.314.374,1.527,1.527,0,0,1-.708.644,2.014,2.014,0,0,0-.455.306c-.159.13-.282.371-.516.087-.019-.023-.158.05-.24.083-.947.38-1.192.112-1.782-.392a2.66,2.66,0,0,1-.884-1.009.135.135,0,0,0-.051-.052,6.99,6.99,0,0,1-1.181-1.476c-.051-.064-.06-.2-.117-.215-.3-.1-.549-.194-.493-.607.015-.109-.189-.254-.3-.374a5.138,5.138,0,0,1-.455-.469,1.377,1.377,0,0,1-.208-.493,2.361,2.361,0,0,0-.776-1.061c-.208-.217-.458-.393-.483-.752a.394.394,0,0,0-.327-.374.392.392,0,0,1-.352-.484c.019-.081-.084-.209-.16-.289-.249-.264-.509-.519-.769-.773-.14-.136-.284-.261-.228-.491.015-.062.007-.171-.032-.2-.42-.3-.49-.937-1.066-1.081a.233.233,0,0,1-.149-.15c-.059-.537-.528-.763-.833-1.11a1.288,1.288,0,0,1-.267-.549,1.543,1.543,0,0,0-.518-.778c-.366-.269-.738-.49-.8-.99-.333-.22-.325-.837-.9-.78-.023,0-.049-.114-.089-.164a.381.381,0,0,0-.12-.069c-.105.232-.4.234-.527.5a5.141,5.141,0,0,1-.75.927c.022.517-.554.666-.679,1.1-.035.122-.2.208-.3.312a.714.714,0,0,0-.262.48,1.128,1.128,0,0,1-.308.52,10.258,10.258,0,0,0-.858,1.03,8.194,8.194,0,0,1-.851,1.174c-.059.067-.075.18-.142.228a4.027,4.027,0,0,0-.876,1.241c-.157.236-.182.567-.549.646-.081.018-.113.233-.183.346a3.816,3.816,0,0,0-.268.378c.224.233-.027.189-.117.281a2.855,2.855,0,0,0-.507.582c-.176.311-.188.791-.675.882-.028.005-.026.128-.054.188a8.359,8.359,0,0,1-1.282,1.871.958.958,0,0,0-.25.4c-.078.434-.572.6-.628,1.039-.43.114-.52.56-.8.819-.036.033-.068.1-.1.1-.619.009-1.172.663-1.839.189a.554.554,0,0,1-.685-.437c-.037-.1-.159-.18-.251-.259a2.944,2.944,0,0,1-.665-.588,1.527,1.527,0,0,0-.6-.544c-.08-.047-.1-.193-.148-.3-.026-.062-.022-.164-.065-.187-.753-.407-.967-1.3-1.626-1.8-.142-.107-.137-.456-.275-.514a.673.673,0,0,1-.4-.423c-.114-.273-.482-.308-.609-.608a5.14,5.14,0,0,0-.456-.757c-.161-.25-.332-.493-.5-.739-.025-.038-.039-.108-.067-.114a1.027,1.027,0,0,1-.808-.736c-.142-.388-.615-.516-.734-.933-.029-.1-.154-.179-.24-.263-.186-.182-.222-.181-.333.053a4.422,4.422,0,0,1-1.148,1.636c-.069.056-.163.154-.154.22.035.269-.152.4-.314.525a5.676,5.676,0,0,0-1.375,1.823,2.132,2.132,0,0,1-.107.245c-.179.225-.532.246-.619.607a.775.775,0,0,1-.593.617c-.026.005-.037.077-.057.117a12.728,12.728,0,0,1-1.517,2.216,7.954,7.954,0,0,1-.791,1.047c-.141.129-.254.284-.486.242a.381.381,0,0,0-.258.069,1.56,1.56,0,0,1-1.075.213c-.273-.02-.591.125-.793-.189-.149-.231-.494-.313-.477-.681,0-.106-.166-.214-.241-.331s-.2-.269-.169-.356c.181-.494.038-1.054.362-1.525a3.651,3.651,0,0,1,.552-.712,4.293,4.293,0,0,0,.878-1.155,6.5,6.5,0,0,1,1.248-1.518,1.4,1.4,0,0,0,.592-1.067.4.4,0,0,1,.128-.234,5.152,5.152,0,0,0,1.1-1.364c.14-.32.507-.514.622-.91a.765.765,0,0,1,.474-.53c.144-.046.242-.238.31-.44a3.96,3.96,0,0,1,.577-.994c.159-.221.551-.282.431-.691-.015-.05.11-.141.17-.214.134-.162.258-.335.405-.484.122-.124.289-.2.4-.334s.237-.285.344-.43a2.066,2.066,0,0,1,.9-.761,2.667,2.667,0,0,1,1.254.013,1.588,1.588,0,0,1,.96.64,2.126,2.126,0,0,0,.692.6c.159.067.266.257.393.4.012.013-.009.058,0,.069a5.606,5.606,0,0,1,.856.8c.207.294.271.69.7.785.33.635,1.071.986,1.215,1.752a.282.282,0,0,0,.125.164,7.545,7.545,0,0,1,1.262,1.294,9.784,9.784,0,0,1,.94,1.275c.111.151.236.292.361.433.107.122.229.213.23.418,0,.332.364.3.549.453.048.04.568-.381.606-.471a2.488,2.488,0,0,1,.814-1.1c.129-.092.213-.123.2-.282-.016-.327.183-.492.418-.7a2.455,2.455,0,0,0,.752-1.061.5.5,0,0,1,.253-.3.874.874,0,0,0,.569-.653.99.99,0,0,1,.39-.636c.376-.231.355-.694.651-.98a2.6,2.6,0,0,0,.587-.913c.1-.253.461-.18.476-.526.008-.192.256-.369.377-.563.167-.269.317-.547.473-.822.034-.059.062-.12.1-.178.113-.2.453-.218.47-.442.02-.268.228-.349.341-.519.049-.074.116-.168.105-.243-.051-.355.185-.506.427-.668.11-.074.262-.151.3-.259a5.611,5.611,0,0,1,1.107-1.494c.095-.128.161-.278.261-.4a5.221,5.221,0,0,0,.849-1.032c.25-.56.929-.522,1.188-1.01a6.7,6.7,0,0,1,1.094-.155c.275,0,.488.231.692.428a1.566,1.566,0,0,0,.505.355c.26.1.289.46.506.492.321.049.324.3.445.48.084.123.121.244.3.315.147.059.224.283.343.424.168.2.161.559.53.569.217.686.9,1.1,1.074,1.811a.7.7,0,0,0,.163.294,3.773,3.773,0,0,1,.742,1,2.985,2.985,0,0,0,.712.859c.459.426.634,1.049,1.115,1.441.184.769.862,1.224,1.209,1.9.2.387.622.631.858,1.027a7.431,7.431,0,0,0,.71.872c.224.271.4.644.682.788.355.179.352.5.48.757.141.279.43.35.594.607a11.818,11.818,0,0,1,.754,1.074c.136.275.3.282.5.054.152-.173.276-.369.415-.554.126-.167.249-.335.383-.5a1.645,1.645,0,0,1,.341-.364c.318-.2.523-.524.846-.728a3.626,3.626,0,0,0,.847-1.024c.012-.015-.009-.056,0-.07a1.336,1.336,0,0,1,.239-.263c.463-.314.715-.846,1.186-1.145.3-.191.612-.345.625-.779,0-.084.2-.162.308-.242.036-.027.075-.05.113-.074-.038-.024-.081-.073-.115-.068a2.8,2.8,0,0,1-1.364-.4,4.754,4.754,0,0,1-.653-.354c-.012-.419-.406-.723-.344-1.168a2.414,2.414,0,0,0,0-.509.587.587,0,0,1,.169-.443c.262-.319.484-.67.729-1,.056-.076.153-.2.2-.189.5.116.972-.4,1.493-.026.145.1.426.03.643.011.18-.016.309.133.546.034a3.278,3.278,0,0,1,1.006-.034c.226-.013.477.1.678-.13.04-.047.257-.017.324.048.173.167.437-.015.533.106.184.231.272-.033.406-.027a10.1,10.1,0,0,0,1.454,0,.929.929,0,0,1,.974.567,3.16,3.16,0,0,1,.461,1.56,8.608,8.608,0,0,0,.162,1.339" transform="translate(-24.477 -17.141)" fill="#f2b538"></path><path id="Path_76" data-name="Path 76" d="M134.6,106.9c.571-.063,1.105-.153,1.643-.172a9.9,9.9,0,0,0,1.394.136c.2-.034.4.024.613-.111a.884.884,0,0,1,.7-.02,1.5,1.5,0,0,0,1.343-.009.222.222,0,0,1,.19.053.447.447,0,0,0,.529.059c.205-.17.41-.108.612-.112.362-.007.456.091.479.442.013.186-.036.385.147.521-.175.373-.014.842-.327,1.172-.119.125-.166.225-.019.356.031.027.064.1.051.119-.246.316-.22.734-.408,1.068a5.883,5.883,0,0,0-.451.758,3.346,3.346,0,0,1-.826,1.262,11.866,11.866,0,0,0-.777.911,4.465,4.465,0,0,1-1.043.814c-.254.165-.463.4-.711.573-.276.195-.641.243-.879.512a.257.257,0,0,1-.186.07,1.468,1.468,0,0,0-.991.409.88.88,0,0,1-.513.183c-.3.026-.589.109-.886.134s-.647-.1-.858.028c-.4.244-.708-.053-1.058-.029a4.027,4.027,0,0,1-1.159-.01,17.589,17.589,0,0,1-1.86-.6c-.1-.036-.18-.159-.258-.251a.465.465,0,0,0-.372-.163,1.268,1.268,0,0,1-1.222-.7.117.117,0,0,0-.051-.051,2.849,2.849,0,0,1-.541-.266,2.807,2.807,0,0,1-.325-.428c-.037-.044-.18-.06-.179-.067.089-.426-.274-.505-.517-.647-.383-.222-.32-.73-.663-.966-.05-.457-.616-.738-.436-1.273-.239-.156-.071-.494-.326-.676a.764.764,0,0,1-.244-.538,7.528,7.528,0,0,0-.261-1.274,3.818,3.818,0,0,1-.021-1.364c.04-.255.163-.483.023-.737.217-.228.093-.508.091-.758a1.759,1.759,0,0,1,.293-1.122,1.827,1.827,0,0,0,.155-.515.669.669,0,0,1,.134-.3.488.488,0,0,0,.157-.449.663.663,0,0,1,.39-.7.388.388,0,0,0,.182-.278,1.251,1.251,0,0,1,.49-.819c.428-.429.848-.866,1.288-1.282.308-.29.638-.558.969-.821a.472.472,0,0,1,.316-.1.805.805,0,0,0,.563-.223,4.889,4.889,0,0,1,1.767-.655c.221-.051.486.094.666-.149a4.247,4.247,0,0,0,1.1-.134c.436-.062.573.056.537.5-.017.212.227.37.036.62-.143.188.178.491.109.646-.3.674.087,1.418-.257,2.076-.027.053.078.161.08.244.007.422.006.845-.006,1.267,0,.109-.117.251-.078.32.259.451.1.934.13,1.4.028.483.012.969,0,1.454,0,.081-.082.158-.114.241-.047.123-.053.225.128.244.512.055,1.023.12,1.509.179" transform="translate(-66.234 -52.231)" fill="#f2b538"></path><path id="Path_77" data-name="Path 77" d="M99.038,94.066a.6.6,0,0,1-.061.246.578.578,0,0,0-.015.594,1.448,1.448,0,0,1,.078.186c.1.339-.159.654-.062,1a1.062,1.062,0,0,1-.067.942.633.633,0,0,0,0,.564c.282.435.1.893.111,1.331.007.223-.131.442.015.683.127.21-.21.438,0,.684.06.071.031.24.006.356a2.588,2.588,0,0,0,0,1.627.533.533,0,0,1,0,.357,1.7,1.7,0,0,0-.133,1.037q-.018,1.418,0,2.838c0,.3-.108.622.137.889.024.026,0,.094,0,.142.008.373-.37.744-.007,1.119,0,.411.03.825,0,1.234-.025.32.156.674-.132.964-.024.024.027.126.049.19.028.086.1.175.085.252a2.6,2.6,0,0,0-.007.975,4.683,4.683,0,0,1,.012,1.016c-.006.233-.178.454-.307.387-.526-.273-1.091-.03-1.615-.15a1.35,1.35,0,0,0-1.01.1c-.1.052-.229.027-.339.059-.4.119-.783-.4-1.182-.02-.365-.328-.849.046-1.223-.207-.171-.115-.177.08-.256.128-.17.1-.422.063-.45-.111a1.451,1.451,0,0,1-.01-.575,1.758,1.758,0,0,0,0-1.337c-.046-.169.067-.3.128-.454.083-.2.325-.422.046-.694-.087-.085-.04-.323-.027-.489.019-.228-.1-.485.132-.672-.225-.185-.119-.438-.133-.664-.015-.242,0-.485,0-.728v-1.382c0-.243.014-.486,0-.727s.1-.521-.132-.75c-.061-.059-.046-.248,0-.352a1.937,1.937,0,0,0,0-1.558.72.72,0,0,1,0-.432c.056-.2.277-.456.215-.577a1.457,1.457,0,0,1-.071-.626,4.68,4.68,0,0,1,0-.727c.014-.228-.089-.477.135-.676a.278.278,0,0,0-.009-.272c-.232-.227-.094-.5-.127-.751-.044-.329.219-.7-.138-.989a.139.139,0,0,1-.007-.136c.281-.315.106-.69.135-1.034.031-.362-.012-.729.013-1.091a1.546,1.546,0,0,1,.114-.829c.1-.158-.036-.491-.129-.72a.391.391,0,0,1,.151-.551c.194-.126.46-.165.575.007.186.278.352.052.521.056.339.009.679,0,1.019,0,.194,0,.5.075.56-.015.144-.209.3.033.449-.087.1-.081.346.011.524.035.289.04.556.208.875.079a.451.451,0,0,1,.475.077c.027.024.225-.176.361-.227a1.1,1.1,0,0,1,.361-.008c.408,0,.408,0,.394.463" transform="translate(-49.512 -50.029)" fill="#f2b538"></path><path id="Path_78" data-name="Path 78" d="M78.072,106.05a2.364,2.364,0,0,0,.317.1.581.581,0,0,0,.247-.026c.064-.015.14-.09.183-.072.787.325,1.565-.147,2.355-.018a4.969,4.969,0,0,0,1.029.176,4.5,4.5,0,0,0,1.079-.222c.241-.068.421,0,.455.2.008.047-.011.1,0,.145.108.324-.388.647,0,.97-.064.32.132.671-.114.972-.011.013.034.064.043.1a1.382,1.382,0,0,1-.052,1.084.594.594,0,0,0-.01.491,1.532,1.532,0,0,1,.127.89c-.024.272.138.58-.134.819-.021.019.03.124.051.188a2.931,2.931,0,0,1,.027,1.464,1.325,1.325,0,0,0-.069.614,1.786,1.786,0,0,1-.008,1.415.97.97,0,0,0-.007.361c0,1.187-.009,2.375.007,3.561a7.419,7.419,0,0,0,.135.813c.019.148.027.31-.2.113a1.093,1.093,0,0,0-.439-.158.586.586,0,0,0-.283-.012c-.252.067-.4.426-.781.165-.2-.135-.566-.015-.856-.026-.307-.011-.613-.038-.919-.063-.036,0-.088-.065-.1-.056a.574.574,0,0,1-.638.14.781.781,0,0,0-.736.122c-.158.115-.319-.187-.543-.011-.12.094-.376.029-.568.013-.256-.02-.309-.151-.229-.471.028-.112.022-.232.039-.348.069-.487-.139-.991.128-1.476.062-.113-.094-.336-.126-.513-.047-.263-.176-.575-.084-.784a2.124,2.124,0,0,0,.074-.767,6.553,6.553,0,0,1,.019-.869,1.226,1.226,0,0,0-.123-1.074.3.3,0,0,1-.028-.269c.23-.275.1-.595.143-.89.016-.107.135-.217.116-.307-.037-.176-.2-.34-.195-.507s.161-.317.212-.486c.033-.107.041-.283-.022-.343-.2-.189-.036-.432-.126-.607-.149-.292.261-.475.085-.79a1.8,1.8,0,0,1-.073-.766,8.518,8.518,0,0,1,0-.872c.017-.249-.12-.534.139-.739a.507.507,0,0,1-.037-.7c.015-.025-.069-.1-.08-.151-.1-.5-.065-.538.566-.531" transform="translate(-41.339 -56.654)" fill="#f2b538"></path><path id="Path_79" data-name="Path 79" d="M147.031,102c.081-.282-.081-.535.126-.747.037-.038.016-.174-.022-.239a.52.52,0,0,1,0-.59.227.227,0,0,0,0-.308c-.059-.087-.109-.272-.063-.322.253-.276.127-.6.124-.893s.107-.6-.113-.9c-.1-.139.147-.4.134-.652-.029-.556-.016-1.115-.005-1.672,0-.181-.081-.382.1-.543.034-.03-.02-.158-.029-.241-.027-.255-.054-.512-.071-.768,0-.014.1-.062.12-.048.24.188.513.071.766.076.27.005.57-.239.774.14.012.023.092.023.135.013.735-.162,1.326.326,2,.443a.5.5,0,0,1,.3.146c.279.37.776.4,1.089.727a1.905,1.905,0,0,0,.539.266,4.027,4.027,0,0,1,1.39,1.451c.242.34.66.617.606,1.126.375.031.413.4.6.615a1.092,1.092,0,0,1,.253.543,1.224,1.224,0,0,0,.247.71,1.5,1.5,0,0,1,.189.853,6.665,6.665,0,0,0,.143.741c.03.219.34.406.113.643-.187.2-.054.413-.1.616-.04.183-.453.336-.595.2-.171-.166-.274-.251-.53-.073-.163.114-.47.021-.712.021-.582,0-1.164.018-1.744-.006-.393-.016-.783-.1-1.176-.132a.526.526,0,0,0-.378.121.633.633,0,0,1-.785.107c-.194-.1-.434,0-.531-.1-.2-.214-.32.027-.476.022-.6-.021-1.212-.017-1.817,0a.362.362,0,0,1-.42-.291c-.076-.362-.125-.73-.176-1.044" transform="translate(-78.61 -50.296)" fill="#f2b538"></path><path id="Path_80" data-name="Path 80" d="M46.991,124.822c.085-.329-.137-.741.128-1.129.066-.1-.1-.334-.124-.511a6.857,6.857,0,0,0,.013-.828,4.516,4.516,0,0,1-.017-1.014c0-.316-.009-.631,0-.946a3.32,3.32,0,0,1,.084-.4c.013-.081.042-.188,0-.243a.366.366,0,0,1,.009-.506.288.288,0,0,0,.037-.265c-.242-.35-.113-.739-.132-1.109a3.76,3.76,0,0,1,.067-.624,2.837,2.837,0,0,1,.772.069c.159.058.24.094.363-.031a.264.264,0,0,1,.2-.035c.2.031.455.173.57.1a.89.89,0,0,1,.619-.091,6.133,6.133,0,0,1,1.837.122,2.149,2.149,0,0,0,1.364-.19c.191-.08.328-.131.5.022.2.173-.026.289-.02.408a4.055,4.055,0,0,0-.045.831,8.65,8.65,0,0,1,.03,1.3,4.5,4.5,0,0,1-.152,1.176c.289.336.11.735.137,1.1.014.2.091.43-.079.618-.018.02-.023.085-.008.1.355.306.089.67.093,1.006.009.727,0,1.455.006,2.182,0,.168-.106.148-.215.2-.222.106-.374-.233-.627-.031-.134.106-.422.019-.64.019-.242,0-.485.008-.727,0a1.342,1.342,0,0,1-.406-.07,1.306,1.306,0,0,0-.886,0c-.2.062-.478.146-.611.056-.27-.183-.455-.037-.7-.011-.2.022-.317.291-.574.129-.161-.1-.41-.049-.609-.106a.344.344,0,0,1-.27-.364c.009-.291,0-.582,0-.931" transform="translate(-25.112 -62.613)" fill="#f2b538"></path><path id="Path_81" data-name="Path 81" d="M62.655,121.688a1.556,1.556,0,0,0,.422.162c.161.014.383-.127.484-.059a.851.851,0,0,0,.551.078,4.323,4.323,0,0,0,.543-.069,5.705,5.705,0,0,1,1.552.007,3.478,3.478,0,0,0,1.32,0c.065-.015.126-.075.187-.071.232.014.464.042.7.076.038.006.1.069.1.1a1.7,1.7,0,0,1-.137.634c-.114.179-.034.256,0,.416a4.319,4.319,0,0,1,.029,1.153c-.023.345.124.711-.126,1.04a.382.382,0,0,0,0,.35c.225.355.058.752.152,1.1.08.3-.217.493-.109.795a2.909,2.909,0,0,1,.09.835.684.684,0,0,1-.075.329.221.221,0,0,1-.2.083,8.15,8.15,0,0,0-1.712-.082c-.228-.024-.483.111-.681-.114a.137.137,0,0,0-.13-.025c-.442.291-.932.094-1.4.133a1.246,1.246,0,0,1-.683-.1.916.916,0,0,0-.822.05.733.733,0,0,1-.41.05c-.054,0-.153-.148-.139-.173a.723.723,0,0,0,0-.908c-.036-.045,0-.141-.01-.212-.026-.294.306-.552.09-.862-.185-.265-.065-.558-.084-.837a9.326,9.326,0,0,0-.017-.943c-.049-.285.144-.529.032-.834a2.772,2.772,0,0,1-.021-.866c0-.141.038-.345-.038-.413-.3-.272.02-.478.061-.7.013-.064.288-.079.486-.127" transform="translate(-33.137 -65.061)" fill="#f2b538"></path></g></svg> 