<?xml version="1.0" encoding="UTF-8"?> <svg xmlns="http://www.w3.org/2000/svg" xmlns:xlink="http://www.w3.org/1999/xlink" id="Icon_1" data-name="Icon 1" width="94.223" height="100" viewBox="0 0 94.223 100"><defs><clipPath id="clip-path"><rect id="Rectangle_30" data-name="Rectangle 30" width="94.223" height="100" fill="#40bcd0"></rect></clipPath></defs><g id="Group_28" data-name="Group 28" clip-path="url(#clip-path)"><path id="Path_82" data-name="Path 82" d="M57.644,97.257c-.1-.031-.263-.088-.427-.125a.527.527,0,0,0-.261.007,2.68,2.68,0,0,1-1.545.013,1,1,0,0,0-.631-.007c-.206.069-.5.157-.645.066a1.617,1.617,0,0,0-.871-.131,6.523,6.523,0,0,1-.767-.013,5.97,5.97,0,0,1-.666-.244c-.139-.042-.342-.107-.431-.043-.5.358-.942,0-1.383-.1a10.472,10.472,0,0,1-2.261-.664c-.3-.144-.7.128-1.019-.137-.69.142-1.177-.385-1.765-.572-.24-.077-.558.076-.752-.238-.18-.292-.518-.089-.779-.143-.047-.01-.105,0-.141-.028-.2-.14-.377-.359-.6-.413a2.9,2.9,0,0,1-.7-.169c-.378-.2-.786-.345-1.164-.527-.878-.419-1.69-.975-2.6-1.336-.379-.481-.978-.61-1.461-.922a13.436,13.436,0,0,1-1.211-.981c-.1-.079-.214-.244-.282-.225-.439.12-.515-.277-.721-.475a3.509,3.509,0,0,0-.97-.631,2.7,2.7,0,0,1-.649-.581c-.154-.152-.276-.339-.44-.476a6.193,6.193,0,0,1-1.872-1.845c-.053-.108-.126-.266-.215-.286-.773-.172-1.073-.792-1.4-1.4a2.618,2.618,0,0,0-.38-.534,12.258,12.258,0,0,1-1.261-1.4c-.142-.213-.321-.372-.291-.656.006-.056-.094-.134-.157-.186-.263-.217-.614-.36-.609-.789a.289.289,0,0,0-.118-.178,1.605,1.605,0,0,1-.4-.682,6.474,6.474,0,0,0-.689-1.023c-.056-.08-.182-.18-.164-.231.137-.391-.231-.584-.349-.863-.091-.214-.333-.365-.279-.655a.182.182,0,0,0-.025-.14,5.244,5.244,0,0,1-.889-1.71,5.21,5.21,0,0,0-.569-1.305c-.067-.079-.053-.238-.049-.359a.463.463,0,0,0-.175-.468c-.042-.027-.109-.078-.1-.107.1-.544-.355-.954-.346-1.478,0-.191.141-.486-.248-.5-.018,0-.053-.037-.051-.052.093-.681-.5-1.25-.312-1.95.125-.453-.225-.776-.343-1.164-.042-.137-.153-.353-.1-.4.4-.392-.079-.743-.031-1.111.007-.05-.092-.11-.134-.171-.2-.295.338-.551.025-.888a1.189,1.189,0,0,1-.185-.842c.007-.47-.25-.914-.15-1.4.058-.285-.11-.6.145-.869.048-.05,0-.249-.065-.342a.346.346,0,0,1,0-.473.2.2,0,0,0-.009-.32c-.033-.032-.072-.086-.066-.124a2.2,2.2,0,0,0,.126-.777c-.056-.236-.232-.517-.1-.694.167-.233-.2-.516.129-.672,0-.256-.015-.514,0-.769.043-.62.079-1.242.163-1.857.027-.2.254-.371.279-.568a2.031,2.031,0,0,0-.135-.627c-.01-.046-.006-.133.015-.142.5-.2.214-.68.357-1.01.093-.213-.18-.5.031-.786a4.544,4.544,0,0,0,.365-.769,3.059,3.059,0,0,0,.154-1.321c0-.222-.064-.469.2-.612.043-.023.108-.075.1-.106-.058-.5.386-.832.451-1.273s.293-.809.352-1.251a2.839,2.839,0,0,1,.4-.824,3.667,3.667,0,0,0,.313-.486c.062-.183.029-.381.219-.533a.5.5,0,0,0,.107-.4.84.84,0,0,1,.167-.551.709.709,0,0,1,.776-.454c.154.022.163-.086.049-.161-.287-.188-.2-.407-.056-.617a9.12,9.12,0,0,0,.6-.831c.141-.269.138-.62.3-.872s.458-.451.584-.761a2.554,2.554,0,0,1,.516-.865c.046-.046.042-.174.084-.187.569-.17.658-.747.956-1.14.113-.149.127-.36.363-.413.058-.014.089-.138.139-.207a2.031,2.031,0,0,1,.729-.782c.281-.14.417-.546.673-.772a3.528,3.528,0,0,0,.812-.961,1.109,1.109,0,0,1,.559-.478.97.97,0,0,0,.348-.264,11.177,11.177,0,0,1,1.553-1.405,4.184,4.184,0,0,0,.9-.785,6.915,6.915,0,0,1,1.239-.918,12.851,12.851,0,0,0,1.661-1.193c.1-.1.251-.223.366-.211a.917.917,0,0,0,.85-.386c.192-.224.381-.5.757-.4a.164.164,0,0,0,.133-.041c.416-.445,1.044-.461,1.533-.759.349-.213.655-.544,1.131-.431.036.008.118-.033.122-.059.079-.548.5-.393.826-.389.221,0,.316-.134.436-.255a1.214,1.214,0,0,1,.924-.377,1.422,1.422,0,0,0,1.124-.436.95.95,0,0,1,1.011-.3.536.536,0,0,0,.61-.106.633.633,0,0,1,.6-.221c.264.049.472-.167.705-.146.277.025.455-.155.683-.221.426-.124.831-.465,1.307-.126a.207.207,0,0,0,.2-.008c.162-.2.379-.1.57-.115a1.967,1.967,0,0,0,.867-.142c.247-.131.568.072.867-.147.167-.122.513.034.749-.036.307-.09.585-.244.876.014.278-.26.621-.133.937-.15.332-.017.666,0,1,0h1c.333,0,.668-.019,1,.006a3.086,3.086,0,0,1,.7.152c.492.159,1.02.084,1.511.25.042.014.107-.057.161-.056.19,0,.452-.058.555.041a.821.821,0,0,0,.685.225,3.121,3.121,0,0,1,1.986.405.631.631,0,0,0,.36.05,1.1,1.1,0,0,1,.48.144,9.936,9.936,0,0,0,1.175.321,4.518,4.518,0,0,1,.836.208,2.119,2.119,0,0,0,1.293.408c.526.362,1.191.339,1.741.622.3.154.672.193.861.534.026.046.129.049.2.075a5.146,5.146,0,0,0,.8.3c.28.056.337.379.675.4.746.052,1.234.7,1.9.964.2.079.358.249.555.33a3.544,3.544,0,0,1,1.265.855,6.509,6.509,0,0,0,.913.761c.128.094.344.076.459.177.284.251.655.376.84.786a1.811,1.811,0,0,0,.788.648,4.1,4.1,0,0,1,1.162.877c.318.384.636.771.982,1.129a6.139,6.139,0,0,0,.749.6,2.253,2.253,0,0,0,.259.113c.472.264.487.9,1.028,1.163.431.209.6.76.862,1.179a1.049,1.049,0,0,0,.458.519,1.669,1.669,0,0,1,.785.877,1.83,1.83,0,0,0,.323.479c.114.135.246.234.232.45a.414.414,0,0,0,.2.289,2.267,2.267,0,0,1,.7.932c.034.056-.026.2.01.221.487.339.473.94.743,1.389a1.676,1.676,0,0,0,.222.367,1.612,1.612,0,0,1,.5.8,1.87,1.87,0,0,0,.367.538,1.7,1.7,0,0,1,.455,1.034c-.016.314.326.367.333.642a4.588,4.588,0,0,0,.14.553,1.427,1.427,0,0,0,.133.565c.086.149.08.359.233.52a.661.661,0,0,1,.1.415,1.559,1.559,0,0,0,.457,1.2c.271.254.234.637.291.949a6.494,6.494,0,0,0,.292,1.192,2.009,2.009,0,0,1,.2,1,2.251,2.251,0,0,0,.184.925,6.105,6.105,0,0,1,.123,1.177,3.73,3.73,0,0,0,.107.416.613.613,0,0,1,.038.288c-.243.756.126,1.5.019,2.261a2.55,2.55,0,0,0,.14.78c.052.267.013.535.064.813a2.742,2.742,0,0,1-.139,1.184c-.049.176-.136.32-.008.473a.225.225,0,0,1,.014.325c-.063.092-.122.281-.074.339.244.3.092.633.146.944A1.534,1.534,0,0,1,91.7,65c-.038.112-.154.221-.143.321.1.862-.176,1.7-.163,2.552,0,.126.041.324-.021.367-.429.3-.276.736-.276,1.121,0,.322-.257.52-.309.8-.055.294-.03.6-.066.9-.014.111-.109.209-.155.318a3.918,3.918,0,0,0-.423,1.061c-.046.369-.261.7-.321,1.1a1.711,1.711,0,0,1-.562,1.3c-.314.716-.626,1.433-.943,2.147-.1.217-.2.43-.309.641-.043.085-.159.18-.142.242.095.339-.192.49-.312.724a6.1,6.1,0,0,0-.8,1.515c-.013.063-.1.113-.158.164a5.672,5.672,0,0,0-1.207,1.807,3.765,3.765,0,0,1-.479.647c-.249.309-.507.611-.76.917q-.355.429-.707.861c-.2.249-.381.519-.6.746a4.248,4.248,0,0,1-.639.493c-.192.132-.243.364-.462.507a1.267,1.267,0,0,0-.669.782,1.062,1.062,0,0,0-.655.638c-.061.143-.248.237-.388.339a5.1,5.1,0,0,0-.482.314c-.263.241-.46.635-.76.733a2.377,2.377,0,0,0-.925.564,2.328,2.328,0,0,1-.423.274c-.081.047-.205.054-.254.121a5.722,5.722,0,0,1-1.53,1.159c-.674.474-1.331.974-2.011,1.44a5.319,5.319,0,0,0-1.689.75c-.3.131-.528.491-.939.347-.034-.012-.1.11-.165.143-.614.312-1.224.632-1.85.919a2.265,2.265,0,0,1-.946.291,1.775,1.775,0,0,0-1.021.339.629.629,0,0,1-.4.147,1.015,1.015,0,0,0-1.076.377.3.3,0,0,1-.194.08c-.44.056-.881.1-1.32.16a2,2,0,0,0-.625.157,5.181,5.181,0,0,1-2.427.463,2.932,2.932,0,0,0-1.156.169,2.656,2.656,0,0,1-.869.132c-.415.05-.828.111-1.314.177m5.433-25.778L63,71.39l-.068.069a.629.629,0,0,0,.093.068c.006,0,.031-.029-.334.033l.241-.241c-.036-.027-.084-.085-.1-.076a.439.439,0,0,0-.2.131c-.021.03.034.114.441.107M44.2,47.49c-.056.075-.129.128-.128.179s.064.123.1.185l.293-.216c-.074-.041-.147-.082-.293.284v-.068a.416.416,0,0,0-.117.046c-.009.007.016.061.026.093.03-.023.061-.047.119-.5M66.013,72.978a.74.74,0,0,0,0-.108c-.2-.034-.409-.065-.615-.1a.643.643,0,0,0,.051.126.4.4,0,0,0,.438.177c.054-.012.1-.075-.565-.3H65.4a1.327,1.327,0,0,0-.06-.429c-.044-.088-.229-.2-.286-.172a1.682,1.682,0,0,0-.388.342c-.011.011.022.1.042.1a2.345,2.345,0,0,1,1.308.364M39.532,60.622c-.155,0-.258-.007-.36,0a1.72,1.72,0,0,1-1.82-1.242,13.407,13.407,0,0,1-.574-1.3c-.029-.113-.107-.213-.143-.324a5.151,5.151,0,0,0-.324-1.017c-.2-.342-.085-.777-.391-1.075a.482.482,0,0,1-.051-.356,2.135,2.135,0,0,0-.314-1.334c-.045-.084-.157-.173-.143-.243.065-.338-.178-.632-.146-.936.037-.346-.191-.621-.165-.937a4.267,4.267,0,0,0-.326-1.791c-.095-.266.064-.491.005-.721a7.585,7.585,0,0,0-.3-.8.144.144,0,0,1,0-.076,2.264,2.264,0,0,0,.084-.449c0-.193-.07-.384-.082-.578-.033-.512.1-1.043-.28-1.5-.089-.108-.029-.344-.03-.52a3.652,3.652,0,0,0-.03-1.143c-.1-.274-.01-.59-.145-.778-.214-.3-.077-.588-.135-.873a.81.81,0,0,0-.053-.132.512.512,0,0,0-.107.064.762.762,0,0,0-.144.17,7.364,7.364,0,0,1-1.65,2.24c-.076.064-.2.161-.187.223.058.322-.2.442-.357.628-.046.055-.118.129-.109.181a.489.489,0,0,1-.334.542c-.271.1-.338.323-.432.517-.124.254-.156.55-.263.813-.18.438-.67.748-.539,1.315-.333.214-.337.646-.6.9a1.276,1.276,0,0,0-.314.719,2.669,2.669,0,0,1-.35,1.155,2.921,2.921,0,0,0-.419.986,3.953,3.953,0,0,0-.3,1.724c.012.1-.081.221-.147.318a2.114,2.114,0,0,0-.313,1.181c-.015.441-.115.88-.14,1.321-.025.46.019.924-.016,1.383a3.2,3.2,0,0,1-.221.674.534.534,0,0,0-.036.261,2.207,2.207,0,0,1-.032,1.351c-.048.247-.109.585.013.751.236.321-.008.69.159.936.22.325.1.638.12.952.027.562,0,1.128.013,1.691a.881.881,0,0,0,.125.407,3.008,3.008,0,0,1,.331,1.5,1.27,1.27,0,0,0,.236,1.05.962.962,0,0,1,.234.68c.033.385.124.766.191,1.149.4.244.154.834.569,1.071-.073.48.312.744.515,1.094.046.078.112.217.081.254-.352.42.029.668.214.956.131.2.4.4.4.595-.005.485.351.788.478,1.2a1.229,1.229,0,0,0,.268.425,9.443,9.443,0,0,1,.816,1.189,1.654,1.654,0,0,0,.572.828c.086.078.192.2.185.3-.016.223.188.294.243.443.1.276.5.306.518.534.036.458.341.63.65.839.065.044.141.147.132.21-.041.264.114.411.264.59.321.382.817.613.984,1.128.607.012.669.658,1.067.918a4.885,4.885,0,0,1,.641.491c.185.17.514.245.527.531.022.463.518.164.664.47.093.194.369.306.57.442a2.625,2.625,0,0,1,.884.848,1.413,1.413,0,0,0,.86.645,3.808,3.808,0,0,1,1.453.782c.122.076.244.153.372.217a2.066,2.066,0,0,1,.81.479c.117.144.381.171.582.243.112.04.233.056.345.1.333.123.668.243,1,.381s.665.449.965.412c.5-.062.615.4.966.5.066.018.116.1.182.115a10.744,10.744,0,0,0,1.552.326c.469.037.9.195,1.354.26a5.178,5.178,0,0,1,1.62.37.114.114,0,0,0,.076,0c.368-.114.731.3,1.109.01.041-.031.172.056.261.088a3.418,3.418,0,0,0,.771.065c.214.006.439-.088.649.108.155.144.412-.01.635.145.125.087.434-.09.66-.151.056-.015.131-.071.16-.052a.584.584,0,0,0,.69-.006.723.723,0,0,1,.585-.039c.612.294,1.247.064,1.865.135a.67.67,0,0,0,.274-.076c.2-.073.394-.168.6-.222.232-.061.516.11.7-.157.159.243.44.073.617.174s.244.184.23-.092c.4-.065.713-.416,1.14-.385.212.015.44.175.623.127.219-.058.391-.282.6-.409a.522.522,0,0,1,.293-.029,1.223,1.223,0,0,0,1.012-.351.493.493,0,0,1,.334-.107A4.719,4.719,0,0,0,66.99,88.8c.736-.229,1.28-.838,2.049-1,.089-.019.2-.243.191-.363-.025-.319-.157-.633.012-.95-.287-.494-.1-1.035-.157-1.551-.013-.117-.027-.281-.1-.335a.591.591,0,0,1-.2-.615,1.69,1.69,0,0,0-.308-1.259.572.572,0,0,1-.149-.318c.012-.509-.484-.658-.705-1-.111-.172-.405-.227-.619-.33-.064-.031-.158-.02-.2-.065-.494-.511-1.213-.545-1.8-.849a1.161,1.161,0,0,0-.764-.13,2.506,2.506,0,0,1-1.438.126,4.333,4.333,0,0,0-.535-.013A1.8,1.8,0,0,1,61.711,80a.742.742,0,0,0-.887-.009c-.1.073-.331-.017-.5-.06a2.618,2.618,0,0,0-.748-.216,2.216,2.216,0,0,1-1.24-.37c-.313-.163-.544-.534-.982-.424-.044.011-.143-.071-.168-.131-.158-.384-.6-.476-.811-.8-.118-.183-.341-.361-.342-.541,0-.281-.177-.4-.306-.576a3.187,3.187,0,0,1-.794-2.131.787.787,0,0,0-.292-.806.482.482,0,0,1-.162-.311c-.065-.515-.106-1.033-.162-1.55-.02-.186.091-.324.134-.48s-.1-.359-.129-.546a6.6,6.6,0,0,1,.643-2.963,7.76,7.76,0,0,0,.309-.794,1.705,1.705,0,0,1,.589-.911,4.733,4.733,0,0,0,.932-1.225c.094-.166.329-.236.3-.5-.043-.331.334-.2.47-.4a1.581,1.581,0,0,0,.192-1.375c-.14-.537-.761-.7-.842-1.26-.008-.055-.3-.032-.391-.119-.3-.3-.683-.48-1-.741a8.564,8.564,0,0,1-.871-.831,2.447,2.447,0,0,0-1.571-.675.913.913,0,0,1-.656-.288.655.655,0,0,0-.8-.2.848.848,0,0,1-.511-.045c-.3-.106-.557-.454-.916-.106-.022.021-.16-.08-.245-.123a2.8,2.8,0,0,0-1.753-.116.867.867,0,0,1-.378.009,2.848,2.848,0,0,0-1.4.024c-.458.13-.858.467-1.391.386a.771.771,0,0,0-.574.244.651.651,0,0,1-.616.2.725.725,0,0,0-.662.276c-.126.139-.216.37-.468.342a.917.917,0,0,0-.807.3c-.118.117-.358.108-.539.168-.083.027-.156.116-.234.117-.105,0-.264-.114-.309-.076a1.84,1.84,0,0,1-1.3.263m45.814-1.63c-.022-.37.124-.732-.082-1.111a3.633,3.633,0,0,1-.179-1.077c-.049-.287.093-.578-.125-.876-.172-.236-.148-.609-.3-.868a1.689,1.689,0,0,1-.188-.925,2.833,2.833,0,0,0-.4-1.374.418.418,0,0,1-.061-.2c.025-.453-.506-.759-.33-1.256.011-.031-.115-.1-.151-.162a.646.646,0,0,1-.129-.326.753.753,0,0,0-.305-.728.409.409,0,0,1-.155-.31c.1-.505-.3-.713-.554-1.009-.093-.107-.215-.245-.214-.367,0-.412.03-.8-.482-.957-.1-.032-.17-.227-.218-.359-.115-.324-.048-.757-.537-.847-.01,0,.01-.1-.008-.145a2.415,2.415,0,0,0-.158-.319c-.267-.452-.839-.733-.767-1.377,0-.022-.077-.049-.113-.079a6.125,6.125,0,0,1-.96-1.228c-.226-.316-.357-.726-.714-.917A5.032,5.032,0,0,1,77,41.046c-.175-.186-.257-.487-.529-.568-.342-.1-.278-.559-.567-.639-.569-.158-.628-.942-1.274-.99-.058,0-.093-.164-.16-.23-.261-.259-.491-.619-.807-.733a2.285,2.285,0,0,1-.855-.539,1.881,1.881,0,0,0-.837-.582.922.922,0,0,1-.556-.417.813.813,0,0,0-.746-.476,1.1,1.1,0,0,1-.657-.268,1.8,1.8,0,0,0-1.333-.7c-.251-.291-.673-.217-.963-.476-.258-.231-.7-.183-.943-.5-.037-.047-.133-.044-.2-.076a15.936,15.936,0,0,1-1.532-.575.719.719,0,0,0-.29-.04c-.466-.052-.934-.085-1.4-.162a1.073,1.073,0,0,1-.58-.25.729.729,0,0,0-.615-.2c-.384,0-.769.005-1.154,0-.12,0-.312.005-.349-.061-.178-.319-.412-.064-.614-.089s-.21.1-.185.239a2.315,2.315,0,0,0,.116.413,1.583,1.583,0,0,0,.434.742c.278.217.211.582.38.843.014.021.035.051.054.053.325.025.343.322.381.52a1.613,1.613,0,0,0,.364.7,1.55,1.55,0,0,1,.371.685,7.578,7.578,0,0,0,.511,1.485,3.345,3.345,0,0,1,.313,1.642.231.231,0,0,0,.066.2c.306.185.222.48.239.752.02.322.078.643.078.965s-.063.656-.076.985a.928.928,0,0,1-.254.754.875.875,0,0,0-.226.672,1.093,1.093,0,0,1-.179.609,5.156,5.156,0,0,0-.927,1.85c-.025.153-.175.283-.261.428-.268.451-.843.726-.781,1.373.006.067-.128.148-.2.22-.253.254-.519.5-.757.765-.16.18-.384.389-.4.595a.734.734,0,0,1-.438.65,1.539,1.539,0,0,0-.812,1.441c-.013.206,0,.4-.2.538-.175.122-.136.292-.067.468a2.605,2.605,0,0,0,.816,1.433c.034.022.036.086.059.128a2.845,2.845,0,0,0,1.756,1.21c.263.086.6.057.822.239.266.221.582-.029.855.19.188.15.5.132.752.214.545.178,1.094.334,1.651.474a7.793,7.793,0,0,0,1.709.143,1.36,1.36,0,0,1,.337.11c.282.089.551.359.861.044a.229.229,0,0,1,.221,0c.363.3.789.162,1.17.133.713-.055,1.388.217,2.091.17.155.3.481.046.681.215.245.206.583-.025.8.11.26.167.436-.083.654-.021.117.033.31-.019.358.047.31.427.823.4,1.24.548a3.639,3.639,0,0,1,.835.41c.25.165.6.154.838.389a.448.448,0,0,0,.319.137c.246-.038.368.108.522.245a1.525,1.525,0,0,0,.48.321.837.837,0,0,1,.559.452c.057.2.166.2.288.257a1.018,1.018,0,0,1,.477.48c.175.37.3.741.745.929.183.077.313.433.344.677a1.294,1.294,0,0,0,.276.656,12.922,12.922,0,0,1,.662,1.192c.253.383.064.935.463,1.27.013.01.005.05,0,.075a1.959,1.959,0,0,0,.227.983,1.483,1.483,0,0,1,.013.937,1.147,1.147,0,0,0-.03.71,1.4,1.4,0,0,1,.1.5,3.993,3.993,0,0,0,.046.443c.093.39.541.779-.014,1.161a.056.056,0,0,0-.006.052c.24.2.013.537.145.7.21.264-.151.433-.023.658a.816.816,0,0,1,.137.466c-.022.152-.187.278-.25.431a1.2,1.2,0,0,0-.035.37,8.812,8.812,0,0,1-.143,2.324,1.735,1.735,0,0,0,.024.6,5.489,5.489,0,0,0,.377-.454,6.243,6.243,0,0,0,.355-.621,7.005,7.005,0,0,1,.307-.641,3.79,3.79,0,0,0,.333-.71c.127-.319.039-.8.523-.924.126-.307.247-.616.38-.919.078-.178.212-.337.153-.553-.079-.288.094-.521.176-.773a1.807,1.807,0,0,0,.127-.33,6.626,6.626,0,0,1,.682-2.027,1.273,1.273,0,0,0,.23-.665c-.078-.814.23-1.592.174-2.4-.02-.295-.072-.609.247-.827.066-.045.08-.25.038-.346s-.13-.134-.023-.285a1.227,1.227,0,0,0,.195-.916c-.034-.214.044-.426-.119-.65-.082-.113.077-.4.117-.608a.35.35,0,0,0,0-.227c-.252-.368-.1-.78-.153-1.17-.053-.413-.132-.824-.2-1.235M44.735,46.008c.169,0,.349-.012.527,0a.777.777,0,0,0,.932-.537.623.623,0,0,1,.743-.4.569.569,0,0,0,.335-.1c.077-.041.184-.149.033-.206-.4-.15-.5-.586-.808-.8-.268-.186-.484-.354-.492-.713,0-.1-.114-.213-.2-.294s-.214.242-.233.025c-.021-.246-.214-.161-.293-.256a2.452,2.452,0,0,1-.188-.3l-.254-.417c-.139.1-.275.2-.419.284a.765.765,0,0,1-.206.057.545.545,0,0,0,.1.117.46.46,0,0,0,.134.045c-.038.037-.072.1-.114.107-.1.016-.2,0-.306.007a.525.525,0,0,0-.133.048c.044.035.087.07.133.1.189.142.555.123.462.524-.015.065.058.149.09.225a2.371,2.371,0,0,1,.06-.282.512.512,0,0,1,.1-.132c.136.251.226-.033.344-.033a.869.869,0,0,1,.694.335c.043.054-.137.291-.221.441-.032.056-.078.141-.124.145-.316.029-.142.257-.173.4a1,1,0,0,0,.353.058c.125-.026.2-.251.377-.095.114.1.268.2.312.329s.153.34-.155.4a2.02,2.02,0,0,0-.646.284c-.421.26-.587.211-.709-.261a2.644,2.644,0,0,1-.007-.306.71.71,0,0,0-.08-.183.854.854,0,0,0-.16.164,3.589,3.589,0,0,0-.32.633c-.079.246.093.438.225.63s.187-.029.287-.05M68.782,72.53c0,.218-.031.318.006.367a1,1,0,0,0,.337.329c.24.107.262-.131.323-.276a2.514,2.514,0,0,0,.1-.341c.024-.093.041-.269.062-.269.349,0,.235-.254.246-.434a2.133,2.133,0,0,0,0-.307c-.014-.167.087-.17.213-.226a.8.8,0,0,1,.4-.14c.247.018.526.081.477-.351-.008-.074.193-.2.318-.255.166-.075.174-.176.073-.28-.059-.06-.084-.24-.272-.107a1.268,1.268,0,0,1-.748.242c-.174,0-.334.2-.548.145-.024.169-.036.341-.075.507a.913.913,0,0,1-.145.322c-.19.257-.4.5-.591.756a2.293,2.293,0,0,0-.184.319M49.493,46.015c-.373-.02-.39.006-.245.3.12.244.261.485.086.75-.072.109-.1.149.053.176.116.019.227.071.343.092a.175.175,0,0,0,.129-.062.429.429,0,0,1,.6-.124c.208.137.25.3.028.483-.015.012.071.146.109.224.063-.054.172-.1.182-.163.028-.189-.032-.4.15-.541-.268-.17-.089-.324,0-.495.015-.027-.092-.17-.152-.177a3.442,3.442,0,0,0-.61-.006c-.238.016-.086-.4-.394-.333-.108.023-.25-.11-.28-.126M47.92,40.148c-.07-.133-.1-.263-.158-.283-.157-.05-.173.067-.224.2-.058.153-.233.261-.355.39-.332.35-.336.352-.053.741.187.258.385.506.578.76a.919.919,0,0,0,.546.354.259.259,0,0,0,.2-.061.2.2,0,0,0-.014-.2,1.635,1.635,0,0,1-.668-.79c-.188-.443-.284-.4-.09-.692.09-.136.163-.285.242-.426m19.188,29.6-.226-.485c-.034.021-.1.047-.1.064.033.246-.144.19-.285.231-.117.034-.209.158-.312.243.245.13.013.245-.029.337a2.752,2.752,0,0,0-.147,1.367c.007.023-.006.053,0,.076.057.17.149.125.285.075.3-.112.062-.445.266-.583.3-.2.173-.333-.07-.447-.012-.005-.024-.5-.022-.57.008-.352.161-.045.236-.066a1.625,1.625,0,0,0,.4-.24M50.476,43.079a2.79,2.79,0,0,1,.005-.457.436.436,0,0,0-.223-.443,3.018,3.018,0,0,0-.424-.265.173.173,0,0,0-.156.051,1.116,1.116,0,0,0-.038.977,3.184,3.184,0,0,1,.362.612c.063.189.177.134.288.145.186.019.193-.1.187-.239s0-.254,0-.381m-6.4-1.532c.128,0,.256,0,.384,0,.2.007.166-.133.175-.257.012-.171-.069-.233-.225-.2a.915.915,0,0,1-1.11-.637,1.071,1.071,0,0,0-.207-.3c-.082-.092-.216-.251-.271-.231a.356.356,0,0,0-.2.369c0,.4,0,.419.36.611.25.133.653.117.585.579,0,.016.077.061.121.064.127.009.256,0,.384,0m5.9-4.685a1.9,1.9,0,0,1-.109-.281c-.044-.211.1-.466-.14-.63-.12-.083-.381.069-.384-.227,0-.008-.107-.038-.134-.018-.049.038-.118.142-.107.155.171.195.092.324-.08.465-.051.042-.049.243-.044.244.359.077.347.519.641.647.056.024.174.018.2-.018a2.016,2.016,0,0,0,.16-.337M71.829,69.557c.065-.142.121-.272.184-.4.23-.468.23-.556-.223-.661-.283-.066-.418-.117-.423-.428,0-.075-.241-.221-.342-.2s-.206.2-.234.333a.325.325,0,0,0,.39.4c.4-.041.408.259.515.468.051.1,0,.249.013.375,0,.029.057.054.12.109M43.937,37.526c-.026.084-.085.171-.069.241.093.418.2.832.311,1.246a.14.14,0,0,0,.117.068c.064-.012.163-.046.175-.091.087-.322.158-.649.23-.975.011-.051.022-.144,0-.154-.233-.111-.473-.21-.766-.336m12.693,4.743a1.777,1.777,0,0,0-.01-.442c-.017-.058-.143-.116-.22-.116s-.225.083-.221.109a2.2,2.2,0,0,1-.363,1.235c-.022.052-.037.108-.055.162a1.675,1.675,0,0,0,.373.015.355.355,0,0,0,.186-.158c.175-.262.46-.489.31-.805m-5.691,7.549c0,.076,0,.153,0,.229-.013.172.008.277.235.278s.251-.125.224-.285a.7.7,0,0,1,.3-.72c.07-.055.271-.139.055-.262a.448.448,0,0,0-.31-.079c-.467.173-.5.251-.5.839M47.884,38.263c-.1-.1-.176-.237-.243-.233-.333.021-.225-.31-.372-.429.071-.082.232-.182-.032-.205a3.128,3.128,0,0,0-.378,0,.247.247,0,0,0-.225.344c.043.085.108.194.187.219.288.093.482.231.431.574,0,.025.084.095.095.088.181-.112.356-.233.538-.356m27.149,38.51a.751.751,0,0,0,.176,0,1.2,1.2,0,0,0,.18-.081.5.5,0,0,0-.108-.1c-.134-.067-.189-.419-.435-.125-.019.022-.187-.025-.19-.051-.057-.484-.419-.4-.734-.4a.771.771,0,0,0-.2.057c.042.053.074.126.129.157a3.08,3.08,0,0,1,.614.331.663.663,0,0,0,.569.221M38.9,46.338c-.042.021-.108.038-.108.055-.006.358-.009.717,0,1.076,0,.028.145.092.187.071a.765.765,0,0,0,.4-.724c-.011-.249-.382-.249-.487-.478m14.238-3.862-.184.057a1.15,1.15,0,0,1,.23.109.438.438,0,0,1,.222.442,2.476,2.476,0,0,0,0,.456c0,.115.01.162.16.092a2.312,2.312,0,0,1,.561-.114c-.13-.162-.266-.318-.387-.487a.654.654,0,0,1-.155-.313c-.007-.263-.167-.258-.443-.242m-9.272,7.531a.952.952,0,0,0,.3-.008.26.26,0,0,0,.151-.185c0-.14-.028-.4-.071-.4a1.587,1.587,0,0,0-.657.04.353.353,0,0,0-.184.443c.04.183.2.1.309.112a1.075,1.075,0,0,0,.152,0M47.4,48.47c.311,0,.374-.1.277-.412a.509.509,0,0,1,.2-.667c.06-.054.139-.158.123-.212-.026-.085-.145-.22-.19-.207-.1.028-.24.127-.249.209a3.955,3.955,0,0,1-.323,1.009c-.111.288-.125.283.161.28m-6.849-4.132-.026-.1c-.068.006-.169-.014-.2.022a3.913,3.913,0,0,0-.31.474.143.143,0,0,0,.017.137c.056.037.174.081.192.059a.855.855,0,0,1,.786-.313c.065.006.206-.136.2-.2a1.219,1.219,0,0,0-.16-.367c-.071.045-.141.094-.214.136-.094.054-.191.1-.286.155m27.1,30.03c.123.074.243.2.327.185a1.584,1.584,0,0,0,.572-.266c.07-.052.075-.231.056-.344-.007-.043-.178-.107-.246-.082a3.46,3.46,0,0,0-.568.287c-.054.032-.077.115-.142.221M51.32,41.406a1.477,1.477,0,0,0-.219-.316c-.3-.233-.666-.148-1.009-.153-.015,0-.051.077-.041.1a.219.219,0,0,0,.105.108c.308.124.684.088.918.395a1.91,1.91,0,0,0,.245-.136m-5.911,5.9c-.279.162-.5.291-.72.427a.275.275,0,0,0,.065.123,3.039,3.039,0,0,0,.3.193c.05.03.145.08.155.068.135-.166.406-.253.342-.538a1.373,1.373,0,0,0-.142-.271m.459-8.855a3.159,3.159,0,0,0-.057-.4c-.015-.063-.1-.108-.154-.162-.034.044-.066.091-.1.132a.955.955,0,0,0-.144.766c0,.054.114.134.187.147.347.067.255-.194.272-.479m7.224-.984a.413.413,0,0,0,0-.075c-.02-.108.072-.279-.118-.3a.3.3,0,0,0-.378.2c-.108.216.035.284.043.415.006.088-.1.288.1.253.13-.023.249-.169.349-.281.037-.042.006-.145.006-.22m-2.459-.945c-.01.365.006.4.158.414a.4.4,0,0,0,.458-.353A.356.356,0,0,0,51,36.186c-.068-.029-.218.071-.3.148a.356.356,0,0,0-.07.185M70.807,69.207l-.078-.409c-.085.1-.171.2-.254.306-.061.076-.1.18-.18.228-.238.144.014.235.035.344.013.067.109.117.168.175a2.391,2.391,0,0,0,.175-.279c.059-.129.1-.266.135-.365M45.093,51.39v-.378a.445.445,0,0,0,0-.15c-.01-.028-.062-.046-.1-.056-.011,0-.051.037-.048.05.083.374-.3.59-.313.931-.007.155.038.236.205.221.117-.01.262.034.259-.165,0-.151,0-.3,0-.454m9.731-9.535a.236.236,0,0,0-.183.372.578.578,0,0,1,.046.734c-.013.019.05.122.064.118.065-.013.18-.051.179-.078a2.226,2.226,0,0,1,.154-.92c.085-.212-.091-.242-.259-.226m14.7,32.587c.33.069.575,0,.6-.2.016-.11-.245-.275-.4-.388-.077-.057-.354.328-.32.486.014.065.126.108.115.1m4.286-3.233.048-.053c-.2-.178-.4-.365-.613-.526-.026-.019-.162.082-.228.147-.125.122-.007.108.076.159a3.87,3.87,0,0,1,.451.369c.061.05.253-.019.266-.1M47.622,49.568c.236.137.384.291.473.262a3.515,3.515,0,0,0,.686-.367c.022-.013.008-.1,0-.147,0-.02-.034-.036-.051-.054-.238.244-.565.054-.829.17-.087.039-.172.084-.278.137m5.623-9.69a2.789,2.789,0,0,0,0,.306c.013.092.041.182.062.273.071-.062.146-.118.21-.186s.165-.153.153-.208a2.411,2.411,0,0,0-.2-.511c-.007-.014-.176.014-.187.048a1.188,1.188,0,0,0-.036.278M64.024,73.3a3.684,3.684,0,0,1-.276-.258c-.135-.152-.18-.12-.2.069-.007.063-.1.112-.121.178a.463.463,0,0,0,0,.2,1.658,1.658,0,0,0,.414-.016c.063-.014.11-.1.179-.171m7.6-.994a5.061,5.061,0,0,0-.451-.284.282.282,0,0,0-.2.027.138.138,0,0,0-.034.13,2.71,2.71,0,0,0,.288.341.167.167,0,0,0,.156.025,1.842,1.842,0,0,0,.244-.239M53.891,44.567c-.076-.034-.158-.1-.218-.088a2.149,2.149,0,0,0-.375.17c.021.043.032.1.067.126.054.039.178.052.18.082.023.44.191.117.262.039.055-.061.049-.177.084-.329m.922-3.787c-.037-.2-.051-.32-.085-.434-.006-.021-.1-.04-.129-.023a.189.189,0,0,0-.068.117c.144.129.131.235,0,.373-.054.057-.045.179-.051.274,0,.041.031.085.048.128.035-.018.087-.027.1-.056.075-.142.14-.288.183-.378m-1.952-6.77a2.642,2.642,0,0,0,.3,0c.025,0,.063-.089.061-.09-.17-.124-.344-.243-.518-.361a.46.46,0,0,0-.07.12c-.047.21.035.326.229.337M47.092,50.781c-.016-.132.074-.34-.188-.308-.193.023-.1.191-.118.3a.4.4,0,0,0,.006.223c.025.048.116.074.181.082a.137.137,0,0,0,.114-.073.98.98,0,0,0,.005-.226M53,45.987c-.085.1-.16.193-.247.277-.114.11-.216.236-.042.348.049.032.227-.066.29-.147a.7.7,0,0,0,.082-.332c0-.036-.043-.078-.083-.145m-6.49-6.439c.025,0,.057.01.075,0,.068-.047.131-.1.2-.151-.064-.052-.122-.129-.195-.149a.615.615,0,0,0-.3,0,.193.193,0,0,0-.112.146.2.2,0,0,0,.111.149.647.647,0,0,0,.225.006M71.593,76.928l-.091-.28a.661.661,0,0,1-.108.195.383.383,0,0,0-.1.516.057.057,0,0,0,.049,0c.093-.157.183-.316.251-.435m-4.13-5.111-.219.378a.948.948,0,0,0,.226.112c.13.026.272,0,.227-.174-.027-.106-.137-.191-.234-.317m-20.778-30.8c-.07-.124-.112-.237-.135-.234-.13.021-.319-.111-.374.111-.013.053.048.178.077.178a2.937,2.937,0,0,0,.433-.055m.567-5.012a.813.813,0,0,0,.149,0,.657.657,0,0,0,.129-.051c-.045-.034-.089-.069-.136-.1a.944.944,0,0,0-.238-.147.279.279,0,0,0-.2.056.136.136,0,0,0-.017.134.368.368,0,0,0,.16.107.44.44,0,0,0,.149,0M68.334,75.46l-.377-.357c-.033.047-.088.092-.094.141-.032.268.071.356.335.3a.578.578,0,0,0,.136-.081m4.916,2.465a2.6,2.6,0,0,0-.317-.221c-.026-.013-.147.093-.143.1.066.121.144.235.22.351l.241-.229m-4-7.379c-.043-.028-.1-.083-.116-.074-.121.094-.235.2-.347.3a.071.071,0,0,0,0,.07c.026.027.086.067.094.06.127-.115.247-.236.37-.357m-19.9-26.451-.228.169a2.032,2.032,0,0,0,.291.2c.025.012.1-.071.146-.111l-.209-.257m-3.949.67c-.037-.072-.061-.138-.071-.135-.131.025-.311-.1-.379.105-.017.05.041.127.065.192l.385-.162m-2.112-9.95.246-.088a3.278,3.278,0,0,0-.3-.248c-.013-.009-.091.076-.139.118l.191.218M54.662,44.35a1.921,1.921,0,0,0-.3-.03.69.69,0,0,0-.19.073.862.862,0,0,0,.159.152.177.177,0,0,0,.151-.007,1.2,1.2,0,0,0,.184-.188M51.4,34.246c-.013-.028-.056-.12-.1-.213-.018.093-.041.186-.052.28a.8.8,0,0,0,0,.225c0,.026.061.048.1.06.011,0,.048-.032.05-.05.006-.075,0-.151,0-.3m5.926,11.584c-.122-.068-.2-.138-.228-.122a.735.735,0,0,0-.16.182c.051.039.111.118.15.109.071-.017.129-.087.238-.169M48.5,40.891l-.094-.259c-.07.065-.2.143-.195.191.021.1.12.176.188.263l.1-.195m5.821-2.5a2.824,2.824,0,0,0,0,.3c0,.023.064.039.1.058q0-.281,0-.562c-.035.017-.09.027-.1.054a.439.439,0,0,0,0,.149M66.784,66.313c.074,0,.162.024.22-.008a.211.211,0,0,0,.08-.178c-.028-.186-.1-.086-.176-.02-.032.029-.087.03-.126.054a1.271,1.271,0,0,0-.126.1l.129.049m-16.8-18.695a.9.9,0,0,0-.112.272c0,.039.123.121.137.111a.428.428,0,0,0,.153-.186c.01-.026-.078-.089-.178-.2m.3-8.244.114.173.355-.26a.516.516,0,0,0-.2-.042,1.353,1.353,0,0,0-.266.129m-5.276.2c.029-.13.064-.248.078-.369,0-.036-.045-.078-.07-.117l-.205.41.2.076m24.418,29.67-.108-.162-.2.261c.043.015.1.055.126.042a1.107,1.107,0,0,0,.182-.141M42.541,45.57a1.035,1.035,0,0,0,.085-.214c.006-.033-.045-.077-.07-.115l-.2.258.188.071m10.982-9.3.131.181a.582.582,0,0,0,.048-.2.8.8,0,0,0-.1-.212l-.084.233M68.091,66.2l.359-.094c-.045-.034-.09-.094-.136-.1a1.436,1.436,0,0,0-.278.047c.021.057.043.114.054.142m-9.382,6.26c-.029.046-.085.1-.074.12a.644.644,0,0,0,.15.187c.008.008.084-.061.129-.095l-.2-.213M45.441,35.624c-.047-.177-.07-.268-.094-.359-.034.045-.095.09-.1.136a1.4,1.4,0,0,0,.047.278l.142-.054m.739,4.61-.217-.2c-.034.044-.1.117-.1.126a.665.665,0,0,0,.185.152c.02.011.075-.044.128-.077m5.4-8.733-.1-.26a.545.545,0,0,0-.072.193,1.207,1.207,0,0,0,.072.268l.1-.2m-7.636,1.618.2-.084a.451.451,0,0,0-.134-.1c-.035-.01-.083.03-.125.047l.057.133m9.117,8.115a1.223,1.223,0,0,0,.026-.219c0-.021-.063-.039-.1-.058a1.143,1.143,0,0,0-.047.2c0,.018.061.041.117.076m-4-1.219c-.057.035-.118.058-.117.076a1.144,1.144,0,0,0,.047.2c.034-.019.1-.037.1-.058a1.178,1.178,0,0,0-.026-.219m-.59-4.344c-.035-.057-.057-.118-.076-.117a1.143,1.143,0,0,0-.2.047c.019.034.037.1.058.1a1.169,1.169,0,0,0,.219-.026M64.289,73.076a1.179,1.179,0,0,0,.026-.22c0-.021-.062-.039-.1-.058a1.143,1.143,0,0,0-.047.2c0,.018.061.041.117.076M48.342,50.943l.135-.089a.778.778,0,0,0-.192-.072c-.036,0-.077.046-.116.072l.173.089m1.6-11.21.2-.084a.458.458,0,0,0-.133-.1c-.035-.009-.083.03-.126.047l.057.133m-2,6.461.2-.084c-.044-.034-.084-.083-.133-.1s-.083.03-.126.047l.057.133m1.3-6.831c-.035-.056-.057-.118-.076-.117a1.134,1.134,0,0,0-.2.047c.019.034.037.1.058.1a1.179,1.179,0,0,0,.219-.026M62.751,66.154a1.141,1.141,0,0,0,.026-.219c0-.021-.063-.039-.1-.058a1.081,1.081,0,0,0-.047.2c0,.018.061.041.117.076M51.892,38.7l-.084-.2a.451.451,0,0,0-.1.134c-.01.035.029.083.047.125l.133-.057m-3.249,8.83-.089-.135a.8.8,0,0,0-.072.192c0,.036.046.077.072.116l.089-.173M42.908,37.093c-.056.035-.118.057-.117.076a1.124,1.124,0,0,0,.047.2c.034-.019.1-.037.1-.058a1.18,1.18,0,0,0-.026-.219m8.614,8.756a1.142,1.142,0,0,0,.026-.219c0-.021-.063-.039-.1-.058a1.1,1.1,0,0,0-.047.2c0,.018.061.041.117.076m22.3,23.534a.559.559,0,0,0-.012-.117.992.992,0,0,0-.2,0,.321.321,0,0,0,0,.1,1.9,1.9,0,0,0,.214.022M46.643,47.528l-.089-.135a.8.8,0,0,0-.072.192c0,.036.046.077.072.116l.089-.173m-4.546-4.1.2-.084a.458.458,0,0,0-.133-.1c-.035-.009-.083.03-.126.047l.057.133m.512,4.067-.055-.1c-.017.017-.051.038-.048.05a.463.463,0,0,0,.048.1l.055-.054M51.838,34.68l-.054-.055a.478.478,0,0,0-.048.1c0,.012.031.033.048.05l.054-.1M63.705,67.313c-.017-.017-.038-.051-.05-.048a.475.475,0,0,0-.1.048c.017.017.038.051.05.048a.473.473,0,0,0,.1-.048m3.823-.638-.054-.055a.476.476,0,0,0-.048.1c0,.013.031.034.048.051l.054-.1M64.881,66.6l.055-.055a.486.486,0,0,0-.1-.048c-.013,0-.034.031-.051.048l.1.055M75.55,70.544c-.017-.017-.038-.051-.05-.048a.472.472,0,0,0-.1.048c.017.017.038.051.05.048a.475.475,0,0,0,.1-.048M60.4,65.852c-.017.017-.051.038-.048.05a.475.475,0,0,0,.048.1c.017-.017.051-.038.048-.05a.486.486,0,0,0-.048-.1m6.559-1.638.055.1c.017-.017.051-.038.048-.05a.464.464,0,0,0-.048-.1l-.055.054m8.878-1.186-.055-.1c-.017.017-.051.038-.048.051a.485.485,0,0,0,.048.1l.055-.055M43.884,48.217l.055.1c.017-.017.051-.038.048-.05a.475.475,0,0,0-.048-.1l-.055.054m4.923-.769.054.1c.017-.017.051-.038.048-.05a.475.475,0,0,0-.048-.1l-.054.055m12.46,25.227.055.1c.017-.017.051-.038.048-.05a.473.473,0,0,0-.048-.1l-.055.054M46.807,46.063l.054.1c.017-.017.051-.038.048-.051a.475.475,0,0,0-.048-.1l-.054.055m4.416-13.185-.054-.1c-.017.017-.051.038-.048.05a.464.464,0,0,0,.048.1l.054-.054M48.5,42.723l.054.054a.464.464,0,0,0,.048-.1c0-.012-.031-.033-.048-.05l-.054.1M60.651,73.906l.055.1c.017-.017.051-.038.048-.051a.5.5,0,0,0-.048-.1l-.055.055M41.808,42.756l.055-.055a.476.476,0,0,0-.1-.048c-.012,0-.033.031-.05.048l.1.055m9.723-.187-.054-.1c-.017.017-.051.038-.048.051a.475.475,0,0,0,.048.1l.054-.055M71.034,74.6l.055-.055a.5.5,0,0,0-.1-.048c-.012,0-.033.031-.05.048l.1.055M51.576,42.218l.054.1c.017-.017.051-.038.048-.051a.486.486,0,0,0-.048-.1l-.054.055m.571-.109-.055-.1c-.017.017-.051.038-.048.05a.475.475,0,0,0,.048.1l.055-.054m-2.032-1.462-.1.055c.017.017.038.051.05.048a.475.475,0,0,0,.1-.048l-.054-.055m4-1.121.054-.054a.474.474,0,0,0-.1-.048c-.013,0-.034.031-.05.048l.1.054M66.266,79.257l-.1.054c.017.017.038.051.05.048a.479.479,0,0,0,.1-.048l-.055-.054M40.577,38.91l.054-.054a.474.474,0,0,0-.1-.048c-.013,0-.034.031-.05.048l.1.054m10.691-.8.054.055a.474.474,0,0,0,.048-.1c0-.013-.031-.034-.048-.05l-.054.1m-.462-.659.055.1c.017-.017.051-.038.048-.051a.509.509,0,0,0-.048-.1l-.055.055m-4.967-.571-.054-.1c-.017.017-.051.038-.048.051a.486.486,0,0,0,.048.1l.054-.055M45.5,36.3l.055-.055a.483.483,0,0,0-.1-.048c-.013,0-.034.031-.051.048l.1.055M54.19,45.6l.055.1c.017-.017.051-.038.048-.051a.509.509,0,0,0-.048-.1l-.055.055" transform="translate(-10.131 -12.629)" fill="#40bcd0"></path><path id="Path_83" data-name="Path 83" d="M162.647,145.648c-.227-.005-.456-.039-.614.2a.349.349,0,0,1-.259.1,5.467,5.467,0,0,0-.863.134,8.152,8.152,0,0,0-1.182.312c-.229.074-.483.257-.8.045a.591.591,0,0,0-.752.184.52.52,0,0,1-.411.093,16.812,16.812,0,0,0-1.859.167c-.188-.006-.474.3-.5.487a.738.738,0,0,0,0,.306,12.13,12.13,0,0,1,.143,3.012,1.544,1.544,0,0,1-.1.8c-.2.344.185.538.114.843a3.812,3.812,0,0,0-.013.842,7.55,7.55,0,0,0,.007.845,1.259,1.259,0,0,1-.222.833c-.311.49-.465,1.087-.973,1.443-.179.126-.422.217-.518.389-.114.2-.482.086-.46.415a.5.5,0,0,1-.256.08,5.064,5.064,0,0,0-1.148.025,2.64,2.64,0,0,1-1.028-.048,1.91,1.91,0,0,1-1.45-.73c-.37-.554-.663-1.158-.987-1.741a.259.259,0,0,1-.039-.136,3.968,3.968,0,0,0-.145-1.014,2.9,2.9,0,0,1,.505-1.706c.159-.328.574-.409.758-.748.168-.309.531-.4.835-.559a1.4,1.4,0,0,1,.892-.26c.239.04.3-.161.218-.27-.291-.387,0-.884-.283-1.275a.435.435,0,0,1,.086-.489.635.635,0,0,0-.028-.889c-.1-.126-.025-.2,0-.322a3.416,3.416,0,0,0,.2-1.359c-.075-.371-.074-.732-.122-1.1-.035-.266-.146-.527.079-.767.025-.026.007-.109-.011-.159a2.2,2.2,0,0,1-.2-.527.8.8,0,0,1,.073-.582c.071-.106-.084-.343-.078-.519a1.5,1.5,0,0,1,.146-.474c.071-.175.163-.343.239-.516a4.478,4.478,0,0,1,.228-.519c.04-.066.173-.067.252-.116.322-.2.758-.2,1.011-.537.032-.043.14-.052.207-.043a5.528,5.528,0,0,0,1.473-.164,1.067,1.067,0,0,0,.384-.179,1.368,1.368,0,0,1,.745-.13c.263.008.561.109.782-.145a2.967,2.967,0,0,0,1.166-.155,1.839,1.839,0,0,1,.55-.138c.168.013.3.113.5,0,.111-.064.261-.082.4-.157a1.231,1.231,0,0,1,.776-.172.614.614,0,0,0,.677-.221c.033-.049.139-.041.192-.084.173-.137.247.245.443.069a1.168,1.168,0,0,1,.445-.215c.16-.047.325.009.5-.1a.818.818,0,0,1,.557.014c.542.146.707.109,1.255-.307.086-.066.288-.113.343-.065.437.391,1.011.3,1.513.436a.749.749,0,0,1,.6.566,5.153,5.153,0,0,0,.312.869c.116.232.261.418.01.659-.054.052,0,.236.031.351a11.874,11.874,0,0,1,.049,2.778c-.02.067-.108.164-.091.184.3.35.028.687.008,1.032a1.76,1.76,0,0,0,.093.878,1.36,1.36,0,0,1-.033,1.023,1.207,1.207,0,0,0-.064.659,2.487,2.487,0,0,1,.009,1.261,1.443,1.443,0,0,0,.086,1.032.6.6,0,0,1,.019.5,1.354,1.354,0,0,0-.012,1.052,1.408,1.408,0,0,1-.1,1.159c-.058.093-.266.256-.017.415.044.028.041.221-.008.289-.3.409-.39.945-.8,1.287-.124.1-.173.288-.281.416-.076.089-.2.208-.291.2a.525.525,0,0,0-.447.235c-.177.193-.352.383-.637.156-.029-.023-.121,0-.157.028-.469.4-1,.182-1.5.145-.117-.008-.232-.088-.346-.085a1.206,1.206,0,0,1-.917-.4c-.1-.1-.263-.13-.362-.228a2.258,2.258,0,0,1-.613-.741,6.241,6.241,0,0,0-.477-.8c-.036-.06-.089-.167-.065-.2.162-.192.229-.374.046-.592-.151-.179.067-.461-.164-.623a2.329,2.329,0,0,1,.422-1.549c.179-.18.347-.287.311-.563a.194.194,0,0,1,.108-.155c.362-.033.5-.332.673-.57a.56.56,0,0,1,.532-.211,1.117,1.117,0,0,0,.508-.066c.451-.222.478-.29.48-.781,0-.282-.02-.565.006-.845.024-.263.133-.521.141-.782.015-.514.084-.435-.439-.442" transform="translate(-72.909 -67.658)" fill="#40bcd0"></path><path id="Path_84" data-name="Path 84" d="M168.46,24.687c-.065.427.126.939-.146,1.416a.4.4,0,0,0,.007.367c.225.192.124.427.134.642a2.378,2.378,0,0,1-.03.909,2.992,2.992,0,0,1-.579.759c-.236.283-.591.3-.914.392a9.833,9.833,0,0,0-1.072.38c-.084.037-.184.269-.158.3.334.344-.048.86.3,1.19a2.459,2.459,0,0,1-.193.686.427.427,0,0,0-.029.536.7.7,0,0,1,.067.279.357.357,0,0,1-.153.4c.091.091.182.181.272.273.016.016.038.044.034.061-.048.21-.118.417-.146.629-.024.186.21.3.039.588s0,.751-.052,1.128a11.388,11.388,0,0,1-.434,2.277,2.075,2.075,0,0,1-1.254,1.257c-.344.147-.713.256-1.07.385a2.5,2.5,0,0,1-.731.089,1.569,1.569,0,0,1-1.449-.4.16.16,0,0,0-.128-.053c-.585.116-.835-.457-1.282-.624a.2.2,0,0,1-.1-.167c.088-.341-.171-.5-.341-.711a1.074,1.074,0,0,1-.285-.651,1.856,1.856,0,0,0-.141-1.1c-.037-.055.022-.187.054-.276a6.646,6.646,0,0,0,.364-1,1.112,1.112,0,0,1,.336-.637c.136-.132.2-.332.336-.47a1.026,1.026,0,0,1,.609-.395,2.213,2.213,0,0,0,.813-.433c.128-.087.224-.186.4-.17.048,0,.143-.113.153-.184.046-.339-.089-.7.16-1.012-.417-.435.293-.989-.148-1.429-.039-.038-.015-.15,0-.225.046-.287.213-.616.124-.849a2.088,2.088,0,0,1-.121-.869c.038-.928.107-1.854.142-2.782a1.288,1.288,0,0,0-.111-.724c-.1-.181.024-.524.128-.76.229-.521.4-1.1,1.015-1.337.044-.017.072-.1.11-.1a5.052,5.052,0,0,0,.911-.039c.245-.058.434-.292.722-.3a3.242,3.242,0,0,0,1.474-.151,2.8,2.8,0,0,1,2,.76,2.337,2.337,0,0,1,.356,1.086,4.548,4.548,0,0,1,.017,1.059" transform="translate(-77.968 -10.708)" fill="#40bcd0"></path><path id="Path_85" data-name="Path 85" d="M0,48.159a7.538,7.538,0,0,1,.646-2.384c.191-.29.34-.537.725-.506.049,0,.139,0,.142-.014.115-.616.707-.393,1.057-.59.6-.338.591-.415.479-1.105a11.767,11.767,0,0,1-.031-1.951c0-.114.107-.231.1-.34-.069-.644.169-1.306-.132-1.943-.052-.109.14-.313.129-.467A5.68,5.68,0,0,0,3,37.451a2.1,2.1,0,0,1,.159-1.525c.026-.053.08-.14.063-.159-.292-.318-.025-.615.136-.775a3.714,3.714,0,0,1,1.132-.772c.2-.084.477-.092.69-.188.461-.207,1.035-.047,1.428-.453.493.075.99-.109,1.494.108a6.881,6.881,0,0,1,.884.283.729.729,0,0,1,.447.655c.006.307.071.385.292.789.053.1.278.265.014.41-.022.012-.005.1,0,.149a2.5,2.5,0,0,1,.02.955,4.2,4.2,0,0,0-.025.993c-.012.215.094.454-.122.645a.294.294,0,0,0-.02.286c.439.535-.069.913-.239,1.32-.139.334-.6.454-.705.864-.013.052-.22.058-.338.08-.312.058-.623-.068-.956.114a.366.366,0,0,0-.233.374c-.022.246.324.481.117.681-.27.261.089.393.043.59-.028.119.009.278-.057.357-.126.15-.111.232,0,.387a.531.531,0,0,1,.047.432,8.482,8.482,0,0,0-.145,2.4c.2.259.128.567.158.859a3.043,3.043,0,0,1-.359,1.622c-.03.065-.11.132-.1.186a.988.988,0,0,1-.438.98,1.167,1.167,0,0,0-.273.421c-.083.188-.138.371-.41.291-.217-.064-.316.121-.436.242a2.206,2.206,0,0,1-.833.4.9.9,0,0,1-.9,0c-.056-.034-.172.022-.258.048-.36.107-.487.063-.767-.267-.029-.035-.086-.046-.13-.068-.044.551-.312-.1-.426.079-.221-.147-.441-.3-.664-.441-.059-.039-.165-.054-.182-.1-.23-.654-.99-1.039-.918-1.857A2.1,2.1,0,0,0,0,48.159" transform="translate(0 -16.506)" fill="#40bcd0"></path><path id="Path_86" data-name="Path 86" d="M149.705,2.908c-.065.427.129.941-.147,1.414a.339.339,0,0,0,0,.3c.258.37.13.78.141,1.171.017.606-.564,1.5-1.145,1.553-.482.042-.838.429-1.33.355-.034-.005-.131.137-.127.206a3.346,3.346,0,0,0,.131,1.328c.138.294-.109.607-.212.9a.387.387,0,0,0-.021.326,3.909,3.909,0,0,1,.1.652c.036.187.11.366.144.553.011.057-.047.132-.084.192a.348.348,0,0,0,.032.475.241.241,0,0,1,.053.2c-.112.295-.271.583.006.874-.222.256-.117.569-.159.858-.086.6-.184,1.2-.313,1.793a1.27,1.27,0,0,1-.309.484c-.147.176-.35.31-.479.5a1.43,1.43,0,0,1-.881.475c-.239.069-.482.056-.662.275-.047.057-.184.04-.28.056-.437.075-.909-.165-1.324.148-.032.024-.151-.019-.195-.064a1.33,1.33,0,0,0-1.083-.545c-.283-.362-.947-.364-.941-1.013a.641.641,0,0,0-.219-.364,1.316,1.316,0,0,1-.395-1c0-.262.128-.562-.139-.788-.024-.02.026-.134.049-.2a5.079,5.079,0,0,0,.41-1.369.383.383,0,0,1,.08-.2c.272-.355.725-.557.872-1.023.009-.028.087-.054.129-.048.553.084.891-.485,1.424-.472.034,0,.1-.1.1-.161a2.186,2.186,0,0,1,.15-1.094c.035-.057-.039-.18-.065-.272s-.106-.223-.072-.267c.289-.379.064-.739,0-1.11a.679.679,0,0,1,.048-.436.713.713,0,0,0,.01-.691,3.658,3.658,0,0,1-.065-.974c-.039-.83.266-1.639.154-2.473-.026-.191.085-.407-.121-.568a.25.25,0,0,1-.029-.212A3.554,3.554,0,0,1,144.22.5c.088-.059.284-.011.406.041a.609.609,0,0,0,.743-.116,1.134,1.134,0,0,1,.8-.284A2.059,2.059,0,0,0,147.417,0c.514.247,1.219-.025,1.6.606.082.136.271.206.4.32a.44.44,0,0,1,.133.216A7.078,7.078,0,0,1,149.7,2c.025.28.006.563.006.908" transform="translate(-68.75)" fill="#40bcd0"></path><path id="Path_87" data-name="Path 87" d="M32.523,161.528c.2,0,.41.008.614,0,.155-.008.193.048.243.2a.638.638,0,0,0,.348.38c.411.115.461.448.56.766.091.291.333.572.019.883a.294.294,0,0,0-.011.288c.236.237.144.525.138.788s.125.559-.135.793c-.025.022.145.208.134.308-.04.342.138.7-.105,1.031a.42.42,0,0,0-.035.289,1.136,1.136,0,0,1-.511,1.174,1.411,1.411,0,0,0-.271.271.549.549,0,0,1-.527.223,1.8,1.8,0,0,0-.865.128c-.176.075-.283.064-.3.3-.036.492.162,1.009-.135,1.476a.991.991,0,0,1,.063.893c-.055.23.146.515.2.782a.412.412,0,0,1-.1.31c-.228.236-.288.508-.059.727a.734.734,0,0,1,.2.616,3.536,3.536,0,0,1-.264,1.735c-.163.315-.036.71-.17,1.079-.112.308-.378.558-.361.939.006.121-.369.139-.45.4a1.051,1.051,0,0,1-.387.44,4.79,4.79,0,0,1-.559.315,1.929,1.929,0,0,1-.494.285,1.11,1.11,0,0,1-.659-.038.722.722,0,0,0-.692,0,.837.837,0,0,1-.9-.14,1.394,1.394,0,0,0-.819-.445c-.187-.005-.369-.322-.548-.5a4.181,4.181,0,0,1-.933-1.995c-.024-.187-.178-.389-.136-.548.157-.576.272-1.162.448-1.733a.162.162,0,0,1,.028-.065c.34-.359.835-.585.967-1.123.47-.093.818-.541,1.343-.464.257.037.282-.1.284-.308,0-.239-.108-.512.143-.709a.157.157,0,0,0,0-.147c-.316-.473-.016-.941-.006-1.411a1.624,1.624,0,0,0-.137-1.093.373.373,0,0,1,0-.3,3.173,3.173,0,0,0,.012-1.952,6.494,6.494,0,0,1-.02-1.224,6.193,6.193,0,0,1,.311-2.024.585.585,0,0,1,.067-.2c.2-.251.415-.5.623-.727a.985.985,0,0,1,.908-.376c.362.072.7-.206,1.088-.156a1.8,1.8,0,0,0,1.019-.121,2.176,2.176,0,0,1,.836-.02" transform="translate(-12.094 -79.385)" fill="#40bcd0"></path><path id="Path_88" data-name="Path 88" d="M18.09,146.83c-.059.541-.127,1.082-.172,1.625-.013.164-.073.357.1.494.031.024.057.107.04.131-.274.39-.1.831-.148,1.246-.006.051.021.124,0,.151a9.626,9.626,0,0,0-.742,1.073,1.568,1.568,0,0,1-.734.425.954.954,0,0,1-.505-.055c-.314-.08-.454,0-.474.306-.01.153,0,.308,0,.461,0,1.282.006,2.563,0,3.844,0,.265.085.547-.14.791a.389.389,0,0,0,0,.369c.227.323.122.678.143,1.019a1.387,1.387,0,0,1-.4,1.294c-.031.457-.432.734-.562,1.153-.053.174-.168.458-.514.382-.1-.022-.274.11-.359.216-.591.731-1.376.579-2.14.474a7.507,7.507,0,0,1-.889-.262c-.459-.124-.759-.508-1.17-.7-.159-.075-.323-.1-.277-.341a.24.24,0,0,0-.094-.185c-.548-.39-.519-1.071-.8-1.6a.732.732,0,0,1,.034-.648,1.906,1.906,0,0,0,.254-1.133.784.784,0,0,1,.459-.761.477.477,0,0,0,.235-.167,2.518,2.518,0,0,1,1.009-.875,1.365,1.365,0,0,1,.54-.193c.437-.062.528-.179.515-.608-.007-.24.069-.485-.13-.721-.07-.082.117-.35.127-.535.022-.435,0-.871.011-1.307.005-.192-.059-.385.112-.574a.319.319,0,0,0-.1-.462.373.373,0,0,1-.077-.582c.04-.058.016-.173,0-.258-.021-.116-.128-.271-.084-.338.273-.425.082-.888.144-1.326.035-.24-.113-.511.124-.719a.143.143,0,0,0,.025-.137c-.309-.423-.089-.832-.012-1.262a1.631,1.631,0,0,1,.331-.791,1.934,1.934,0,0,0,.148-.321c.039-.073.1-.2.148-.194.636.05,1.1-.518,1.732-.47.246-.317.608-.256.944-.33s.677-.1,1.016-.14a1.808,1.808,0,0,1,1.223.4,2.287,2.287,0,0,1,1.112,2.146" transform="translate(-4.025 -70.921)" fill="#40bcd0"></path></g></svg> 