<?xml version="1.0" encoding="UTF-8"?> <svg xmlns="http://www.w3.org/2000/svg" id="a" viewBox="0 0 251.64 222.45"><path d="M36.43,211.66v5.95h-1.07v-.99l-.85.87c-.22.1-.63.29-1.29.29-1.6,0-2.86-1.09-2.86-2.75s1.27-2.86,2.92-2.86c.99,0,1.73.46,2.07.92v-1.26c0-1.27-.73-1.96-1.82-1.96-.9,0-1.6.48-1.75,1.36h-1.09c.1-1.43,1.41-2.33,2.86-2.33s2.87.8,2.87,2.75ZM35.44,214.98c0-1.05-.88-1.89-2.01-1.89s-1.97.8-1.97,1.87.85,1.89,1.97,1.89,2.01-.83,2.01-1.87Z" fill="#383838" stroke-width="0"></path><path d="M45.45,205.84h3.14c.54,0,1.09-.02,1.63.07,2.83.5,4.7,3.16,4.44,5.94-.14,1.86-.97,2.9-2.31,4.18-1.2,1.2-2.26,1.89-3.91,1.96h-3v-12.15ZM49.61,216.86c1.04-.05,2.03-.42,2.86-1.04.71-.97,1.09-2.12,1.11-3.3.02-1.18-.35-2.34-1.03-3.3-.99-1.41-2.64-2.29-4.36-2.29h-1.44v9.94c2.43,0,2.59,0,2.85-.02" fill="#383838" stroke-width="0"></path><path d="M56.35,213.49c-.49-2.76,1.41-5.66,3.71-7.05.99-.63,2.19-.92,3.37-.83,2.38.21,4.36,1.91,4.96,4.25.95,3.58-2.74,8.33-6.53,8.33-2.79,0-5.05-2.05-5.52-4.7M66.29,215.98v-.02c.68-.88,1.08-1.98,1.15-3.09.14-2.33-1.06-4.48-3-5.5-1.91-1.01-4.13-.82-5.88.47-1.04,1.41-1.41,3.16-1.01,4.84.61,2.57,2.81,4.39,5.43,4.39,1.2,0,2.34-.38,3.31-1.09" fill="#383838" stroke-width="0"></path><polygon points="87.63 205.84 89.13 205.84 95.14 214.9 95.14 205.84 95.84 205.84 95.84 217.99 95.08 217.99 88.33 207.58 88.33 217.99 87.63 217.99 87.63 205.84" fill="#383838" stroke-width="0"></polygon><polygon points="101.5 206.74 97.74 206.74 97.74 205.84 106.97 205.84 106.97 206.74 103.21 206.74 103.21 217.99 101.5 217.99 101.5 206.74" fill="#383838" stroke-width="0"></polygon><path d="M107.29,213.49c-.49-2.76,1.41-5.66,3.71-7.05.99-.63,2.19-.92,3.37-.83,2.38.21,4.36,1.91,4.96,4.25.96,3.58-2.74,8.33-6.53,8.33-2.79,0-5.05-2.05-5.52-4.7M117.23,215.98v-.02c.68-.88,1.08-1.98,1.15-3.09.14-2.33-1.06-4.48-3-5.5-1.91-1.01-4.13-.82-5.88.47-1.04,1.41-1.41,3.16-1.01,4.84.61,2.57,2.81,4.39,5.43,4.39,1.2,0,2.34-.38,3.32-1.09" fill="#383838" stroke-width="0"></path><polygon points="69.67 205.82 71.38 205.82 74.34 217.42 77.26 205.82 78.78 205.82 81.63 217.42 85.08 205.82 85.81 205.82 82.17 217.97 80.18 217.97 77.51 207.72 74.88 217.97 72.89 217.97 69.67 205.82" fill="#383838" stroke-width="0"></polygon><polygon points="138.68 205.84 140.18 205.84 146.18 214.9 146.18 205.84 146.88 205.84 146.88 217.99 146.12 217.99 139.37 207.58 139.37 217.99 138.68 217.99 138.68 205.84" fill="#383838" stroke-width="0"></polygon><polygon points="120.72 205.82 122.43 205.82 125.38 217.42 128.31 205.82 129.82 205.82 132.68 217.42 136.12 205.82 136.86 205.82 133.22 217.97 131.23 217.97 128.55 207.72 125.92 217.97 123.94 217.97 120.72 205.82" fill="#383838" stroke-width="0"></polygon><path d="M153.44,213.67c0-1.29.63-2.36,1.58-3.35l1-.99c.31-.2.92-.42,1.7-.42,1.43,0,2.57.68,3.16,1.44l-.78.75c-.49-.6-1.34-1.16-2.45-1.16-1.75,0-3.14,1.53-3.14,3.47s1.38,3.28,3.16,3.28c1.43,0,2.24-.8,2.62-1.21l.73.75c-.76.9-1.9,1.55-3.37,1.55-2.41,0-4.22-1.77-4.22-4.11Z" fill="#383838" stroke-width="0"></path><path d="M162.5,213.48c0-1.1.41-2.18,1.38-3.13l1.09-1.09c.29-.17.87-.36,1.67-.36,2.4,0,4.4,1.87,4.4,4.3,0,1.07-.37,2.14-1.38,3.13l-1.1,1.09c-.36.17-.94.36-1.67.36-2.4,0-4.39-1.89-4.39-4.3ZM169.99,213.57c0-1.99-1.61-3.69-3.52-3.69-1.56,0-2.94,1.31-2.94,3.23s1.6,3.71,3.48,3.71c1.58,0,2.97-1.34,2.97-3.25Z" fill="#383838" stroke-width="0"></path><path d="M185.21,211.95v5.66h-1.05v-5.32c0-1.17-.66-2.41-2.12-2.41s-2.11,1.21-2.11,2.41v5.32h-1.02v-5.32c0-1.17-.66-2.41-2.12-2.41s-2.11,1.21-2.11,2.41v5.32h-1.05v-8.53h1.05v1.22l1.1-1.1c.15-.08.54-.29,1.26-.29,1.27,0,2.19.7,2.58,1.65l1.38-1.36c.22-.14.66-.29,1.31-.29,1.84,0,2.91,1.43,2.91,3.04Z" fill="#383838" stroke-width="0"></path><path d="M196.6,213.23c0,1.05-.36,2.14-1.39,3.2l-1,1.02c-.31.17-.85.34-1.53.34-1.41,0-2.62-.66-3.3-1.67v4.47h-1.05v-11.51h1.05v1.6l1.43-1.46c.32-.19.9-.31,1.53-.31,2.38,0,4.27,1.87,4.27,4.32ZM195.56,213.58c-.03-2.46-1.82-3.71-3.38-3.71-1.68,0-2.92,1.36-2.91,3.26.05,2.45,1.84,3.67,3.42,3.67s2.91-1.34,2.87-3.23Z" fill="#383838" stroke-width="0"></path><path d="M204.59,211.66v5.95h-1.07v-.99l-.85.87c-.22.1-.63.29-1.29.29-1.6,0-2.86-1.09-2.86-2.75s1.27-2.86,2.92-2.86c.99,0,1.73.46,2.07.92v-1.26c0-1.27-.73-1.96-1.82-1.96-.9,0-1.6.48-1.75,1.36h-1.09c.1-1.43,1.41-2.33,2.86-2.33s2.87.8,2.87,2.75ZM203.6,214.98c0-1.05-.88-1.89-2.01-1.89s-1.97.8-1.97,1.87.85,1.89,1.97,1.89,2.01-.83,2.01-1.87Z" fill="#383838" stroke-width="0"></path><path d="M214.48,212.38v5.24h-1.05v-4.91c0-1.73-.83-2.82-2.31-2.82-1.39,0-2.36,1.09-2.36,2.82v4.91h-1.05v-8.53h1.05v1.36l1.24-1.26c.24-.1.68-.27,1.36-.27,1.97,0,3.13,1.36,3.13,3.47Z" fill="#383838" stroke-width="0"></path><path d="M224.31,209.08l-3.3,8.55c-.25.65-.46,1.07-.88,1.51l-1.1,1.14h-1.95v-1.04h1.44c.65,0,.95-.27,1.21-.95l.6-1.6h-.8l-3.28-7.62h1.19l3.06,7.16,2.65-7.16h1.17Z" fill="#383838" stroke-width="0"></path><path d="M170.8,166.98c.89.03,1.63-.67,1.66-1.56,0-.02,0-.03,0-.05v-70.09c0,.12-.08-32.18-.09-37.08,0-.42,0-.84-.05-1.26-3.35-45.97-40.92-52.75-51.82-53.75h-.25c-1.49,0-2.7,1.2-2.71,2.69h.02c-.04,16.37-.07,97.98-.08,105.51,0,.38,0,.75.05,1.11,4.46,49.64,44.52,54.09,53.28,54.48Z" fill="#40bcd0" stroke-width="0"></path><path d="M54.15,57.95h-.14.02C23.92,59.56.82,85.26,2.43,115.36c1.49,27.86,23.74,50.11,51.6,51.6,1.53.07,2.82-1.11,2.89-2.63,0-.03,0-.06,0-.1V60.68c-.02-1.51-1.25-2.73-2.76-2.73Z" fill="#40bcd0" stroke-width="0"></path><path d="M230.62,110.83c-.84-28.39-23.32-51.39-51.69-52.89h-.15c-1.53,0-2.76,1.24-2.76,2.76v-.04s0,104.72,0,104.72c0,.89.72,1.62,1.61,1.62.02,0,.03,0,.05,0,30.13-.89,53.83-26.05,52.94-56.18Z" fill="#40bcd0" stroke-width="0"></path><path d="M111.43,57.95h-.13c-30.1,1.6-53.2,27.31-51.6,57.41,1.49,27.86,23.74,50.11,51.6,51.6,1.53.07,2.82-1.1,2.89-2.63,0-.03,0-.07,0-.1V60.68c-.02-1.51-1.25-2.73-2.76-2.73Z" fill="#40bcd0" stroke-width="0"></path><path d="M224.54,155.21c0,6.52,5.29,11.8,11.81,11.79,6.52,0,11.8-5.29,11.79-11.81,0-6.51-5.28-11.79-11.79-11.79h-.01c-6.52,0-11.8,5.29-11.79,11.81Z" fill="#40bcd0" stroke-width="0"></path></svg> 